<svg width="407" height="679" viewBox="0 0 407 679" fill="none" xmlns="http://www.w3.org/2000/svg">
<g id="walkright1">
<g id="Group">
<path id="id5" d="M401.927 257.459C400.235 257.697 398.976 257.794 399.172 255.233C399.927 245.338 398.151 235.484 398.403 225.589C398.431 224.441 398.375 223.279 398.515 222.145C398.976 218.24 396.626 214.741 392.654 214.279C387.13 213.622 381.689 212.488 376.081 212.334C370.976 212.194 365.913 210.948 360.808 210.486C355.325 209.983 349.885 208.107 344.276 209.815C343.213 210.137 341.997 209.913 340.85 209.913C335.941 209.941 333.297 211.872 331.619 216.533C330.738 218.982 330.01 221.446 330.262 224.091C330.444 225.995 329.773 227.744 329.353 229.564C328.528 233.133 327.507 236.702 328.402 240.467C328.724 241.839 328.808 243.378 327.773 244.596C326.863 245.66 326.696 246.961 326.584 248.221C326.08 254.015 323.507 259.544 324.22 265.493C324.961 271.735 322.947 277.669 322.248 283.744C321.493 290.406 320.416 297.013 319.8 303.703C319.255 309.665 319.101 315.67 318.43 321.646C317.954 325.873 317.045 330.142 317.325 334.453C317.451 336.357 316.835 338.12 316.5 339.954C315.465 345.58 315.535 351.347 314.654 356.973C313.479 364.406 314.108 371.866 313.842 379.298C313.731 382.293 312.835 385.19 312.947 388.256C313.031 390.313 313.395 392.3 314.01 394.148C315.115 397.437 318.192 398.165 321.185 398.795C326.416 399.901 331.731 399.747 337.017 399.621C339.311 399.565 341.143 400.614 343.185 401.216C349.213 403.008 355.437 402.14 361.577 402.168C363.172 402.168 364.626 401.258 365.647 399.985C366.892 398.431 368.29 396.891 369.13 395.114C371.857 389.305 374.346 383.371 375.801 377.1C376.346 374.763 376.235 372.37 377.326 370.046C379.032 366.393 381.801 364.769 385.563 364.336C386.612 361.284 387.102 358.121 387.451 354.93C386.668 354.552 385.675 354.09 385.689 353.208C385.731 349.303 384.64 345.636 383.773 341.899C383.521 340.822 383.843 339.646 384.095 338.512C384.808 335.321 385.731 332.13 385.465 328.799C385.284 326.573 385.619 324.586 387.396 322.934C388.319 322.08 388.878 320.765 388.85 319.435C388.724 313.472 390.906 307.65 389.801 301.617C389.368 299.308 390.263 297.055 390.948 294.913C392.92 288.825 394.864 282.75 395.787 276.396C395.997 274.926 396.291 273.457 397.466 272.351C398.682 273.331 398.514 274.464 398.291 275.318C396.934 280.413 397.689 285.577 397.507 290.714C397.466 291.96 397.144 293.331 398.249 294.367C399.829 282.106 401.48 269.859 401.899 257.487L401.927 257.459ZM373.284 287.313C373.745 294.983 372.193 302.541 369.493 309.847C367.885 314.228 365.395 318.049 361.339 320.611C357.815 322.836 353.801 322.402 350.752 319.561C348.71 317.657 347.101 315.432 346.416 312.759C344.836 306.544 343.325 300.246 343.605 293.821C343.927 286.249 345.059 278.719 347.773 271.567C349.255 267.662 351.004 263.897 354.416 261.196C358.15 258.242 362.64 258.452 366.081 261.755C367.759 263.365 368.878 265.353 369.885 267.424C372.878 273.666 373.661 280.287 373.297 287.299L373.284 287.313ZM381.829 355.7C381.703 361.69 380.402 363.09 375.997 362.222C368.137 360.668 360.542 351.151 360.724 343.103C360.752 341.619 361.283 340.584 362.808 340.332C364.332 340.08 365.703 340.332 366.262 342.039C366.752 343.523 367.13 345.062 367.675 346.532C370.486 354.104 373.563 356.148 381.815 355.714L381.829 355.7Z" fill="#3C3C3C"/>
<g id="id2">
<g id="Vector">
<path d="M270.024 84.8541C272.276 84.4482 274.08 85.638 276.108 86.2818C281.674 88.0593 287.367 89.585 293.087 90.7747C300.961 92.4122 308.5 95.0716 316.08 97.6329C321.493 99.4665 326.78 101.622 331.773 104.505C337.325 107.71 342.01 111.755 345.703 117.004C349.004 121.693 352.542 126.186 353.885 131.966C355.437 138.685 354.36 144.955 350.276 150.316C347.983 153.325 344.416 155.284 340.975 157.09C336.416 159.497 331.647 161.415 327.115 163.906C319.633 168.007 314.192 173.774 309.311 180.702C303.563 188.904 300.416 197.974 298.024 207.393C296.514 213.314 295.954 219.472 294.933 225.519C293.926 231.565 292.779 237.597 291.912 243.658C291.381 247.325 290.919 251.006 290.541 254.701C289.786 262.077 289.926 269.537 288.346 276.844C287.66 280.035 287.562 283.352 287.185 286.613C286.052 296.677 285.87 306.824 283.954 316.803C283.367 319.855 283.269 323.046 282.947 326.167C282.374 331.85 281.674 337.49 280.625 343.117C279.66 348.295 279.45 353.614 278.485 358.793C277.381 364.727 277.576 370.76 277.143 376.722C276.779 381.705 277.562 386.954 278.989 391.936C279.898 395.1 280.695 398.291 281.604 401.44C283.674 408.676 288.709 413.687 294.36 418.208C295.367 419.006 296.653 419.286 297.968 419.509C299.381 419.747 300.807 420.209 300.975 422.057C311.325 422.463 321.577 421.581 331.787 419.901C337.423 418.978 343.185 418.726 348.472 416.262C347.913 415.199 346.906 415.241 345.899 415.101C343.381 414.751 340.5 414.933 338.458 413.729C335.549 412.007 332.682 411.531 329.521 411.615C329.017 411.615 328.346 411.587 328.262 410.37C329.549 409.67 331.101 409.992 332.57 409.964C335.143 409.936 337.633 409.642 339.815 408.13C338.402 407.137 336.766 407.459 335.227 407.431C329.017 407.333 323.017 406.003 317.059 404.463C314.989 403.931 312.989 403.078 311.241 401.776C308.36 399.649 306.472 397.003 306.024 393.28C304.57 381.229 305.437 369.29 307.185 357.323C308.891 345.72 310.164 334.047 311.255 322.36C312.122 313.094 313.395 303.885 314.29 294.619C314.724 290.21 315.689 285.857 315.605 281.392C314.29 280.273 314.779 278.747 314.765 277.375C314.723 270.951 315.213 264.485 314.584 258.13C314.066 252.868 313.954 247.633 313.926 242.384C313.926 241.628 313.703 240.537 315.283 240.663C315.898 243.574 315.465 246.569 315.591 249.522C315.717 252.518 315.703 252.518 318.947 252.98C319.017 252.42 319.087 251.846 319.157 251.286C318.052 250.488 318.136 249.928 319.479 249.592C320.807 241.111 321.968 232.587 323.507 224.133C324.374 219.402 325.87 214.811 328.276 210.542C329.703 208.023 331.731 206.511 334.458 205.56C341.031 203.278 347.759 203.502 354.458 204.202C361.437 204.93 368.36 206.133 375.311 207.057C378.864 207.519 382.444 207.505 386.011 207.967C389.857 208.457 393.731 208.681 397.396 210.024C399.298 210.724 399.997 210.122 400.193 208.205C401.494 194.88 401.424 181.57 400.459 168.231C399.745 158.448 398.403 148.776 394.92 139.622C390.878 128.985 385.675 118.768 376.584 111.573C372.668 108.466 368.123 105.863 363.577 103.483C353.633 98.2767 343.241 94.3717 332.388 91.4745C325.059 89.529 317.675 87.7934 310.36 85.8059C310.584 87.7514 309.493 88.1293 307.8 88.2273C303.451 88.4932 299.311 87.2475 295.031 86.7717C297.003 86.4637 298.975 86.4218 300.947 86.4637C302.472 86.4917 303.772 86.1978 304.486 84.6582C301.339 83.2026 297.884 82.9366 294.555 82.5727C288.583 81.9009 282.863 80.1373 276.975 79.2276C276.835 79.1996 276.709 79.1296 276.569 79.1016C269.898 77.576 269.618 77.8279 269.996 84.7702L270.024 84.8541ZM301.185 357.071C302.262 358.555 301.842 359.871 301.856 361.102C301.912 366.981 301.982 372.859 301.828 378.724C301.758 381.061 303.045 383.329 302.514 385.47C301.702 388.759 302.038 392.006 301.842 395.282C301.8 396.079 302.318 397.087 301.185 397.689V357.071Z" fill="#747CD6"/>
<path d="M111.575 430.833C111.071 432.904 112.12 433.45 113.897 433.086C116.736 432.512 119.519 432.358 122.4 433.058C124.96 433.688 127.407 434.444 129.351 436.235C130.96 437.719 132.442 437.565 134.442 437.033C143.17 434.682 152.093 433.324 161.142 433.324C166.904 433.324 171.352 438.279 170.792 443.681C170.401 447.446 168.205 449.868 164.834 451.463C160.47 453.535 155.715 453.815 151.1 454.725C146.61 455.606 142.093 456.432 137.589 457.23C136.246 457.468 135.239 457.958 134.498 459.231C131.743 463.99 128.023 467.965 124.05 471.716C122.96 472.752 121.743 473.634 122.33 475.691C125.519 486.902 124.274 498.058 122.078 509.297C120.526 517.275 118.162 525.211 119.029 533.525C119.225 535.372 119.029 537.318 120.764 538.619C121.309 538.717 121.939 538.675 122.386 538.941C132.023 544.778 142.694 547.395 153.687 549.019C154.582 548.935 155.268 548.431 155.883 547.815C160.946 542.79 166.946 542.608 173.282 544.61C175.575 545.338 177.729 546.527 180.233 546.415C185.645 545.394 190.68 543.574 195.114 540.131C199.436 536.772 203.897 533.525 206.611 528.668C209.338 523.797 212.443 519.108 214.275 513.762C215.226 510.99 217.282 509.339 220.135 508.569C221.422 508.219 222.681 508.219 223.967 508.205C228.555 508.135 229.324 507.337 229.492 502.62C229.562 500.759 229.45 498.911 229.87 497.05C230.667 493.551 230.569 493.565 227.324 491.913C226.541 491.521 225.786 491.241 224.905 491.115C219.184 490.304 215.828 487.098 214.233 481.444C210.737 468.987 205.072 457.902 195.058 449.07C187.534 442.422 179.506 436.879 170.289 433.114C162.037 429.741 153.533 427.403 144.414 428.061C139.981 428.383 135.519 428.215 131.058 428.131C126.582 428.033 122.232 428.677 117.897 429.741C115.827 430.245 113.757 430.959 111.561 430.819L111.575 430.833Z" fill="#747CD6"/>
<path d="M339.843 408.172C337.647 409.684 335.171 409.978 332.598 410.006C331.143 410.02 329.591 409.712 328.29 410.412C328.374 411.629 329.046 411.671 329.549 411.657C332.724 411.587 335.591 412.049 338.486 413.771C340.528 414.975 343.409 414.807 345.927 415.143C346.934 415.283 347.941 415.241 348.5 416.304C352.011 415.926 354.263 413.323 356.948 411.49C357.088 410.132 355.451 409.922 355.214 408.802C350.109 408.186 344.976 408.298 339.843 408.172Z" fill="#747CD6"/>
<path d="M318.989 253.036C315.731 252.574 315.759 252.574 315.633 249.579C315.507 246.625 315.94 243.63 315.325 240.719C313.745 240.593 313.954 241.684 313.968 242.44C313.996 247.703 314.108 252.924 314.626 258.186C315.255 264.541 314.752 271.007 314.807 277.431C314.807 278.803 314.346 280.329 315.647 281.448C316.905 275.01 317.437 268.46 318.024 261.937C318.29 258.956 318.919 256.031 319.003 253.036H318.989Z" fill="#747CD6"/>
<path d="M373.283 287.313C373.661 280.301 372.864 273.694 369.871 267.438C368.878 265.352 367.759 263.379 366.067 261.769C362.626 258.466 358.136 258.256 354.402 261.21C350.99 263.911 349.241 267.676 347.759 271.581C345.045 278.747 343.913 286.263 343.591 293.835C343.311 300.26 344.808 306.572 346.402 312.772C347.087 315.446 348.696 317.685 350.738 319.575C353.787 322.416 357.801 322.836 361.325 320.624C365.381 318.063 367.871 314.242 369.479 309.861C372.165 302.541 373.717 294.997 373.269 287.327L373.283 287.313Z" fill="#747CD6"/>
<path d="M381.829 355.7C373.577 356.133 370.5 354.09 367.689 346.518C367.144 345.048 366.766 343.523 366.276 342.025C365.703 340.317 364.346 340.066 362.822 340.318C361.283 340.569 360.766 341.605 360.738 343.089C360.57 351.151 368.151 360.654 376.011 362.208C380.402 363.076 381.703 361.69 381.843 355.686L381.829 355.7Z" fill="#747CD6"/>
</g>
</g>
<g id="id1">
<g id="Vector_2">
<path d="M26.371 392.678C26.8885 392.972 27.392 393.266 27.9095 393.574C28.8886 393.588 29.8816 393.644 30.8606 393.616C32.6089 393.56 32.9865 394.624 32.9585 396.065L33.1264 396.149C33.3781 396.205 33.5739 396.331 33.7278 396.541C41.9656 400.572 50.8608 402.532 59.6721 404.771C73.2666 408.214 87.1688 409.922 101.043 411.727C102.288 411.616 103.547 411.448 104.61 412.371C123.365 414.807 142.176 416.598 160.988 418.474C168.68 419.244 176.414 419.761 184.135 420.279C213.897 422.267 243.702 422.841 273.506 422.967C282.681 423.009 291.856 422.827 301.003 422.127C300.849 420.293 299.423 419.817 297.996 419.58C296.681 419.37 295.395 419.09 294.388 418.278C288.751 413.757 283.702 408.76 281.632 401.51C280.723 398.347 279.926 395.156 279.017 392.007C277.59 387.024 276.807 381.775 277.171 376.792C277.604 370.83 277.408 364.811 278.513 358.863C279.478 353.684 279.674 348.366 280.653 343.187C281.702 337.56 282.401 331.92 282.975 326.237C283.297 323.116 283.394 319.925 283.982 316.874C285.898 306.88 286.066 296.733 287.213 286.683C287.576 283.422 287.674 280.105 288.374 276.914C289.954 269.607 289.814 262.147 290.569 254.771C290.947 251.076 291.409 247.395 291.94 243.728C292.807 237.668 293.954 231.635 294.961 225.589C295.968 219.542 296.541 213.384 298.052 207.463C300.444 198.044 303.576 188.96 309.339 180.772C314.206 173.83 319.661 168.063 327.143 163.976C331.675 161.485 336.458 159.567 341.003 157.16C344.444 155.354 348.01 153.395 350.304 150.386C354.388 145.025 355.479 138.741 353.913 132.036C352.57 126.242 349.031 121.763 345.731 117.074C342.038 111.825 337.353 107.766 331.801 104.575C326.807 101.692 321.521 99.5365 316.108 97.703C308.528 95.1416 300.989 92.4823 293.115 90.8447C287.381 89.655 281.702 88.1294 276.136 86.3518C274.108 85.708 272.289 84.5183 270.052 84.9242C270.569 89.795 268.303 93.1401 264.247 95.5195C251.632 102.91 239.492 111.098 226.163 117.298C219.296 120.489 212.555 120.601 205.464 119.453C193.394 117.494 181.729 114.037 170.316 109.754C158.093 105.177 148.204 97.1571 139.435 87.6535C138.47 86.6178 137.785 85.3161 137.015 84.0984C135.029 80.9912 134.246 77.8 136.484 74.4408C137.043 73.6011 137.379 72.6493 137.113 71.6276C136.036 70.7738 134.862 71.1797 133.785 71.2077C121.882 71.5016 110.05 72.4533 98.2319 74.1609C89.015 75.4906 79.7002 76.1484 70.5393 77.94C62.6511 79.4796 54.8748 81.4111 47.2664 84.0284C36.0774 87.8774 29.0144 95.3235 24.9584 106.633C20.7906 118.264 18.5528 130.259 16.0073 142.212C14.7206 148.216 14.6087 154.473 14.0073 160.617C12.1052 180.338 10.1891 200.059 8.37089 219.78C7.86738 225.211 7.62962 230.669 7.36388 236.114C6.42681 255.765 4.79042 275.388 5.5177 295.095C6.17505 312.899 7.16806 330.674 9.83941 348.296C11.0842 356.511 12.8604 364.671 14.8604 372.747C15.5597 375.575 16.4828 378.43 17.4898 381.215C19.0703 385.54 22.2452 388.647 25.2102 391.923C25.6158 392.202 26.0074 392.482 26.413 392.748L26.371 392.678ZM87.9101 260.44C87.8542 243.602 89.2388 226.918 92.1898 210.304C94.9032 194.964 98.6375 180.03 105.812 166.09C106.694 164.382 107.687 162.926 109.127 161.695C122.512 150.218 138.484 145.347 155.617 143.429C166.932 142.17 177.883 144.409 188.652 147.376C196.778 149.616 204.638 152.667 211.52 157.832C221.366 165.222 229.478 173.9 233.072 186.021C237.17 199.863 238.821 214.14 239.702 228.472C240.499 241.391 239.786 254.323 237.939 267.172C236.415 277.823 235.436 288.545 232.89 299.056C231.198 306.054 228.373 312.689 226.611 319.617C225.268 324.907 222.457 329.218 219.408 333.431C214.205 340.611 206.541 344.321 198.401 346.966C191.729 349.135 184.904 350.787 177.939 351.851C166.652 353.572 155.337 353.992 144.078 352.033C133.939 350.255 124.722 346.07 116.134 340.29C109.938 336.133 104.917 331.024 100.721 324.935C95.7563 317.727 93.1829 309.539 91.4626 301.155C88.7213 287.761 87.8122 274.128 87.9101 260.44Z" fill="#8089F1"/>
<path d="M87.2249 629.19C98.8893 625.565 110.274 621.199 120.973 615.264C125.365 612.829 129.421 609.777 131.995 605.299C133.505 602.667 133.016 601.827 129.967 601.296C127.813 600.918 125.687 601.24 123.561 601.701C120.904 602.289 118.218 602.793 115.547 603.283C110.372 604.235 106.12 602.443 103.029 598.384C99.9942 594.409 96.8334 590.378 96.0362 585.2C95.7564 583.352 94.7075 583.254 93.2809 583.52C76.1479 586.739 59.4624 591.218 44.1895 600.022C41.9797 601.296 40.9727 602.905 40.4692 605.369C39.6301 609.442 40.0077 613.417 40.9028 617.308C43.0427 626.685 45.9098 635.867 49.6022 644.755C49.9798 645.664 50.5392 646.504 51.2245 647.778C52.749 645.622 53.9938 643.621 55.4763 641.815C60.4134 635.797 66.1757 631.01 74.1758 629.736C78.4556 628.141 82.8612 629.218 87.2109 629.19H87.2249Z" fill="#8089F1"/>
<path d="M237.506 672.846C242.499 666.071 248.01 660.081 254.108 654.608C256.849 652.159 256.835 652.005 254.933 648.87C251.702 643.509 250.695 637.448 249.436 631.5C248.611 627.581 250.247 623.886 251.352 620.219C251.842 618.553 251.94 617.308 250.989 615.796C243.842 604.431 235.506 594.045 225.478 585.074C223.534 583.338 221.296 582.008 218.876 581.085C216.737 580.273 215.771 580.847 214.862 582.988C214.387 584.108 214.429 585.228 214.583 586.375C214.918 588.937 215.072 591.554 215.702 594.045C218.219 604.081 212.177 610.883 205.254 615.138C205.016 615.292 204.722 615.362 204.471 615.488C199.408 618.035 199.548 617.979 201.715 623.018C207.156 635.713 215.869 646.28 223.688 657.435C225.995 660.725 228.555 663.846 231.212 666.855C233.1 668.982 235.338 670.802 237.506 672.831V672.846Z" fill="#8089F1"/>
<path d="M118.624 437.411C113.435 437.845 108.889 439.203 104.288 440.224C92.3717 442.884 80.917 446.817 70.4134 453.171C67.1127 455.173 63.9938 457.468 61.1546 460.127C58.8888 462.255 58.3853 464.48 59.5742 467.447C63.8399 478.029 71.0568 486.175 80.0499 492.921C81.994 494.377 83.966 495.818 86.036 497.092C89.5465 499.233 90.9451 499.093 93.9102 496.07C97.3228 492.599 100.596 488.988 103.826 485.335C106.596 482.214 109.575 479.33 112.582 476.461C118.708 470.611 124.4 464.382 129.323 457.454C132.582 452.863 132.078 448.286 129.631 443.709C127.211 439.189 123.001 437.691 118.61 437.411H118.624Z" fill="#8089F1"/>
<path d="M275.996 460.757C267.856 460.757 262.122 460.799 256.373 460.743C253.604 460.715 252.849 460.617 253.338 464.004C254.695 473.396 254.667 482.857 253.744 492.319C253.394 495.93 253.478 495.902 256.667 497.568C263.548 501.165 270.709 504.062 278.15 506.26C279.66 506.707 281.199 507.155 282.737 507.323C287.213 507.799 287.94 506.875 287.031 502.522C285.772 496.504 286.597 490.514 287.646 484.579C288.933 477.385 290.499 470.247 294.639 463.962C295.926 462.017 295.157 461.023 292.499 460.799C286.192 460.295 279.884 460.575 275.982 460.729L275.996 460.757Z" fill="#8089F1"/>
<path d="M85.1269 661.942C88.1899 662.236 92.1479 660.711 96.2459 660.011C97.3368 659.829 98.12 659.227 98.4137 658.163C100.833 649.457 100.582 639.45 90.106 635.713C80.6653 632.34 70.3995 633.305 62.2596 641.661C59.742 644.237 57.5742 647.092 56.0777 650.409C54.2035 654.58 54.8889 656.176 59.4204 657.561C62.1617 658.401 64.9309 659.171 67.7421 659.689C73.0988 660.697 78.4555 661.718 85.1129 661.914L85.1269 661.942Z" fill="#8089F1"/>
<path d="M260.471 647.904C270.122 638.442 280.415 630.45 291.506 623.508C294.486 621.646 294.667 620.583 292.038 618.007C285.464 611.583 277.506 610.449 268.905 612.381C266.835 612.843 264.779 613.71 262.947 614.802C257.576 617.979 254.094 622.332 254.387 629.078C254.597 633.851 255.24 638.47 257.087 642.879C257.856 644.699 258.681 646.532 260.471 647.904Z" fill="#8089F1"/>
<path d="M320.863 456.404C317.814 456.81 315.045 457.958 312.444 459.525C311.213 460.267 310.066 461.135 308.919 461.989C305.185 464.746 305.171 465.012 308.681 468.301C309.409 468.987 310.178 469.645 311.003 470.219C315.171 473.116 316.178 472.85 318.178 468.315C318.933 466.608 319.451 465.026 322.038 465.194C325.241 465.404 326.668 464.06 326.863 461.667C327.073 459.204 325.772 457.524 322.989 456.754C322.304 456.558 321.577 456.516 320.863 456.404Z" fill="#8089F1"/>
<path d="M337.073 499.849C339.563 499.807 342.374 499.276 344.919 497.918C347.856 496.35 348.206 494.237 346.136 491.633C345.045 490.262 343.577 489.31 341.968 488.736C340.108 488.064 338.164 487.56 336.22 487.169C332.612 486.441 332.612 486.511 331.786 490.122C331.339 492.053 330.877 494.013 330.164 495.874C329.395 497.904 330.206 498.716 332.038 499.262C333.577 499.709 335.115 499.779 337.073 499.863V499.849Z" fill="#8089F1"/>
<path d="M49.0427 515.203C46.5112 519.948 43.6021 523.825 43.9658 528.92C44.1336 531.229 43.9798 533.833 46.6231 534.756C49.2246 535.652 50.8749 533.749 52.3295 531.887C54.5673 529.004 55.7141 525.589 56.9869 522.244C57.6722 520.452 56.833 519.57 55.2106 519.094C52.9868 518.437 50.9588 517.415 49.0427 515.217V515.203Z" fill="#8089F1"/>
<path d="M31.7279 518.507C32.0496 520.13 31.3783 522.3 33.4762 522.957C35.3783 523.559 37.1685 522.594 38.4272 521.082C40.5252 518.535 42.3853 515.833 43.7 512.768C44.2595 511.48 44.0357 510.641 43.2245 509.675C42.2175 508.471 41.2664 507.211 40.3433 505.938C39.6021 504.916 38.7769 504.65 37.9098 505.672C34.7489 509.409 31.7419 513.244 31.7419 518.521L31.7279 518.507Z" fill="#8089F1"/>
<path d="M332.961 481.304C336.556 480.828 339.521 479.834 342.5 478.854C343.591 478.505 344.626 478.001 345.465 477.189C347.661 475.047 347.311 471.926 344.43 470.946C340.43 469.589 336.22 470.177 332.108 470.555C330.766 470.681 330.948 472.08 331.325 472.99C332.374 475.523 332.78 478.183 332.948 481.29L332.961 481.304Z" fill="#8089F1"/>
<path d="M34.0215 489.632C30.6928 492.767 27.5459 495.93 26.6228 500.661C26.3571 502.005 26.413 503.208 26.9445 504.412C27.5039 505.644 28.483 506.134 29.7277 505.42C31.5879 504.356 33.3642 503.18 34.8747 501.613C36.2173 500.241 36.6789 498.758 35.8817 496.952C34.8747 494.699 34.5809 492.305 34.0215 489.632Z" fill="#8089F1"/>
<path d="M321.912 509.857C325.549 511.452 328.892 511.886 332.332 511.732C334.416 511.648 336.192 510.781 337.619 509.283C339.115 507.701 338.99 505.84 337.031 505.196C334.22 504.272 331.241 503.838 328.332 503.264C327.773 503.152 327.339 503.558 326.933 504.048C325.409 505.896 323.801 507.687 321.912 509.871V509.857Z" fill="#8089F1"/>
<path d="M82.0499 515.119C81.98 514.112 82.1758 513.258 81.5324 512.838C80.6373 512.25 79.896 512.922 79.2667 513.482C77.5603 515.035 75.6722 516.337 73.6162 517.331C72.0638 518.087 71.5463 519.15 71.9659 520.774C72.1477 521.46 72.2876 522.174 72.3995 522.873C73.0708 526.806 74.4414 527.38 77.6583 525.085C81.2247 522.551 81.4625 518.604 82.0359 515.105L82.0499 515.119Z" fill="#8089F1"/>
</g>
</g>
<g id="id4">
<g id="Vector_3">
<path d="M35.476 403.092C40.7069 405.961 46.5391 406.955 52.2034 408.396C69.0288 412.693 86.0779 415.912 103.365 417.676C104.763 417.816 106.232 417.76 107.77 418.726C106.61 423.471 105.169 428.271 105.295 433.31C105.323 434.584 104.707 435.074 103.533 435.256C101.98 435.507 100.428 435.843 98.8892 436.179C87.8542 438.629 77.8541 443.639 67.9379 448.832C64.3574 450.708 61.1826 453.185 58.3294 456.054C56.9028 457.482 55.2664 458.98 55.1965 461.065C55.0986 463.794 53.3923 464.942 51.4901 466.342C46.3992 470.121 41.7698 474.432 37.8677 479.456C35.9935 481.864 33.7418 483.767 31.2662 485.531C26.469 488.96 23.0004 493.453 21.5459 499.289C20.4829 503.586 21.378 507.281 25.2941 509.801C26.9585 510.878 27.5878 512.068 26.9305 514.084C26.2591 516.127 25.9375 518.283 26.1753 520.466C26.8606 526.708 31.3641 529.76 37.3502 528.066C37.7558 527.954 38.1893 527.968 38.6509 527.912C39.1124 529.914 39.0145 531.957 39.7558 533.861C42.3013 540.355 48.7209 542.077 53.9657 537.43C58.3993 533.497 60.707 528.206 62.5951 522.733C63.1686 521.082 63.756 519.766 66.2036 520.326C66.5952 521.95 66.9868 523.853 67.5322 525.715C69.1406 531.159 73.6022 533.021 78.6372 530.362C81.6862 528.752 83.6583 526.205 85.0149 523.055C87.2247 517.877 87.4486 512.446 87.0989 506.973C86.959 504.776 87.3786 503.908 89.7563 503.936C93.5185 503.978 96.05 501.571 98.4416 498.967C103.868 493.033 109.337 487.14 114.819 481.248C115.379 480.646 115.826 479.834 117.043 479.694C117.98 480.562 117.91 481.878 118.022 483.095C118.708 490.724 118.33 498.31 117.001 505.854C116.805 506.973 116.722 508.121 116.596 509.255C116.833 509.605 117.323 510.011 117.267 510.277C116.19 514.476 117.127 518.856 116.358 522.999C115.435 527.996 115.882 532.951 115.687 537.906C115.603 540.215 116.288 542.412 117.127 544.526C118.54 548.095 119.463 551.762 120.05 555.541L120.12 555.723C120.819 556.143 121.407 556.661 121.617 557.501C121.799 559.81 119.84 560.748 118.47 561.714C112.022 566.22 106.26 571.525 100.26 576.55C99.3368 577.334 98.4976 577.935 97.2389 577.893C93.1689 577.753 89.2667 578.845 85.3646 579.741C70.9309 583.044 56.707 586.921 43.7978 594.521C42.4411 595.319 41.1125 596.187 39.8537 597.111C37.0425 599.182 35.546 601.939 35.1543 605.466C34.497 611.569 35.3921 617.531 36.8327 623.396C38.9866 632.186 41.6439 640.822 46.2733 648.716C47.2803 650.437 48.2035 652.271 48.8608 654.146C50.3573 658.457 53.4063 661.018 57.5741 662.404C63.4483 664.35 69.5323 665.315 75.6302 666.281C81.3646 667.191 87.0989 667.639 92.7353 666.239C103.281 663.636 103.896 661.648 104.777 652.803C105.533 645.188 103.561 638.554 97.2808 633.655C96.7353 633.222 96.05 632.872 95.8122 631.85C97.043 630.73 98.8053 630.618 100.33 630.086C109.547 626.839 118.54 623.13 126.722 617.685C129.589 615.768 132.442 613.766 134.638 611.093C136.652 608.644 138.484 605.984 138.12 602.569C137.952 600.918 138.764 599.896 139.757 598.818C144.708 593.416 149.365 587.761 153.533 581.715C154.47 580.357 155.505 579.783 157.086 579.979C158.079 580.105 159.086 580.147 160.093 580.189C162.694 580.301 164.414 581.365 165.897 583.758C171.659 593.08 179.198 601.03 186.345 609.274C186.526 609.484 186.722 609.707 186.918 609.917C191.673 614.41 194.862 619.757 197.492 625.817C202.303 636.903 209.226 646.84 216.205 656.693C220.359 662.558 224.737 668.227 229.562 673.573C234.387 678.92 239.688 680.348 246.513 677.59C254.877 674.217 262.08 669.066 269.213 663.832C279.241 656.47 287.576 647.372 294.947 637.364C297.003 634.565 298.458 631.416 299.674 628.211C301.199 624.18 300.709 620.359 297.926 616.874C293.087 610.799 286.653 607.72 279.129 606.642C271.101 605.495 263.702 606.838 257.394 612.339C256.975 612.703 256.429 612.913 255.856 613.249C253.338 609.651 250.975 606.096 248.429 602.667C242.877 595.137 236.988 587.901 229.562 582.078C225.8 579.125 221.897 576.424 217.016 575.822C214.289 575.486 213.618 572.995 211.841 571.735C212.107 570.041 213.604 569.804 214.597 569.16C225.408 562.203 234.359 553.484 240.639 542.161C244.695 534.84 247.884 527.226 249.45 518.94C250.485 513.454 251.758 507.995 252.975 502.327C254.569 502.215 255.842 503.166 257.24 503.726C263.087 506.078 268.919 508.471 274.807 510.724C276.387 511.326 278.052 511.928 279.814 511.858C282.415 511.858 285.031 511.844 287.646 511.83C290.122 510.892 292.471 511.032 295.115 511.634C301.269 513.048 307.549 513.832 313.912 513.328C315.688 513.188 317.255 513.734 318.905 514.28C324.696 516.183 330.598 517.219 336.626 515.273C341.675 513.65 343.871 510.78 343.899 505.518C343.899 504.314 344.108 503.642 345.213 503.208C346.136 502.844 347.073 502.425 347.913 501.879C353.451 498.324 353.885 491.717 348.962 487.308C347.563 486.063 345.871 485.321 343.968 484.299C344.864 483.053 346.192 482.886 347.199 482.256C350.948 479.89 352.752 475.957 351.885 471.982C351.129 468.511 348.08 465.838 343.801 465.264C339.661 464.704 335.521 465.082 331.591 466.076C330.556 465.446 331.087 464.704 331.213 464.102C332.849 456.586 328.248 451.114 320.514 451.449C315.772 451.659 311.605 453.521 307.8 456.222C305.94 457.552 304.234 459.106 302.192 460.771C298.22 455.117 291.996 455.242 286.108 455.159C277.786 455.047 269.478 456.012 261.143 455.662C258.849 455.564 256.555 455.48 254.261 455.41C252.765 455.354 252.01 454.725 251.702 453.143C250.093 444.829 248.01 436.655 244.345 428.957C245.352 427.935 246.359 428.285 247.282 428.313C263.073 428.775 278.863 428.523 294.653 428.145C304.989 427.893 315.325 427.572 325.605 426.452C334.724 425.458 343.829 424.184 352.486 420.881C356.444 419.37 359.745 416.892 362.78 413.981C370.556 406.549 375.437 397.325 379.046 387.402C381.773 379.886 384.36 372.285 385.591 364.322C381.829 364.755 379.046 366.393 377.353 370.032C376.262 372.355 376.374 374.763 375.829 377.086C374.374 383.357 371.885 389.291 369.158 395.1C368.318 396.877 366.92 398.417 365.675 399.97C364.654 401.244 363.213 402.168 361.605 402.154C355.465 402.126 349.255 402.994 343.213 401.202C341.171 400.6 339.325 399.551 337.045 399.607C331.759 399.733 326.444 399.886 321.213 398.781C318.22 398.151 315.143 397.423 314.038 394.134C313.423 392.286 313.045 390.299 312.975 388.241C312.863 385.19 313.758 382.279 313.87 379.284C314.136 371.838 313.507 364.391 314.681 356.959C315.577 351.333 315.493 345.566 316.528 339.94C316.863 338.12 317.479 336.357 317.353 334.439C317.059 330.128 317.982 325.859 318.458 321.632C319.129 315.656 319.269 309.665 319.828 303.689C320.444 296.999 321.521 290.392 322.276 283.73C322.961 277.641 324.975 271.721 324.248 265.479C323.549 259.516 326.122 254.001 326.612 248.207C326.724 246.947 326.891 245.646 327.8 244.582C328.835 243.364 328.752 241.825 328.43 240.453C327.535 236.688 328.556 233.119 329.381 229.55C329.801 227.73 330.472 225.981 330.29 224.077C330.024 221.432 330.752 218.982 331.647 216.519C333.325 211.858 335.968 209.941 340.878 209.899C342.024 209.899 343.255 210.123 344.304 209.801C349.913 208.093 355.339 209.969 360.836 210.472C365.941 210.934 371.004 212.18 376.109 212.32C381.717 212.474 387.158 213.608 392.682 214.265C396.654 214.727 399.004 218.226 398.542 222.131C398.403 223.265 398.459 224.427 398.431 225.575C398.179 235.47 399.969 245.324 399.2 255.219C399.004 257.78 383.899 364.545 385.591 364.322C386.654 360.836 402.738 250.334 403.074 246.779C403.913 237.766 404.64 228.752 404.403 219.696C404.333 217.107 404.71 214.559 405.088 211.984C407.354 196.714 407.508 181.402 406.067 166.034C405.34 158.294 403.983 150.722 401.969 143.219C398.151 129.013 391.368 116.612 379.899 107.151C374.808 102.952 369.144 99.5365 363.088 96.8492C359.395 95.2116 359.325 95.1836 359.871 91.1246C360.71 84.8542 361.157 78.5698 361.507 72.2574C361.549 71.5436 361.437 70.8298 361.409 70.1159C361.157 69.78 360.682 69.4581 360.682 69.1082C360.598 64.9512 360.556 60.7943 360.612 56.6374C360.612 56.2175 361.227 56.3154 361.563 56.6374C361.479 48.7294 360.808 40.8913 358.822 33.2073C358.542 32.1016 358.206 30.9958 357.759 29.9461C355.689 25.0753 353.367 23.8437 348.094 23.9416C325.157 24.4035 305.143 32.8994 286.961 46.294C280.597 50.9828 275.129 56.7073 269.492 63.3836C269.115 59.4087 268.765 56.1055 268.485 52.8163C267.408 40.4994 264.765 28.4485 262.15 16.3975C261.212 12.0446 259.548 7.91568 257.562 3.91269C256.289 1.35134 254.429 0.161641 251.464 0.0636661C239.716 -0.356228 228.219 1.30936 217.114 4.80847C199.939 10.2111 183.813 17.9371 169.939 29.6382C164.722 34.0331 159.799 38.7219 155.435 44.1525C150.33 50.4929 145.127 56.6793 141.351 63.9155C140.582 65.3851 139.533 65.931 137.925 65.833C136.358 65.7351 134.764 65.833 133.197 65.833C124.442 65.7351 115.715 66.1549 107.043 67.5266C104.624 68.8982 101.98 68.4084 99.3927 68.4084C85.98 69.5561 72.6372 71.0257 59.6021 74.7488C55.7979 75.8405 51.9378 76.7923 48.1195 77.87C42.8188 79.3676 37.9376 81.803 33.4061 84.8402C28.1613 88.3533 24.5249 93.1541 22.343 99.2006C21.6158 101.23 20.2451 103.134 19.336 105.177C15.5318 113.785 14.0073 122.981 12.3289 132.148C9.67158 146.565 7.96527 161.079 6.91631 175.691C6.04917 187.714 4.45476 199.681 3.39181 211.69C2.11907 226.148 1.47569 240.635 0.832329 255.121C0.24491 268.474 -0.230598 281.812 0.119055 295.179C0.53864 311.555 1.36382 327.931 3.69951 344.139C5.224 354.776 6.66458 365.483 9.78349 375.827C11.0283 379.942 12.4129 384.015 15.0003 387.542C16.2171 388.409 17.4199 389.291 17.4479 391.013C19.294 392.151 21.4805 392.454 24.0074 391.923C24.399 391.839 24.8326 391.867 25.2382 391.839C22.2731 388.563 19.0843 385.456 17.5178 381.131C16.4969 378.346 15.5737 375.491 14.8884 372.663C12.8884 364.587 11.1122 356.427 9.8674 348.212C7.19605 330.59 6.20303 312.815 5.54568 295.011C4.8184 275.318 6.46874 255.681 7.39183 236.03C7.64358 230.585 7.89534 225.127 8.39884 219.696C10.217 199.975 12.1331 180.254 14.0353 160.533C14.6227 154.389 14.7486 148.132 16.0353 142.128C18.5808 130.175 20.8186 118.166 24.9864 106.549C29.0424 95.2536 36.1054 87.7935 47.2943 83.9444C54.9028 81.3271 62.6791 79.3956 70.5673 77.856C79.7282 76.0644 89.043 75.4066 98.2598 74.0769C110.078 72.3834 121.91 71.4176 133.813 71.1237C134.904 71.0957 136.078 70.6898 137.141 71.5436C137.407 72.5653 137.071 73.5171 136.512 74.3569C134.274 77.716 135.043 80.8932 137.043 84.0144C137.813 85.2181 138.498 86.5198 139.463 87.5695C148.218 97.0731 158.121 105.093 170.344 109.67C181.757 113.939 193.436 117.41 205.492 119.369C212.583 120.517 219.324 120.405 226.191 117.214C239.534 111.014 251.66 102.826 264.275 95.4355C268.331 93.0561 270.597 89.725 270.08 84.8402C269.688 77.884 269.982 77.646 276.653 79.1717C276.793 79.1996 276.919 79.2836 277.059 79.2976C282.961 80.2074 288.681 81.9849 294.639 82.6428C297.968 83.0207 301.423 83.2726 304.569 84.7282C306.611 84.7003 308.388 86.0439 310.458 85.862C317.772 87.8355 325.157 89.571 332.486 91.5305C343.353 94.4278 353.731 98.3328 363.675 103.539C368.22 105.919 372.766 108.522 376.682 111.629C385.773 118.824 390.976 129.041 395.018 139.678C398.5 148.846 399.843 158.518 400.556 168.287C401.521 181.626 401.605 194.936 400.291 208.261C400.109 210.179 399.396 210.78 397.493 210.081C393.829 208.737 389.955 208.527 386.109 208.023C382.542 207.561 378.962 207.575 375.409 207.113C368.458 206.204 361.535 204.986 354.556 204.258C347.843 203.558 341.115 203.334 334.556 205.616C331.828 206.567 329.801 208.065 328.374 210.598C325.968 214.853 324.472 219.458 323.605 224.189C322.066 232.643 320.891 241.153 319.577 249.649C319.73 250.264 319.703 250.838 319.255 251.342C319.185 251.902 319.115 252.476 319.045 253.036C318.961 256.031 318.332 258.956 318.066 261.937C317.493 268.46 316.947 274.996 315.688 281.448C315.772 285.913 314.793 290.266 314.374 294.675C313.479 303.927 312.206 313.15 311.339 322.416C310.248 334.103 308.975 345.776 307.269 357.379C305.507 369.346 304.639 381.271 306.108 393.336C306.556 397.059 308.444 399.691 311.325 401.832C313.073 403.134 315.073 403.987 317.143 404.519C323.101 406.059 329.101 407.389 335.311 407.487C336.85 407.515 338.486 407.193 339.898 408.186C345.031 408.298 350.164 408.186 355.269 408.816C355.661 408.704 356.067 408.494 356.458 408.522C357.647 408.578 359.479 407.934 359.787 409.236C360.192 410.93 358.234 411.07 357.004 411.518C354.318 413.351 352.066 415.954 348.556 416.332C343.269 418.782 337.507 419.048 331.87 419.971C321.661 421.651 311.409 422.519 301.059 422.127C291.912 422.827 282.737 423.009 273.562 422.967C243.744 422.855 213.939 422.267 184.191 420.279C176.47 419.761 168.75 419.244 161.044 418.474C142.232 416.598 123.407 414.821 104.666 412.371C103.407 412.539 102.148 412.735 101.099 411.728C87.2247 409.922 73.3225 408.228 59.728 404.771C50.9167 402.532 42.0216 400.586 33.7837 396.541C33.4061 396.681 33.2382 396.499 33.1823 396.149L33.0145 396.065C31.2662 396.177 30.1473 394.61 28.5249 394.4C27.7277 397.381 30.9166 398.809 31.2243 401.356L31.3082 401.384C32.9445 401.398 34.4411 401.72 35.518 403.12L35.476 403.092ZM352.85 51.2767C352.528 50.3669 352.122 49.4712 351.927 48.5194C351.675 47.3577 351.353 46.322 349.996 46.14C348.668 45.9441 348.01 46.8118 347.395 47.8196C346.682 48.9953 346.416 50.4789 345.031 51.1647C344.864 52.2984 344.654 53.3902 344.108 54.4399C339.577 63.2297 336.206 72.4813 333.269 81.901C333.017 82.7127 332.724 83.5245 332.388 84.3083C332.01 85.2041 331.353 85.694 330.36 85.3861C329.213 85.0362 328.779 84.2804 329.171 83.0767C329.535 81.9989 329.842 80.8932 330.178 79.8015C332.108 73.5451 334.794 67.5826 337.647 61.7321C338.891 59.1707 338.57 56.0215 340.766 53.8661C344.57 46.308 347.353 38.204 352.15 30.7439C354.248 35.1388 354.626 39.2677 355.213 43.3267C355.591 45.9721 356.682 48.5894 355.815 51.3327C356.528 64.2374 355.381 77.1142 355.101 89.9909C355.073 91.1386 355.479 92.9022 353.465 92.7622C351.675 92.6363 351.801 91.1246 351.885 89.809C351.913 89.3751 351.927 88.9412 351.997 88.5213C353.395 80.7253 353.619 72.8593 353.493 64.9792C353.423 60.4024 353.073 55.8256 352.85 51.2487V51.2767ZM245.842 671.334C245.716 671.446 245.59 671.572 245.464 671.684C245.576 671.558 245.688 671.432 245.814 671.292C246.807 668.367 248.779 666.099 250.961 664.07C257.352 658.121 264.191 652.621 270.164 646.308C276.527 639.576 284.401 634.859 291.339 628.939C291.786 628.547 292.36 628.267 292.821 628.813C293.045 629.092 293.185 629.68 293.045 629.988C292.318 631.542 291.688 633.194 290.667 634.537C285.576 641.227 280.583 647.918 273.912 653.348C267.828 658.303 261.982 663.524 255.128 667.373C252.233 668.996 249.632 671.67 245.842 671.334ZM240.681 103.008C239.548 104.379 237.842 104.953 236.373 105.765C231.995 108.214 227.506 110.468 222.988 112.665C220.597 113.827 219.841 113.267 219.995 110.636C220.079 109.068 220.667 107.528 220.695 105.975C220.862 96.0094 223.548 86.4778 225.758 76.8762C229.142 62.2079 233.716 47.8896 239.086 33.8371C242.261 25.5372 245.548 17.2933 250.163 9.65124C250.723 8.71348 250.933 7.27185 252.415 7.39781C253.94 7.53778 253.87 9.07739 254.163 10.0571C256.303 16.9854 258.527 23.8996 259.744 31.0938C260.653 36.4405 261.87 41.7451 262.233 47.1757C262.569 52.1725 262.513 57.2392 263.282 62.166C263.884 66.029 263.52 69.934 264.275 73.713C265.171 78.1499 264.695 82.5728 264.793 87.0097C264.821 88.0594 264.625 89.3051 263.59 89.571C261.324 90.1729 259.814 92.2164 257.464 92.5803C252.219 96.6252 246.499 99.8864 240.667 102.98L240.681 103.008ZM300.947 77.856C295.534 76.9882 290.108 76.1064 284.695 75.2387C282.178 74.7488 279.674 74.1609 277.143 73.797C274.555 73.4191 271.8 74.3709 269.227 72.9012C288.583 46.8258 314.304 32.4935 346.486 28.9943C346.346 31.7517 344.416 33.3053 343.437 35.2928C337.689 46.9798 332.29 58.8208 327.591 70.9837C326.71 73.2512 325.675 75.4626 325.199 77.87C324.094 83.5106 324.066 83.6085 318.793 82.2229C312.863 80.6693 306.709 80.0114 300.933 77.856H300.947ZM74.1897 629.736C66.1756 631.01 60.4133 635.797 55.4902 641.815C54.0077 643.621 52.7769 645.608 51.2384 647.778C50.5531 646.504 49.9936 645.678 49.616 644.755C45.9237 635.853 43.0565 626.685 40.9166 617.307C40.0355 613.416 39.6439 609.428 40.4831 605.369C40.9866 602.891 41.9936 601.296 44.2034 600.022C59.4623 591.218 76.1617 586.739 93.2948 583.52C94.7213 583.254 95.7703 583.352 96.05 585.2C96.8472 590.378 100.008 594.409 103.043 598.384C106.134 602.443 110.386 604.235 115.561 603.283C118.246 602.793 120.917 602.289 123.575 601.701C125.701 601.24 127.813 600.918 129.98 601.296C133.015 601.827 133.519 602.667 132.008 605.299C129.421 609.791 125.379 612.829 120.987 615.264C110.288 621.199 98.9032 625.565 87.2387 629.19C86.7073 629.736 86.0499 629.932 85.3087 629.918C81.6023 629.862 77.91 629.792 74.2037 629.736H74.1897ZM120.764 538.633C119.029 537.332 119.211 535.386 119.029 533.539C118.162 525.225 120.526 517.289 122.078 509.311C124.274 498.072 125.505 486.903 122.33 475.705C121.743 473.648 122.959 472.766 124.05 471.73C128.036 467.979 131.757 464.018 134.498 459.245C135.239 457.972 136.246 457.482 137.589 457.244C142.092 456.446 146.61 455.62 151.099 454.739C155.715 453.829 160.47 453.549 164.834 451.477C168.205 449.868 170.4 447.446 170.792 443.695C171.351 438.293 166.904 433.338 161.142 433.338C152.093 433.338 143.169 434.696 134.442 437.047C132.442 437.579 130.959 437.733 129.351 436.249C127.407 434.458 124.959 433.702 122.4 433.072C119.519 432.372 116.736 432.526 113.896 433.1C112.106 433.464 111.057 432.918 111.575 430.847C110.861 427.935 111.645 425.164 112.344 422.379C112.666 421.091 113.491 420.349 114.777 420.363C119.505 420.419 124.358 419.915 128.931 420.811C134.428 421.903 139.981 422.295 145.491 422.757C155.729 423.61 165.953 424.842 176.205 425.346C186.484 425.836 196.75 426.746 207.016 427.124C216.023 427.46 225.016 428.551 234.037 428.159C234.317 428.159 234.611 428.187 234.905 428.159C236.681 428.061 238.023 428.873 238.737 430.413C240.303 433.772 242.191 436.963 243.366 440.546C244.933 445.347 245.786 450.274 246.317 455.215C247.017 461.597 248.331 467.895 248.541 474.362C248.863 484.131 248.051 493.803 246.611 503.432C245.94 507.953 245.408 512.502 244.485 516.967C242.695 525.603 239.072 533.609 234.849 541.251C229.478 550.978 221.044 557.977 212.121 564.275C208.121 567.088 205.953 566.556 202.149 563.295C201.058 562.357 200.135 561.21 198.96 560.412C192.932 556.311 187.561 551.314 181.128 547.787C180.708 547.549 180.526 546.877 180.233 546.401C177.729 546.513 175.575 545.31 173.282 544.596C166.946 542.608 160.946 542.776 155.883 547.801C155.267 548.417 154.596 548.907 153.687 549.005C151.645 556.689 152.162 563.897 157.337 570.377C158.232 571.497 159.211 572.813 158.904 574.688C157.869 574.688 157.002 574.814 156.176 574.674C148.162 573.261 140.666 570.223 134.442 565.199C126.162 558.508 121.239 549.579 120.764 538.619V538.633ZM245.422 5.57827C245.226 6.40406 245.212 6.83796 245.03 7.20186C240.317 16.3555 236.079 25.6912 232.821 35.4747C228.205 49.3312 222.904 62.9638 219.995 77.3381C219.128 81.635 218.443 85.9739 217.534 90.2429C216.275 96.1214 214.806 101.93 214.778 107.976C214.778 109.558 214.778 111.14 214.541 112.693C214.331 114.107 213.604 114.737 211.855 114.597C202.988 113.827 194.429 111.475 185.841 109.418C177.184 107.333 169.128 103.456 161.379 99.0746C153.925 94.8477 147.799 89.1091 142.596 82.2929C140.764 79.8995 140.834 77.688 141.967 75.1687C147.085 63.8315 153.715 53.5161 162.316 44.5164C166.778 39.8556 171.533 35.5727 176.694 31.6397C182.764 27.0208 188.96 22.612 195.799 19.3368C206.792 14.0601 218.205 9.8052 230.177 7.36981C235.03 6.37607 239.926 5.01841 245.422 5.59227V5.57827ZM237.506 672.845C235.338 670.816 233.1 668.996 231.212 666.869C228.555 663.86 225.995 660.739 223.688 657.449C215.869 646.294 207.156 635.727 201.715 623.032C199.547 617.979 199.408 618.049 204.471 615.502C204.722 615.376 205.016 615.292 205.254 615.152C212.177 610.897 218.219 604.095 215.702 594.059C215.072 591.568 214.918 588.951 214.583 586.389C214.429 585.242 214.387 584.122 214.862 583.002C215.771 580.861 216.75 580.287 218.876 581.099C221.31 582.022 223.534 583.338 225.478 585.088C235.506 594.059 243.828 604.445 250.989 615.81C251.94 617.321 251.842 618.567 251.352 620.233C250.261 623.9 248.611 627.595 249.436 631.514C250.695 637.462 251.702 643.523 254.933 648.884C256.835 652.019 256.835 652.173 254.107 654.622C248.01 660.081 242.499 666.085 237.506 672.859V672.845ZM118.624 437.411C123.015 437.691 127.239 439.189 129.645 443.709C132.092 448.286 132.596 452.863 129.337 457.454C124.414 464.382 118.722 470.597 112.596 476.461C109.589 479.33 106.61 482.228 103.84 485.335C100.61 488.974 97.3228 492.585 93.9241 496.07C90.9451 499.093 89.5465 499.233 86.0499 497.092C83.98 495.832 82.0079 494.391 80.0639 492.921C71.0708 486.175 63.8539 478.029 59.5881 467.447C58.3853 464.48 58.8888 462.255 61.1686 460.127C64.0078 457.454 67.1267 455.159 70.4274 453.171C80.931 446.817 92.3856 442.884 104.302 440.224C108.903 439.203 113.449 437.845 118.638 437.411H118.624ZM211.324 596.929C211.38 602.989 209.212 606.824 204.638 609.414C196.848 613.836 196.065 613.319 190.764 606.824C185.533 600.414 180.373 593.933 175.212 587.453C168.512 579.013 162.316 570.405 158.68 560.09C156.218 553.134 160.4 547.997 167.253 548.991C170.974 549.537 174.792 550.698 178.107 552.728C183.086 555.793 188.023 558.9 192.54 562.665C198.037 567.242 203.785 571.497 208.708 576.732C209.995 578.103 210.583 579.265 209.967 581.281C209.184 583.884 209.422 586.641 210.009 589.357C210.611 592.142 210.974 594.969 211.31 596.929H211.324ZM275.996 460.757C279.898 460.589 286.206 460.309 292.513 460.827C295.171 461.037 295.94 462.045 294.653 463.99C290.513 470.275 288.947 477.399 287.66 484.607C286.597 490.528 285.786 496.532 287.045 502.551C287.954 506.889 287.227 507.827 282.751 507.351C281.199 507.183 279.66 506.735 278.164 506.288C270.723 504.09 263.562 501.193 256.681 497.596C253.492 495.93 253.408 495.958 253.758 492.347C254.681 482.899 254.723 473.424 253.352 464.032C252.863 460.645 253.618 460.743 256.387 460.771C262.122 460.827 267.856 460.785 276.01 460.785L275.996 460.757ZM299.688 465.614C301.702 466.314 302.192 468.497 303.325 470.023C305.451 472.864 308.15 474.74 311.423 475.999C314.108 477.035 316.458 475.425 318.989 475.285C320.765 475.187 320.626 473.186 321.283 471.982C322.598 469.617 325.297 469.575 326.752 471.912C327.451 473.018 327.759 474.264 327.745 475.593C327.717 478.029 327.577 480.478 327.773 482.9C328.43 491.619 325.157 498.995 320.15 505.798C319.087 507.239 317.535 508.149 315.758 508.219C308.751 508.471 301.772 508.443 294.905 506.609C293.255 506.162 292.36 505.406 292.388 503.698C292.527 495.286 291.339 486.791 294.164 478.575C295.465 474.796 296.849 471.045 298.234 467.293C298.472 466.636 298.765 465.95 299.688 465.6V465.614ZM39.7138 490.094C38.6369 484.201 42.4551 480.912 46.4971 478.547C48.7489 477.231 51.3084 476.433 53.4063 474.586C55.3783 472.85 57.0007 473.55 58.2734 476.153C60.4273 480.548 63.1686 484.509 66.5393 488.106C70.3015 492.109 74.6233 495.328 79.1827 498.338C82.7632 500.703 83.0709 503.74 80.1898 506.54C76.4694 510.151 72.3435 513.146 67.1966 514.518C63.0287 515.637 58.8748 515.749 55.0846 513.678C45.7558 508.569 40.8187 500.493 39.7138 490.094ZM101.826 584.234C101.449 581.729 103.281 580.469 104.763 579.237C110.456 574.492 116.344 569.957 121.994 565.157C123.812 563.603 124.861 563.589 126.582 565.269C131.827 570.349 137.239 575.276 144.54 577.306C144.946 577.418 145.379 577.558 145.729 577.781C147.071 578.649 147.729 579.657 146.96 581.379C146.484 582.428 145.981 583.394 145.351 584.36C142.708 588.363 138.974 591.316 135.785 594.787C134.316 596.397 132.568 596.621 130.694 595.977C129.001 595.403 127.239 595.137 125.617 595.599C123.071 596.313 120.526 596.299 117.952 596.313C116.652 596.313 115.449 596.439 114.288 597.223C111.868 598.86 109.491 598.09 107.603 596.355C104.092 593.122 102.651 588.769 101.826 584.234ZM85.1268 661.942C78.4694 661.732 73.0987 660.725 67.756 659.717C64.9448 659.185 62.1616 658.429 59.4343 657.589C54.9028 656.19 54.2175 654.608 56.0916 650.437C57.5881 647.12 59.756 644.265 62.2735 641.689C70.4134 633.333 80.6653 632.368 90.1199 635.741C100.582 639.478 100.833 649.485 98.4276 658.191C98.1339 659.255 97.3507 659.843 96.2598 660.039C92.1758 660.739 88.2038 662.264 85.1408 661.97L85.1268 661.942ZM260.471 647.904C258.681 646.532 257.856 644.699 257.087 642.879C255.24 638.47 254.597 633.851 254.387 629.079C254.093 622.332 257.576 617.993 262.947 614.802C264.779 613.724 266.835 612.857 268.905 612.381C277.506 610.449 285.464 611.569 292.038 618.007C294.667 620.583 294.485 621.646 291.506 623.508C280.429 630.45 270.122 638.428 260.471 647.904ZM134.344 441.232C136.554 440.924 138.274 440.28 140.162 440.112C146.274 439.566 152.428 439.58 158.498 438.545C159.897 438.307 161.365 438.265 162.764 438.769C164.568 439.427 165.449 440.798 165.659 442.674C165.869 444.479 165.128 445.669 163.491 446.467C161.17 447.6 158.834 448.58 156.204 448.888C152.96 449.266 149.743 450.092 146.498 450.344C143.589 450.568 141.057 452.163 138.148 452.205C136.414 452.233 135.239 451.729 135.659 449.756C136.274 446.831 135.323 444.171 134.344 441.232ZM320.863 456.404C321.577 456.516 322.304 456.558 322.989 456.754C325.759 457.524 327.059 459.204 326.863 461.667C326.668 464.06 325.241 465.404 322.038 465.194C319.451 465.026 318.933 466.608 318.178 468.315C316.178 472.85 315.171 473.116 311.003 470.219C310.178 469.645 309.409 468.987 308.681 468.301C305.185 465.012 305.199 464.746 308.919 461.989C310.08 461.135 311.227 460.267 312.444 459.525C315.045 457.958 317.814 456.81 320.863 456.404ZM337.073 499.849C335.115 499.765 333.577 499.695 332.038 499.247C330.206 498.701 329.395 497.89 330.164 495.86C330.863 494.013 331.325 492.053 331.787 490.108C332.626 486.497 332.612 486.413 336.22 487.154C338.164 487.546 340.108 488.05 341.968 488.722C343.577 489.296 345.031 490.248 346.136 491.619C348.206 494.209 347.857 496.336 344.92 497.904C342.374 499.261 339.577 499.793 337.073 499.835V499.849ZM49.0426 515.203C50.9587 517.401 52.9867 518.423 55.2104 519.08C56.8328 519.556 57.672 520.438 56.9867 522.23C55.714 525.575 54.5671 528.99 52.3293 531.873C50.8747 533.735 49.2244 535.652 46.623 534.742C43.9796 533.833 44.1335 531.215 43.9656 528.906C43.602 523.797 46.5251 519.934 49.0426 515.189V515.203ZM31.7278 518.506C31.7278 513.23 34.7348 509.395 37.8956 505.658C38.7628 504.636 39.588 504.902 40.3292 505.924C41.2523 507.197 42.2034 508.457 43.2104 509.661C44.0216 510.626 44.2454 511.466 43.6859 512.754C42.3572 515.819 40.5111 518.52 38.4132 521.068C37.1544 522.593 35.3781 523.545 33.462 522.943C31.3641 522.286 32.0355 520.102 31.7138 518.492L31.7278 518.506ZM332.961 481.304C332.794 478.197 332.388 475.537 331.339 473.004C330.961 472.094 330.78 470.695 332.122 470.569C336.234 470.191 340.444 469.603 344.444 470.961C347.311 471.94 347.675 475.061 345.479 477.203C344.64 478.015 343.605 478.519 342.514 478.868C339.535 479.834 336.556 480.828 332.975 481.318L332.961 481.304ZM34.0215 489.632C34.5809 492.291 34.8747 494.699 35.8817 496.952C36.6929 498.758 36.2173 500.241 34.8747 501.613C33.3642 503.166 31.5739 504.342 29.7277 505.42C28.4829 506.134 27.5039 505.658 26.9445 504.412C26.399 503.222 26.3571 502.005 26.6228 500.661C27.5459 495.93 30.6928 492.767 34.0215 489.632ZM321.912 509.857C323.8 507.687 325.409 505.896 326.933 504.034C327.339 503.544 327.773 503.138 328.332 503.25C331.255 503.824 334.22 504.258 337.031 505.182C338.989 505.826 339.115 507.687 337.619 509.269C336.192 510.78 334.416 511.634 332.332 511.718C328.891 511.872 325.549 511.438 321.912 509.843V509.857ZM82.0499 515.119C81.4765 518.618 81.2247 522.565 77.6722 525.099C74.4414 527.394 73.0848 526.82 72.4134 522.887C72.2876 522.188 72.1617 521.474 71.9799 520.788C71.5603 519.164 72.0778 518.087 73.6302 517.345C75.6862 516.337 77.5743 515.049 79.2806 513.496C79.896 512.936 80.6513 512.25 81.5464 512.852C82.2038 513.286 82.0079 514.126 82.0639 515.133L82.0499 515.119Z" fill="#231A61"/>
<path d="M87.91 260.44C87.8121 274.128 88.7213 287.761 91.4625 301.155C93.1828 309.539 95.7563 317.727 100.721 324.935C104.917 331.024 109.938 336.133 116.134 340.29C124.722 346.07 133.938 350.255 144.078 352.033C155.323 354.006 166.638 353.572 177.939 351.851C184.904 350.787 191.729 349.135 198.401 346.966C206.541 344.321 214.191 340.611 219.408 333.431C222.457 329.218 225.268 324.907 226.611 319.617C228.373 312.689 231.198 306.054 232.89 299.056C235.436 288.559 236.415 277.823 237.939 267.172C239.772 254.337 240.499 241.405 239.702 228.472C238.821 214.139 237.17 199.863 233.072 186.021C229.492 173.9 221.38 165.208 211.52 157.832C204.638 152.667 196.778 149.616 188.652 147.376C177.883 144.409 166.932 142.17 155.617 143.429C138.498 145.333 122.526 150.218 109.127 161.695C107.672 162.94 106.693 164.382 105.812 166.09C98.6375 180.03 94.9031 194.964 92.1898 210.304C89.2387 226.918 87.8541 243.602 87.91 260.44ZM94.1479 260.314C93.6723 246.037 95.043 233.091 96.5255 220.13C97.7703 209.269 100.162 198.729 103.085 188.232C104.134 184.467 105.714 180.968 107.043 177.343C107.644 175.705 109.477 174.851 109.547 172.92C109.714 168.413 112.861 165.558 115.966 163.234C126.945 155.088 139.631 150.945 153.058 149.63C160.386 148.916 167.981 148.454 175.24 151.001C175.897 151.225 176.666 151.183 177.379 151.155C184.624 150.889 191.1 153.437 197.589 156.292C203.17 158.756 207.589 162.758 212.345 166.342C216.261 169.295 219.925 172.528 222.429 176.811C226.373 183.557 228.988 190.849 230.331 198.533C231.632 205.994 232.932 213.482 233.604 221.012C234.065 226.134 234.862 231.355 234.401 236.436C233.925 241.601 233.981 246.751 233.772 251.902C233.702 253.624 233.52 255.303 233.282 257.025C232.457 262.679 231.674 268.362 231.296 274.058C231.044 277.795 230.499 281.448 229.841 285.102C228.359 293.429 225.925 301.505 223.757 309.665C221.925 316.538 219.184 322.934 216.037 329.232C215.24 330.828 214.079 332.116 212.694 333.123C208.163 336.427 203.478 339.408 198.107 341.269C190.484 343.915 182.68 345.37 174.68 346.364C167.351 347.274 160.051 347.288 152.778 346.91C146.694 346.588 140.442 346.518 134.722 343.733C130.358 341.605 125.687 339.954 121.631 337.35C117.435 334.677 113.784 331.136 109.952 327.917C107.826 326.139 106.344 323.83 105.029 321.436C102.707 317.139 100.693 312.703 99.113 308.07C95.4066 297.236 95.0989 285.871 94.2178 274.632C93.8122 269.496 94.1479 264.289 94.1479 260.314Z" fill="#231A61"/>
<path d="M305.521 491.06C310.318 491.186 314.024 489.254 316.458 485.097C317.003 484.173 317.898 482.984 316.737 482.018C315.549 481.038 314.234 481.598 313.339 482.634C310.57 485.839 307.073 487.392 302.905 487.784C301.912 487.882 300.374 488.134 300.569 489.674C300.723 490.78 301.898 491.032 302.947 491.06C303.8 491.088 304.653 491.06 305.507 491.06H305.521Z" fill="#231A61"/>
<path d="M232.667 102.056C237.282 98.7528 242.583 96.6813 247.394 93.7C249.66 92.3004 251.884 90.7328 254.485 89.907C259.758 87.4296 260.835 83.2167 260.569 77.6601C260.192 69.7941 259.562 61.9421 259.45 54.0481C259.366 48.8414 257.66 43.6487 256.667 38.456C256.136 35.6427 255.576 32.8434 254.989 30.0441C254.877 29.4983 254.583 28.9664 254.331 28.4625C253.618 27.0629 253.115 25.1874 251.394 25.0054C249.674 24.8235 248.793 26.461 247.898 27.8047C246.066 30.576 244.443 33.4593 243.352 36.5805C237.814 52.2565 232.821 68.1145 229.8 84.4904C228.974 88.9552 228.303 93.5321 228.471 98.1509C228.625 102 228.541 102 232.667 102.042V102.056Z" fill="#231A61"/>
</g>
</g>
<g id="id3">
<g id="Vector_4">
<path d="M245.422 5.5783C239.926 5.00444 235.03 6.3761 230.177 7.35585C218.205 9.79124 206.792 14.0601 195.799 19.3228C188.96 22.612 182.764 27.0069 176.694 31.6257C171.519 35.5587 166.778 39.8416 162.316 44.5024C153.701 53.5022 147.072 63.8316 141.967 75.1547C140.82 77.6881 140.764 79.8855 142.596 82.2789C147.799 89.0812 153.925 94.8337 161.379 99.0607C169.128 103.442 177.184 107.319 185.841 109.404C194.429 111.476 202.988 113.813 211.855 114.583C213.604 114.737 214.331 114.093 214.541 112.679C214.765 111.126 214.764 109.53 214.778 107.962C214.806 101.902 216.275 96.1074 217.534 90.2289C218.443 85.96 219.128 81.6211 219.995 77.3242C222.904 62.9498 228.205 49.3172 232.821 35.4607C236.093 25.6632 240.317 16.3276 245.031 7.18789C245.212 6.83798 245.226 6.39009 245.422 5.5643V5.5783Z" fill="#3C36A9"/>
<path d="M111.575 430.833C113.77 430.959 115.84 430.259 117.91 429.755C122.246 428.691 126.596 428.061 131.071 428.145C135.519 428.229 139.994 428.397 144.428 428.075C153.547 427.417 162.051 429.755 170.302 433.128C179.519 436.893 187.547 442.436 195.072 449.084C205.086 457.93 210.75 469.001 214.247 481.458C215.827 487.112 219.184 490.318 224.918 491.129C225.785 491.255 226.555 491.521 227.338 491.927C230.583 493.579 230.681 493.565 229.883 497.064C229.45 498.925 229.562 500.773 229.506 502.634C229.352 507.351 228.569 508.149 223.981 508.219C222.695 508.233 221.436 508.233 220.149 508.583C217.296 509.353 215.24 510.99 214.289 513.776C212.457 519.122 209.352 523.811 206.624 528.682C203.911 533.539 199.45 536.786 195.128 540.145C190.694 543.588 185.659 545.408 180.247 546.429C180.54 546.905 180.722 547.577 181.142 547.815C187.575 551.342 192.946 556.353 198.974 560.44C200.149 561.238 201.072 562.385 202.163 563.323C205.967 566.584 208.135 567.116 212.135 564.303C221.058 558.018 229.492 551.02 234.862 541.279C239.086 533.637 242.709 525.631 244.499 516.995C245.422 512.53 245.94 507.981 246.625 503.46C248.065 493.817 248.877 484.159 248.555 474.39C248.345 467.937 247.03 461.625 246.331 455.242C245.786 450.302 244.946 445.375 243.38 440.574C242.205 436.977 240.317 433.8 238.751 430.441C238.037 428.901 236.695 428.089 234.918 428.187C234.639 428.201 234.345 428.159 234.051 428.187C225.016 428.579 216.037 427.487 207.03 427.152C196.75 426.76 186.498 425.864 176.219 425.374C165.967 424.884 155.743 423.652 145.505 422.785C139.994 422.323 134.456 421.917 128.945 420.839C124.372 419.943 119.519 420.447 114.791 420.391C113.505 420.377 112.694 421.105 112.358 422.407C111.659 425.192 110.875 427.963 111.589 430.875L111.575 430.833Z" fill="#3C36A9"/>
<path d="M300.947 77.856C306.737 79.9975 312.877 80.6553 318.807 82.2229C324.08 83.6086 324.094 83.4966 325.213 77.87C325.689 75.4626 326.724 73.2512 327.605 70.9838C332.29 58.8208 337.703 46.9938 343.451 35.2928C344.43 33.3053 346.346 31.7377 346.5 28.9944C314.318 32.4935 288.597 46.8259 269.24 72.9013C271.814 74.3709 274.569 73.4191 277.157 73.7971C279.688 74.161 282.192 74.7488 284.709 75.2387C284.779 73.6151 285.954 73.5731 287.143 73.5731C291.842 73.5731 296.541 73.5311 301.227 73.5871C303.157 73.6151 304.919 74.2869 307.031 75.1827C305.577 76.5264 304.262 76.1485 303.073 76.2044C301.926 76.2604 301.157 76.6383 300.961 77.842L300.947 77.856Z" fill="#3C36A9"/>
<path d="M211.324 596.929C210.988 594.969 210.624 592.128 210.023 589.357C209.436 586.641 209.198 583.884 209.981 581.281C210.582 579.265 210.009 578.104 208.722 576.732C203.799 571.497 198.037 567.242 192.554 562.665C188.037 558.9 183.1 555.779 178.121 552.728C174.806 550.698 170.988 549.537 167.267 548.991C160.414 547.997 156.246 553.12 158.694 560.09C162.33 570.391 168.526 579.013 175.225 587.453C180.372 593.934 185.533 600.414 190.778 606.824C196.079 613.319 196.862 613.837 204.652 609.414C209.226 606.824 211.38 602.975 211.338 596.929H211.324Z" fill="#3C36A9"/>
<path d="M299.688 465.614C298.765 465.964 298.472 466.636 298.234 467.307C296.863 471.059 295.479 474.81 294.164 478.589C291.339 486.805 292.528 495.3 292.388 503.712C292.36 505.406 293.255 506.176 294.905 506.624C301.772 508.457 308.751 508.485 315.759 508.233C317.535 508.163 319.087 507.253 320.15 505.812C325.157 499.009 328.43 491.633 327.773 482.914C327.591 480.492 327.717 478.043 327.745 475.607C327.759 474.278 327.451 473.032 326.752 471.926C325.297 469.589 322.598 469.631 321.283 471.996C320.626 473.186 320.752 475.201 318.989 475.299C316.458 475.439 314.122 477.049 311.423 476.013C308.15 474.754 305.451 472.878 303.325 470.037C302.178 468.511 301.702 466.328 299.688 465.628V465.614ZM305.521 491.059C304.668 491.059 303.814 491.087 302.961 491.059C301.912 491.031 300.737 490.78 300.584 489.674C300.374 488.134 301.912 487.868 302.919 487.784C307.087 487.392 310.584 485.839 313.353 482.634C314.248 481.598 315.563 481.038 316.752 482.018C317.912 482.983 317.003 484.173 316.472 485.097C314.038 489.254 310.318 491.185 305.535 491.059H305.521Z" fill="#3C36A9"/>
<path d="M39.714 490.094C40.8189 500.493 45.77 508.583 55.0847 513.678C58.875 515.749 63.0149 515.637 67.1967 514.518C72.3437 513.146 76.4696 510.151 80.1899 506.54C83.071 503.74 82.7494 500.703 79.1829 498.338C74.6234 495.328 70.3157 492.109 66.5394 488.106C63.1687 484.509 60.4274 480.548 58.2736 476.153C57.0008 473.55 55.3785 472.85 53.4064 474.586C51.3085 476.433 48.763 477.217 46.4973 478.547C42.4553 480.912 38.651 484.201 39.714 490.094Z" fill="#3C36A9"/>
<path d="M257.478 92.6083C259.814 92.2444 261.324 90.2009 263.604 89.599C264.639 89.3331 264.821 88.0874 264.807 87.0377C264.709 82.6008 265.171 78.1779 264.289 73.7411C263.534 69.962 263.898 66.057 263.296 62.194C262.541 57.2532 262.583 52.2005 262.247 47.2038C261.884 41.7731 260.667 36.4685 259.758 31.1218C258.541 23.9276 256.331 17.0134 254.177 10.0852C253.87 9.1054 253.94 7.56579 252.429 7.42582C250.947 7.29985 250.737 8.74149 250.177 9.67925C245.562 17.3213 242.275 25.5652 239.1 33.8651C233.73 47.9316 229.156 62.25 225.772 76.9043C223.562 86.4918 220.876 96.0234 220.709 106.003C220.681 107.556 220.093 109.096 220.009 110.664C219.869 113.295 220.625 113.855 223.002 112.693C227.52 110.496 232.009 108.242 236.387 105.793C237.856 104.967 239.548 104.407 240.695 103.036C238.163 101.524 235.352 102.392 232.681 102.098C228.555 102.056 228.639 102.056 228.485 98.2069C228.303 93.588 228.988 89.0112 229.814 84.5463C232.835 68.1705 237.828 52.3125 243.366 36.6364C244.471 33.5292 246.079 30.632 247.912 27.8607C248.807 26.517 249.674 24.8654 251.408 25.0614C253.114 25.2433 253.632 27.1188 254.345 28.5185C254.611 29.0224 254.891 29.5542 255.003 30.1001C255.59 32.8994 256.136 35.6987 256.681 38.512C257.674 43.7046 259.38 48.8833 259.464 54.104C259.59 61.998 260.219 69.85 260.583 77.716C260.849 83.2726 259.758 87.4856 254.499 89.963C255.562 90.7747 255.842 92.4823 257.492 92.6503L257.478 92.6083Z" fill="#3C36A9"/>
<path d="M101.826 584.234C102.652 588.769 104.092 593.108 107.603 596.355C109.491 598.09 111.868 598.86 114.288 597.223C115.449 596.439 116.652 596.313 117.952 596.313C120.526 596.299 123.071 596.313 125.617 595.599C127.239 595.137 129.002 595.403 130.694 595.977C132.568 596.621 134.316 596.397 135.785 594.787C138.974 591.316 142.708 588.349 145.351 584.36C145.995 583.394 146.498 582.428 146.96 581.379C147.729 579.671 147.072 578.649 145.729 577.782C145.379 577.558 144.946 577.418 144.54 577.306C137.225 575.262 131.827 570.335 126.582 565.269C124.862 563.603 123.813 563.617 121.994 565.157C116.344 569.958 110.47 574.492 104.764 579.237C103.281 580.469 101.435 581.729 101.826 584.234Z" fill="#3C36A9"/>
<path d="M153.687 549.033C142.694 547.409 132.022 544.792 122.386 538.955C121.938 538.689 121.309 538.731 120.764 538.633C121.239 549.593 126.148 558.536 134.442 565.213C140.666 570.237 148.176 573.289 156.177 574.688C157.002 574.828 157.869 574.702 158.904 574.702C159.212 572.841 158.233 571.511 157.337 570.391C152.163 563.911 151.645 556.703 153.687 549.019V549.033Z" fill="#3C36A9"/>
<path d="M245.842 671.334C249.632 671.67 252.219 668.996 255.129 667.373C261.982 663.524 267.828 658.303 273.912 653.348C280.583 647.918 285.576 641.228 290.667 634.537C291.688 633.194 292.318 631.542 293.045 629.988C293.185 629.68 293.045 629.093 292.821 628.813C292.36 628.267 291.8 628.547 291.339 628.939C284.402 634.873 276.527 639.59 270.164 646.308C264.178 652.635 257.338 658.135 250.961 664.07C248.779 666.099 246.807 668.367 245.814 671.292L245.856 671.334H245.842Z" fill="#3C36A9"/>
<path d="M134.344 441.232C135.323 444.171 136.288 446.817 135.659 449.756C135.239 451.729 136.414 452.233 138.148 452.205C141.057 452.163 143.589 450.568 146.498 450.344C149.757 450.092 152.96 449.266 156.204 448.888C158.834 448.58 161.17 447.6 163.491 446.467C165.114 445.683 165.855 444.479 165.659 442.674C165.449 440.798 164.568 439.427 162.764 438.769C161.379 438.265 159.897 438.307 158.498 438.545C152.428 439.566 146.274 439.566 140.162 440.112C138.274 440.28 136.554 440.924 134.344 441.232Z" fill="#3C36A9"/>
<path d="M345.017 51.1787C346.402 50.4929 346.682 48.9953 347.381 47.8336C347.996 46.8258 348.654 45.958 349.982 46.154C351.339 46.3499 351.675 47.3717 351.912 48.5334C352.108 49.4712 352.528 50.3669 352.836 51.2907C353.829 51.3187 354.822 51.3467 355.815 51.3747C356.668 48.6314 355.591 46.014 355.213 43.3687C354.626 39.3097 354.248 35.1808 352.15 30.7859C347.339 38.246 344.556 46.336 340.752 53.908C342.696 53.8381 343.395 51.8086 345.003 51.2067L345.017 51.1787Z" fill="#3C36A9"/>
<path d="M345.017 51.1787C343.409 51.7806 342.71 53.81 340.766 53.88C338.57 56.0215 338.905 59.1707 337.647 61.746C334.794 67.6106 332.108 73.5591 330.178 79.8155C329.842 80.9072 329.535 81.9989 329.171 83.0906C328.766 84.2803 329.213 85.0361 330.36 85.4C331.353 85.708 332.01 85.2181 332.388 84.3223C332.71 83.5385 333.017 82.7267 333.269 81.9149C336.192 72.4953 339.577 63.2437 344.108 54.4539C344.654 53.4041 344.864 52.3124 345.031 51.1787L345.017 51.1787Z" fill="#3C36A9"/>
<path d="M355.829 51.3607C354.836 51.3327 353.843 51.3047 352.85 51.2767C353.073 55.8536 353.423 60.4304 353.493 65.0073C353.619 72.8873 353.395 80.7673 351.997 88.5493C351.927 88.9692 351.913 89.4031 351.885 89.837C351.801 91.1526 351.675 92.6643 353.465 92.7902C355.493 92.9302 355.087 91.1666 355.101 90.0189C355.381 77.1282 356.528 64.2654 355.815 51.3607H355.829Z" fill="#3C36A9"/>
<path d="M300.947 77.856C301.143 76.6523 301.912 76.2744 303.059 76.2185C304.248 76.1625 305.562 76.5404 307.017 75.1967C304.919 74.3009 303.143 73.6291 301.213 73.6011C296.513 73.5451 291.814 73.5731 287.129 73.5871C285.94 73.5871 284.779 73.6291 284.695 75.2527C290.108 76.1205 295.534 77.0023 300.947 77.87L300.947 77.856Z" fill="#3C36A9"/>
<path d="M94.1478 260.314C94.1478 264.289 93.8122 269.496 94.2178 274.632C95.0989 285.871 95.4066 297.236 99.113 308.07C100.693 312.703 102.707 317.139 105.029 321.436C106.33 323.844 107.826 326.139 109.952 327.917C113.798 331.136 117.435 334.663 121.631 337.35C125.687 339.954 130.358 341.605 134.722 343.733C140.442 346.518 146.694 346.602 152.778 346.91C160.051 347.288 167.351 347.274 174.68 346.364C182.68 345.37 190.484 343.901 198.107 341.269C203.478 339.408 208.163 336.427 212.694 333.123C214.065 332.116 215.24 330.828 216.037 329.232C219.198 322.934 221.939 316.538 223.757 309.665C225.925 301.505 228.359 293.429 229.841 285.102C230.499 281.448 231.044 277.781 231.296 274.058C231.674 268.362 232.443 262.679 233.282 257.025C233.534 255.317 233.716 253.624 233.772 251.902C233.967 246.751 233.925 241.601 234.401 236.436C234.876 231.355 234.065 226.134 233.604 221.012C232.932 213.482 231.632 205.994 230.331 198.533C228.988 190.849 226.373 183.557 222.429 176.811C219.925 172.528 216.275 169.309 212.345 166.342C207.589 162.758 203.156 158.756 197.589 156.292C191.114 153.423 184.624 150.875 177.379 151.155C176.666 151.183 175.897 151.225 175.24 151.001C167.967 148.454 160.386 148.916 153.058 149.63C139.645 150.945 126.945 155.074 115.966 163.234C112.847 165.544 109.714 168.413 109.547 172.92C109.477 174.837 107.644 175.691 107.043 177.343C105.714 180.968 104.134 184.481 103.085 188.232C100.162 198.715 97.7703 209.255 96.5255 220.13C95.043 233.105 93.6723 246.051 94.1478 260.314Z" fill="#3C36A9"/>
</g>
</g>
</g>
</g>
</svg>
