<svg width="523" height="597" viewBox="0 0 523 597" fill="none" xmlns="http://www.w3.org/2000/svg">
<g id="front">
<path id="id5" d="M420.745 361.272C420.745 363.382 420.565 364.902 420.775 366.352C421.465 371.022 418.885 373.722 415.235 375.702C409.855 378.612 403.945 380.152 398.125 381.842C393.495 383.182 388.705 383.992 384.115 385.552C382.475 386.112 380.715 386.632 379.005 386.642C373.385 386.692 368.215 388.902 362.775 389.732C356.665 390.662 350.495 391.272 344.465 392.552C337.605 394.012 330.595 394.092 323.715 395.362C317.685 396.462 311.555 397.022 305.405 397.492C298.525 398.012 291.585 397.452 284.815 398.332C274.465 399.672 264.075 399.202 253.755 399.962C242.675 400.782 231.605 400.082 220.565 400.752C216.735 400.982 212.905 400.552 209.035 401.242C205.105 401.942 201.005 401.202 196.965 400.702C193.495 400.272 189.945 400.592 186.425 400.602C177.795 400.632 169.285 399.442 160.735 398.392C152.725 397.412 144.775 396.192 136.825 394.882C129.775 393.722 122.885 391.872 116.275 389.112C114.845 388.512 113.425 387.492 113.235 386.062C112.685 381.852 110.285 378.262 109.635 374.102C108.675 368.002 107.465 361.942 106.495 355.842C105.375 348.822 104.015 341.802 103.475 334.722C103.015 328.682 101.755 322.752 101.505 316.682C101.255 310.662 100.205 304.682 99.4252 298.692C99.0452 295.762 98.5953 292.762 98.5353 289.882C98.3653 281.922 96.9753 274.022 97.5253 266.042C98.0953 257.822 100.415 250.232 105.515 243.662C106.935 241.832 108.685 240.432 111.025 239.722C115.385 238.392 119.555 236.622 124.255 236.272C127.505 236.022 130.625 234.282 133.865 233.412C138.245 232.242 142.745 230.202 147.085 230.442C154.405 230.842 161.455 229.022 168.705 228.962C174.725 228.912 180.875 229.022 186.855 228.272C193.385 227.442 199.955 227.072 206.475 226.182C209.795 225.732 213.225 226.112 216.605 225.962C224.145 225.632 231.715 225.482 239.225 224.962C247.955 224.362 256.675 223.852 265.415 223.392C275.225 222.872 285.055 222.432 294.835 221.712C303.355 221.082 311.835 221.532 320.315 221.062C324.995 220.802 329.655 219.932 334.335 219.762C341.355 219.512 348.315 218.192 355.375 218.642C357.535 218.782 359.705 218.632 361.865 218.672C366.125 218.762 370.295 218.532 374.535 220.122C379.015 221.802 384.055 221.462 388.785 222.602C392.185 223.422 395.345 225.022 398.885 225.352C400.045 225.462 401.135 226.192 401.895 227.262C406.735 234.112 411.065 241.272 412.405 249.662C412.945 253.072 413.695 256.552 413.455 260.092C412.955 267.532 413.945 274.922 414.385 282.312C414.835 289.822 415.435 297.342 416.025 304.842C416.605 312.352 416.605 319.922 417.645 327.372C418.425 332.952 419.195 338.572 419.675 344.152C420.185 350.032 421.325 355.932 420.755 361.272H420.745ZM188.825 331.492C191.735 331.652 196.755 330.042 201.695 327.622C214.215 321.482 220.325 307.412 218.035 294.412C214.955 276.972 201.205 267.382 184.885 266.902C175.105 266.612 166.825 270.392 160.195 277.902C150.895 288.432 149.155 303.902 157.385 316.132C164.175 326.242 174.095 331.022 188.835 331.492H188.825ZM327.615 323.292C329.495 323.622 331.995 322.882 334.495 322.362C350.785 319.002 363.325 304.432 360.415 285.702C358.075 270.682 343.865 259.132 329.355 258.722C318.845 258.422 310.155 262.772 303.005 270.052C295.615 277.572 293.185 287.032 294.765 297.252C297.045 312.062 310.945 323.142 327.625 323.292H327.615ZM298.875 335.892C298.875 334.632 298.855 334.222 298.875 333.822C298.965 331.992 298.395 330.562 296.395 330.282C294.595 330.032 293.295 330.872 292.475 332.512C291.975 333.512 291.915 334.582 291.675 335.632C290.145 342.382 286.175 347.332 280.075 350.402C270.915 355.012 261.345 357.152 251.095 354.502C244.175 352.712 237.885 349.922 232.965 344.462C230.985 342.262 230.325 339.482 229.005 337.002C227.755 334.662 226.035 333.922 224.075 334.752C222.185 335.552 221.415 337.032 222.285 339.482C224.345 345.302 227.415 350.512 232.625 354.132C243.225 361.482 254.995 363.782 267.645 362.082C276.725 360.862 284.895 357.612 291.265 350.802C295.395 346.382 298.245 341.232 298.865 335.922L298.875 335.892Z" fill="#3C3C3C"/>
<g id="id2">
<g id="Vector">
<path d="M454.255 372.432C445.515 376.092 436.325 378.362 427.255 380.942C417.005 383.852 406.615 386.282 396.275 388.902C395.895 389.002 395.475 388.952 394.135 389.022C400.495 386.922 405.995 385.132 411.475 383.302C414.825 382.182 417.935 380.572 420.855 378.572C424.055 376.372 425.685 373.322 426.405 369.522C427.785 362.192 426.605 354.932 425.935 347.702C425.235 340.032 424.655 332.352 423.985 324.682C423.275 316.472 422.645 308.262 421.815 300.062C421.255 294.552 420.965 289.012 420.765 283.472C420.365 272.392 419.935 261.272 418.125 250.352C416.555 240.872 412.815 231.982 406.495 224.452C404.545 222.122 401.875 221.182 399.125 219.942C393.885 217.582 388.385 216.542 382.955 215.152C377.455 213.742 371.825 213.002 366.115 212.952C350.285 212.822 334.475 213.102 318.695 214.452C313.045 214.932 307.345 215.052 301.685 215.262C284.395 215.912 267.165 217.562 249.865 218.142C234.195 218.662 218.535 219.582 202.885 220.562C186.705 221.572 170.525 222.662 154.385 224.252C146.315 225.042 138.205 225.502 130.345 227.632C122.135 229.852 114.025 232.442 106.335 236.152C102.655 237.932 100.085 240.812 98.2652 244.412C97.0452 246.822 95.6952 249.192 94.6952 251.692C92.9352 256.082 91.7252 260.562 91.7052 265.442C91.6652 274.522 92.2852 283.542 93.1752 292.562C94.1352 302.382 94.8452 312.222 96.0552 322.012C98.6252 342.782 101.155 363.562 106.435 383.882C107.865 389.392 110.975 392.872 116.335 394.632C121.975 396.482 127.405 398.982 133.345 399.842C133.365 400.092 133.345 400.332 133.325 400.582C131.455 400.362 129.545 400.332 127.725 399.892C121.575 398.392 115.255 398.002 109.075 396.592C103.055 395.222 96.8852 394.522 90.7952 393.412C88.4252 392.982 86.1052 392.232 83.7652 391.632C83.9652 389.422 83.2553 387.392 82.6053 385.322C80.7953 379.542 79.4552 373.642 77.9452 367.782C76.8652 363.592 76.8052 359.242 75.5952 355.122C74.5952 351.732 74.5052 348.212 74.1252 344.762C73.5152 339.162 72.6052 333.592 72.1152 327.962C71.4352 320.082 70.7652 312.182 69.8652 304.322C69.4352 300.562 69.6152 296.732 68.9352 293.082C67.9152 287.612 68.2652 282.092 67.6852 276.602C66.9652 269.692 67.5052 262.652 67.5252 255.662C67.5252 254.862 67.6352 254.052 67.7652 253.252C68.4752 248.882 69.0952 244.502 69.9652 240.162C71.5452 232.382 73.9252 224.762 77.3252 217.652C79.7152 212.662 81.8552 207.252 86.3052 203.442C86.4052 203.352 86.4952 203.242 86.5552 203.122C89.1052 198.192 93.3052 194.852 97.7352 191.832C104.835 186.982 112.145 182.582 120.125 179.142C130.645 174.602 141.285 170.522 152.325 167.592C156.775 166.412 160.925 164.562 165.035 162.732C171.345 159.922 176.665 155.522 181.545 150.592C183.765 148.352 185.255 145.632 187.205 143.242C191.245 138.282 193.905 132.602 195.825 126.552C199.145 116.082 199.855 105.162 200.485 94.3416C200.895 87.3716 201.795 80.3916 201.515 73.3616C201.305 67.9716 201.465 67.9616 196.265 67.4416C199.365 66.3216 202.665 66.6116 205.855 66.2416C216.595 65.0016 227.345 63.8716 238.165 63.4016C254.505 62.6916 270.825 61.4816 287.155 60.5516C290.795 60.3416 294.455 60.4516 298.105 60.4116C295.745 61.2016 294.645 62.4616 294.775 65.3116C295.295 77.0116 294.235 88.7416 296.295 100.452C297.415 106.832 298.315 113.192 300.565 119.282C302.775 125.242 305.635 130.782 309.595 135.892C312.475 139.602 316.005 142.472 319.505 145.352C325.155 149.992 331.395 153.592 338.915 154.672C345.415 155.602 351.865 156.952 358.315 158.142C367.945 159.922 377.525 162.092 386.735 165.772C400.345 171.212 412.575 178.362 421.375 190.462C421.765 191.002 422.345 191.412 422.765 191.942C426.465 196.612 429.525 201.702 431.915 207.152C434.995 214.192 437.445 221.462 439.735 228.802C441.685 235.032 442.945 241.442 443.225 247.782C443.585 256.122 444.365 264.472 444.295 272.842C444.255 276.892 444.935 280.902 445.315 284.902C445.855 290.522 446.415 296.152 446.595 301.772C446.755 306.632 447.515 311.422 447.755 316.272C447.895 319.172 448.075 322.182 448.515 325.102C449.235 329.892 449.855 334.682 449.955 339.522C450.025 343.302 450.735 347.012 450.975 350.772C451.395 357.192 452.445 363.562 453.185 369.962C453.295 370.942 453.395 371.842 454.255 372.462V372.432Z" fill="#A874D6"/>
<path d="M340.925 483.222C339.585 483.852 338.255 484.512 336.905 485.102C333.755 486.462 331.975 485.922 330.085 483.052C328.025 479.922 325.495 477.462 321.725 476.442C319.125 475.732 316.615 474.702 314.035 473.922C312.535 473.472 311.655 472.962 312.355 471.112C313.515 468.052 313.885 464.822 313.545 461.562C313.365 459.822 314.055 458.742 315.625 458.072C318.625 456.792 321.135 454.672 323.975 453.132C326.695 451.662 328.665 449.532 329.935 446.732C331.215 443.902 332.555 441.112 333.745 438.242C337.975 428.062 344.105 419.142 351.305 410.842C353.565 408.232 355.915 405.582 357.555 402.452C358.545 402.272 360.025 401.562 359.155 403.672C357.875 406.782 356.315 409.752 355.135 412.912C351.255 423.332 349.285 434.162 347.645 445.102C345.885 456.822 345.225 468.712 341.985 480.192C341.695 481.222 341.275 482.222 340.915 483.232L340.925 483.222Z" fill="#A874D6"/>
<path d="M199.575 412.512C200.615 414.652 202.555 415.992 204.195 417.572C212.965 426.032 221.345 434.812 227.905 445.162C228.195 445.622 228.645 446.002 228.825 446.492C232.245 455.762 240.325 458.802 248.735 461.392C249.375 461.592 250.045 461.702 250.715 461.822C252.735 462.212 253.665 463.292 253.455 465.472C253.135 468.862 253.535 472.222 254.725 475.432C255.265 476.892 254.765 477.772 253.435 478.332C252.685 478.642 251.925 478.922 251.175 479.212C246.455 481.022 242.555 483.792 240.665 488.682C239.635 491.362 237.715 491.362 235.475 490.852C234.035 489.872 233.635 488.282 233.005 486.792C229.465 478.402 226.945 469.642 223.605 461.182C218.645 448.632 212.555 436.642 205.675 425.042C203.345 421.112 200.955 417.242 198.305 413.522C198.325 413.042 198.355 412.562 198.375 412.082C198.775 412.222 199.175 412.362 199.585 412.502L199.575 412.512Z" fill="#A874D6"/>
<path d="M188.825 331.492C174.075 331.022 164.165 326.242 157.375 316.132C149.155 303.902 150.895 288.422 160.185 277.902C166.815 270.392 175.095 266.612 184.875 266.902C201.195 267.382 214.945 276.972 218.025 294.412C220.325 307.412 214.205 321.482 201.685 327.622C196.745 330.042 191.725 331.652 188.815 331.492H188.825Z" fill="#A874D6"/>
<path d="M327.615 323.292C310.935 323.142 297.035 312.062 294.755 297.252C293.175 287.032 295.605 277.572 302.995 270.052C310.145 262.772 318.835 258.422 329.345 258.722C343.845 259.132 358.065 270.682 360.405 285.702C363.325 304.432 350.775 319.002 334.485 322.362C331.985 322.882 329.485 323.622 327.605 323.292H327.615Z" fill="#A874D6"/>
<path d="M298.875 335.892C298.245 341.202 295.405 346.352 291.275 350.772C284.905 357.592 276.735 360.832 267.655 362.052C255.005 363.752 243.235 361.452 232.635 354.102C227.425 350.492 224.355 345.282 222.295 339.452C221.425 337.002 222.195 335.522 224.085 334.722C226.045 333.892 227.755 334.632 229.015 336.972C230.345 339.452 230.995 342.232 232.975 344.432C237.885 349.882 244.175 352.672 251.105 354.472C261.355 357.132 270.925 354.982 280.085 350.372C286.185 347.302 290.155 342.352 291.685 335.602C291.925 334.552 291.985 333.482 292.485 332.482C293.305 330.832 294.605 330.002 296.405 330.252C298.405 330.532 298.985 331.962 298.885 333.792C298.865 334.192 298.885 334.602 298.885 335.862L298.875 335.892Z" fill="#A874D6"/>
<path d="M366.135 395.532C358.035 396.972 349.965 398.582 341.825 399.802C329.945 401.592 318.055 403.212 306.035 404.052C289.585 405.212 273.135 406.242 256.665 406.892C249.235 407.182 241.795 407.212 234.375 407.592C225.705 408.042 217.115 406.552 208.465 406.692C226.055 406.692 243.635 406.112 261.205 405.372C276.455 404.732 291.685 403.432 306.925 402.512C317.455 401.872 327.925 400.662 338.345 399.052C346.085 397.862 353.795 396.502 361.525 395.262C362.855 395.052 364.215 395.022 365.555 394.902C365.745 395.112 365.945 395.322 366.135 395.532Z" fill="#A874D6"/>
</g>
</g>
<g id="id3">
<g id="Vector_2">
<path d="M199.575 412.512C200.975 411.822 202.485 412.042 203.955 412.032C220.965 411.992 237.985 412.292 254.975 411.802C263.995 411.542 273.025 411.472 282.035 410.962C290.085 410.502 298.145 410.012 306.175 409.332C314.315 408.642 322.465 407.912 330.585 406.622C336.925 405.622 343.345 404.852 349.715 403.872C352.355 403.462 354.795 402.022 357.575 402.432C355.935 405.552 353.585 408.212 351.325 410.822C344.135 419.122 337.995 428.042 333.765 438.222C332.575 441.082 331.235 443.882 329.955 446.712C328.685 449.512 326.715 451.642 323.995 453.112C321.155 454.652 318.645 456.782 315.645 458.052C314.075 458.722 313.385 459.802 313.565 461.542C313.905 464.812 313.535 468.032 312.375 471.092C311.675 472.952 312.555 473.452 314.055 473.902C316.635 474.682 319.145 475.712 321.745 476.422C325.505 477.452 328.045 479.902 330.105 483.032C331.985 485.902 333.765 486.442 336.925 485.082C338.285 484.492 339.605 483.832 340.945 483.202C339.955 489.962 336.615 495.612 332.305 500.702C329.865 503.582 327.065 506.162 324.315 508.762C323.155 509.862 321.825 510.982 320.365 511.532C316.065 513.142 312.115 515.432 307.995 517.402C303.605 519.502 298.835 520.692 293.945 520.722C291.085 520.742 288.355 521.652 285.505 521.512C277.695 521.132 270.005 520.252 262.515 517.752C257.655 516.132 252.955 514.112 248.095 512.512C246.705 512.052 246.085 510.742 245.285 509.722C240.825 504.052 237.605 497.722 235.485 490.832C237.725 491.342 239.645 491.342 240.675 488.662C242.565 483.772 246.465 481.002 251.185 479.192C251.945 478.902 252.705 478.622 253.445 478.312C254.775 477.752 255.275 476.872 254.735 475.412C253.545 472.202 253.145 468.842 253.465 465.452C253.665 463.272 252.745 462.192 250.725 461.802C250.065 461.672 249.395 461.572 248.745 461.372C240.335 458.782 232.255 455.742 228.835 446.472C228.655 445.982 228.205 445.602 227.915 445.142C221.355 434.782 212.975 426.012 204.205 417.552C202.565 415.972 200.625 414.632 199.585 412.492L199.575 412.512Z" fill="#7B36A9"/>
<path d="M483.155 122.432C489.585 125.462 494.675 130.012 498.755 135.872C504.895 144.702 508.195 154.562 510.185 165.012C511.575 172.322 511.975 179.702 512.725 187.072C513.535 195.112 513.815 203.192 514.805 211.212C515.315 215.342 515.505 219.572 515.575 223.712C515.785 237.632 517.125 251.512 516.645 265.442C516.345 274.382 515.305 283.132 512.525 291.692C511.185 295.812 509.765 299.842 507.815 303.722C505.245 308.822 501.455 312.732 496.855 315.962C495.215 317.112 494.075 316.882 493.915 315.132C493.405 309.492 491.745 304.072 491.195 298.422C490.325 289.302 490.125 280.132 489.035 271.032C488.975 270.492 488.945 269.952 488.965 269.412C489.275 261.832 488.235 254.312 487.915 246.762C487.535 237.882 486.975 228.992 486.355 220.112C485.715 210.962 485.255 201.812 484.675 192.662C484.265 186.182 484.525 179.682 483.855 173.252C483.195 166.902 483.785 160.522 483.065 154.242C481.935 144.382 482.685 134.522 482.455 124.672C482.435 123.922 482.195 123.022 483.155 122.422V122.432Z" fill="#7B36A9"/>
<path d="M37.5852 124.502C31.7252 124.532 31.6652 124.442 30.0552 117.982C29.5252 115.862 29.2752 113.752 29.2652 111.572C29.2452 108.342 28.9452 105.112 28.7252 101.892C28.4452 97.7516 28.8752 93.5316 29.4252 89.3916C30.1652 83.7916 31.1152 78.2116 32.5352 72.7316C36.2552 58.4016 41.3552 44.6816 50.0652 32.5316C50.6152 31.7616 51.2752 31.0616 51.7152 30.2316C53.0452 27.7016 55.1252 27.7116 57.5752 28.1216C65.2352 29.4116 72.4052 32.2116 79.3852 35.4316C86.8552 38.8816 94.2352 42.5616 101.495 46.4516C110.195 51.1016 118.235 56.8316 126.375 62.3816C136.215 69.0916 145.105 76.9116 154.015 84.7216C155.235 85.7916 156.345 86.9816 157.465 88.1616C160.695 91.5816 160.585 94.7416 157.045 97.8516C154.995 99.6516 152.615 100.892 149.945 101.602C128.975 107.142 107.965 112.482 86.6452 116.602C76.3352 118.592 66.1152 121.082 55.7152 122.552C49.9952 123.362 44.2952 124.582 37.5752 124.492L37.5852 124.502ZM35.8852 108.712C35.8852 110.812 35.7952 112.172 35.9052 113.512C36.1252 116.312 37.8252 117.882 40.6652 117.912C41.7352 117.922 42.8352 117.812 43.8752 117.562C51.5852 115.702 59.4852 114.862 67.2752 113.382C75.3352 111.852 83.3352 110.092 91.3952 108.542C99.8552 106.912 108.255 104.942 116.695 103.162C124.725 101.472 132.745 99.7616 140.185 96.0916C144.855 93.7916 144.035 90.7416 141.435 88.1216C139.735 86.4116 137.685 85.0316 135.715 83.6116C128.625 78.4816 121.725 73.0716 114.205 68.5416C109.465 65.6916 104.875 62.5416 99.9352 60.0916C95.8252 58.0516 91.8652 55.8116 87.9352 53.4716C80.9352 49.3016 73.5252 46.0516 65.7252 43.7416C60.2952 42.1316 55.2652 43.6316 52.5852 47.4616C51.4352 49.1116 50.4552 50.9216 49.6552 52.7616C46.0452 61.0616 43.1552 69.5916 40.9752 78.4016C38.4452 88.6316 36.4452 98.9116 35.8752 108.692L35.8852 108.712Z" fill="#7B36A9"/>
<path d="M465.475 95.1016C465.475 97.3516 465.535 99.2416 465.465 101.142C465.345 104.482 464.455 105.582 461.165 105.752C457.655 105.932 454.085 106.142 450.625 105.662C438.095 103.932 425.585 102.042 413.215 99.3316C397.555 95.8916 381.975 92.1016 366.485 88.0016C362.575 86.9716 358.765 85.5616 354.915 84.3116C352.995 83.6916 351.025 83.3216 349.045 82.9116C346.355 82.3616 343.855 80.9216 341.205 80.0816C338.725 79.3016 336.355 78.5216 334.685 76.3216C332.675 73.6716 332.565 72.9616 334.535 70.2916C335.255 69.3216 335.995 68.3116 336.935 67.5616C343.395 62.4116 348.445 55.7616 354.955 50.7016C359.735 46.9816 364.395 43.1116 369.205 39.4416C382.545 29.2816 396.565 20.1616 411.705 12.8816C416.815 10.4316 422.075 8.30161 427.275 6.04161C428.015 5.72161 428.805 5.48161 429.585 5.30161C434.435 4.19161 436.315 4.95161 439.145 9.15161C442.235 13.7416 445.235 18.3916 448.385 22.9316C451.915 28.0116 453.465 33.9416 455.615 39.6016C458.735 47.8116 460.565 56.4216 462.645 64.9216C463.915 70.1116 464.285 75.5716 464.555 80.9416C464.795 85.7916 465.985 90.5816 465.485 95.1116L465.475 95.1016ZM428.085 20.5216C426.325 20.3816 424.465 20.6816 422.685 21.3816C419.665 22.5616 416.535 23.5316 413.675 25.0116C404.085 29.9616 394.585 35.0816 386.035 41.7716C385.085 42.5216 384.105 43.3216 383.005 43.7916C378.485 45.7316 374.785 48.9516 370.795 51.6716C364.455 56.0016 358.995 61.5416 352.555 65.7816C351.785 66.2916 351.085 67.0116 350.535 67.7616C347.825 71.4616 349.105 75.5416 353.425 77.0516C354.575 77.4516 355.715 77.8716 356.895 78.1716C367.085 80.7716 377.255 83.4116 387.475 85.8816C391.145 86.7716 394.775 87.8216 398.455 88.6516C413.035 91.9116 427.625 95.1916 442.395 97.4816C446.385 98.1016 450.295 99.2816 454.355 99.3716C457.245 99.4316 458.085 98.6816 459.065 95.9316C459.575 94.4916 459.785 93.0316 459.535 91.5416C457.705 80.5116 455.365 69.6416 451.945 58.9316C448.395 47.8116 443.585 37.3116 438.515 26.8816C436.465 22.6616 433.225 20.1216 428.075 20.5316L428.085 20.5216Z" fill="#7B36A9"/>
<path d="M35.2152 338.572C33.6052 338.572 32.9552 337.202 32.1252 336.262C26.1852 329.552 21.0852 322.332 18.0652 313.762C13.8852 301.902 10.6452 289.772 9.22524 277.312C8.25524 268.762 6.90524 260.262 6.35524 251.632C5.55524 239.062 5.49524 226.502 5.97524 213.972C6.32524 204.862 7.53525 195.772 9.37525 186.762C11.1652 178.032 14.2552 169.982 19.1752 162.582C20.8052 160.132 23.1753 158.172 24.0053 158.962C25.6853 160.542 25.2852 162.672 25.0252 164.682C24.9052 165.612 24.6252 166.532 24.5652 167.472C23.5052 185.692 23.3652 203.932 23.8552 222.162C24.1152 231.712 24.6953 241.292 25.5053 250.812C26.2453 259.502 27.2752 268.202 28.3052 276.882C29.0152 282.882 29.2752 288.952 30.1152 294.962C30.9852 301.222 31.5052 307.522 32.4452 313.782C33.5052 320.832 34.2352 327.932 34.9652 335.022C35.0852 336.152 35.9552 337.282 35.2152 338.582V338.572Z" fill="#7B36A9"/>
<path d="M196.745 484.812C194.385 484.702 192.345 485.422 190.455 487.512C194.045 489.452 197.445 491.612 201.105 493.172C205.615 495.102 209.585 497.842 213.705 500.402C217.115 502.522 217.765 506.192 218.155 509.522C218.425 511.772 216.195 513.862 214.345 515.452C209.755 519.402 205.015 523.182 200.435 527.152C197.515 529.682 194.065 531.292 190.555 532.582C185.285 534.532 175.645 531.032 172.595 526.262C169.315 521.142 167.315 515.352 164.435 510.012C163.625 508.502 164.185 507.182 165.385 506.012C167.225 504.222 169.135 502.542 171.135 500.932C175.845 497.152 179.705 492.422 184.435 488.642C186.125 487.292 187.245 485.372 188.705 483.812C190.315 482.092 190.125 480.152 190.235 478.142C190.305 476.802 189.435 475.022 191.605 474.432C193.015 476.142 193.765 478.182 193.405 480.292C192.915 483.162 194.415 484.202 196.735 484.812H196.745Z" fill="#7B36A9"/>
<path d="M442.605 494.892C442.965 497.992 441.745 500.482 440.845 503.002C440.245 504.682 438.955 505.942 436.965 506.182C431.765 506.792 426.785 508.582 421.455 508.752C417.455 508.882 413.465 509.832 409.515 510.632C402.685 512.022 398.335 509.962 395.225 503.712C394.385 502.022 394.565 500.262 394.805 498.552C395.045 496.832 395.585 495.132 396.125 493.472C397.235 490.092 397.685 490.012 401.535 489.722C405.675 489.422 409.855 489.032 413.905 488.152C420.895 486.632 428.025 486.222 435.045 484.992C441.015 483.942 440.995 483.942 441.925 489.982C442.185 491.712 442.975 493.362 442.595 494.882L442.605 494.892Z" fill="#7B36A9"/>
<path d="M133.945 430.712C131.835 429.312 129.725 427.912 127.615 426.512C131.235 421.742 136.005 418.202 140.515 414.382C141.235 413.772 142.195 413.362 142.705 412.622C145.585 408.402 149.815 408.142 154.195 408.812C156.985 409.232 159.765 409.602 162.915 409.532C162.155 411.882 160.215 412.632 158.705 413.342C151.345 416.792 144.925 421.742 138.025 425.922C136.185 427.032 134.505 428.442 133.945 430.722V430.712Z" fill="#7B36A9"/>
</g>
</g>
<g id="id1">
<g id="Vector_3">
<path d="M454.255 372.432C453.395 371.812 453.295 370.912 453.185 369.932C452.445 363.532 451.395 357.162 450.975 350.742C450.725 346.972 450.025 343.262 449.955 339.492C449.865 334.652 449.245 329.852 448.515 325.072C448.075 322.152 447.895 319.152 447.755 316.242C447.525 311.392 446.755 306.602 446.595 301.742C446.415 296.122 445.855 290.492 445.315 284.872C444.935 280.872 444.255 276.862 444.295 272.812C444.365 264.442 443.595 256.102 443.225 247.752C442.945 241.422 441.685 235.012 439.735 228.772C437.445 221.422 434.995 214.162 431.915 207.122C429.525 201.672 426.475 196.592 422.765 191.912C422.345 191.382 421.775 190.982 421.375 190.432C412.585 178.332 400.345 171.182 386.735 165.742C377.525 162.062 367.945 159.892 358.315 158.112C351.865 156.922 345.415 155.572 338.915 154.642C331.395 153.572 325.155 149.962 319.505 145.322C316.005 142.442 312.475 139.582 309.595 135.862C305.635 130.762 302.775 125.212 300.565 119.252C298.315 113.162 297.415 106.802 296.295 100.422C294.245 88.7116 295.295 76.9916 294.775 65.2816C294.645 62.4316 295.755 61.1616 298.105 60.3816C310.905 59.1316 323.715 59.3916 336.485 59.6616C337.035 61.1616 335.845 61.4816 335.235 62.0416C332.825 64.2416 330.865 66.8216 328.865 69.3816C327.455 71.1816 327.275 72.9516 328.155 75.0416C329.975 79.3416 332.775 82.3716 337.345 84.0416C350.935 88.9916 364.855 92.7816 378.855 96.3516C390.765 99.3816 402.675 102.342 414.705 104.832C424.625 106.892 434.625 108.552 444.665 109.902C450.295 110.662 455.885 111.762 461.585 110.752C462.645 110.562 463.685 110.282 464.725 110.012C467.955 109.182 469.715 107.062 470.355 103.822C471.355 98.7616 471.095 93.6416 471.105 88.5016C472.485 88.6116 472.525 89.7416 472.825 90.5416C475.415 97.5516 477.285 104.702 477.135 112.272C476.975 120.382 476.885 128.502 476.855 136.612C476.795 153.392 478.025 170.122 478.925 186.862C479.295 193.742 479.335 200.642 479.865 207.522C481.065 223.152 482.025 238.812 483.025 254.452C483.715 265.242 484.295 276.052 484.935 286.842C485.545 297.102 486.605 307.272 489.415 317.252C491.245 323.732 490.195 330.422 489.435 337.002C488.825 342.242 487.495 347.362 486.365 352.502C485.295 357.392 482.755 361.002 478.015 363.222C470.285 366.842 462.445 370.082 454.225 372.392L454.255 372.432Z" fill="#CD80F1"/>
<path d="M196.275 67.4316C201.475 67.9616 201.315 67.9616 201.525 73.3516C201.795 80.3816 200.895 87.3616 200.495 94.3316C199.865 105.152 199.155 116.072 195.835 126.542C193.915 132.592 191.255 138.272 187.215 143.232C185.265 145.632 183.775 148.342 181.555 150.582C176.675 155.512 171.355 159.912 165.045 162.722C160.935 164.552 156.785 166.402 152.335 167.582C141.295 170.512 130.645 174.592 120.135 179.132C112.155 182.582 104.845 186.972 97.7452 191.822C93.3252 194.842 89.1153 198.192 86.5653 203.112C86.5053 203.232 86.4153 203.342 86.3153 203.432C81.8653 207.242 79.7252 212.642 77.3352 217.642C73.9252 224.752 71.5552 232.372 69.9752 240.152C69.0952 244.482 68.4852 248.872 67.7752 253.242C67.6452 254.032 67.5353 254.842 67.5353 255.652C67.5153 262.642 66.9752 269.682 67.6952 276.592C68.2652 282.072 67.9252 287.592 68.9452 293.072C69.6252 296.722 69.4452 300.552 69.8752 304.312C70.7852 312.172 71.4452 320.072 72.1252 327.952C72.6152 333.582 73.5252 339.152 74.1352 344.752C74.5152 348.192 74.6052 351.712 75.6052 355.112C76.8152 359.242 76.8752 363.592 77.9552 367.772C79.4652 373.632 80.8052 379.532 82.6152 385.312C83.2652 387.382 83.9752 389.412 83.7752 391.622C77.5152 390.562 71.3153 389.262 65.1453 387.732C60.0753 386.462 56.6152 383.512 54.1652 378.932C50.7752 372.602 48.0753 366.012 45.5353 359.302C42.6353 351.632 42.1152 343.592 40.8252 335.662C39.7852 329.262 39.0553 322.812 38.0353 316.412C36.8053 308.672 35.9453 300.882 35.1453 293.092C33.7953 279.912 32.4653 266.732 31.3453 253.532C29.2053 228.302 28.4152 203.042 29.7652 177.732C30.2152 169.362 30.4252 160.962 31.0552 152.602C31.5752 145.732 32.6052 138.902 33.3352 132.052C33.5052 130.472 34.2852 130.092 35.7152 130.002C50.5852 129.022 65.1353 126.042 79.7553 123.292C100.895 119.322 121.745 114.222 142.595 109.042C148.335 107.612 154.205 106.262 159.075 102.572C161.755 100.542 164.125 98.2016 165.165 94.8116C166.165 91.5516 165.825 88.7616 163.135 86.3516C159.125 82.7716 155.245 79.0316 151.305 75.3716C150.815 74.9216 150.185 74.6016 150.055 73.8516C153.995 72.1216 184.035 67.9416 196.275 67.4316Z" fill="#CD80F1"/>
<path d="M121.965 425.942C123.905 425.602 125.705 426.582 127.615 426.502C129.725 427.902 131.835 429.302 133.945 430.702C136.845 434.212 141.075 435.912 144.675 438.462C148.185 440.952 151.975 443.072 155.725 445.212C160.545 447.972 164.775 451.572 169.405 454.602C171.605 456.042 173.255 458.012 174.515 460.272C177.725 466.052 180.815 471.912 184.055 477.672C185.045 479.432 185.075 480.662 183.545 482.252C176.365 489.762 168.255 496.232 160.515 503.112C160.015 503.562 159.445 503.942 158.865 504.292C155.835 506.142 154.855 506.052 152.825 503.152C149.035 497.752 145.465 492.202 141.665 486.812C132.945 474.452 124.785 461.712 116.295 449.202C112.655 443.832 112.555 438.052 112.445 432.172C112.375 428.682 114.345 427.382 119.485 426.332C120.385 426.642 121.225 426.612 121.955 425.922L121.965 425.942Z" fill="#CD80F1"/>
<path d="M327.865 567.972C328.475 558.152 330.345 548.422 334.545 539.182C335.855 536.302 337.905 533.982 339.525 531.342C340.035 530.502 340.805 529.982 341.815 529.832C346.355 529.172 350.855 528.252 355.505 528.832C357.455 529.072 359.265 529.652 360.655 530.952C368.125 537.932 374.405 545.812 378.365 555.332C381.465 562.782 382.175 570.402 379.935 578.262C378.265 584.122 374.745 587.992 368.715 589.222C360.915 590.822 353.145 592.032 345.055 590.772C333.595 588.992 327.005 581.772 327.875 569.402C327.905 569.002 327.875 568.592 327.875 567.952L327.865 567.972Z" fill="#CD80F1"/>
<path d="M233.035 567.882C233.175 571.412 232.695 574.692 231.695 577.982C230.145 583.102 226.725 586.372 221.905 588.002C212.185 591.282 202.275 591.622 192.465 588.462C186.255 586.462 181.445 582.672 179.885 575.902C179.085 572.442 179.245 568.882 179.845 565.432C181.325 556.782 184.545 548.972 190.255 542.062C192.915 538.852 196.155 536.672 199.335 534.302C201.925 532.372 204.795 530.792 207.115 528.502C208.485 527.142 209.765 527.032 211.415 528.022C220.835 533.672 227.325 541.692 230.695 552.112C232.355 557.242 233.395 562.552 233.045 567.892L233.035 567.882Z" fill="#CD80F1"/>
<path d="M404.535 403.162C406.675 402.432 408.395 402.802 409.915 404.672C411.425 406.522 412.815 408.512 415.175 409.622C416.475 410.232 416.835 412.022 417.445 413.352C424.945 429.712 430.745 446.702 436.425 463.742C437.675 467.502 438.085 471.402 438.515 475.292C438.855 478.322 438.495 478.822 435.425 479.372C428.775 480.552 422.095 481.592 415.415 482.602C411.405 483.212 407.385 483.762 403.355 484.142C399.485 484.502 398.475 483.532 397.325 479.812C395.625 474.332 394.995 468.692 394.865 463.042C394.575 450.332 394.145 437.612 394.655 424.892C394.865 419.632 395.175 414.352 397.865 409.582C398.115 409.132 398.085 408.532 398.175 408.002C401.265 407.672 402.605 405.042 404.525 403.172L404.535 403.162Z" fill="#CD80F1"/>
<path d="M349.705 474.662C351.935 476.452 353.495 478.862 354.775 481.342C360.665 492.762 363.745 505.002 364.795 517.772C364.925 519.372 364.905 521.022 364.205 522.552C363.445 524.222 362.385 525.192 360.395 524.422C353.565 521.792 346.915 523.312 340.205 525.162C338.015 525.762 335.835 526.362 333.685 527.102C331.365 527.902 329.805 527.052 329.755 524.642C329.655 519.792 329.865 514.922 330.975 510.152C331.195 509.212 331.795 508.452 332.535 507.822C341.665 500.092 345.775 489.692 348.225 478.392C348.495 477.142 348.185 475.622 349.705 474.652V474.662Z" fill="#CD80F1"/>
<path d="M213.465 523.382C216.315 520.832 218.545 518.512 220.665 516.062C224.125 512.062 224.845 507.732 222.475 502.972C221.755 501.522 220.935 500.132 220.145 498.722C218.665 496.072 218.545 495.322 220.665 493.432C222.855 491.482 224.285 488.722 226.995 487.352C228.435 488.322 228.765 489.822 229.325 491.172C232.655 499.172 236.355 506.942 242.355 513.362C243.035 514.092 243.455 514.732 243.085 515.852C241.055 522.002 239.115 528.192 235.255 533.512C234.385 534.702 233.385 535.822 232.305 536.832C230.085 538.912 229.615 538.922 228.065 536.362C224.615 530.662 219.915 526.412 213.465 523.372V523.382Z" fill="#CD80F1"/>
<path d="M196.745 484.812C194.425 484.202 192.925 483.172 193.415 480.292C193.775 478.182 193.015 476.142 191.615 474.432C193.275 471.542 196.355 471.722 199.005 471.212C202.945 470.462 205.705 472.162 207.555 475.762C210.045 480.612 210.775 485.712 210.535 491.632C205.395 489.962 201.475 486.502 196.745 484.802V484.812Z" fill="#CD80F1"/>
<path d="M390.425 475.092C391.275 478.162 392.095 481.082 392.885 484.022C393.135 484.952 392.985 485.862 392.695 486.792C391.475 490.642 390.325 494.512 389.495 498.472C389.075 500.472 388.075 502.282 386.725 503.812C384.915 505.862 383.135 505.822 381.235 503.812C379.265 501.742 378.195 499.212 378.785 496.412C380.515 488.262 383.405 480.682 390.425 475.082V475.092Z" fill="#CD80F1"/>
<path d="M398.335 514.592C401.215 515.762 404.045 517.032 407.235 516.542C408.195 516.392 408.765 517.042 408.995 517.862C409.715 520.452 410.465 523.072 410.155 525.802C409.865 528.342 408.425 529.222 405.885 528.612C401.965 527.682 399.325 524.862 398.855 520.762C398.625 518.792 397.755 516.852 398.345 514.592H398.335Z" fill="#CD80F1"/>
</g>
</g>
<g id="id4">
<g id="Vector_4">
<path d="M4.22523 278.962C2.04523 266.282 0.715232 253.502 0.225232 240.662C-0.444768 223.192 0.325235 205.752 3.27524 188.482C5.26524 176.872 9.18524 166.012 16.7752 156.752C18.3052 154.882 19.8652 153.142 21.9652 151.762C24.4152 150.162 26.2752 148.052 26.4352 144.592C26.6452 140.022 27.5652 135.472 28.2452 130.932C28.5052 129.232 28.2452 127.842 27.1252 126.422C25.3252 124.142 24.6652 121.372 24.3452 118.502C21.6852 94.5916 25.2752 71.5816 34.6252 49.4916C37.9452 41.6516 41.9652 34.1516 47.1252 27.2916C50.1452 23.2716 53.8652 21.7416 58.7652 22.6516C65.8652 23.9716 72.4452 26.8416 79.0152 29.6316C101.145 39.0316 121.565 51.3416 140.285 66.4316C142.515 68.2316 144.535 68.6316 147.305 68.1416C157.825 66.3016 168.415 64.9316 179.035 63.7116C197.575 61.5916 216.135 59.7516 234.725 58.1816C244.825 57.3316 254.975 56.9916 265.095 56.3716C282.515 55.3016 299.955 54.5716 317.405 54.3516C324.975 54.2616 332.565 53.9516 340.125 54.6116C342.195 54.7916 343.585 54.2416 345.135 52.8216C363.235 36.2016 382.845 21.7016 404.785 10.4916C411.645 6.99163 418.605 3.70162 426.005 1.46162C426.525 1.30162 427.035 1.14163 427.555 0.991625C435.065 -1.15837 438.465 0.0216179 443.325 6.17162C453.735 19.3216 460.605 34.1616 464.515 50.4016C466.225 57.4916 467.725 64.6216 469.305 71.7416C469.535 72.7816 469.545 73.8516 470.355 74.7316C475.765 80.6116 477.875 88.0616 479.975 95.4716C481.485 100.802 482.945 106.212 482.725 111.802C482.605 114.902 483.945 116.402 486.495 117.662C492.285 120.512 496.985 124.772 500.915 129.862C510.055 141.682 515.295 155.022 516.685 169.942C518.305 187.322 519.645 204.712 520.755 222.122C521.675 236.572 522.575 251.012 522.335 265.502C522.145 276.822 520.205 287.802 516.165 298.412C512.415 308.272 507.095 316.872 497.315 321.832C495.705 322.652 495.855 323.892 495.795 325.222C495.485 332.932 494.805 340.612 493.005 348.132C492.255 351.282 491.325 354.392 490.415 357.502C489.075 362.062 486.085 365.222 481.875 367.282C475.815 370.252 469.695 373.092 463.275 375.242C449.575 379.822 435.885 384.432 421.865 387.942C415.575 389.512 409.285 391.032 402.985 392.562C402.315 392.722 401.675 392.882 401.025 393.602C402.445 395.892 404.065 397.752 407.215 397.672C408.555 397.642 409.975 398.132 411.005 398.982C416.075 403.212 421.245 407.252 423.895 413.752C430.725 430.502 436.745 447.522 442.485 464.662C443.395 467.372 444.115 470.162 444.085 472.992C444.055 476.052 445.185 478.322 447.215 480.492C450.015 483.482 451.915 487.082 452.885 491.092C454.235 496.692 452.185 501.642 447.215 504.622C445.905 505.402 444.775 506.252 443.875 507.482C441.825 510.282 438.845 511.462 435.565 512.012C434.095 512.262 432.615 512.382 431.135 512.572C428.575 512.892 426.015 512.572 424.565 515.862C423.595 518.052 420.635 518.502 418.255 519.062C417.215 519.312 416.075 518.962 415.035 519.652C414.895 522.162 415.745 524.652 415.245 527.252C414.235 532.482 411.295 534.762 406.095 534.002C399.135 532.972 393.965 527.212 393.185 519.362C392.935 516.812 393.015 514.222 393.085 511.662C393.145 509.812 392.865 508.172 391.335 506.912C389.855 507.072 389.185 508.412 388.115 509.172C384.945 511.422 382.285 511.572 379.155 509.322C374.445 505.942 372.205 501.052 373.295 495.542C375.245 485.642 379.865 476.972 387.765 470.412C389.445 469.022 389.975 467.642 389.835 465.572C388.985 453.412 389.065 441.232 389.045 429.062C389.035 422.802 389.335 416.602 391.835 410.762C392.405 409.442 392.095 408.692 391.075 408.072C386.235 405.122 381.465 402.012 376.465 399.362C373.535 397.802 367.365 400.382 365.615 403.432C361.955 409.812 359.835 416.792 357.555 423.722C354.795 432.132 353.865 440.862 352.605 449.542C352.005 453.692 351.445 457.842 350.795 461.982C350.445 464.232 350.735 466.252 352.235 468.062C352.915 468.892 353.345 469.932 354.015 470.772C360.865 479.432 364.755 489.442 367.325 500.042C368.215 503.712 369.105 507.392 369.895 511.092C371.265 517.542 370.955 523.722 366.305 529.182C372.025 534.062 376.375 539.862 379.965 546.262C384.555 554.442 387.295 563.082 386.665 572.592C386.315 577.842 384.665 582.652 381.735 586.992C379.715 589.982 377.045 592.342 373.635 593.482C362.055 597.382 350.215 597.892 338.505 594.582C328.625 591.792 322.805 582.952 322.415 572.622C321.955 560.472 325.065 549.062 328.965 537.772C329.485 536.262 330.405 534.882 331.155 533.432C330.695 532.722 329.905 532.502 329.185 532.222C325.745 530.862 324.225 528.182 324.115 524.652C324.055 522.902 324.275 521.142 324.435 519.402C324.535 518.212 325.015 517.032 324.175 515.512C299.415 530.642 274.035 529.542 248.245 517.822C246.365 522.552 244.925 527.312 242.695 531.782C240.415 536.352 237.565 540.332 233.255 543.262C237.975 553.162 239.655 563.402 238.195 574.132C237.675 577.932 236.455 581.512 234.565 584.812C232.425 588.542 229.375 591.472 225.235 592.842C214.035 596.552 202.705 597.042 191.345 593.602C178.805 589.802 173.565 581.602 174.275 567.662C174.755 558.132 178.265 549.522 183.715 541.702C184.245 540.932 184.775 540.172 185.555 539.062C183.065 538.122 180.795 537.102 178.425 536.412C171.145 534.282 167.035 529.042 164.275 522.392C163.085 519.522 161.885 516.662 160.695 513.792C159.855 511.772 158.885 510.512 156.175 511.072C153.325 511.662 151.015 510.072 149.365 507.702C136.795 489.612 124.115 471.592 112.255 453.012C108.055 446.432 106.625 439.352 107.055 431.752C107.325 427.012 110.645 423.202 115.775 421.732C117.325 421.292 118.995 420.862 120.565 420.992C123.835 421.252 126.105 419.892 128.385 417.712C131.115 415.102 134.255 412.942 137.225 410.592C138.365 409.692 139.645 408.922 140.525 407.452C137.735 406.042 134.845 406.242 132.135 405.772C118.565 403.402 104.885 401.562 91.3853 398.862C81.6053 396.902 71.7752 395.072 62.1252 392.382C57.0952 390.982 53.4752 388.202 50.8352 383.852C44.4552 373.372 39.8152 362.192 37.3852 350.152C36.8152 347.352 35.8952 345.362 33.1352 343.922C27.1552 340.812 23.6852 335.212 20.1952 329.702C13.1452 318.572 8.98523 306.382 6.72523 293.472C5.97523 289.212 5.22523 284.952 4.47523 280.702C4.91523 280.072 4.84525 279.512 4.25525 279.012L4.22523 278.962ZM365.555 394.902C364.215 395.022 362.855 395.052 361.525 395.262C353.795 396.512 346.085 397.862 338.345 399.052C327.925 400.662 317.465 401.872 306.925 402.512C291.685 403.432 276.455 404.722 261.205 405.372C243.635 406.112 226.065 406.692 208.465 406.692C217.115 406.552 225.705 408.052 234.375 407.592C241.795 407.202 249.235 407.182 256.665 406.892C273.135 406.242 289.585 405.212 306.035 404.052C318.045 403.202 329.945 401.582 341.825 399.802C349.955 398.582 358.035 396.972 366.135 395.532C369.325 395.742 372.115 394.082 375.145 393.522C371.865 393.472 368.625 393.582 365.555 394.912V394.902ZM198.295 413.532C200.945 417.252 203.345 421.122 205.665 425.052C212.545 436.652 218.625 448.642 223.595 461.192C226.945 469.652 229.455 478.412 232.995 486.802C233.625 488.292 234.035 489.882 235.465 490.862C237.585 497.752 240.805 504.092 245.265 509.752C246.065 510.772 246.685 512.082 248.075 512.542C252.935 514.142 257.635 516.162 262.495 517.782C269.985 520.272 277.685 521.162 285.485 521.542C288.335 521.682 291.065 520.772 293.925 520.752C298.825 520.722 303.585 519.532 307.975 517.432C312.095 515.462 316.035 513.172 320.345 511.562C321.805 511.012 323.135 509.892 324.295 508.792C327.045 506.192 329.845 503.612 332.285 500.732C336.585 495.642 339.935 489.992 340.925 483.232C341.285 482.222 341.705 481.222 341.995 480.192C345.235 468.712 345.895 456.822 347.655 445.102C349.295 434.172 351.265 423.332 355.145 412.912C356.325 409.752 357.885 406.772 359.165 403.672C360.035 401.552 358.555 402.262 357.565 402.452C354.785 402.032 352.345 403.482 349.705 403.892C343.335 404.872 336.925 405.632 330.575 406.642C322.465 407.922 314.315 408.652 306.165 409.352C298.135 410.032 290.075 410.522 282.025 410.982C273.025 411.492 263.985 411.562 254.965 411.822C237.965 412.322 220.955 412.022 203.945 412.052C202.465 412.052 200.965 411.842 199.565 412.532C199.165 412.392 198.765 412.252 198.355 412.112C196.995 412.522 197.605 413.032 198.285 413.552L198.295 413.532ZM191.605 474.432C189.435 475.022 190.305 476.802 190.235 478.142C190.125 480.152 190.305 482.092 188.705 483.812C187.245 485.372 186.125 487.292 184.435 488.642C179.705 492.422 175.845 497.152 171.135 500.932C169.125 502.542 167.215 504.222 165.385 506.012C164.195 507.182 163.625 508.502 164.435 510.012C167.315 515.352 169.315 521.142 172.595 526.262C175.645 531.022 185.285 534.522 190.555 532.582C194.065 531.282 197.505 529.682 200.435 527.152C205.015 523.192 209.745 519.402 214.345 515.452C216.195 513.862 218.415 511.772 218.155 509.522C217.765 506.202 217.115 502.532 213.705 500.402C209.595 497.842 205.615 495.092 201.105 493.172C197.445 491.612 194.045 489.452 190.455 487.512C192.345 485.412 194.385 484.702 196.745 484.812C201.465 486.512 205.395 489.972 210.535 491.642C210.775 485.712 210.035 480.612 207.555 475.772C205.705 472.172 202.945 470.472 199.005 471.222C196.355 471.732 193.275 471.552 191.615 474.442L191.605 474.432ZM404.535 403.162C402.375 402.572 400.635 401.522 399.465 399.452C398.745 398.182 397.475 397.242 396.625 396.032C395.875 394.982 394.925 394.702 393.815 394.912C391.175 395.412 388.545 396.002 385.925 396.582C385.245 396.732 384.605 397.132 384.565 397.882C384.505 398.802 385.405 398.682 385.955 398.982C390.435 401.432 395.095 403.652 398.195 407.982C398.095 408.512 398.135 409.122 397.885 409.572C395.195 414.342 394.885 419.622 394.675 424.882C394.175 437.602 394.595 450.322 394.885 463.032C395.015 468.682 395.645 474.332 397.345 479.802C398.495 483.522 399.505 484.492 403.375 484.132C407.405 483.752 411.425 483.202 415.435 482.592C422.115 481.582 428.795 480.542 435.445 479.362C438.515 478.822 438.875 478.322 438.535 475.282C438.105 471.392 437.695 467.482 436.445 463.732C430.765 446.692 424.965 429.692 417.465 413.342C416.855 412.002 416.495 410.212 415.195 409.612C412.835 408.512 411.445 406.522 409.935 404.662C408.405 402.792 406.695 402.412 404.555 403.152L404.535 403.162ZM133.945 430.712C134.515 428.442 136.185 427.022 138.025 425.912C144.925 421.742 151.355 416.792 158.705 413.332C160.215 412.622 162.155 411.872 162.915 409.522C159.755 409.592 156.975 409.222 154.195 408.802C149.805 408.142 145.585 408.402 142.705 412.612C142.195 413.352 141.235 413.772 140.515 414.372C136.005 418.182 131.235 421.732 127.615 426.502C125.705 426.582 123.895 425.602 121.965 425.942C121.085 425.722 120.215 425.602 119.495 426.352C114.355 427.392 112.385 428.702 112.455 432.192C112.565 438.072 112.665 443.852 116.305 449.222C124.795 461.732 132.955 474.472 141.675 486.832C145.475 492.222 149.055 497.772 152.835 503.172C154.865 506.062 155.845 506.162 158.875 504.312C159.445 503.962 160.015 503.582 160.525 503.132C168.265 496.252 176.365 489.772 183.555 482.272C185.085 480.672 185.055 479.452 184.065 477.692C180.825 471.922 177.735 466.072 174.525 460.292C173.265 458.032 171.615 456.052 169.415 454.622C164.785 451.592 160.555 447.992 155.735 445.232C151.985 443.092 148.195 440.972 144.685 438.482C141.085 435.932 136.855 434.232 133.955 430.722L133.945 430.712ZM83.7752 391.622C86.1152 392.222 88.4352 392.972 90.8052 393.402C96.8852 394.512 103.065 395.212 109.085 396.582C115.255 397.982 121.585 398.382 127.735 399.882C129.545 400.322 131.465 400.352 133.335 400.572C138.615 402.032 143.975 402.842 149.475 402.692C144.065 401.902 138.865 400.002 133.355 399.832C127.415 398.972 121.985 396.472 116.345 394.622C110.985 392.862 107.875 389.382 106.445 383.872C101.165 363.542 98.6352 342.762 96.0652 322.002C94.8552 312.212 94.1452 302.372 93.1852 292.552C92.3052 283.532 91.6752 274.512 91.7152 265.432C91.7352 260.552 92.9452 256.082 94.7052 251.682C95.7052 249.182 97.0552 246.812 98.2752 244.402C100.095 240.802 102.665 237.922 106.345 236.142C114.035 232.432 122.145 229.842 130.355 227.622C138.215 225.502 146.325 225.042 154.395 224.242C170.535 222.652 186.715 221.562 202.895 220.552C218.545 219.572 234.205 218.652 249.875 218.132C267.175 217.552 284.405 215.912 301.695 215.252C307.365 215.042 313.055 214.922 318.705 214.442C334.495 213.092 350.305 212.802 366.125 212.942C371.835 212.992 377.465 213.732 382.965 215.142C388.395 216.532 393.895 217.572 399.135 219.932C401.885 221.172 404.555 222.112 406.505 224.442C412.825 231.972 416.565 240.862 418.135 250.342C419.945 261.252 420.375 272.372 420.775 283.462C420.975 289.002 421.275 294.542 421.825 300.052C422.655 308.252 423.285 316.462 423.995 324.672C424.655 332.342 425.235 340.022 425.945 347.692C426.605 354.922 427.795 362.182 426.415 369.512C425.695 373.312 424.075 376.362 420.865 378.562C417.945 380.562 414.835 382.172 411.485 383.292C406.005 385.122 400.515 386.912 394.145 389.012C395.485 388.942 395.905 388.992 396.285 388.892C406.615 386.272 417.005 383.842 427.265 380.932C436.335 378.352 445.525 376.082 454.265 372.422C462.485 370.112 470.325 366.872 478.055 363.252C482.795 361.032 485.335 357.422 486.405 352.532C487.535 347.382 488.865 342.272 489.475 337.032C490.235 330.452 491.285 323.752 489.455 317.282C486.645 307.312 485.585 297.142 484.975 286.872C484.335 276.072 483.755 265.272 483.065 254.482C482.065 238.832 481.105 223.182 479.905 207.552C479.375 200.662 479.335 193.772 478.965 186.892C478.065 170.152 476.825 153.422 476.895 136.642C476.925 128.532 477.015 120.412 477.175 112.302C477.325 104.732 475.455 97.5816 472.865 90.5716C472.565 89.7716 472.525 88.6416 471.145 88.5316C471.135 93.6716 471.395 98.7916 470.395 103.852C469.755 107.092 467.985 109.212 464.765 110.042C463.725 110.312 462.685 110.592 461.625 110.782C455.925 111.782 450.325 110.682 444.705 109.932C434.655 108.582 424.665 106.912 414.745 104.862C402.715 102.372 390.795 99.4116 378.895 96.3816C364.895 92.8116 350.975 89.0316 337.385 84.0716C332.815 82.4016 330.015 79.3716 328.195 75.0716C327.315 72.9916 327.505 71.2116 328.905 69.4116C330.905 66.8516 332.855 64.2716 335.275 62.0716C335.885 61.5116 337.075 61.2016 336.525 59.6916C323.755 59.4216 310.935 59.1616 298.145 60.4116C294.495 60.4516 290.835 60.3516 287.195 60.5516C270.865 61.4816 254.545 62.6916 238.205 63.4016C227.385 63.8716 216.635 65.0016 205.895 66.2416C202.705 66.6116 199.405 66.3216 196.305 67.4416C184.065 67.9516 154.025 72.1216 150.085 73.8516C150.205 74.6016 150.845 74.9216 151.325 75.3716C155.265 79.0316 159.145 82.7716 163.155 86.3516C165.855 88.7616 166.185 91.5516 165.185 94.8116C164.145 98.2116 161.775 100.542 159.095 102.572C154.225 106.262 148.355 107.612 142.615 109.042C121.775 114.232 100.915 119.322 79.7752 123.292C65.1552 126.042 50.6052 129.012 35.7352 130.002C34.3052 130.092 33.5252 130.472 33.3552 132.052C32.6252 138.902 31.5952 145.732 31.0752 152.602C30.4352 160.962 30.2252 169.352 29.7852 177.732C28.4352 203.042 29.2152 228.302 31.3652 253.532C32.4852 266.732 33.8152 279.912 35.1652 293.092C35.9652 300.882 36.8152 308.672 38.0552 316.412C39.0752 322.812 39.8052 329.262 40.8452 335.662C42.1352 343.592 42.6452 351.632 45.5552 359.302C48.0952 366.012 50.7952 372.602 54.1852 378.932C56.6352 383.512 60.0952 386.472 65.1652 387.732C71.3252 389.272 77.5352 390.572 83.7952 391.622H83.7752ZM420.745 361.272C421.305 355.932 420.165 350.032 419.665 344.152C419.185 338.572 418.405 332.952 417.635 327.372C416.595 319.922 416.595 312.352 416.015 304.842C415.435 297.342 414.835 289.822 414.375 282.312C413.925 274.922 412.935 267.532 413.445 260.092C413.685 256.562 412.935 253.072 412.395 249.662C411.055 241.272 406.725 234.102 401.885 227.262C401.125 226.192 400.035 225.462 398.875 225.352C395.335 225.022 392.175 223.412 388.775 222.602C384.045 221.462 378.995 221.802 374.525 220.122C370.285 218.532 366.115 218.762 361.855 218.672C359.695 218.632 357.515 218.782 355.365 218.642C348.305 218.192 341.345 219.512 334.325 219.762C329.645 219.932 324.985 220.802 320.305 221.062C311.825 221.532 303.345 221.092 294.825 221.712C285.045 222.432 275.215 222.872 265.405 223.392C256.665 223.852 247.945 224.362 239.215 224.962C231.705 225.482 224.135 225.632 216.595 225.962C213.215 226.112 209.795 225.732 206.465 226.182C199.945 227.072 193.375 227.442 186.845 228.272C180.865 229.032 174.715 228.912 168.695 228.962C161.435 229.022 154.395 230.842 147.075 230.442C142.735 230.202 138.235 232.242 133.855 233.412C130.625 234.282 127.505 236.022 124.245 236.272C119.545 236.622 115.375 238.392 111.015 239.722C108.685 240.432 106.925 241.842 105.505 243.662C100.405 250.242 98.0852 257.822 97.5152 266.042C96.9652 274.022 98.3452 281.922 98.5252 289.882C98.5852 292.762 99.0353 295.762 99.4153 298.692C100.195 304.682 101.235 310.672 101.495 316.682C101.745 322.762 103.005 328.682 103.465 334.722C104.005 341.802 105.365 348.812 106.485 355.842C107.455 361.942 108.665 368.002 109.625 374.102C110.285 378.262 112.675 381.852 113.225 386.062C113.415 387.492 114.835 388.512 116.265 389.112C122.885 391.862 129.765 393.722 136.815 394.882C144.765 396.192 152.725 397.412 160.725 398.392C169.275 399.442 177.785 400.632 186.415 400.602C189.935 400.592 193.495 400.272 196.955 400.702C200.985 401.202 205.085 401.942 209.025 401.242C212.905 400.552 216.725 400.982 220.555 400.752C231.595 400.082 242.665 400.772 253.745 399.962C264.065 399.202 274.455 399.672 284.805 398.332C291.575 397.452 298.515 398.002 305.395 397.492C311.545 397.032 317.675 396.472 323.705 395.362C330.585 394.102 337.595 394.012 344.455 392.552C350.485 391.272 356.655 390.662 362.765 389.732C368.205 388.902 373.375 386.692 378.995 386.642C380.705 386.632 382.465 386.112 384.105 385.552C388.695 383.992 393.475 383.192 398.115 381.842C403.935 380.152 409.845 378.622 415.225 375.702C418.885 373.722 421.455 371.012 420.765 366.352C420.555 364.892 420.735 363.382 420.735 361.272H420.745ZM483.155 122.432C482.195 123.022 482.445 123.922 482.455 124.682C482.685 134.532 481.935 144.392 483.065 154.252C483.785 160.532 483.195 166.912 483.855 173.262C484.525 179.682 484.265 186.192 484.675 192.672C485.255 201.822 485.715 210.972 486.355 220.122C486.975 229.002 487.545 237.892 487.915 246.772C488.235 254.322 489.275 261.842 488.965 269.422C488.945 269.962 488.965 270.512 489.035 271.042C490.115 280.142 490.315 289.312 491.195 298.432C491.735 304.092 493.405 309.502 493.915 315.142C494.075 316.892 495.215 317.122 496.855 315.972C501.455 312.752 505.245 308.832 507.815 303.732C509.765 299.852 511.195 295.822 512.525 291.702C515.305 283.142 516.335 274.392 516.645 265.452C517.115 251.512 515.785 237.632 515.575 223.722C515.515 219.582 515.315 215.352 514.805 211.222C513.815 203.202 513.535 195.122 512.725 187.082C511.985 179.712 511.575 172.332 510.185 165.022C508.195 154.572 504.905 144.712 498.755 135.882C494.675 130.012 489.585 125.472 483.155 122.442V122.432ZM37.5852 124.502C44.3052 124.602 50.0052 123.372 55.7252 122.562C66.1252 121.092 76.3452 118.602 86.6552 116.612C107.975 112.492 128.985 107.152 149.955 101.612C152.625 100.912 155.005 99.6616 157.055 97.8616C160.605 94.7516 160.705 91.5916 157.475 88.1716C156.365 86.9916 155.245 85.8016 154.025 84.7316C145.115 76.9216 136.225 69.1016 126.385 62.3916C118.235 56.8316 110.205 51.1116 101.505 46.4616C94.2452 42.5816 86.8652 38.8916 79.3952 35.4416C72.4152 32.2216 65.2552 29.4216 57.5852 28.1316C55.1252 27.7216 53.0552 27.7016 51.7252 30.2416C51.2852 31.0716 50.6252 31.7716 50.0752 32.5416C41.3652 44.6916 36.2552 58.4116 32.5452 72.7416C31.1252 78.2216 30.1752 83.8116 29.4352 89.4016C28.8852 93.5316 28.4652 97.7616 28.7352 101.902C28.9552 105.122 29.2552 108.352 29.2752 111.582C29.2952 113.762 29.5352 115.872 30.0652 117.992C31.6752 124.452 31.7252 124.532 37.5952 124.512L37.5852 124.502ZM465.475 95.1016C465.985 90.5616 464.785 85.7816 464.545 80.9316C464.275 75.5616 463.915 70.1016 462.635 64.9116C460.555 56.4116 458.725 47.8016 455.605 39.5916C453.455 33.9316 451.915 28.0016 448.375 22.9216C445.215 18.3816 442.225 13.7316 439.135 9.14162C436.305 4.94162 434.425 4.18162 429.575 5.29162C428.785 5.47162 428.005 5.71162 427.265 6.03162C422.065 8.28162 416.805 10.4116 411.695 12.8716C396.555 20.1516 382.535 29.2716 369.195 39.4316C364.385 43.1016 359.725 46.9716 354.945 50.6916C348.445 55.7516 343.385 62.4116 336.925 67.5516C335.995 68.2916 335.245 69.3016 334.525 70.2816C332.565 72.9516 332.665 73.6616 334.675 76.3116C336.345 78.5116 338.715 79.2916 341.195 80.0716C343.845 80.9116 346.345 82.3516 349.035 82.9016C351.015 83.3116 352.985 83.6816 354.905 84.3016C358.755 85.5416 362.565 86.9516 366.475 87.9916C381.975 92.0916 397.545 95.8816 413.205 99.3216C425.575 102.042 438.085 103.922 450.615 105.652C454.065 106.132 457.645 105.922 461.155 105.742C464.445 105.572 465.335 104.472 465.455 101.132C465.525 99.2416 465.465 97.3416 465.465 95.0916L465.475 95.1016ZM35.2152 338.572C35.9552 337.272 35.0852 336.152 34.9652 335.012C34.2352 327.922 33.5052 320.822 32.4452 313.772C31.5052 307.512 30.9852 301.212 30.1152 294.952C29.2852 288.942 29.0152 282.872 28.3052 276.872C27.2752 268.192 26.2452 259.492 25.5052 250.802C24.6952 241.282 24.1052 231.702 23.8552 222.152C23.3652 203.922 23.5052 185.682 24.5652 167.462C24.6152 166.532 24.9052 165.612 25.0252 164.672C25.2852 162.652 25.6852 160.522 24.0052 158.952C23.1652 158.172 20.7952 160.122 19.1752 162.572C14.2552 169.972 11.1652 178.012 9.37524 186.752C7.53524 195.762 6.32523 204.852 5.97523 213.962C5.49523 226.492 5.55524 239.052 6.35524 251.622C6.90524 260.252 8.25523 268.752 9.22523 277.302C10.6452 289.762 13.8852 301.892 18.0652 313.752C21.0852 322.322 26.1852 329.542 32.1252 336.252C32.9552 337.192 33.6052 338.552 35.2152 338.562V338.572ZM327.865 567.972C327.865 568.612 327.885 569.012 327.865 569.422C326.995 581.792 333.595 589.022 345.045 590.792C353.145 592.052 360.905 590.832 368.705 589.242C374.725 588.012 378.245 584.142 379.925 578.282C382.165 570.412 381.455 562.802 378.355 555.352C374.395 545.822 368.115 537.942 360.645 530.972C359.255 529.672 357.445 529.092 355.495 528.852C350.855 528.272 346.345 529.192 341.805 529.852C340.795 530.002 340.025 530.522 339.515 531.362C337.905 534.002 335.845 536.322 334.535 539.202C330.335 548.442 328.465 558.172 327.855 567.992L327.865 567.972ZM216.005 490.142C218.735 487.512 220.775 485.362 223.025 483.462C224.705 482.042 224.985 480.802 224.205 478.632C218.615 462.972 212.175 447.712 204.015 433.192C200.365 426.702 196.445 420.412 191.995 414.442C190.345 412.232 188.375 411.042 185.475 411.122C182.515 411.202 179.535 410.892 176.575 410.602C174.595 410.412 172.895 410.822 171.185 411.852C164.825 415.682 158.375 419.382 151.995 423.182C148.585 425.212 144.975 426.962 141.715 429.472C142.945 430.912 144.315 431.782 145.705 432.592C154.825 437.882 163.375 444.062 172.205 449.802C175.105 451.682 177.265 454.182 178.885 457.262C180.765 460.852 182.955 464.272 184.875 467.842C185.795 469.552 186.725 469.742 188.375 468.772C190.705 467.402 193.295 466.532 195.905 465.852C202.965 464.012 208.665 466.432 212.035 472.642C212.875 474.182 213.495 475.812 214.045 477.492C215.315 481.382 215.645 485.402 215.995 490.142H216.005ZM233.035 567.882C233.385 562.542 232.355 557.232 230.685 552.102C227.315 541.682 220.825 533.662 211.405 528.012C209.755 527.022 208.475 527.132 207.105 528.492C204.795 530.782 201.925 532.362 199.325 534.292C196.145 536.662 192.895 538.842 190.245 542.052C184.535 548.952 181.315 556.772 179.835 565.422C179.245 568.882 179.085 572.442 179.875 575.892C181.435 582.652 186.245 586.452 192.455 588.452C202.265 591.612 212.175 591.272 221.895 587.992C226.715 586.362 230.135 583.092 231.685 577.972C232.685 574.682 233.165 571.402 233.025 567.872L233.035 567.882ZM349.705 474.662C348.185 475.632 348.495 477.152 348.225 478.402C345.775 489.702 341.665 500.092 332.535 507.832C331.805 508.452 331.195 509.222 330.975 510.162C329.865 514.932 329.645 519.792 329.755 524.652C329.805 527.062 331.365 527.902 333.685 527.112C335.835 526.372 338.015 525.772 340.205 525.172C346.915 523.332 353.555 521.802 360.395 524.432C362.385 525.202 363.445 524.232 364.205 522.562C364.905 521.032 364.925 519.382 364.795 517.782C363.755 505.012 360.665 492.782 354.775 481.352C353.505 478.882 351.945 476.472 349.705 474.672V474.662ZM442.605 494.892C442.985 493.372 442.205 491.722 441.935 489.992C441.005 483.952 441.025 483.962 435.055 485.002C428.035 486.232 420.905 486.642 413.915 488.162C409.865 489.042 405.685 489.422 401.545 489.732C397.695 490.012 397.245 490.102 396.135 493.482C395.585 495.142 395.055 496.832 394.815 498.562C394.575 500.272 394.395 502.032 395.235 503.722C398.335 509.962 402.695 512.022 409.525 510.642C413.475 509.842 417.465 508.892 421.465 508.762C426.795 508.592 431.765 506.802 436.975 506.192C438.955 505.962 440.245 504.692 440.855 503.012C441.755 500.492 442.975 498.002 442.615 494.902L442.605 494.892ZM213.465 523.382C219.915 526.422 224.615 530.672 228.065 536.372C229.615 538.932 230.085 538.922 232.305 536.842C233.385 535.832 234.385 534.712 235.255 533.522C239.125 528.202 241.065 522.012 243.085 515.862C243.455 514.752 243.035 514.102 242.355 513.372C236.365 506.942 232.655 499.172 229.325 491.182C228.765 489.832 228.435 488.332 226.995 487.362C224.285 488.722 222.855 491.492 220.665 493.442C218.555 495.322 218.665 496.082 220.145 498.732C220.935 500.142 221.755 501.542 222.475 502.982C224.845 507.742 224.125 512.072 220.665 516.072C218.545 518.512 216.315 520.842 213.465 523.392V523.382ZM390.425 475.092C383.405 480.692 380.515 488.272 378.785 496.422C378.195 499.212 379.265 501.742 381.235 503.822C383.135 505.822 384.915 505.862 386.725 503.822C388.075 502.292 389.075 500.482 389.495 498.482C390.325 494.522 391.475 490.652 392.695 486.802C392.995 485.862 393.135 484.962 392.885 484.032C392.095 481.092 391.275 478.172 390.425 475.102V475.092ZM398.335 514.592C397.755 516.852 398.615 518.782 398.845 520.762C399.315 524.862 401.955 527.682 405.875 528.612C408.415 529.222 409.845 528.342 410.145 525.802C410.465 523.072 409.705 520.462 408.985 517.862C408.755 517.042 408.195 516.392 407.225 516.542C404.035 517.032 401.205 515.762 398.325 514.592H398.335Z" fill="#4B1A61"/>
<path d="M35.8852 108.712C36.4552 98.9216 38.4552 88.6416 40.9852 78.4216C43.1652 69.6116 46.0552 61.0816 49.6652 52.7816C50.4652 50.9316 51.4452 49.1216 52.5952 47.4816C55.2752 43.6516 60.3052 42.1516 65.7352 43.7616C73.5352 46.0716 80.9552 49.3116 87.9452 53.4916C91.8752 55.8316 95.8353 58.0716 99.9453 60.1116C104.885 62.5616 109.475 65.7016 114.215 68.5616C121.735 73.0916 128.625 78.5016 135.725 83.6316C137.695 85.0516 139.745 86.4316 141.445 88.1416C144.045 90.7616 144.865 93.8016 140.195 96.1116C132.755 99.7816 124.735 101.492 116.705 103.182C108.265 104.962 99.8752 106.932 91.4052 108.562C83.3552 110.112 75.3452 111.872 67.2852 113.402C59.4952 114.882 51.5952 115.722 43.8852 117.582C42.8452 117.832 41.7452 117.942 40.6752 117.932C37.8352 117.902 36.1352 116.332 35.9152 113.532C35.8052 112.192 35.8952 110.832 35.8952 108.732L35.8852 108.712Z" fill="#4B1A61"/>
<path d="M428.085 20.5216C433.235 20.1116 436.465 22.6516 438.525 26.8716C443.595 37.3016 448.405 47.7916 451.955 58.9216C455.375 69.6316 457.715 80.5016 459.545 91.5316C459.795 93.0216 459.585 94.4716 459.075 95.9216C458.095 98.6716 457.255 99.4216 454.365 99.3616C450.305 99.2716 446.395 98.0916 442.405 97.4716C427.625 95.1716 413.045 91.9016 398.465 88.6416C394.785 87.8216 391.155 86.7616 387.485 85.8716C377.265 83.3916 367.095 80.7516 356.905 78.1616C355.725 77.8616 354.585 77.4416 353.435 77.0416C349.115 75.5316 347.835 71.4516 350.545 67.7516C351.095 67.0016 351.785 66.2816 352.565 65.7716C359.005 61.5216 364.465 55.9916 370.805 51.6616C374.785 48.9416 378.495 45.7216 383.015 43.7816C384.115 43.3116 385.085 42.5116 386.045 41.7616C394.585 35.0716 404.095 29.9516 413.685 25.0016C416.555 23.5216 419.675 22.5516 422.695 21.3716C424.485 20.6716 426.345 20.3816 428.095 20.5116L428.085 20.5216Z" fill="#4B1A61"/>
</g>
</g>
</g>
</svg>
