<svg width="587" height="702" viewBox="0 0 587 702" fill="none" xmlns="http://www.w3.org/2000/svg">
<g id="walkfront1">
<g id="Group">
<path id="id5" d="M237.234 450.551C234.651 450.551 232.068 450.437 229.485 450.574C218.096 451.143 206.763 449.982 195.419 449.481C188.08 449.162 180.661 448.479 173.481 446.453C172.753 446.248 171.991 446.009 171.263 446.043C162.365 446.419 153.888 443.858 145.343 442.082C141.258 441.229 137.253 439.703 133.213 438.485C128.104 436.937 125.522 432.988 124.338 428.082C122.461 420.308 120.765 412.488 119.764 404.543C119.195 400.047 117.887 395.711 117.58 391.135C117.17 384.988 116.032 378.876 115.156 372.764C114.359 367.243 113.927 361.677 112.789 356.191C112.027 352.492 111.777 348.633 111.697 344.945C111.492 334.792 109.239 324.833 109.478 314.623C109.569 310.787 109 306.803 108.704 302.887C108.044 294.225 111.378 286.565 114.223 278.757C117.932 275.604 119.81 270.789 124.964 268.786C132.053 266.043 139.38 264.244 146.617 262.127C150.406 261.023 153.899 259.282 157.461 257.756C159.486 256.891 161.318 256.277 163.48 256.288C169.249 256.322 175.029 256.231 180.798 256.288C188.979 256.356 197.103 255.719 205.193 254.535C205.636 254.467 206.103 254.444 206.558 254.478C215.365 255.07 224.126 253.818 232.865 253.283C238.691 252.93 244.687 253.431 250.444 251.86C251.013 251.701 251.65 251.792 252.254 251.735C265.259 250.54 278.31 250.881 291.338 250.756C298.438 250.688 305.516 250.073 312.547 249.083C313.003 249.015 313.458 248.969 313.913 249.003C324.54 249.618 335.088 247.842 345.704 247.979C353.248 248.081 360.757 246.989 368.29 246.476C373.41 246.124 378.496 245.202 383.662 245.281C388.031 245.35 392.469 245.885 396.77 244.484C397.043 244.393 397.373 244.416 397.68 244.439C405.326 245.202 413.121 244.678 420.539 247.239C421.256 247.489 422.007 247.979 422.701 247.899C429.073 247.205 434.83 250.289 440.986 250.859C441.999 250.95 442.989 251.519 443.944 251.963C444.491 252.213 444.889 252.816 445.435 252.987C455.88 256.368 459.203 265.326 462.082 274.488C463.663 279.531 464.585 284.767 464.448 290.116C464.232 298.915 465.336 307.611 466.053 316.353C466.61 323.262 467.6 330.194 467.236 337.205C466.849 344.479 468.488 351.672 468.704 358.877C468.909 366.037 470.49 372.957 471.048 380.048C471.594 387.083 471.56 394.208 473.266 401.185C474.541 406.376 473.335 411.737 472.39 416.95C472.14 418.316 470.866 419.204 469.762 420.001C467.168 421.856 464.448 423.609 461.433 424.633C452.694 427.581 443.91 430.324 434.91 432.498C424.931 434.911 414.657 435.617 404.757 438.36C401.56 439.248 398.169 438.838 394.858 439.453C392.196 439.954 389.51 440.352 386.871 441.012C381.728 442.299 376.516 443.038 371.214 443.312C368.062 443.471 364.785 443.653 361.827 444.621C358.266 445.782 354.647 445.554 351.097 446.123C343.747 447.318 336.248 446.055 328.966 447.739C328.67 447.808 328.363 447.83 328.056 447.808C320.012 447.216 312.024 448.513 304.025 448.9C292.51 449.458 280.95 448.934 269.503 449.879C258.716 450.767 247.975 450.05 237.234 450.562V450.551ZM356.195 293.235C351.962 294.612 348.218 296.946 344.725 299.621C333.381 308.328 328.397 323.216 331.538 336.534C334.03 347.108 340.902 354.188 350.267 359.116C352.098 360.084 353.942 361.233 355.922 361.7C361.383 362.986 366.856 363.59 372.557 362.85C382.001 361.62 389.795 357.477 396.292 350.727C403.119 343.648 405.52 335.099 405.201 325.322C404.78 312.642 398.545 303.741 388.498 296.9C387.235 296.399 386.552 295.17 385.255 294.578C375.72 290.242 366.06 289.775 356.195 293.247V293.235ZM245.427 337.615C244.619 314.497 231.431 304.06 214.5 300.565C198.127 297.185 184.006 303.559 175.279 318.663C170.034 327.746 169.089 337.797 172.708 347.62C177.009 359.276 185.838 366.606 197.546 370.556C199.322 371.159 201.051 371.398 202.872 370.795C208.322 368.973 214.022 369.19 219.552 369.588C223.193 369.861 226.106 369.053 228.837 367.141C239.419 359.708 245.586 349.828 245.427 337.615ZM292.59 407.457C295.844 407.947 299.417 407.047 302.99 406.478C315.437 404.475 325.45 398.545 332.164 387.618C334.508 383.816 335.93 379.673 336.078 375.188C336.169 372.206 334.906 371.307 331.913 371.261C328.887 371.216 328.568 373.401 328.022 375.404C326.986 379.195 326.122 382.928 323.516 386.161C315.961 395.574 305.322 398.101 294.251 399.797C289.609 400.503 285.262 398.818 280.847 397.85C271.426 395.802 263.632 391.351 259.046 382.416C258.216 380.8 257.465 379.138 256.657 377.522C256.156 376.509 255.405 375.974 254.176 375.86C250.535 375.53 248.84 377.328 249.739 381.187C251.241 387.595 254.757 393.047 259.934 396.849C269.423 403.815 280.165 407.73 292.59 407.457Z" fill="#3C3C3C"/>
<g id="id3">
<g id="Vector">
<path d="M392.583 464.938C388.225 467.351 383.127 468.193 379.111 471.38C374.457 475.08 370.019 478.938 367.323 484.379C366.56 485.916 365.661 487.418 364.182 488.192C361.042 489.831 359.301 492.757 357.435 495.443C355.33 498.482 354.533 502.056 355.41 505.858C355.99 508.35 356.365 510.889 356.832 513.416C352.929 514.941 351.53 517.741 352.269 521.85C352.736 524.445 351.757 526.949 351.063 529.396C350.494 531.411 351.097 532.094 352.94 532.572C355.694 533.289 358.368 534.359 361.121 535.099C363.386 535.714 365.297 536.784 366.89 538.491C368.54 540.244 370.429 541.78 371.646 543.932C372.534 545.502 373.649 546.083 375.731 545.73C378.326 545.286 380.624 544.296 383.002 543.397C382.308 549.202 380.613 554.529 376.05 558.581C375.162 559.366 374.605 560.504 373.877 561.472C369.667 567.083 365.115 572.274 358.345 574.971C356.968 575.518 355.728 576.508 354.556 577.453C351.677 579.786 348.332 580.947 344.885 582.199C333.882 586.206 322.435 586.49 311.193 585.341C299.155 584.111 287.31 580.867 277.252 573.537C273.577 570.862 271.301 566.685 269.253 562.656C267.409 559.036 265.942 555.189 265.452 551.08C268.035 550.955 269.924 549.987 271.198 547.494C273.269 543.465 276.535 540.597 280.87 539.003C282.144 538.536 283.339 537.831 284.579 537.262C286.218 536.522 286.901 535.44 286.104 533.642C284.841 530.808 284.693 527.791 284.727 524.73C284.784 519.847 284.727 519.835 279.835 518.39C278.242 517.923 276.603 517.582 275.022 517.058C268.24 514.827 262.312 511.594 258.807 504.81C256.737 500.793 254.131 496.991 251.332 493.44C246.644 487.498 241.717 481.738 236.688 476.093C233.98 473.054 231.204 469.992 227.665 467.795C226.812 467.26 226.072 466.884 225.378 467.954C223.751 466.771 222.59 465.291 222.169 463.31C240.659 463.31 258.944 463.788 277.206 463.162C293.682 462.605 310.158 461.865 326.634 461.182C335.338 460.818 344.077 459.85 352.793 458.985C359.995 458.279 367.186 457.323 374.411 456.743C382.194 456.117 390 454.944 397.589 452.861C398.943 452.486 400.24 452.258 401.606 452.508C398.602 456.652 395.586 460.795 392.583 464.938Z" fill="#7B36A9"/>
<path d="M581.213 288.955C580.063 299.154 580.871 309.546 578.436 319.631C576.081 329.408 572.838 338.844 567.092 347.21C564.828 350.511 561.312 352.526 558.16 354.848C556.476 356.1 555.611 355.554 554.963 353.368C554.439 351.615 554.451 349.783 554.155 347.996C553.199 342.191 552.175 336.431 551.674 330.512C550.81 320.245 550.32 309.979 549.877 299.689C549.49 290.481 548.739 281.272 548.136 272.075C547.442 261.501 547.305 250.893 546.281 240.353C545.439 231.759 545.098 223.143 544.415 214.56C543.778 206.524 544.415 198.443 543.471 190.498C542.617 183.395 543.129 176.281 542.344 169.19C541.673 163.066 541.969 156.829 541.969 150.648C541.969 146.869 543.095 143.17 542.89 139.346C542.811 137.752 544.096 137.536 544.984 138.549C546.656 140.461 548.955 141.269 551.026 142.453C554.746 144.57 556.624 148.349 559.298 151.399C564.623 157.444 567.411 164.774 570.096 172.218C572.895 179.981 573.976 188.028 574.807 196.155C575.614 203.963 576.468 211.772 577.298 219.58C577.367 220.183 577.526 220.786 577.48 221.39C577.059 228.39 578.175 235.31 578.596 242.254C579.335 254.649 579.585 267.067 580.416 279.451C580.632 282.615 581.463 285.734 581.19 288.955H581.213Z" fill="#7B36A9"/>
<path d="M511.077 118.584C500.825 119.051 490.948 116.456 480.981 114.76C463.219 111.732 445.651 107.737 428.242 103.116C416.989 100.133 405.599 97.6178 394.642 93.5088C390.637 92.0063 386.381 90.9364 382.183 89.9347C378.747 89.1152 376.733 86.8615 374.889 84.2435C373.797 82.6955 373.774 81.1362 375.151 79.702C375.674 79.1556 376.175 78.5865 376.733 78.0629C385.482 69.9473 393.493 61.0691 403.21 53.9437C409.912 49.0265 415.863 43.0394 422.826 38.4864C434.33 30.9513 445.298 22.5739 458.065 16.9852C465.393 13.7753 472.459 9.8598 480.002 7.21909C487.831 4.47594 488.991 4.55562 493.838 11.146C498.959 18.112 503.886 25.2146 507.504 33.1254C511.293 41.4231 514.354 49.9713 516.311 58.8723C516.698 60.6479 516.959 62.4805 517.653 64.1423C519.975 69.6969 520.623 75.6157 520.851 81.489C521.101 88.0339 522.785 94.3511 523.331 100.839C523.672 104.948 523.854 109.023 523.616 113.098C523.354 117.469 522.045 118.448 517.46 118.573C515.332 118.63 513.204 118.573 511.077 118.573V118.584ZM516.641 103.628C515.491 97.0828 514.888 90.39 513.091 84.0273C509.472 71.2108 505.979 58.3031 500.552 46.0785C497.662 39.5792 495.238 32.8636 490.618 27.2179C488.195 24.2585 485.373 22.8357 481.652 22.8243C476.157 22.8129 471.287 25.0097 466.519 27.309C452.148 34.2408 439.04 43.2557 425.682 51.9063C415.601 58.4397 406.601 66.3391 396.997 73.4644C395.791 74.3523 394.71 75.5019 393.823 76.7084C391.024 80.5443 392.002 84.3232 396.281 86.3493C397.646 86.9981 399.102 87.442 400.536 87.9201C410.435 91.2437 420.846 92.473 430.837 95.5462C439.484 98.2097 448.473 99.7236 457.314 101.75C464.232 103.343 471.105 105.198 478.091 106.496C488.479 108.442 498.959 109.956 509.37 111.8C511.236 112.13 512.51 111.789 513.921 110.616C516.185 108.738 516.652 106.371 516.641 103.616V103.628Z" fill="#7B36A9"/>
<path d="M33.0042 105.642C32.7881 95.6828 35.5644 86.2468 37.8628 76.6856C39.7857 68.718 42.71 61.1601 46.0097 53.7616C48.7632 47.5696 52.6433 41.9239 56.4322 36.2896C59.5954 31.5887 61.837 30.4733 67.3099 32.192C74.0914 34.3205 80.9981 36.1758 87.4268 39.3515C93.9466 42.5727 100.546 45.6346 107.1 48.8103C119.411 54.7746 130.733 62.3666 141.997 70.0725C152.784 77.4483 162.353 86.2924 172.195 94.8291C173.914 96.3202 175.552 97.9138 177.088 99.587C180.547 103.343 180.524 103.935 177.475 108.67C175.632 111.527 172.662 113.166 169.305 114.099C164.652 115.408 159.861 116.091 155.208 117.514C137.685 122.853 119.707 126.347 101.82 130.183C88.2233 133.097 74.5579 135.692 60.8812 138.241C53.5649 139.607 46.1349 139.846 38.6934 139.653C36.6795 139.607 35.6326 138.685 34.9841 136.955C33.4139 132.789 32.4353 128.544 33.0725 124.048C37.3394 124.674 35.8943 128.35 36.6112 130.923C38.5569 129.841 37.988 128.384 37.8514 126.7C37.6011 123.774 36.5088 120.36 40.1726 118.436C40.7415 121.293 40.2864 124.196 40.4798 127.064C40.7301 130.684 42.3914 132.254 45.9187 132.243C47.432 132.243 48.9908 132.277 50.4586 131.958C61.9849 129.523 73.7387 128.373 85.2422 125.766C91.8758 124.264 98.6345 123.24 105.257 121.737C111.276 120.371 117.34 119.096 123.337 117.594C132.713 115.249 142.293 113.747 151.544 110.799C153.888 110.047 155.913 108.773 158.064 107.668C162 105.631 161.272 100.964 158.621 98.9495C155.97 96.9349 153.603 94.5901 150.838 92.6779C144.865 88.5575 138.72 84.6761 132.792 80.5443C126.932 76.4694 121.038 72.5539 114.826 69.0822C109.307 65.9862 103.493 63.3569 98.0314 60.2951C92.4788 57.1763 86.8465 54.399 81.1005 51.7355C76.2988 49.5046 71.3037 48.8216 66.0697 49.1517C64.3288 49.2655 62.6903 49.607 61.4501 50.768C58.9013 53.1697 56.5005 55.9356 55.3285 59.134C53.2463 64.7911 50.7089 70.3343 49.0932 76.1052C46.4079 85.7005 43.8705 95.3755 42.1297 105.233C41.6745 107.839 41.9817 110.662 40.4229 113.041C39.0916 111.151 37.4646 109.433 37.5556 106.838C37.6125 105.267 36.6908 104.777 35.1889 105.244C34.4948 105.46 33.7552 105.517 33.027 105.642H33.0042Z" fill="#7B36A9"/>
<path d="M27.6108 177.75C27.7245 184.602 27.9976 191.522 27.258 198.42C27.0532 200.378 26.7915 202.324 26.7915 204.293C26.7801 220.991 26.3136 237.712 26.9622 254.398C27.3718 264.791 27.5197 275.251 29.1923 285.598C29.9319 290.196 29.7158 294.942 30.3302 299.609C31.6842 309.785 31.6728 320.109 33.7778 330.228C34.5743 334.052 34.7564 338.036 34.8588 341.963C34.9725 346.379 35.9056 350.659 36.4517 355.007C37.0093 359.503 37.4189 364.022 37.7602 368.541C37.9309 370.829 37.874 373.56 35.6666 374.585C33.0382 375.814 31.4794 373.117 30.2847 371.398C27.4515 367.334 24.88 363.146 22.7181 358.581C17.0517 346.653 14.685 333.87 11.6925 321.224C11.0325 318.447 10.6001 315.579 10.3612 312.733C9.31438 300.543 6.49255 288.568 6.60634 276.218C6.72012 264.073 6.41291 251.929 6.66323 239.784C6.97045 225.009 9.40542 210.565 13.9795 196.553C16.1528 189.883 19.589 183.771 24.971 179.013C25.6082 178.455 26.0747 177.511 27.5994 177.772L27.6108 177.75Z" fill="#7B36A9"/>
<path d="M201.745 645.349C201.779 641.103 204.317 639.293 207.104 638.075C213.226 635.389 219.654 635.298 226.254 635.924C234.799 636.743 240.852 642.15 247.156 646.897C257.044 654.341 265.02 663.538 270.72 674.669C272.712 678.562 273.383 682.694 273.793 686.849C274.168 690.537 272.632 692.665 269.093 693.598C263.711 695.021 258.307 696.296 252.595 695.055C243.06 692.984 233.741 690.332 225.947 684.242C215.888 676.377 207.832 666.827 203.668 654.511C202.61 651.393 202.291 648.023 201.745 645.349Z" fill="#7B36A9"/>
<path d="M416.045 527.165C415.442 527.165 414.827 527.165 414.224 527.165C406.714 527.017 406.532 526.938 404.325 520.017C403.028 515.954 401.378 512.209 398.511 508.897C395.814 505.778 394.221 502.022 394.016 497.708C393.857 494.361 392.935 491.14 391.024 488.295C388.68 484.823 388.429 480.908 388.748 476.946C388.998 473.805 391.251 471.87 395.063 471.551C401.002 471.062 406.851 471.79 412.574 473.463C417.205 474.818 420.277 478.381 423.076 481.886C428.595 488.795 433.021 496.376 434.785 505.232C435.445 508.544 435.536 511.902 434.819 515.168C433.556 520.905 427.855 527.427 419.674 527.222C418.457 527.188 417.239 527.222 416.033 527.222V527.177L416.045 527.165Z" fill="#7B36A9"/>
<path d="M178.249 557.112C178.556 559.036 177.737 559.969 176.883 560.743C173.549 563.76 172.776 567.744 172.753 571.887C172.73 576.258 172.389 580.628 173.39 585.011C174.175 588.414 173.094 589.063 170.307 591.203C164.811 595.425 159.144 593.547 153.444 592.443C149.006 591.578 144.66 590.235 140.325 589.006C137.082 588.084 133.964 585.842 132.804 582.381C130.903 576.77 129.731 570.988 131.233 565.012C131.905 562.371 131.233 559.56 132.326 556.953C132.667 556.145 132.576 555.223 133.316 554.506C134.249 553.595 134.943 552.776 136.24 554.096C140.655 558.603 146.184 561.586 151.874 563.896C158.735 566.685 165.767 566.696 172.047 561.756C173.993 560.22 176.007 558.774 178.249 557.101V557.112Z" fill="#7B36A9"/>
<path d="M429.073 447.147C435.331 444.393 441.543 443.494 447.893 443.221C449.042 443.175 449.861 443.858 450.748 444.461C456.859 448.616 463.162 452.509 469.022 456.982C473.517 460.419 478.455 463.606 481.22 468.979C480.116 470.071 479.217 469.138 478.318 468.911C472.743 467.51 467.145 466.372 461.376 466.076C457.052 465.86 453.24 464.699 449.975 461.387C444.502 455.855 437.47 452.44 430.916 448.388C430.415 448.081 429.949 447.739 429.084 447.147H429.073Z" fill="#7B36A9"/>
<path d="M206.456 462.935C201.096 467.419 196.215 471.221 191.721 475.49C188.33 478.711 184.529 481.499 181.036 484.618C179.421 486.064 178.089 486.565 176.348 484.914C174.346 483.013 173.902 481.408 175.302 479.337C176.405 477.709 177.532 476.025 178.965 474.716C182.971 471.016 187.26 467.636 191.186 463.868C193.541 461.614 196.101 461.262 199.094 461.455C201.369 461.603 203.509 462.093 206.456 462.935Z" fill="#7B36A9"/>
<path d="M33.0042 105.642C33.7212 105.517 34.4722 105.46 35.1664 105.244C36.6685 104.777 37.5902 105.267 37.5333 106.838C37.4423 109.433 39.0696 111.151 40.401 113.052C40.3213 114.851 40.2522 116.638 40.1726 118.436C36.5088 120.36 37.6011 123.774 37.8514 126.7C37.988 128.384 38.5569 129.841 36.6112 130.923C35.8943 128.35 37.3394 124.674 33.0725 124.048C33.027 123.422 32.9815 122.796 32.9473 122.17C34.5632 121.122 33.6415 120.61 32.5149 120.144C32.2532 115.295 32.1166 110.446 33.0156 105.631L33.0042 105.642Z" fill="#7B36A9"/>
</g>
</g>
<g id="id1">
<g id="Vector_2">
<path d="M509.062 418.714C509.415 413.239 508.664 407.878 507.617 402.506C506.878 398.67 506.525 394.72 506.434 390.805C506.286 384.442 505.296 378.182 504.807 371.865C504.397 366.594 503.737 361.324 503.692 356.043C503.658 350.716 502.861 345.526 502.11 340.29C501.507 336.124 501.473 331.867 500.95 327.667C499.721 317.753 500.005 307.725 498.913 297.822C498.31 292.359 498.651 286.918 498.105 281.511C496.865 269.184 495.135 256.971 490.539 245.281C487.717 238.099 485.168 230.837 481.208 224.178C475.166 214.014 467.452 205.227 457.814 198.5C451.898 194.368 445.719 190.088 438.767 187.994C431.599 185.831 425.113 181.574 417.296 181.255C414.213 181.13 411.118 179.901 408.125 178.865C403.915 177.42 399.66 176.555 395.199 176.907C393.038 177.078 390.967 176.737 388.964 175.94C384.436 174.153 379.509 174.107 374.9 172.537C368.358 170.306 362.225 167.494 357.412 162.418C352.735 157.478 347.285 153.266 343.747 147.245C338.706 138.674 335.019 129.784 333.836 119.734C333.096 113.462 332.63 107.122 331.424 100.907C331.276 100.167 331.299 99.3935 331.299 98.6422C331.321 88.4664 331.344 78.2792 331.367 68.1033C332.493 67.4773 333.711 67.5684 334.928 67.6708C335.6 68.4448 336.203 68.3538 336.772 67.557C350.539 67.1358 364.307 65.7927 378.257 67.3407C377.984 69.3668 376.471 70.2888 375.31 71.3246C373.012 73.3734 371.453 76.0027 369.45 78.2792C368.392 79.4857 368.119 80.9996 368.358 82.5589C369.177 87.8176 372.397 91.6876 376.926 93.6226C390.443 99.3707 404.735 102.876 418.878 106.655C437.88 111.732 457.007 116.433 476.384 119.893C486.829 121.76 497.343 123.251 507.856 124.628C511.281 125.083 514.843 124.879 518.313 124.571C525.333 123.968 528.303 120.94 528.963 113.94C529.236 111.072 529.248 108.181 529.305 105.29C529.361 102.66 529.305 100.031 529.532 97.3674C533.071 106.211 536.325 115.09 536.291 124.833C536.223 139.721 536.268 154.609 536.268 169.486C536.268 180.732 537.247 191.921 537.986 203.132C538.009 203.44 538.055 203.736 538.055 204.043C537.918 218.635 539.306 233.148 540.216 247.694C540.979 259.794 542.026 271.87 542.754 283.97C543.118 290.025 543.459 296.092 543.687 302.148C544.108 313.234 545.166 324.252 545.837 335.316C546.167 340.768 547.055 346.254 548.796 351.41C551.037 358.092 551.14 364.807 550.73 371.648C550.172 380.913 548.67 389.985 545.758 398.841C544.54 402.551 542.264 405.181 539.01 407.059C529.623 412.488 519.462 415.926 509.051 418.714H509.062Z" fill="#CD80F1"/>
<path d="M212.498 76.4466C216.139 76.4922 219.78 76.606 223.421 76.5604C225.526 76.5377 226.527 77.3344 226.402 79.4971C226.072 85.0744 227.153 90.7201 225.628 96.2519C225.355 97.2422 225.526 98.3691 225.514 99.4276C225.344 112.142 223.796 124.674 221.373 137.16C219.711 145.72 216.036 153.312 211.246 160.221C204.851 169.463 196.898 177.533 186.532 182.325C181.548 184.625 176.587 187.368 170.853 187.937C166.461 188.381 162.501 190.543 158.359 191.943C146.139 196.053 134.26 201.049 122.927 207.23C113.836 212.181 105.257 217.964 98.5776 225.965C91.2499 234.753 85.6404 244.621 82.4203 255.696C81.1574 260.044 79.3482 264.21 78.5403 268.706C77.7894 272.861 77.4025 277.084 76.6857 281.204C75.5592 287.669 75.7868 294.203 75.582 300.634C75.4227 305.778 75.3089 311.197 76.3785 316.41C76.5264 317.149 76.845 317.901 76.7881 318.629C76.3443 325.163 77.5732 331.616 77.9373 338.104C78.3697 345.742 78.62 353.482 80.2698 361.028C80.5202 362.201 80.5088 363.442 80.486 364.659C80.3267 371.648 81.7718 378.478 82.682 385.353C83.8313 394.015 85.3673 402.62 86.892 411.225C88.2347 418.817 90.6469 426.158 92.6381 433.602C92.9794 434.889 93.5711 436.323 95.0503 436.721C97.4397 437.359 96.8139 439.168 96.8594 440.762C93.298 440.91 90.0325 439.476 86.6645 438.725C81.0663 437.484 75.3544 436.79 69.9611 434.536C66.5134 433.102 63.8281 430.996 62.1555 427.957C58.3779 421.105 54.5434 414.321 52.0743 406.74C48.5812 396.029 46.2145 385.216 45.6911 373.982C50.0945 369.964 47.5344 365.923 45.9983 361.723C44.3712 362.394 45.3952 364.204 44.1436 364.773C40.9122 346.687 39.0575 328.429 37.6011 310.127C36.998 302.569 35.8716 295.056 35.0978 287.51C34.5858 282.536 34.4151 277.527 34.0738 272.542C32.4125 248.286 32.2533 223.973 33.1977 199.695C33.5959 189.394 34.2217 179.07 35.0182 168.78C35.5416 161.985 36.6339 155.224 37.3394 148.44C37.5328 146.539 38.2838 145.902 40.1726 145.845C57.388 145.264 74.1255 141.577 90.9541 138.344C100.011 136.602 109.137 135.043 118.08 132.858C127.797 130.49 137.628 128.612 147.254 125.869C155.549 123.501 164.083 122.044 172.195 118.948C176.599 117.264 180.16 114.464 183.358 111.311C187.442 107.281 187.01 100.6 182.823 96.6617C178.624 92.712 174.335 88.8534 170.079 84.9493C169.442 84.3574 168.497 83.8452 168.998 82.7524C169.362 81.9671 170.238 81.9784 170.967 81.876C184.78 79.8841 198.605 77.9149 212.486 76.4808L212.498 76.4466Z" fill="#CD80F1"/>
<path d="M260.867 560.493C263.791 564.716 266.408 568.415 268.945 572.16C272.643 577.635 277.843 581.186 283.726 583.884C284.693 584.328 285.694 584.681 286.639 585.147C290.325 587.003 290.405 587.253 289.813 591.51C288.402 601.743 287.469 612.021 286.957 622.322C286.354 634.456 285.979 646.601 284.761 658.677C284.158 664.687 283.919 670.765 282.19 676.65C281.541 678.847 280.699 680.873 279.698 682.785C278.037 682.831 278.355 681.567 278.185 680.861C274.964 667.282 266.886 656.867 256.748 647.784C248.783 640.648 240.249 634.604 229.747 631.508C221.782 629.151 214.261 629.595 206.763 632.839C206.205 633.078 205.659 633.329 205.113 633.579C203.873 632.43 204.965 631.542 205.466 630.79C209.129 625.372 214.42 622.163 220.633 620.672C231.385 618.088 241.706 619.101 251.252 625.213C254.006 626.977 255.963 629.459 258.011 631.895C259.069 633.158 259.877 635.514 262.221 633.852C263.609 632.873 263.211 630.813 261.72 628.582C258.773 624.2 254.905 620.876 250.171 618.623C247.042 617.132 243.959 615.367 240.443 614.912C237.996 614.593 237.928 613.125 238.395 611.327C239.305 607.809 240.01 604.213 241.285 600.821C246.109 588.038 251.707 575.62 258.625 563.817C259.228 562.781 259.945 561.825 260.867 560.459V560.493Z" fill="#CD80F1"/>
<path d="M169.248 475.922C169.123 477.868 168.907 479.792 168.884 481.727C168.805 487.384 172.161 491.197 177.839 491.584C180.342 491.755 181.514 492.438 181.969 495.17C183.574 504.731 185.474 514.212 185.463 523.99C185.463 533.039 183.528 541.462 178.146 548.803C175.188 552.833 171.501 556.395 167.007 558.672C162.205 561.096 157.017 560.004 152.477 558.046C146.776 555.587 141.861 551.683 137.264 547.437C135.239 545.559 134.704 543.556 135.216 540.949C136.422 534.837 138.299 528.93 140.325 523.045C141.997 518.173 144.341 513.541 145.98 508.692C147.413 504.446 148.802 500.201 150.759 496.171C153.797 489.9 156.664 483.514 161.887 478.631C164.617 476.07 164.595 476.047 169.26 475.945L169.248 475.922Z" fill="#CD80F1"/>
<path d="M437.242 526.335C439.894 520.894 442.09 515.817 441.396 510.217C440.838 505.778 440.383 501.236 438.414 497.105C435.411 490.799 432.179 484.63 427.912 479.041C426.501 477.197 424.635 475.899 423.122 474.203C422.143 473.111 422.109 471.961 423.896 471.551C425.523 471.187 427.161 470.618 428.8 470.595C445.207 470.345 461.547 470.982 477.636 474.716C481.618 475.637 485.464 477.106 489.128 478.665C495.613 481.408 497.263 491.083 492.632 496.661C490.015 499.814 487.023 502.636 483.86 505.266C475.258 512.414 465.631 517.877 455.425 522.271C449.895 524.65 444.115 526.619 437.242 526.323V526.335Z" fill="#CD80F1"/>
<path d="M405.941 592.147C405.724 598.282 404.188 605.635 397.714 610.826C393.516 614.184 388.657 615.72 383.161 614.582C377.449 613.387 372.113 611.384 367.368 607.923C366.014 606.933 364.615 605.943 363.75 604.497C360.325 598.749 357.913 592.546 356.001 586.149C355.375 584.055 356.707 583.303 358.379 582.461C370.918 576.178 379.634 566.082 386.222 553.971C387.451 551.717 388.168 549.213 388.919 546.732C389.488 544.876 390.751 544.728 391.775 546.345C392.992 548.257 394.039 550.294 395.017 552.343C400.775 564.443 405.759 576.77 405.941 592.147Z" fill="#CD80F1"/>
<path d="M391.536 626.294C391.877 630.973 390.318 635.321 388.793 639.566C386.051 647.227 377.279 651.336 368.199 650.038C359.415 648.786 353.634 643.732 349.857 636.197C345.681 627.865 343.223 619.021 343.166 609.619C343.155 607.195 343.428 604.805 343.963 602.426C344.782 598.783 346.898 596.325 349.993 594.367C351.427 593.456 352.121 593.923 353.065 594.822C354.124 595.835 354.283 597.235 354.806 598.476C359.597 609.676 367.721 616.95 379.714 619.636C382.387 620.228 385.13 620.171 387.86 620.114C391.342 620.034 391.49 620.239 391.524 623.597C391.524 624.507 391.524 625.418 391.524 626.329L391.536 626.294Z" fill="#CD80F1"/>
<path d="M383.127 476.503C383.002 481.59 383.218 486.109 385.505 490.218C386.142 491.368 385.881 492.301 384.822 492.916C380.203 495.579 377.313 499.802 374.593 504.184C374.366 504.549 373.945 504.799 373.626 505.095C369.644 502.17 368.449 498.766 369.735 494.088C371.703 486.872 376.027 481.078 383.138 476.503H383.127Z" fill="#CD80F1"/>
<path d="M398.295 518.128C399.762 522.032 401.139 525.219 402.539 528.406C404.029 531.821 406.384 533.107 409.855 532.925C410.299 532.902 410.742 532.788 411.198 532.743C412.176 532.64 413.086 532.811 413.314 533.915C413.53 534.985 413.45 536.112 412.29 536.658C410.651 537.444 408.99 538.138 407.124 538.309C403.938 538.605 400.764 538.4 397.6 538.036C395.609 537.808 393.868 536.909 392.446 535.418C390.853 533.733 390.307 532.037 391.217 529.681C392.81 525.561 394.904 521.816 398.306 518.128H398.295Z" fill="#CD80F1"/>
<path d="M178.203 574.243C178.01 569.77 178.658 565.547 182.072 562.212C183.517 560.8 184.848 560.47 186.248 562.132C187.704 563.862 189.138 565.604 190.537 567.368C193.462 571.067 191.254 577.373 186.68 578.181C184.791 578.511 182.982 579.433 181.173 580.162C179.273 580.924 178.271 580.367 178.203 578.318C178.158 576.963 178.203 575.609 178.203 574.254V574.243Z" fill="#CD80F1"/>
<path d="M389.966 506.085C390.421 506.871 390.785 507.724 391.331 508.441C394.119 512.129 394.596 515.407 390.591 518.811C388.452 520.621 388.213 523.978 386.268 526.13C377.688 520.825 375.856 516.113 379.486 508.863C380.43 508.999 381.238 509.329 381.363 510.433C381.637 512.733 382.991 514.986 385.05 514.679C386.745 514.429 386.95 511.64 386.928 509.694C386.893 507.542 387.747 506.256 389.977 506.085H389.966Z" fill="#CD80F1"/>
<path d="M364.102 496.422C363.704 502.75 366.116 506.711 370.645 509.386C371.874 510.115 372.568 510.923 372.215 512.266C371.419 515.294 372.318 518.208 372.841 521.201C363.397 519.676 358.652 506.985 364.091 496.422H364.102Z" fill="#CD80F1"/>
<path d="M165.528 599.751C169.146 598.544 171.729 597.77 174.005 596.234C176.508 594.549 178.351 592.569 178.681 589.427C178.772 588.539 179.091 587.663 179.409 586.82C180.092 584.999 181.787 584.988 183.198 585.227C184.552 585.455 184.211 586.889 184.154 587.89C184.04 589.848 183.676 591.795 183.687 593.741C183.71 598.374 178.431 602.642 174.243 602.073C171.57 601.709 168.987 601.242 165.516 599.751H165.528Z" fill="#CD80F1"/>
<path d="M389.966 506.085C387.735 506.267 386.882 507.542 386.916 509.694C386.95 511.629 386.745 514.417 385.039 514.679C382.991 514.986 381.625 512.733 381.352 510.433C381.227 509.329 380.419 508.999 379.475 508.863C380.829 504.207 383.742 500.77 387.883 497.856C389.362 500.588 387.986 503.797 389.966 506.085Z" fill="#CD80F1"/>
<path d="M147.061 597.417C151.999 597.406 155.845 597.736 159.372 599.751C155.367 600.286 151.453 600.377 147.061 597.417Z" fill="#CD80F1"/>
</g>
</g>
<g id="id2">
<g id="Vector_3">
<path d="M343.36 588.881C345.556 587.777 347.798 586.809 350.518 586.957C349.015 588.016 347.525 589.074 346.023 590.133C345.59 588.755 344.202 589.37 343.36 588.881Z" fill="#A874D6"/>
<path d="M509.062 418.714C504.17 421.492 498.731 422.755 493.406 424.258C486.772 426.136 480.07 427.797 473.562 430.108C472.731 430.404 471.798 430.438 470.911 430.586C470.524 430.666 470.137 430.745 469.75 430.825C469.227 430.893 468.692 430.973 468.169 431.03C468.703 430.199 468.726 429.311 468.499 428.389C469.113 427.934 469.659 427.365 470.342 427.058C477.601 423.723 479.57 417.337 479.661 410.189C479.797 400.628 479.16 391.055 477.67 381.631C476.85 376.463 477.169 371.307 476.52 366.151C475.314 356.544 474.984 346.823 474.29 337.148C473.016 319.46 471.969 301.738 470.331 284.084C469.864 278.973 468.18 273.84 466.223 269.059C464.118 263.926 462.059 258.701 458.565 254.159C455.846 250.62 452.637 247.888 448.53 246.693C437.925 243.608 427.332 240.353 416.192 239.636C415.794 239.442 415.396 239.089 414.986 239.078C405.235 238.668 395.484 238.725 385.744 239.135C385.471 239.135 385.209 239.397 384.948 239.533C375.845 239.977 366.754 240.432 357.651 240.876C344.156 241.536 330.605 241.684 317.178 243.005C302.796 244.416 288.391 244.803 273.997 245.589C257.021 246.511 240.022 247.091 223.045 248.138C206.854 249.14 190.685 250.506 174.528 251.826C159.861 253.021 145.365 255.184 131.45 260.215C127.058 261.797 122.643 263.356 118.626 265.872C114.496 268.467 111.424 271.802 109.615 276.378C108.454 279.326 106.668 281.989 105.45 284.949C102.583 291.903 102.219 299.143 102.674 306.439C103.208 315.226 104.016 323.99 104.87 332.743C106.087 345.287 107.259 357.83 108.818 370.328C111.105 388.676 113.642 407.002 117.921 425.031C118.546 427.684 119.218 430.336 119.935 432.965C121.152 437.518 123.883 440.796 128.355 442.424C134.317 444.598 140.143 447.17 146.332 448.684C146.332 449.048 146.332 449.412 146.332 449.777C136.968 448.058 127.433 447.204 118.205 444.712C112.027 443.038 105.518 443.471 99.374 441.627C98.5092 441.365 97.5535 441.433 96.848 440.728C96.8025 439.134 97.4397 437.313 95.0389 436.687C93.5597 436.3 92.968 434.866 92.6266 433.568C90.6468 426.124 88.2346 418.794 86.8806 411.191C85.3559 402.585 83.8312 393.98 82.6706 385.318C81.7603 378.455 80.3153 371.625 80.4746 364.625C80.4973 363.419 80.5201 362.167 80.2584 360.994C78.6085 353.436 78.3582 345.708 77.9258 338.07C77.5617 331.582 76.3328 325.14 76.7766 318.595C76.8221 317.867 76.5149 317.115 76.367 316.375C75.2974 311.162 75.4112 305.744 75.5705 300.599C75.7753 294.168 75.5477 287.646 76.6742 281.17C77.391 277.049 77.7779 272.827 78.5289 268.672C79.3367 264.176 81.1459 260.01 82.4089 255.662C85.629 244.587 91.2385 234.718 98.5661 225.931C105.245 217.929 113.824 212.147 122.916 207.196C134.249 201.015 146.128 196.018 158.348 191.909C162.49 190.521 166.449 188.347 170.841 187.903C176.576 187.334 181.548 184.59 186.521 182.291C196.886 177.499 204.84 169.429 211.234 160.187C216.013 153.278 219.7 145.686 221.361 137.126C223.785 124.628 225.344 112.108 225.503 99.3934C225.514 98.3349 225.344 97.208 225.617 96.2178C227.141 90.6745 226.06 85.0403 226.39 79.4629C226.516 77.3003 225.514 76.5035 223.409 76.5263C219.768 76.5718 216.127 76.458 212.486 76.4124C215.968 75.149 219.677 75.4563 223.25 75.1945C234.719 74.3522 246.052 72.2465 257.556 71.6318C264.952 71.2335 272.37 71.1765 279.766 70.4936C296.492 68.957 313.287 68.5472 330.058 67.7618C330.491 67.7391 330.935 67.9667 331.367 68.0692C331.344 78.245 331.31 88.4208 331.299 98.6081C331.299 99.3707 331.276 100.145 331.424 100.873C332.641 107.099 333.096 113.428 333.836 119.7C335.019 129.75 338.706 138.64 343.747 147.211C347.285 153.221 352.724 157.443 357.412 162.383C362.225 167.46 368.358 170.271 374.9 172.502C379.509 174.073 384.436 174.119 388.964 175.906C390.967 176.691 393.038 177.044 395.199 176.873C399.66 176.52 403.915 177.385 408.125 178.831C411.118 179.855 414.201 181.096 417.296 181.221C425.113 181.54 431.599 185.797 438.767 187.96C445.719 190.054 451.898 194.334 457.814 198.466C467.452 205.192 475.166 213.98 481.208 224.144C485.168 230.803 487.728 238.065 490.539 245.247C495.124 256.948 496.865 269.15 498.105 281.477C498.651 286.884 498.31 292.325 498.913 297.788C500.005 307.691 499.721 317.719 500.95 327.633C501.473 331.844 501.507 336.101 502.11 340.256C502.861 345.492 503.658 350.682 503.692 356.009C503.726 361.29 504.397 366.572 504.807 371.83C505.296 378.136 506.286 384.408 506.434 390.771C506.525 394.686 506.866 398.636 507.617 402.472C508.664 407.844 509.415 413.205 509.062 418.68V418.714Z" fill="#A874D6"/>
<path d="M225.378 467.932C226.072 466.862 226.811 467.249 227.665 467.772C231.204 469.969 233.98 473.02 236.688 476.07C241.717 481.716 246.644 487.475 251.332 493.417C254.131 496.968 256.737 500.781 258.807 504.788C262.312 511.572 268.229 514.804 275.022 517.035C276.603 517.559 278.242 517.889 279.835 518.367C284.716 519.812 284.784 519.824 284.727 524.707C284.693 527.769 284.841 530.785 286.104 533.619C286.9 535.418 286.229 536.499 284.579 537.239C283.339 537.808 282.144 538.514 280.87 538.98C276.535 540.574 273.269 543.431 271.198 547.472C269.913 549.964 268.035 550.932 265.452 551.057C263.347 550.59 262.722 548.837 262.073 547.13C258.375 537.375 254.779 527.575 250.99 517.866C245.37 503.456 238.543 489.638 230.35 476.503C228.598 473.703 227.016 470.789 225.355 467.932H225.378Z" fill="#A874D6"/>
<path d="M383.036 543.363C380.658 544.262 378.36 545.263 375.765 545.696C373.683 546.049 372.568 545.468 371.681 543.898C370.463 541.746 368.574 540.21 366.924 538.457C365.331 536.761 363.42 535.679 361.156 535.065C358.402 534.325 355.728 533.255 352.975 532.538C351.131 532.06 350.517 531.377 351.097 529.362C351.791 526.926 352.77 524.411 352.303 521.816C351.564 517.707 352.963 514.907 356.866 513.381C358.357 514.964 358.891 517.058 359.813 518.936C362.532 524.479 366.697 526.847 372.921 526.289C374.878 526.118 376.664 526.562 377.996 527.769C379.361 529.009 380.954 529.863 382.353 531.024C384.777 533.027 385.562 535.167 384.709 538.138C384.197 539.88 383.605 541.598 383.048 543.34L383.036 543.363Z" fill="#A874D6"/>
<path d="M245.426 337.615C245.586 349.828 239.419 359.708 228.837 367.141C226.106 369.053 223.593 371.068 219.952 370.795C219.952 370.795 210.953 373.939 202.954 371.939C201.134 372.554 199.333 371.159 197.546 370.555C185.838 366.606 176.997 359.264 172.708 347.62C169.089 337.808 170.034 327.746 175.279 318.663C184.006 303.559 198.127 297.185 214.5 300.565C231.431 304.06 244.619 314.497 245.426 337.615Z" fill="#A874D6"/>
<path d="M388.509 296.877C398.556 303.718 404.791 312.619 405.212 325.299C405.531 335.088 403.13 343.625 396.303 350.705C389.806 357.454 382.012 361.598 372.568 362.827C366.867 363.567 361.383 362.963 355.933 361.677C353.953 361.211 352.11 360.061 350.278 359.093C340.913 354.165 334.041 347.085 331.549 336.511C328.409 323.193 333.392 308.305 344.736 299.598C348.218 296.923 351.962 294.601 356.206 293.212C358.641 293.838 360.962 292.848 363.26 292.45C370.372 291.232 377.028 292.404 383.559 295.17C385.152 295.842 386.495 297.367 388.509 296.866V296.877Z" fill="#A874D6"/>
<path d="M292.59 407.457C280.165 407.73 269.435 403.815 259.934 396.849C254.757 393.047 251.241 387.595 249.739 381.187C248.84 377.328 250.524 375.53 254.176 375.86C255.405 375.973 256.156 376.508 256.657 377.521C257.465 379.149 258.216 380.8 259.046 382.416C263.632 391.34 271.426 395.79 280.847 397.85C285.262 398.818 289.609 400.502 294.251 399.797C305.322 398.101 315.949 395.574 323.516 386.161C326.122 382.917 326.986 379.183 328.022 375.404C328.568 373.401 328.898 371.216 331.913 371.261C334.906 371.307 336.169 372.206 336.078 375.188C335.93 379.673 334.508 383.816 332.164 387.618C325.45 398.545 315.437 404.475 302.99 406.478C299.417 407.047 295.833 407.947 292.59 407.457Z" fill="#A874D6"/>
</g>
</g>
<g id="id4">
<g id="Vector_4">
<path d="M584.694 241.468C586.185 262.378 587.675 283.298 586.674 304.265C585.98 318.811 582.43 332.698 575.307 345.56C571.598 352.253 566.421 357.443 559.867 361.245C557.955 362.36 557.113 363.601 557.056 365.855C556.829 374.813 556.032 383.736 553.814 392.444C552.778 396.53 551.458 400.571 549.968 404.52C548.363 408.755 544.825 411.202 540.899 413.034C532.673 416.893 524.344 420.456 515.696 423.324C498.742 428.936 481.698 434.194 464.323 438.406C461.877 438.998 459.225 438.963 456.756 440.887C461.205 444.234 465.438 447.557 469.819 450.676C475.895 455.001 481.925 459.44 486.772 465.097C491.324 470.413 495.113 476.377 499.38 481.955C503.965 487.965 500.756 496.501 496.364 501.498C485.293 514.121 471.139 522.078 455.869 528.315C452.524 529.681 448.996 530.728 445.48 531.536C441.953 532.356 438.312 532.948 434.864 530.933C433.897 530.364 432.828 530.785 431.804 530.751C428.447 530.637 425.454 532.515 422.041 532.174C420.277 532.003 418.878 532.959 418.889 535.167C418.901 539.083 416.466 541.166 413.109 542.338C409.525 543.59 405.838 544.455 401.981 544.25C400.638 544.182 399.284 544.102 397.464 544C399.284 547.54 401.128 550.624 402.516 553.891C407.818 566.321 412.517 578.887 411.88 592.796C411.562 599.819 410.048 606.273 405.486 611.816C403.631 614.07 401.696 616.198 399.045 617.473C397.282 618.315 396.758 619.363 397.02 621.4C397.68 626.693 397.498 632.031 396.007 637.199C393.743 645.132 389.704 651.905 381.375 654.466C366.401 659.064 350.596 653.862 343.815 637.665C339.821 628.127 336.965 618.327 337.443 607.73C337.773 600.468 339.855 594.39 346.034 590.144C347.536 589.085 349.026 588.027 350.528 586.968C347.809 586.82 345.567 587.776 343.371 588.892C332.778 591.282 322.094 592.352 311.261 591.1C307.211 590.633 303.183 589.871 299.155 589.233C296.231 588.767 296.06 588.778 295.719 591.738C295.07 597.463 294.49 603.211 294.057 608.959C293.09 621.821 292.419 634.695 291.77 647.579C291.292 657.243 290.166 666.929 288.254 676.479C286.468 685.369 281.894 692.437 274.396 697.491C270.402 700.189 265.657 701.156 260.992 701.293C241.478 701.862 225.332 694.304 212.145 680.167C205.033 672.541 200.22 663.56 196.864 653.68C191.994 639.339 199.014 624.826 209.289 618.793C215.023 615.424 221.634 613.831 228.461 613.762C231.75 613.728 231.715 613.649 232.353 610.416C234.185 601.128 237.712 592.432 241.694 583.906C246.234 574.175 250.808 564.443 256.782 555.473C257.704 554.096 257.624 552.958 256.998 551.342C253.004 541.063 249.454 530.614 245.358 520.393C237.792 501.51 228.347 483.594 216.651 466.896C215.388 465.097 214.455 464.927 212.657 466.088C208.982 468.489 205.386 471.005 202.029 473.828C197.398 477.732 192.904 481.807 188.239 485.688C186.339 487.27 185.849 488.852 186.646 491.243C189.752 500.519 190.708 510.183 191.277 519.881C191.823 529.135 190.594 538.024 186.202 546.367C183.801 550.932 184.052 552.059 188.068 555.69C190.674 558.046 193.154 560.436 195.168 563.35C199.39 569.451 199.208 573.571 195.066 580.128C194.599 580.867 193.883 581.801 193.132 581.96C189.786 582.677 189.627 584.737 190.071 587.594C190.458 590.121 190.071 592.716 189.536 595.277C187.226 606.045 176.701 610.143 168.202 606.808C164.572 605.385 161.193 604.645 157.233 605.601C151.771 606.922 147.186 604.383 143.067 601.003C141.019 599.318 139.596 596.655 136.388 596.837C132.098 593.388 128.025 589.723 126.443 584.18C123.018 572.217 124.293 560.493 128.662 549.031C129.276 547.415 129.902 546.049 129.128 544.364C128.161 542.258 128.935 540.153 129.39 538.104C131.302 529.67 134.146 521.531 137.4 513.529C138.538 510.718 139.642 507.895 140.689 505.05C143.92 496.217 148.289 487.942 153.171 479.929C155.412 476.241 158.325 473.35 162.182 471.21C165.573 469.32 168.679 469.115 172.013 470.902C172.969 471.415 173.982 472.177 174.903 471.21C178.203 467.738 181.412 464.164 184.643 460.624C179.864 459.554 174.721 459.486 169.647 458.871C157.608 457.426 145.65 455.593 133.725 453.339C125.703 451.826 117.557 450.938 109.501 449.538C103.55 448.502 97.6559 447.102 91.7391 445.827C84.2067 444.199 76.6287 442.765 69.1873 440.625C64.4425 439.259 60.699 436.972 57.9796 432.783C54.6002 427.57 51.7329 422.118 49.3207 416.404C45.7706 408.026 42.5506 399.535 41.2648 390.463C41.0941 389.234 40.5025 388.585 39.5012 388.096C30.114 383.474 25.0165 374.915 20.067 366.367C16.0504 359.424 12.6141 352.116 10.6457 344.308C8.76827 336.841 7.27771 329.272 5.83266 321.702C3.75043 310.821 2.47605 299.825 1.41786 288.796C-0.209242 271.825 -0.402678 254.842 0.666886 237.826C1.36096 226.739 2.44192 215.71 4.91102 204.874C7.48252 193.628 12.5117 183.543 19.9304 174.699C21.182 173.197 22.6499 171.751 24.2883 170.738C27.0646 169.019 28.6576 166.515 29.2152 163.544C30.3416 157.603 31.104 151.593 32.0142 145.606C32.1963 144.411 31.4908 143.591 30.8536 142.749C28.0887 139.084 26.9053 134.815 26.8257 130.388C26.6323 119.017 25.5513 107.6 27.5198 96.2747C28.3504 91.5169 29.3062 86.7704 30.2961 82.0467C32.2418 72.736 34.9954 63.6528 39.0119 55.0364C42.6416 47.2622 46.4647 39.6361 51.4712 32.5335C57.1831 24.4406 62.0417 24.1902 70.3934 26.6829C88.4167 32.0782 105.177 40.4214 121.391 49.9712C134.34 57.5974 146.799 65.8952 158.416 75.4222C160.248 76.9247 162.205 76.993 164.413 76.6629C171.012 75.6612 177.623 74.6823 184.245 73.84C194.019 72.588 203.793 71.3587 213.59 70.3001C226.106 68.9456 238.645 67.6481 251.184 66.5781C266.613 65.2578 282.053 64.222 297.528 63.5618C310.419 63.0154 323.311 62.1845 336.214 61.6951C351.541 61.1146 366.89 60.6593 382.228 61.4219C384.401 61.5244 385.858 60.8869 387.485 59.5324C393.447 54.6039 398.977 49.1859 405.133 44.4622C417.638 34.8555 430.279 25.5105 444.069 17.7478C455.55 11.2826 467.293 5.52311 479.832 1.44823C481.857 0.788048 483.928 0.412432 486.033 0.116491C490.038 -0.441245 493.281 1.02708 495.682 4.02064C504.807 15.403 512.658 27.5252 517.414 41.5028C521.738 54.2169 524.514 67.3066 527.325 80.3849C527.723 82.2516 528.394 83.7769 529.555 85.2338C532.991 89.5477 535.494 94.3055 536.928 99.7008C538.248 104.675 540.182 109.467 541.195 114.555C541.912 118.152 542.629 121.76 542.378 125.391C542.151 128.794 543.619 130.763 546.44 132.186C553.779 135.897 559.605 141.406 564.407 147.962C573.179 159.914 578.618 173.185 580.257 188.028C581.395 198.261 582.089 208.528 583.101 218.772C583.807 225.874 583.932 233 584.615 240.091C583.909 240.603 583.989 241.081 584.683 241.525L584.694 241.468ZM32.5035 120.155C32.1735 120.929 32.1394 121.646 32.9359 122.181C32.9814 122.807 33.0269 123.433 33.061 124.059C32.4238 128.555 33.4024 132.801 34.9726 136.967C35.6212 138.697 36.6566 139.607 38.6819 139.664C46.1234 139.846 53.5534 139.619 60.8697 138.253C74.5351 135.692 88.2118 133.108 101.809 130.194C119.696 126.358 137.674 122.864 155.196 117.526C159.85 116.103 164.64 115.42 169.294 114.111C172.651 113.166 175.632 111.527 177.464 108.681C180.513 103.935 180.536 103.355 177.077 99.5983C175.541 97.9251 173.902 96.3202 172.184 94.8405C162.353 86.3038 152.773 77.4597 141.986 70.0839C130.721 62.3894 119.4 54.786 107.089 48.8216C100.546 45.6459 93.9465 42.5841 87.4154 39.3629C80.9866 36.1872 74.08 34.3319 67.2985 32.2034C61.8255 30.4846 59.5839 31.6001 56.4208 36.301C52.6318 41.9467 48.7518 47.581 45.9982 53.773C42.7099 61.1829 39.7743 68.7408 37.8513 76.697C35.5415 86.2582 32.7766 95.6828 32.9928 105.654C32.0939 110.469 32.2304 115.317 32.4921 120.166L32.5035 120.155ZM389.965 506.085C387.986 503.797 389.362 500.588 387.883 497.856C383.741 500.77 380.829 504.207 379.475 508.863C375.845 516.113 377.677 520.814 386.256 526.13C388.202 523.978 388.452 520.621 390.58 518.811C394.596 515.407 394.119 512.129 391.319 508.441C390.773 507.724 390.409 506.882 389.954 506.085H389.965ZM284.773 456.879C297.334 456.914 309.862 456.367 322.401 455.365C338.376 454.091 354.42 453.567 370.304 451.256C375.834 450.448 381.42 450.027 386.859 448.673C396.349 447.284 405.872 446.043 415.385 443.699C413.826 442.731 412.267 443.027 410.89 443.266C406.282 444.074 401.651 444.586 397.031 445.258C393.06 445.838 388.964 446.146 385.164 447.694C383.662 447.876 382.149 447.99 380.658 448.24C365.866 450.744 350.938 452.121 335.998 453.112C320.58 454.125 305.14 454.648 289.699 455.434C288.05 455.513 286.411 455.9 284.761 456.151C266.601 455.582 248.476 456.413 230.35 457.619C239.43 458.018 248.499 458.063 257.578 457.995C266.647 457.927 275.75 458.245 284.761 456.891L284.773 456.879ZM356.843 513.404C356.377 510.889 355.99 508.339 355.421 505.846C354.545 502.045 355.341 498.47 357.446 495.431C359.301 492.745 361.053 489.82 364.194 488.181C365.673 487.407 366.572 485.904 367.334 484.368C370.031 478.927 374.468 475.057 379.122 471.369C383.127 468.182 388.236 467.34 392.594 464.927C394.244 464.949 395.905 464.984 397.555 464.984C398.283 464.984 399.262 465.075 399.466 464.187C400.343 460.317 402.504 456.982 403.893 453.328C404.097 452.804 404.268 452.065 403.608 451.757C402.789 451.37 402.254 452.167 401.617 452.508C400.24 452.258 398.954 452.486 397.6 452.861C390.011 454.944 382.205 456.117 374.423 456.743C367.197 457.323 360.006 458.268 352.804 458.985C344.099 459.839 335.349 460.818 326.645 461.182C310.169 461.865 293.693 462.605 277.217 463.162C258.955 463.788 240.67 463.31 222.18 463.31C222.601 465.291 223.751 466.771 225.389 467.954C227.05 470.811 228.632 473.714 230.384 476.525C238.577 489.661 245.404 503.479 251.025 517.889C254.814 527.609 258.409 537.398 262.107 547.153C262.756 548.86 263.381 550.613 265.486 551.08C265.976 555.189 267.443 559.036 269.287 562.656C271.346 566.685 273.622 570.862 277.286 573.537C287.344 580.867 299.189 584.111 311.227 585.341C322.469 586.49 333.916 586.194 344.919 582.199C348.366 580.947 351.723 579.786 354.59 577.453C355.762 576.508 357.002 575.518 358.379 574.971C365.149 572.274 369.701 567.083 373.911 561.472C374.639 560.504 375.208 559.366 376.084 558.581C380.647 554.529 382.342 549.202 383.036 543.397C383.594 541.667 384.185 539.948 384.697 538.195C385.562 535.224 384.766 533.084 382.342 531.081C380.942 529.92 379.349 529.066 377.984 527.826C376.653 526.619 374.866 526.175 372.909 526.346C366.685 526.892 362.521 524.536 359.801 518.993C358.88 517.103 358.345 515.02 356.854 513.438L356.843 513.404ZM44.1322 364.751C43.7908 367.96 44.9173 370.931 45.6796 373.959C46.2144 385.193 48.5811 396.006 52.0629 406.717C54.532 414.298 58.3665 421.082 62.1441 427.934C63.8167 430.973 66.5133 433.079 69.9496 434.513C75.3543 436.767 81.0662 437.461 86.653 438.702C90.021 439.453 93.2866 440.898 96.848 440.739C97.5421 441.445 98.5093 441.388 99.374 441.638C105.518 443.471 112.027 443.05 118.205 444.723C127.433 447.216 136.968 448.069 146.332 449.788C154.4 451.108 162.444 452.713 170.648 452.998C165.596 451.484 160.373 450.949 155.253 449.845C152.374 449.23 149.393 448.252 146.321 448.695C140.131 447.193 134.305 444.621 128.343 442.435C123.872 440.807 121.141 437.529 119.923 432.976C119.218 430.336 118.546 427.695 117.909 425.043C113.631 407.013 111.105 388.688 108.807 370.339C107.248 357.841 106.087 345.287 104.858 332.755C104.005 324.002 103.197 315.226 102.662 306.45C102.219 299.154 102.571 291.915 105.439 284.96C106.668 282.001 108.443 279.337 109.603 276.389C111.412 271.814 114.473 268.478 118.615 265.883C122.631 263.368 127.035 261.808 131.438 260.226C145.354 255.207 159.85 253.033 174.517 251.837C190.685 250.517 206.854 249.151 223.034 248.15C239.999 247.091 256.998 246.522 273.986 245.6C288.38 244.815 302.785 244.439 317.167 243.016C330.593 241.696 344.145 241.559 357.64 240.888C366.742 240.444 375.834 239.988 384.936 239.545C395.347 239.579 405.759 239.613 416.181 239.647C427.321 240.364 437.914 243.619 448.518 246.704C452.626 247.899 455.835 250.631 458.554 254.171C462.059 258.712 464.107 263.937 466.212 269.07C468.18 273.851 469.853 278.996 470.319 284.095C471.946 301.749 473.005 319.471 474.279 337.16C474.973 346.835 475.303 356.555 476.509 366.162C477.158 371.318 476.839 376.474 477.658 381.642C479.149 391.067 479.786 400.639 479.65 410.2C479.547 417.348 477.59 423.734 470.331 427.069C469.659 427.376 469.102 427.957 468.487 428.401C460.306 431.36 452.034 434.08 443.728 436.71C452.182 436.129 460.181 433.625 468.157 431.041C468.681 430.973 469.216 430.893 469.739 430.825C470.217 431.201 470.592 431.087 470.9 430.586C471.787 430.438 472.72 430.404 473.551 430.108C480.059 427.786 486.75 426.124 493.395 424.258C498.72 422.755 504.158 421.492 509.051 418.714C519.462 415.926 529.635 412.488 539.01 407.059C542.276 405.169 544.54 402.54 545.758 398.841C548.659 389.985 550.172 380.913 550.73 371.648C551.14 364.807 551.037 358.092 548.796 351.41C547.066 346.254 546.179 340.768 545.837 335.316C545.166 324.263 544.108 313.234 543.687 302.148C543.459 296.092 543.118 290.025 542.754 283.97C542.026 271.87 540.979 259.794 540.216 247.694C539.306 233.159 537.918 218.635 538.055 204.043C538.055 203.736 538.009 203.44 537.986 203.132C537.247 191.921 536.28 180.732 536.268 169.486C536.268 154.598 536.223 139.71 536.291 124.833C536.336 115.09 533.082 106.211 529.532 97.3674C529.316 100.031 529.362 102.66 529.305 105.29C529.248 108.169 529.236 111.072 528.963 113.94C528.303 120.94 525.334 123.957 518.313 124.571C514.843 124.867 511.281 125.072 507.856 124.628C497.331 123.251 486.818 121.76 476.384 119.893C457.007 116.433 437.88 111.732 418.878 106.655C404.735 102.876 390.443 99.3707 376.926 93.6226C372.386 91.699 369.177 87.8176 368.358 82.5589C368.119 80.9996 368.392 79.4857 369.45 78.2792C371.453 76.0027 373.012 73.3734 375.31 71.3246C376.482 70.2888 377.984 69.3554 378.257 67.3407C364.307 65.7927 350.539 67.1359 336.772 67.557L334.928 67.6708C333.711 67.557 332.493 67.4773 331.367 68.1033C330.935 67.9895 330.491 67.7733 330.058 67.7846C313.287 68.5814 296.492 68.9798 279.766 70.5164C272.37 71.1993 264.952 71.2563 257.556 71.6546C246.052 72.2693 234.719 74.375 223.25 75.2173C219.677 75.4791 215.968 75.1718 212.486 76.4352C198.593 77.8694 184.78 79.8386 170.967 81.8305C170.238 81.9329 169.351 81.9215 168.998 82.7069C168.497 83.7996 169.442 84.3118 170.079 84.9037C174.323 88.8079 178.624 92.6665 182.823 96.6162C186.999 100.554 187.442 107.247 183.358 111.265C180.149 114.418 176.599 117.23 172.195 118.903C164.083 121.999 155.549 123.456 147.254 125.823C137.628 128.566 127.797 130.445 118.08 132.812C109.137 134.997 100.011 136.557 90.954 138.298C74.1255 141.542 57.3765 145.219 40.1725 145.799C38.2837 145.868 37.5441 146.494 37.3393 148.395C36.6338 155.178 35.5415 161.94 35.0181 168.735C34.2216 179.024 33.6072 189.337 33.1976 199.649C32.2532 223.939 32.4125 248.241 34.0737 272.496C34.415 277.482 34.5857 282.49 35.0978 287.464C35.8715 295.011 36.9979 302.523 37.601 310.081C39.0574 328.384 40.9007 346.641 44.1435 364.728L44.1322 364.751ZM237.234 450.551C247.975 450.039 258.716 450.756 269.503 449.868C280.95 448.923 292.51 449.447 304.025 448.889C312.024 448.502 320.011 447.204 328.056 447.796C328.352 447.819 328.67 447.796 328.966 447.728C336.248 446.043 343.747 447.307 351.097 446.112C354.636 445.531 358.254 445.77 361.827 444.609C364.785 443.642 368.062 443.471 371.214 443.3C376.516 443.027 381.728 442.287 386.871 441.001C389.51 440.341 392.196 439.942 394.858 439.442C398.158 438.816 401.56 439.225 404.757 438.349C414.656 435.594 424.92 434.9 434.91 432.487C443.91 430.302 452.694 427.57 461.433 424.622C464.448 423.609 467.167 421.856 469.762 419.989C470.865 419.192 472.14 418.316 472.39 416.939C473.335 411.725 474.541 406.364 473.266 401.174C471.56 394.185 471.594 387.06 471.048 380.037C470.501 372.957 468.92 366.037 468.704 358.866C468.487 351.661 466.86 344.467 467.236 337.194C467.6 330.182 466.621 323.262 466.052 316.341C465.347 307.6 464.243 298.892 464.448 290.105C464.573 284.755 463.663 279.519 462.081 274.477C459.203 265.326 455.88 256.356 445.435 252.976C444.889 252.794 444.479 252.202 443.944 251.951C442.989 251.507 441.999 250.938 440.986 250.847C434.83 250.267 429.073 247.182 422.701 247.888C422.018 247.967 421.256 247.467 420.539 247.228C413.12 244.655 405.315 245.19 397.68 244.428C397.384 244.393 397.054 244.382 396.77 244.473C392.469 245.873 388.031 245.338 383.662 245.27C378.485 245.19 373.41 246.124 368.29 246.465C360.769 246.977 353.248 248.07 345.704 247.967C335.076 247.831 324.529 249.607 313.913 248.992C313.457 248.969 313.002 249.015 312.547 249.072C305.515 250.062 298.438 250.676 291.338 250.745C278.298 250.881 265.259 250.528 252.253 251.724C251.65 251.781 251.013 251.689 250.444 251.849C244.687 253.431 238.69 252.919 232.865 253.272C224.126 253.807 215.365 255.07 206.558 254.467C206.103 254.433 205.648 254.467 205.193 254.524C197.103 255.696 188.978 256.345 180.797 256.277C175.029 256.231 169.248 256.311 163.48 256.277C161.329 256.265 159.486 256.868 157.46 257.745C153.899 259.27 150.406 261.012 146.617 262.116C139.38 264.233 132.053 266.031 124.964 268.774C119.809 270.766 117.932 275.592 114.223 278.745C111.378 286.554 108.044 294.225 108.704 302.876C109 306.792 109.569 310.775 109.478 314.611C109.239 324.81 111.492 334.781 111.697 344.934C111.776 348.622 112.015 352.48 112.789 356.18C113.927 361.655 114.359 367.232 115.156 372.752C116.043 378.865 117.181 384.977 117.579 391.123C117.887 395.699 119.195 400.036 119.764 404.532C120.765 412.477 122.461 420.296 124.338 428.071C125.521 432.976 128.104 436.926 133.213 438.474C137.252 439.692 141.258 441.229 145.342 442.071C153.888 443.847 162.364 446.408 171.262 446.032C171.991 445.998 172.753 446.237 173.481 446.442C180.65 448.456 188.08 449.139 195.419 449.469C206.763 449.97 218.107 451.131 229.485 450.562C232.057 450.437 234.651 450.539 237.234 450.539V450.551ZM581.213 288.955C581.486 285.734 580.655 282.615 580.439 279.451C579.608 267.067 579.358 254.649 578.618 242.253C578.209 235.31 577.082 228.378 577.503 221.39C577.537 220.798 577.378 220.183 577.321 219.58C576.491 211.772 575.637 203.963 574.829 196.155C573.987 188.028 572.918 179.981 570.119 172.218C567.433 164.774 564.634 157.444 559.321 151.399C556.635 148.349 554.769 144.57 551.049 142.453C548.966 141.269 546.679 140.461 545.007 138.549C544.119 137.536 542.833 137.763 542.913 139.346C543.118 143.17 541.98 146.869 541.991 150.648C541.991 156.829 541.696 163.066 542.367 169.19C543.152 176.281 542.64 183.395 543.493 190.498C544.449 198.443 543.801 206.513 544.438 214.56C545.121 223.143 545.473 231.759 546.304 240.353C547.328 250.893 547.464 261.501 548.159 272.075C548.762 281.284 549.513 290.492 549.899 299.689C550.332 309.979 550.832 320.234 551.697 330.512C552.198 336.42 553.222 342.191 554.178 347.996C554.474 349.783 554.474 351.627 554.986 353.368C555.634 355.554 556.499 356.1 558.183 354.848C561.335 352.514 564.851 350.511 567.115 347.21C572.861 338.844 576.104 329.408 578.459 319.631C580.894 309.535 580.086 299.154 581.235 288.955H581.213ZM260.867 560.493C259.945 561.859 259.228 562.826 258.625 563.851C251.707 575.654 246.098 588.072 241.285 600.855C240.01 604.235 239.305 607.844 238.395 611.361C237.928 613.159 237.996 614.627 240.443 614.946C243.959 615.401 247.042 617.166 250.171 618.657C254.905 620.911 258.762 624.234 261.72 628.616C263.211 630.836 263.609 632.896 262.221 633.886C259.877 635.548 259.069 633.192 258.011 631.929C255.951 629.493 254.006 627.011 251.252 625.247C241.717 619.123 231.397 618.122 220.633 620.706C214.42 622.197 209.129 625.407 205.466 630.825C204.965 631.576 203.873 632.464 205.113 633.613C205.659 633.363 206.205 633.112 206.763 632.873C214.261 629.629 221.782 629.186 229.747 631.542C240.249 634.638 248.783 640.682 256.748 647.818C266.886 656.902 274.965 667.316 278.185 680.896C278.355 681.601 278.037 682.865 279.698 682.819C280.699 680.907 281.541 678.881 282.19 676.684C283.931 670.811 284.158 664.721 284.761 658.711C285.979 646.623 286.366 634.478 286.957 622.356C287.469 612.044 288.402 601.765 289.813 591.544C290.394 587.287 290.325 587.025 286.639 585.181C285.694 584.703 284.682 584.35 283.726 583.918C277.843 581.22 272.643 577.669 268.945 572.194C266.419 568.438 263.802 564.75 260.867 560.527V560.493ZM511.077 118.584C513.204 118.584 515.332 118.63 517.46 118.584C522.045 118.459 523.354 117.48 523.615 113.109C523.854 109.034 523.672 104.959 523.331 100.85C522.796 94.3511 521.112 88.0452 520.851 81.5004C520.623 75.6271 519.974 69.7196 517.653 64.1537C516.959 62.4918 516.697 60.6593 516.31 58.8836C514.353 49.9712 511.293 41.4231 507.504 33.1367C503.885 25.226 498.959 18.1234 493.838 11.1574C488.991 4.55562 487.831 4.48732 480.002 7.23047C472.447 9.87118 465.381 13.7867 458.065 16.9965C445.298 22.5967 434.33 30.9627 422.826 38.4978C415.863 43.0508 409.912 49.0493 403.21 53.9551C393.493 61.0804 385.494 69.9587 376.732 78.0743C376.175 78.5865 375.674 79.167 375.151 79.7133C373.774 81.1475 373.797 82.7069 374.889 84.2549C376.732 86.8842 378.746 89.1266 382.183 89.9461C386.381 90.9477 390.637 92.0177 394.642 93.5202C405.599 97.6292 416.989 100.133 428.242 103.127C445.651 107.748 463.219 111.743 480.981 114.771C490.948 116.467 500.836 119.062 511.077 118.596V118.584ZM27.6108 177.75C26.0861 177.499 25.6196 178.433 24.9824 178.99C19.6005 183.76 16.1642 189.86 13.9909 196.531C9.41684 210.554 6.98188 224.998 6.67467 239.761C6.42434 251.906 6.73155 264.062 6.61777 276.196C6.50399 288.546 9.32582 300.52 10.3726 312.71C10.6116 315.556 11.0439 318.424 11.7039 321.202C14.7078 333.847 17.0631 346.63 22.7295 358.559C24.9028 363.123 27.4629 367.323 30.2961 371.375C31.4908 373.082 33.0383 375.78 35.678 374.562C37.8854 373.538 37.9423 370.795 37.7717 368.518C37.4303 363.999 37.0207 359.48 36.4632 354.984C35.917 350.636 34.984 346.357 34.8702 341.94C34.7678 338.013 34.5857 334.029 33.7892 330.205C31.6842 320.086 31.6956 309.762 30.3416 299.586C29.7272 294.92 29.9434 290.162 29.2038 285.575C27.5312 275.217 27.3719 264.756 26.9736 254.376C26.3251 237.701 26.7916 220.98 26.8029 204.271C26.8029 202.301 27.0533 200.355 27.2695 198.397C28.009 191.511 27.7473 184.59 27.6222 177.727L27.6108 177.75ZM169.248 475.922C164.583 476.024 164.606 476.047 161.875 478.608C156.653 483.503 153.785 489.877 150.747 496.148C148.79 500.189 147.402 504.423 145.968 508.669C144.33 513.529 141.986 518.151 140.313 523.022C138.288 528.896 136.422 534.814 135.204 540.927C134.692 543.533 135.216 545.537 137.252 547.415C141.849 551.672 146.765 555.576 152.465 558.023C157.017 559.981 162.194 561.073 166.995 558.649C171.501 556.373 175.177 552.821 178.135 548.781C183.517 541.45 185.44 533.016 185.451 523.967C185.451 514.19 183.562 504.708 181.958 495.147C181.503 492.415 180.331 491.732 177.828 491.561C172.15 491.174 168.793 487.373 168.873 481.704C168.896 479.769 169.112 477.834 169.237 475.899L169.248 475.922ZM201.745 645.348C202.291 648.035 202.621 651.393 203.668 654.511C207.832 666.827 215.888 676.377 225.947 684.242C233.741 690.332 243.071 692.972 252.595 695.055C258.307 696.296 263.723 695.021 269.093 693.598C272.632 692.665 274.168 690.536 273.793 686.849C273.372 682.694 272.712 678.562 270.72 674.669C265.02 663.549 257.044 654.352 247.156 646.896C240.852 642.15 234.799 636.743 226.254 635.924C219.654 635.286 213.214 635.378 207.104 638.075C204.316 639.304 201.779 641.103 201.745 645.348ZM437.242 526.334C444.115 526.619 449.895 524.661 455.425 522.282C465.631 517.9 475.258 512.425 483.86 505.277C487.023 502.648 490.015 499.825 492.632 496.672C497.252 491.095 495.602 481.42 489.128 478.677C485.464 477.129 481.607 475.66 477.636 474.727C461.558 470.993 445.219 470.356 428.8 470.606C427.161 470.629 425.523 471.198 423.896 471.563C422.109 471.972 422.132 473.111 423.122 474.215C424.635 475.899 426.501 477.208 427.912 479.052C432.179 484.641 435.411 490.81 438.414 497.116C440.383 501.236 440.838 505.789 441.396 510.228C442.09 515.829 439.894 520.916 437.242 526.346V526.334ZM405.941 592.147C405.759 576.77 400.775 564.443 395.017 552.343C394.039 550.294 392.992 548.257 391.775 546.345C390.751 544.728 389.476 544.876 388.919 546.732C388.168 549.213 387.451 551.706 386.222 553.971C379.634 566.082 370.918 576.178 358.379 582.461C356.707 583.303 355.375 584.054 356.001 586.149C357.913 592.546 360.325 598.738 363.75 604.497C364.615 605.943 366.003 606.933 367.368 607.923C372.113 611.384 377.449 613.398 383.161 614.582C388.657 615.732 393.504 614.195 397.714 610.826C404.188 605.635 405.724 598.282 405.941 592.147ZM416.045 527.165V527.211C417.262 527.211 418.48 527.188 419.686 527.211C427.867 527.416 433.567 520.894 434.83 515.157C435.547 511.89 435.456 508.532 434.796 505.22C433.032 496.365 428.606 488.784 423.088 481.875C420.289 478.369 417.217 474.807 412.586 473.452C406.874 471.779 401.014 471.062 395.074 471.54C391.251 471.847 389.01 473.794 388.759 476.935C388.441 480.896 388.691 484.812 391.035 488.283C392.947 491.129 393.868 494.361 394.028 497.697C394.221 502.01 395.825 505.767 398.522 508.885C401.378 512.198 403.039 515.942 404.336 520.006C406.544 526.926 406.726 527.006 414.235 527.154C414.839 527.165 415.453 527.154 416.056 527.154L416.045 527.165ZM391.536 626.294C391.536 625.384 391.536 624.473 391.536 623.563C391.49 620.205 391.342 620 387.872 620.08C385.13 620.148 382.399 620.205 379.725 619.602C367.732 616.927 359.608 609.642 354.818 598.442C354.283 597.201 354.135 595.801 353.077 594.788C352.132 593.889 351.438 593.422 350.005 594.333C346.91 596.302 344.793 598.749 343.974 602.391C343.439 604.782 343.166 607.161 343.178 609.585C343.223 618.987 345.692 627.842 349.868 636.163C353.646 643.709 359.437 648.752 368.21 650.004C377.29 651.301 386.074 647.192 388.805 639.532C390.318 635.286 391.877 630.938 391.547 626.26L391.536 626.294ZM178.249 557.112C176.007 558.786 173.993 560.243 172.047 561.768C165.767 566.708 158.735 566.685 151.874 563.908C146.184 561.597 140.666 558.615 136.24 554.107C134.943 552.787 134.249 553.607 133.316 554.517C132.576 555.234 132.667 556.168 132.326 556.964C131.222 559.571 131.893 562.382 131.233 565.023C129.731 570.988 130.903 576.781 132.804 582.393C133.976 585.853 137.082 588.095 140.325 589.017C144.66 590.246 149.006 591.59 153.444 592.455C159.144 593.559 164.811 595.437 170.307 591.214C173.094 589.074 174.175 588.425 173.39 585.022C172.377 580.651 172.73 576.28 172.753 571.898C172.776 567.744 173.549 563.76 176.883 560.755C177.737 559.981 178.544 559.047 178.249 557.124V557.112ZM429.073 447.147C429.938 447.739 430.404 448.081 430.905 448.388C437.459 452.44 444.49 455.866 449.963 461.387C453.24 464.699 457.052 465.86 461.365 466.076C467.133 466.372 472.731 467.51 478.307 468.91C479.217 469.138 480.116 470.071 481.208 468.979C478.443 463.606 473.517 460.419 469.011 456.982C463.151 452.509 456.836 448.616 450.737 444.461C449.85 443.858 449.03 443.175 447.881 443.221C441.532 443.494 435.331 444.393 429.061 447.147H429.073ZM443.705 464.551L443.865 463.72C442.806 462.923 441.782 462.07 440.679 461.353C434.751 457.471 429.096 453.123 422.655 450.073C417.512 447.637 413.484 449.014 410.538 453.965C409.684 455.4 408.876 456.868 408.216 458.393C405.349 465.063 405.349 465.143 412.313 467.306C414.361 467.943 416.329 468.501 418.741 467.328C423.679 464.938 429.061 464.073 434.625 464.506C437.629 464.733 440.667 464.551 443.694 464.551H443.705ZM206.456 462.935C203.52 462.081 201.369 461.592 199.094 461.455C196.101 461.262 193.53 461.614 191.186 463.868C187.26 467.636 182.971 471.028 178.965 474.715C177.532 476.036 176.405 477.72 175.302 479.337C173.902 481.397 174.335 483.013 176.348 484.914C178.101 486.576 179.432 486.064 181.036 484.618C184.529 481.499 188.33 478.711 191.721 475.49C196.215 471.221 201.096 467.408 206.456 462.935ZM383.127 476.503C376.016 481.078 371.692 486.872 369.723 494.088C368.449 498.766 369.644 502.17 373.615 505.095C373.933 504.799 374.354 504.56 374.582 504.184C377.301 499.802 380.191 495.579 384.811 492.916C385.881 492.301 386.142 491.356 385.494 490.218C383.207 486.109 382.991 481.59 383.116 476.503H383.127ZM398.294 518.128C394.892 521.816 392.81 525.56 391.206 529.681C390.295 532.037 390.842 533.733 392.435 535.418C393.857 536.909 395.586 537.808 397.589 538.036C400.752 538.4 403.927 538.605 407.113 538.309C408.967 538.138 410.64 537.444 412.278 536.658C413.439 536.101 413.519 534.985 413.302 533.915C413.086 532.811 412.165 532.64 411.186 532.743C410.742 532.788 410.299 532.902 409.843 532.925C406.373 533.096 404.018 531.821 402.527 528.406C401.139 525.219 399.751 522.043 398.283 518.128H398.294ZM178.203 574.243C178.203 575.597 178.169 576.952 178.203 578.306C178.271 580.355 179.284 580.924 181.173 580.15C182.982 579.422 184.78 578.5 186.68 578.17C191.254 577.362 193.473 571.056 190.537 567.357C189.138 565.581 187.704 563.839 186.248 562.121C184.848 560.459 183.517 560.778 182.072 562.2C178.658 565.547 177.998 569.758 178.203 574.232V574.243ZM364.102 496.422C358.664 506.984 363.408 519.676 372.852 521.201C372.318 518.208 371.43 515.294 372.227 512.266C372.579 510.923 371.885 510.115 370.656 509.386C366.128 506.711 363.716 502.75 364.114 496.422H364.102ZM165.528 599.751C168.987 601.253 171.57 601.72 174.255 602.073C178.442 602.642 183.722 598.362 183.699 593.741C183.699 591.794 184.052 589.837 184.165 587.89C184.222 586.877 184.564 585.443 183.21 585.227C181.799 584.988 180.103 584.999 179.421 586.82C179.102 587.663 178.783 588.539 178.692 589.427C178.362 592.568 176.519 594.549 174.016 596.234C171.729 597.77 169.157 598.556 165.539 599.751H165.528ZM147.061 597.417C151.453 600.377 155.378 600.286 159.372 599.751C155.833 597.736 151.999 597.395 147.061 597.417Z" fill="#4B1A61"/>
<path d="M516.64 103.628C516.663 106.382 516.185 108.738 513.921 110.628C512.51 111.8 511.236 112.142 509.37 111.812C498.958 109.968 488.479 108.454 478.091 106.507C471.116 105.198 464.243 103.343 457.314 101.761C448.473 99.7235 439.484 98.2211 430.836 95.5576C420.846 92.4844 410.435 91.2551 400.536 87.9314C399.102 87.4534 397.646 86.9981 396.28 86.3606C392.002 84.3346 391.012 80.567 393.823 76.7198C394.71 75.5019 395.791 74.3636 396.997 73.4758C406.6 66.3505 415.601 58.4511 425.682 51.9176C439.029 43.267 452.148 34.2408 466.519 27.3203C471.286 25.0211 476.156 22.8243 481.652 22.8357C485.373 22.8357 488.183 24.2585 490.618 27.2293C495.238 32.8749 497.661 39.5905 500.551 46.0899C505.979 58.3145 509.472 71.2221 513.09 84.0386C514.888 90.4014 515.491 97.0942 516.64 103.639V103.628Z" fill="#4B1A61"/>
<path d="M40.1724 118.436C40.252 116.638 40.3203 114.851 40.4 113.052C41.9588 110.673 41.6516 107.851 42.1067 105.244C43.8476 95.3869 46.3736 85.7232 49.0703 76.1165C50.686 70.357 53.2234 64.8138 55.3056 59.1454C56.4889 55.9356 58.8784 53.1697 61.4272 50.7794C62.6674 49.607 64.3059 49.2655 66.0468 49.1631C71.2808 48.833 76.2759 49.5159 81.0775 51.7469C86.8236 54.4104 92.4673 57.199 98.0085 60.3064C103.47 63.3796 109.284 65.9976 114.803 69.0936C121.016 72.5766 126.91 76.4808 132.769 80.5556C138.709 84.6874 144.842 88.5688 150.815 92.6892C153.58 94.5901 155.947 96.9462 158.598 98.9609C161.249 100.976 161.978 105.642 158.041 107.68C155.89 108.795 153.865 110.07 151.521 110.81C142.282 113.758 132.701 115.26 123.314 117.605C117.306 119.108 111.253 120.383 105.234 121.748C98.6229 123.251 91.8642 124.275 85.2193 125.778C73.7158 128.384 61.9619 129.523 50.4357 131.97C48.9679 132.277 47.409 132.243 45.8957 132.254C42.3798 132.266 40.7186 130.695 40.4569 127.075C40.252 124.207 40.7186 121.304 40.1497 118.448L40.1724 118.436Z" fill="#4B1A61"/>
</g>
</g>
</g>
</g>
</svg>
