<svg width="394" height="655" viewBox="0 0 394 655" fill="none" xmlns="http://www.w3.org/2000/svg">
<g id="sideright">
<g id="Group">
<path id="id5" d="M368.893 352.723C371.588 352.193 372.184 350.313 372.353 347.833C372.582 344.573 371.448 341.523 371.399 338.293C371.329 333.613 372.622 329.204 373.447 324.714C374.75 317.614 375.903 310.513 376.5 303.313C376.768 300.143 378.071 297.213 378.478 294.003C378.976 290.153 379.234 286.263 379.652 282.423C380.258 276.893 381.312 271.454 382.048 265.964C382.486 262.664 382.575 259.333 383.023 256.023C384.832 242.613 385.061 229.103 384.832 215.583C384.743 210.463 384.733 210.453 379.781 209.143C375.873 208.113 371.956 207.443 367.899 207.613C363.315 207.813 358.83 206.883 354.316 206.223C353.908 206.163 353.501 206.003 353.093 206.003C345.466 206.103 337.919 204.603 330.263 205.073C325.331 205.383 322.308 207.533 320.518 212.113C318.927 216.193 318.321 220.493 318.112 224.753C317.754 232.283 316.054 239.593 315.089 247.013C314.602 250.723 313.826 254.383 313.767 258.173C313.697 262.333 313.787 266.763 312.723 270.583C310.486 278.583 310.605 286.733 309.64 294.803C308.467 304.583 307.811 314.443 306.16 324.133C304.858 331.803 304.778 339.613 303.108 347.223C303.048 347.493 303.028 347.783 303.038 348.053C303.207 358.093 301.596 368.073 302.113 378.133C302.213 379.983 302.73 381.703 303.117 383.453C303.535 385.333 304.887 386.573 306.757 387.113C310.993 388.343 315.199 389.413 319.663 389.863C329.04 390.813 338.397 391.513 347.813 391.403C353.123 391.343 355.31 389.983 357.259 385.123C360.153 377.913 363.126 370.713 365.254 363.233C366.049 360.443 366.606 357.563 367.61 354.823C367.889 354.063 368.446 353.403 368.883 352.693C357.925 352.403 350.537 345.563 349.285 334.573C349.016 332.233 349.653 331.203 351.552 330.883C353.67 330.523 354.594 331.603 354.863 333.593C354.992 334.553 355.261 335.503 355.549 336.423C357.866 343.663 361.316 346.193 368.943 346.293C369.191 346.293 369.45 346.473 369.599 346.533C370.086 348.703 368.535 350.573 368.853 352.703L368.893 352.723ZM332.46 286.233C332.321 281.013 333.286 275.913 334.578 270.943C335.871 265.983 337.184 260.943 340.584 256.823C345.824 250.453 352.685 250.853 356.871 257.953C358.651 260.963 359.785 264.283 360.421 267.743C362.529 279.253 361.505 290.533 357.587 301.513C356.175 305.473 354.147 309.143 350.478 311.593C346.331 314.363 342.304 313.953 338.924 310.403C337.144 308.533 336.08 306.303 335.254 303.903C333.286 298.173 332.659 292.243 332.47 286.233H332.46Z" fill="#3C3C3C"/>
<g id="id1">
<g id="Vector">
<path d="M261.514 83.5635C261.773 87.4735 259.953 90.1735 256.741 92.1835C244.004 100.133 231.505 108.463 217.803 114.773C212.861 117.043 207.899 117.693 202.798 116.923C190.011 114.993 177.443 111.953 165.411 107.143C153.618 102.423 143.526 95.1235 135.154 85.4835C131.624 81.4135 129.545 77.1935 132.529 71.8135C133.483 70.0935 132.131 69.6335 130.679 69.6735C124.842 69.8335 118.976 69.6735 113.179 70.2635C98.1244 71.8035 83.0204 73.0535 68.1252 75.9035C60.6179 77.3335 53.2001 79.1735 46.0409 81.9135C43.5848 82.8535 41.1786 83.9835 38.8419 85.1835C32.498 88.4535 28.4212 93.6735 25.5773 100.203C20.5659 111.713 18.269 123.893 16.0218 136.123C14.3513 145.203 13.695 154.413 12.7702 163.573C11.0401 180.803 9.47899 198.053 8.11674 215.313C7.17212 227.283 6.66501 239.293 6.00875 251.293C5.71044 256.733 5.41213 262.173 5.3127 267.613C5.00445 283.833 5.68061 300.033 7.00308 316.193C8.23607 331.383 10.5827 346.423 13.9038 361.293C15.8726 370.113 19.6809 377.863 27.4169 383.143C31.9312 386.223 37.0719 387.963 42.1729 389.543C58.8977 394.733 76.0997 397.573 93.431 399.983C107.73 401.973 122.048 403.723 136.387 405.303C147.016 406.473 157.675 407.323 168.345 408.033C173.744 408.393 179.123 409.283 184.562 409.033C187.068 409.053 189.623 408.413 192.05 409.573C195.391 409.983 198.742 409.923 202.092 409.863C205.97 409.963 209.878 409.203 213.716 410.363C217.077 410.783 220.458 410.753 223.829 410.693C231.933 410.673 240.036 410.653 248.14 410.643C248.966 410.643 249.801 410.643 250.437 411.293C263.553 411.953 276.648 411.193 289.744 410.623C290.042 407.603 287.218 407.473 285.647 406.723C281.878 404.913 279.025 402.343 276.698 398.923C271.577 391.433 269.916 382.853 268.972 374.103C268.733 371.893 267.669 369.733 268.137 367.513C269.369 361.763 268.405 355.803 269.777 350.113C270.791 345.883 270.016 341.473 271.418 337.323C272.77 333.323 273.108 329.203 273.138 324.983C273.158 321.673 273.615 318.313 274.132 315.053C275.375 307.103 276.459 299.123 277.076 291.133C277.712 282.823 278.885 274.583 279.611 266.303C279.84 263.663 280.576 261.093 280.536 258.453C280.436 251.883 281.759 245.453 282.475 238.983C283.569 229.213 285.537 219.543 287.238 209.853C288.968 199.983 291.245 190.283 296.107 181.353C300.999 172.363 307.125 164.673 316.372 159.893C319.564 158.243 322.597 156.313 325.957 154.923C329.895 153.303 333.475 151.003 336.945 148.313C343.806 143.003 344.671 131.983 341.708 125.413C339.192 119.833 335.652 114.773 331.605 110.163C329.975 108.303 328.175 106.563 326.097 105.093C320.14 100.853 313.568 97.9635 306.767 95.4935C294.775 91.1435 282.505 87.7335 270.135 84.7435C267.361 84.0735 264.487 83.3135 261.544 83.5635H261.514ZM228.254 274.753C227.269 280.003 226.832 285.333 225.519 290.533C223.272 299.413 221.224 308.343 217.057 316.583C216.868 316.903 216.679 317.213 216.5 317.533C216.421 317.803 216.341 318.063 216.262 318.333C216.073 318.623 215.874 318.924 215.685 319.214C213.915 324.094 210.634 328.064 206.497 330.714C199.984 334.874 192.845 337.783 185.209 339.633C170.91 343.103 156.552 344.803 141.905 342.803C128.959 341.033 117.643 335.423 107.491 327.383C98.5519 320.303 93.2819 310.833 90.2691 299.873C87.0971 288.343 86.1127 276.533 85.4863 264.693C84.3826 243.833 86.0531 223.133 89.6526 202.563C91.9793 189.313 95.5093 176.473 101.177 164.223C103.265 159.703 106.397 156.433 110.414 153.753C128.839 141.483 149.005 137.093 170.731 140.743C181.977 142.633 192.895 145.753 202.619 152.243C216.401 161.433 225.28 173.803 227.995 190.383C228.651 194.373 229.258 198.373 229.924 202.363C233.056 220.963 232.718 239.593 230.491 258.253C229.874 263.373 229.258 268.493 228.641 273.623C228.741 274.073 228.612 274.443 228.254 274.733V274.753Z" fill="#F9F8F9"/>
<path d="M131.296 518.523C131.415 521.013 131.117 523.523 131.753 526.013C132.27 528.013 133.394 529.283 135.313 529.643C148.627 532.193 161.792 532.043 174.659 527.243C178.517 525.803 179.62 524.124 179.451 519.944C179.103 511.114 176.926 502.603 174.987 494.043C173.018 485.343 170.144 476.903 167.668 468.343C166.943 465.853 166.376 463.323 165.332 460.903C162.667 454.703 155.667 451.793 149.402 454.253C144.212 456.293 140.921 459.933 139.668 465.363C136.357 479.613 133.085 493.864 131.942 508.504C131.683 511.834 131.176 515.153 131.296 518.513V518.523Z" fill="#F9F8F9"/>
<path d="M149.79 596.763C145.087 606.713 141.229 616.374 138.763 626.574C138.206 628.874 137.799 631.214 137.431 633.554C136.685 638.344 138.186 641.304 142.621 643.294C145.147 644.424 147.772 645.444 150.447 646.064C159.246 648.094 168.156 649.424 177.234 649.094C182.524 648.904 187.724 648.323 192.686 646.273C196.325 644.773 198.523 642.194 199.269 638.304C201.635 626.044 200.77 614.164 195.251 602.814C193.72 599.664 191.652 596.894 189.256 594.324C187.585 592.534 186.094 592.244 183.807 593.404C178.477 596.104 172.879 598.114 167.012 599.384C161.076 600.674 155.438 600.333 149.78 596.763H149.79Z" fill="#F9F8F9"/>
<path d="M214.074 635.333C216.421 633.173 216.739 630.203 217.137 627.313C218.449 617.883 217.336 608.673 214.313 599.673C212.652 594.723 209.58 590.723 206.05 586.983C204.608 585.453 203.256 585.063 201.337 586.113C198.672 587.573 195.888 588.823 192.895 590.283C194.337 592.193 195.719 593.873 196.932 595.673C202.281 603.603 205.245 612.343 205.463 621.973C205.533 625.043 205.632 628.113 205.722 631.183C209.331 630.883 211.578 633.363 214.074 635.323V635.333Z" fill="#F9F8F9"/>
<path d="M182.395 567.374C181.907 571.684 181.54 575.934 180.535 580.104C180.038 582.144 179.402 584.124 178.258 585.904C176.299 588.924 173.764 590.694 169.926 590.194C166.097 589.694 163.492 587.784 162.21 584.154C161.126 581.114 160.957 577.884 160.519 574.724C160.35 573.524 160.668 572.243 159.783 570.953C158.55 571.273 158.222 572.404 157.735 573.284C155.836 576.734 153.589 579.864 150.158 581.934C149.353 582.424 149.084 583.034 149.144 583.994C149.591 591.184 154.474 595.283 161.663 594.703C169.259 594.083 176.19 591.384 182.991 588.174C185.388 587.044 186.491 585.264 186.362 582.534C186.104 577.194 184.184 572.343 182.415 567.393L182.395 567.374Z" fill="#F9F8F9"/>
<path d="M192.288 584.613C196.087 583.383 199.388 581.774 202.321 579.434C203.475 578.514 203.813 577.123 203.833 575.673C203.932 569.813 201.546 564.563 199.736 559.173C199.378 558.103 198.463 558.133 197.688 558.483C194.516 559.933 191.175 560.813 187.834 561.703C186.392 562.093 186.253 562.884 186.78 564.194C188.142 567.544 189.445 570.903 190.558 574.353C191.592 577.553 191.741 580.873 192.268 584.593L192.288 584.613Z" fill="#F9F8F9"/>
<path d="M164.308 566.833C165.203 572.003 166.008 576.763 166.853 581.523C167.022 582.493 167.47 583.343 168.235 584.023C170.373 585.913 172.71 585.554 173.963 582.984C175.623 579.564 176.2 575.894 176.27 572.094C176.379 565.854 176.459 565.874 170.413 566.504C168.643 566.684 166.863 566.704 164.318 566.844L164.308 566.833Z" fill="#F9F8F9"/>
<path d="M143.287 579.014C144.56 579.604 145.534 578.764 146.37 578.194C149.611 575.964 152.306 573.184 153.986 569.544C154.841 567.704 154.543 567.144 152.435 566.774C150.397 566.414 148.269 566.714 146.26 565.974C145.057 565.534 144.56 566.414 144.063 567.324C142.909 569.444 141.378 571.174 139.25 572.414C137.033 573.714 136.814 574.944 138.156 577.024C139.389 578.924 141.279 579.174 143.267 579.024L143.287 579.014Z" fill="#F9F8F9"/>
<path d="M138.932 564.833C136.595 563.083 134.09 562.064 132.479 559.884C131.972 559.194 131.296 559.384 130.659 559.804C128.849 560.984 126.384 561.643 126.374 564.393C126.364 566.743 128.322 568.194 131.663 568.784C134.895 569.354 136.894 567.643 138.932 564.833Z" fill="#F9F8F9"/>
<path d="M182.842 534.693C182.415 535.313 182.126 535.533 182.156 535.723C182.772 540.873 182.544 546.013 182.156 551.153C181.987 553.473 183.568 553.863 185.169 554.433C187.655 555.333 189.862 554.843 191.662 552.973C193.283 551.283 192.696 549.323 191.861 547.503C189.643 542.713 186.432 538.663 182.852 534.693H182.842Z" fill="#F9F8F9"/>
</g>
</g>
<g id="id2">
<g id="Vector_2">
<path d="M261.514 83.5635C264.467 83.3035 267.341 84.0735 270.105 84.7435C282.485 87.7335 294.755 91.1435 306.737 95.4935C313.538 97.9635 320.111 100.853 326.067 105.093C328.145 106.573 329.935 108.303 331.575 110.163C335.622 114.773 339.162 119.833 341.678 125.413C344.641 131.983 343.776 143.003 336.915 148.313C333.445 151.003 329.865 153.293 325.928 154.923C322.557 156.313 319.534 158.243 316.342 159.893C307.095 164.673 300.97 172.363 296.077 181.353C291.215 190.283 288.938 199.973 287.208 209.853C285.508 219.543 283.539 229.223 282.445 238.983C281.719 245.453 280.407 251.893 280.506 258.453C280.546 261.093 279.81 263.663 279.581 266.303C278.856 274.593 277.692 282.823 277.046 291.133C276.429 299.123 275.345 307.113 274.103 315.053C273.595 318.323 273.138 321.673 273.108 324.983C273.078 329.203 272.74 333.323 271.388 337.323C269.986 341.473 270.772 345.883 269.747 350.113C268.385 355.803 269.34 361.763 268.107 367.513C267.629 369.733 268.703 371.893 268.942 374.103C269.887 382.853 271.557 391.423 276.668 398.923C279.005 402.343 281.848 404.913 285.617 406.723C287.188 407.483 290.012 407.613 289.714 410.623C300.691 410.823 311.579 410.243 322.457 408.443C327.817 407.553 333.047 406.373 338.267 404.983C341.837 404.033 344.691 401.933 347.256 399.363C347.634 398.983 348.052 398.563 347.773 397.913C347.505 397.263 346.868 397.323 346.361 397.323C339.272 397.383 332.222 396.624 325.142 396.464C318.55 396.314 312.206 394.923 305.961 393.043C300.284 391.333 296.883 387.653 296.167 381.403C295.371 374.423 295.232 367.443 295.918 360.503C297.549 344.133 299.955 327.844 301.576 311.464C303.167 295.374 305.434 279.353 307.075 263.273C308.596 248.293 311.003 233.443 313.081 218.533C313.628 214.633 315.139 211.033 316.561 207.383C319.226 200.493 325.112 199.183 331.367 198.533C337.074 197.933 342.762 198.743 348.38 199.553C357.17 200.833 366.009 201.603 374.829 202.593C378.011 202.953 381.143 203.463 384.226 204.323C386.891 205.063 386.99 204.993 387.358 202.283C388.67 192.573 388.631 182.823 388.322 173.053C387.954 161.283 386.483 149.703 383.092 138.403C378.22 122.153 368.674 109.783 353.62 101.643C339.431 93.9635 324.187 89.4735 308.716 85.5335C294.188 81.8235 279.343 79.7235 264.646 76.9035C261.644 76.3235 261.296 76.7035 261.296 79.7935C261.296 81.0435 261.435 82.3035 261.514 83.5535V83.5635Z" fill="#E6E6E6"/>
<path d="M183.737 528.913C189.812 525.693 194.874 521.244 199.04 515.814C202.62 511.144 205.036 505.763 207.343 500.403C209.212 496.053 212.265 494.373 216.779 494.463C220.975 494.553 221.263 494.084 222.377 490.004C223.173 487.094 222.675 484.173 222.934 481.273C223.033 480.093 222.327 479.473 221.363 479.093C219.563 478.383 217.783 477.483 215.914 477.093C211.628 476.203 209.222 473.533 207.86 469.533C206.149 464.533 204.728 459.443 202.361 454.673C195.341 440.483 184.075 430.783 170.333 423.643C169.856 423.393 169.269 423.354 168.742 423.214C169.2 430.804 167.46 438.203 166.615 445.663C166.197 449.333 165.839 452.633 168.524 455.843C170.453 458.153 171.119 461.324 172.063 464.254C176.985 479.524 181.331 494.944 184.175 510.754C184.622 513.224 185.01 515.703 185.248 518.203C185.507 520.873 185.308 523.543 183.767 525.863C183.031 526.963 182.981 527.883 183.757 528.903L183.737 528.913Z" fill="#E6E6E6"/>
<path d="M126.045 527.103C125.3 513.943 126.622 500.953 129.347 488.083C130.987 480.313 132.399 472.493 134.398 464.803C135.7 459.783 137.6 455.263 142.293 452.523C143.725 451.683 143.804 450.334 144.033 448.944C145.276 441.524 146.628 434.124 147.772 426.684C148.309 423.214 149.641 419.983 150.317 416.573C141.855 416.563 133.404 416.543 124.942 416.553C123.291 416.553 121.641 416.873 120.01 417.003C115.804 417.333 112.065 419.374 107.958 419.964C106.934 427.544 108.943 434.634 111.468 441.634C113.358 446.874 115.476 452.053 117.156 457.363C119.96 466.223 121.153 475.243 119.95 484.593C118.866 493.043 116.45 501.233 115.645 509.713C115.227 514.163 114.78 518.623 116.241 522.993C119.354 524.723 122.118 527.313 126.045 527.093V527.103Z" fill="#E6E6E6"/>
<path d="M332.46 286.233C332.649 292.243 333.266 298.173 335.245 303.903C336.07 306.303 337.134 308.533 338.914 310.403C342.294 313.953 346.312 314.363 350.468 311.593C354.137 309.143 356.165 305.463 357.577 301.513C361.505 290.533 362.529 279.253 360.411 267.743C359.775 264.283 358.641 260.973 356.861 257.953C352.665 250.853 345.814 250.453 340.574 256.823C337.183 260.943 335.861 265.993 334.568 270.943C333.276 275.913 332.311 281.013 332.45 286.233H332.46Z" fill="#E6E6E6"/>
<path d="M368.893 352.723C368.565 350.593 370.126 348.733 369.639 346.553C369.48 346.493 369.231 346.313 368.982 346.313C361.356 346.213 357.906 343.683 355.589 336.443C355.29 335.523 355.032 334.573 354.903 333.613C354.634 331.623 353.709 330.553 351.591 330.903C349.692 331.223 349.056 332.253 349.324 334.593C350.577 345.593 357.965 352.423 368.923 352.713L368.893 352.723Z" fill="#E6E6E6"/>
</g>
</g>
<g id="id4">
<g id="Vector_3">
<path d="M390.5 235.473C390.758 232.553 391.345 229.613 391.206 226.713C390.629 214.783 392.737 203.063 393.642 191.243C394.428 180.893 393.811 170.583 392.847 160.273C392.18 153.163 390.918 146.183 389.038 139.293C385.309 125.613 378.657 113.723 367.7 104.583C362.569 100.303 356.891 96.7135 350.756 94.0535C348.489 93.0735 347.972 91.9135 348.28 89.7035C349.324 82.3635 349.802 74.9735 350.1 67.5735C350.528 56.8035 350.09 46.0935 348.111 35.4835C347.654 33.0435 346.809 30.7135 345.884 28.3935C344.363 24.5635 341.499 23.2935 337.701 23.3935C322.467 23.8135 308.238 27.8435 294.586 34.6635C281.52 41.1835 270.662 50.2635 260.898 61.7835C260.5 57.8235 260.182 54.3235 259.804 50.8235C258.442 38.1735 256.145 25.6935 252.913 13.3935C252.138 10.4235 250.984 7.58346 249.741 4.76346C248.18 1.22346 245.585 -0.0765424 241.796 0.00345759C224.465 0.363458 208.049 4.41346 192.328 11.6835C178.686 17.9935 166.396 26.2835 155.786 36.9335C148.816 43.9335 142.651 51.7035 137.977 60.4835C136.387 63.4635 134.507 64.4735 131.196 64.3535C119.642 63.9435 108.177 65.3435 96.7025 66.5435C85.0886 67.7535 73.5244 69.1534 62.1293 71.7234C54.6817 73.4034 47.3335 75.3435 40.2837 78.3735C30.5391 82.5535 24.1455 89.6935 19.9494 99.4035C15.9721 108.593 13.8243 118.193 12.0444 127.943C9.52872 141.693 7.97755 155.553 6.82412 169.473C5.89938 180.603 4.61672 191.703 3.62238 202.823C2.93628 210.473 2.31974 218.133 1.95183 225.803C1.23591 240.593 0.181906 255.363 0.0228115 270.173C-0.136283 285.133 0.549845 300.053 1.67345 314.973C2.76722 329.473 4.61667 343.853 7.67924 358.063C8.71335 362.843 10.1551 367.503 11.9052 372.063C15.2462 380.743 21.3514 386.633 29.6939 390.473C37.4398 394.033 45.5636 396.283 53.8266 398.163C63.2927 400.313 72.6892 402.783 82.3542 403.963C84.1141 404.013 85.9537 403.523 87.5744 404.673C93.1229 405.793 98.8701 405.773 104.568 407.363C102.808 413.633 101.545 419.743 102.191 426.093C102.529 429.433 103.007 432.733 104.08 435.933C106.208 442.273 108.098 448.713 110.504 454.943C115.068 466.753 116.132 478.743 113.417 491.113C112.403 495.743 111.339 500.383 110.723 505.083C108.704 520.603 110.981 535.143 120.875 547.843C122.933 550.483 125.29 552.783 128.124 554.573C127.656 555.813 126.503 556.203 125.548 556.603C119.652 559.093 119.214 568.503 125.727 572.353C126.553 572.843 127.477 573.363 128.402 573.443C131.315 573.693 132.628 574.903 133.533 578.003C134.487 581.263 137.381 583.743 141.199 584.043C143.307 584.213 144.192 584.943 144.679 587.173C144.938 588.363 145.077 589.823 145.783 591.043C146.549 592.363 146.022 593.633 145.256 594.943C138.604 606.233 134.646 618.523 132.26 631.343C131.852 633.513 131.832 635.823 132.071 638.023C132.449 641.533 134.328 644.243 137.252 646.233C140.752 648.613 144.63 650.233 148.677 651.173C160.37 653.893 172.193 655.573 184.214 653.903C190.568 653.023 196.882 651.773 201.426 646.523C202.122 645.723 202.987 645.423 204.012 645.473C205.851 645.563 207.601 645.023 209.331 644.553C216.232 642.653 220.905 638.323 221.989 631.093C224.286 615.763 223.013 601.013 213.895 587.803C213.269 586.893 212.682 585.843 211.817 585.203C209.033 583.133 207.82 581.043 209.341 577.303C210.415 574.663 209.083 571.533 208.367 568.683C207.492 565.163 206.468 561.673 205.026 558.343C204.36 556.803 204.618 555.883 206.189 554.983C225.559 543.753 236.338 526.373 241.578 504.973C245.257 489.963 247.057 474.783 246.231 459.313C245.535 446.253 243.049 433.583 238.277 421.383C237.74 420.003 236.805 418.683 236.964 416.823C238.098 416.323 239.331 416.573 240.514 416.593C261.504 416.923 282.495 417.013 303.455 415.703C313.836 415.053 324.197 414.163 334.399 411.703C344.293 409.323 351.582 403.543 357.398 395.503C361.435 389.933 364.14 383.673 366.676 377.323C371.399 365.483 373.795 353.003 376.5 340.613C380.308 323.153 383.052 305.493 385.498 287.813C387.378 274.273 388.342 260.603 389.714 246.993C389.635 246.933 389.476 246.843 389.486 246.833C389.555 246.683 389.655 246.543 389.754 246.403C390.003 242.963 390.241 239.523 390.49 236.093C390.41 236.043 390.251 235.943 390.261 235.933C390.341 235.783 390.43 235.643 390.53 235.493L390.5 235.473ZM214.074 635.333C211.976 638.823 208.476 639.373 204.489 640.053C204.926 636.883 205.324 634.033 205.722 631.193C205.632 628.123 205.533 625.053 205.463 621.983C205.245 612.353 202.291 603.623 196.932 595.683C195.719 593.883 194.337 592.203 192.895 590.293C195.888 588.823 198.672 587.583 201.337 586.123C203.256 585.073 204.608 585.463 206.05 586.993C209.58 590.723 212.642 594.733 214.313 599.683C217.336 608.683 218.449 617.883 217.137 627.323C216.739 630.203 216.421 633.183 214.074 635.343V635.333ZM150.327 416.573C149.651 419.983 148.309 423.213 147.782 426.683C146.638 434.123 145.286 441.523 144.043 448.943C143.814 450.323 143.735 451.683 142.303 452.523C137.61 455.263 135.71 459.783 134.408 464.803C132.409 472.503 130.997 480.313 129.357 488.083C126.632 500.953 125.31 513.933 126.055 527.103C126.334 529.193 128.223 530.263 129.128 531.963C129.575 532.803 130.47 533.483 130.063 534.573C128.492 538.743 128.899 543.193 128.531 547.833C125.19 546.053 123.878 543.073 122.207 540.463C118.817 535.153 116.897 529.283 116.251 523.013C114.789 518.643 115.227 514.193 115.655 509.733C116.46 501.253 118.876 493.053 119.96 484.613C121.163 475.263 119.96 466.233 117.166 457.383C115.486 452.073 113.368 446.903 111.478 441.653C108.953 434.653 106.944 427.563 107.968 419.983C107.392 416.883 108.316 413.913 108.804 410.913C109.112 409.013 110.196 408.113 112.264 408.143C114.103 408.173 115.774 408.853 117.574 409.013C127.04 409.833 136.536 410.533 145.972 411.663C149.084 412.033 152.276 412.213 155.806 412.663C153.778 414.383 151.411 414.583 150.337 416.613L150.327 416.573ZM168.732 423.223C168.026 419.213 167.052 415.353 162.329 413.533C165.471 412.663 167.847 413.843 170.294 413.963C178.308 414.343 186.292 414.983 194.297 415.523C202.441 416.073 210.644 415.483 218.787 416.463C221.383 416.773 224.048 416.993 226.613 417.053C230.342 417.143 231.595 419.193 232.818 422.023C235.821 428.973 237.292 436.343 238.794 443.703C239.848 448.873 240.653 454.093 240.554 459.423C240.454 465.143 240.554 470.873 240.504 476.593C240.494 478.263 240.434 479.953 240.156 481.583C239.171 487.333 238.267 493.093 237.312 498.833C235.661 508.753 231.684 517.733 227.259 526.543C223.64 533.753 217.753 539.193 211.897 544.523C208.755 547.383 205.434 550.133 201.307 551.663C198.533 552.703 198.215 552.703 197.906 549.843C197.767 548.563 197.359 547.423 196.942 546.233C194.416 538.993 189.405 533.703 183.717 528.913C182.951 527.893 183.001 526.973 183.727 525.873C185.268 523.563 185.467 520.893 185.209 518.213C184.97 515.723 184.572 513.233 184.135 510.763C181.301 494.953 176.956 479.533 172.024 464.263C171.079 461.333 170.413 458.163 168.484 455.853C165.809 452.653 166.167 449.353 166.575 445.673C167.42 438.203 169.16 430.813 168.703 423.223H168.732ZM368.893 352.723C368.465 353.433 367.899 354.083 367.62 354.853C366.606 357.593 366.049 360.473 365.264 363.263C363.136 370.743 360.163 377.933 357.269 385.153C355.32 390.013 353.133 391.373 347.823 391.433C338.397 391.543 329.04 390.843 319.673 389.893C315.209 389.443 311.003 388.373 306.767 387.143C304.907 386.603 303.545 385.353 303.127 383.483C302.74 381.733 302.223 380.023 302.123 378.163C301.606 368.103 303.217 358.123 303.048 348.083C303.048 347.803 303.058 347.523 303.117 347.253C304.788 339.653 304.867 331.843 306.17 324.163C307.821 314.473 308.477 304.613 309.65 294.833C310.615 286.763 310.495 278.613 312.733 270.613C313.797 266.803 313.707 262.363 313.777 258.203C313.836 254.413 314.612 250.763 315.099 247.043C316.064 239.623 317.764 232.313 318.122 224.783C318.321 220.523 318.927 216.223 320.528 212.143C322.318 207.563 325.341 205.413 330.273 205.103C337.919 204.623 345.476 206.123 353.103 206.033C353.511 206.033 353.918 206.193 354.326 206.253C358.83 206.913 363.325 207.833 367.909 207.643C371.965 207.473 375.893 208.143 379.791 209.173C384.743 210.483 384.763 210.493 384.842 215.613C385.071 229.133 384.842 242.643 383.032 256.053C382.585 259.373 382.496 262.693 382.058 265.993C381.322 271.483 380.268 276.923 379.662 282.453C379.244 286.293 378.976 290.183 378.488 294.033C378.081 297.233 376.768 300.173 376.51 303.343C375.913 310.533 374.76 317.643 373.457 324.743C372.632 329.233 371.339 333.643 371.409 338.323C371.458 341.553 372.592 344.603 372.363 347.863C372.184 350.343 371.598 352.223 368.903 352.753L368.893 352.723ZM250.427 411.303C243.179 411.273 235.92 411.263 228.671 411.203C227.05 411.183 225.38 411.473 223.819 410.713C220.438 410.773 217.067 410.803 213.706 410.383C209.819 410.613 205.921 410.873 202.083 409.883C198.732 409.943 195.381 410.003 192.04 409.593C189.514 409.763 186.998 409.983 184.552 409.053C179.113 409.303 173.734 408.413 168.335 408.053C157.665 407.343 147.006 406.493 136.377 405.323C122.038 403.743 107.72 401.993 93.4212 400.003C76.0898 397.593 58.8877 394.753 42.1629 389.563C37.062 387.983 31.9213 386.243 27.407 383.163C19.671 377.883 15.8627 370.123 13.8939 361.313C10.5728 346.443 8.22612 331.393 6.99314 316.213C5.68061 300.053 5.00445 283.853 5.30275 267.633C5.40219 262.193 5.7005 256.743 5.9988 251.313C6.65507 239.313 7.16217 227.313 8.1068 215.333C9.46904 198.073 11.0202 180.823 12.7603 163.593C13.685 154.433 14.3413 145.223 16.0118 136.143C18.259 123.923 20.5559 111.733 25.5674 100.223C28.4112 93.6934 32.488 88.4735 38.8319 85.2035C41.1786 83.9935 43.5749 82.8735 46.0309 81.9335C53.1902 79.1935 60.608 77.3535 68.1152 75.9235C83.0104 73.0835 98.1144 71.8235 113.169 70.2835C118.966 69.6935 124.832 69.8535 130.669 69.6935C132.121 69.6535 133.473 70.1135 132.519 71.8335C129.536 77.2035 131.614 81.4335 135.144 85.5035C143.526 95.1435 153.609 102.443 165.401 107.163C177.433 111.983 190.001 115.013 202.789 116.943C207.89 117.713 212.851 117.063 217.793 114.793C231.505 108.483 243.994 100.153 256.731 92.2035C259.943 90.1935 261.763 87.4935 261.504 83.5835C261.425 82.3335 261.286 81.0735 261.286 79.8235C261.286 76.7435 261.634 76.3635 264.636 76.9335C279.343 79.7435 294.178 81.8535 308.706 85.5635C324.168 89.5135 339.411 94.0035 353.61 101.673C368.674 109.813 378.21 122.183 383.082 138.433C386.473 149.723 387.945 161.313 388.312 173.083C388.621 182.853 388.66 192.603 387.348 202.313C386.98 205.023 386.881 205.103 384.216 204.353C381.133 203.493 378.001 202.983 374.819 202.623C365.999 201.633 357.16 200.863 348.37 199.583C342.752 198.763 337.064 197.963 331.357 198.563C325.102 199.213 319.216 200.533 316.551 207.413C315.139 211.063 313.618 214.663 313.071 218.563C310.993 233.463 308.586 248.313 307.065 263.303C305.434 279.383 303.167 295.413 301.566 311.493C299.945 327.873 297.539 344.153 295.908 360.533C295.222 367.463 295.352 374.453 296.157 381.433C296.873 387.683 300.274 391.363 305.951 393.073C312.196 394.953 318.54 396.343 325.132 396.493C332.202 396.653 339.262 397.413 346.351 397.353C346.868 397.353 347.495 397.293 347.763 397.943C348.042 398.593 347.624 399.013 347.246 399.393C344.681 401.963 341.827 404.063 338.257 405.013C333.037 406.403 327.807 407.593 322.447 408.473C311.569 410.273 300.681 410.853 289.704 410.653C276.608 411.213 263.513 411.973 250.398 411.323L250.427 411.303ZM237.72 5.73346C237.372 6.68346 237.242 7.22346 236.984 7.70346C230.948 18.9035 226.593 30.8135 222.476 42.8135C216.371 60.6135 211.509 78.7235 208.655 97.3735C208.019 101.513 208.397 105.723 207.353 109.813C206.965 111.323 206.647 111.803 204.936 111.653C197.031 110.983 189.355 109.123 181.768 106.983C171.079 103.973 160.529 100.513 151.56 93.4835C146.837 89.7835 142.452 85.7835 138.624 81.1335C136.416 78.4635 136.138 75.9034 137.659 72.7234C140.245 67.3134 142.969 61.9835 146.29 57.0035C157.695 39.9135 173.048 27.3235 191.195 18.1635C202.888 12.2635 215.297 8.27346 228.293 6.50346C231.247 6.10346 234.23 4.98346 237.72 5.72346V5.73346ZM131.296 518.523C131.176 515.163 131.683 511.853 131.942 508.513C133.085 493.863 136.357 479.613 139.668 465.373C140.931 459.953 144.212 456.303 149.402 454.263C155.667 451.803 162.667 454.723 165.332 460.913C166.366 463.323 166.943 465.853 167.669 468.353C170.144 476.903 173.018 485.343 174.987 494.053C176.926 502.613 179.103 511.123 179.451 519.953C179.61 524.133 178.517 525.813 174.659 527.253C161.792 532.053 148.627 532.203 135.313 529.653C133.394 529.283 132.26 528.023 131.753 526.023C131.117 523.533 131.425 521.023 131.296 518.533V518.523ZM149.79 596.763C155.458 600.333 161.086 600.673 167.022 599.383C172.889 598.113 178.497 596.103 183.817 593.403C186.104 592.243 187.585 592.533 189.266 594.323C191.662 596.893 193.73 599.663 195.261 602.813C200.78 614.153 201.645 626.043 199.279 638.303C198.533 642.183 196.335 644.763 192.696 646.273C187.734 648.323 182.534 648.903 177.244 649.093C168.166 649.413 159.256 648.093 150.456 646.063C147.772 645.443 145.147 644.423 142.631 643.293C138.196 641.303 136.685 638.343 137.441 633.553C137.808 631.213 138.216 628.873 138.773 626.573C141.239 616.383 145.097 606.713 149.8 596.763H149.79ZM334.32 29.2835C334.787 30.2135 334.379 30.8335 334.061 31.4335C330.929 37.3535 328.016 43.3835 325.43 49.5635C321.831 58.1735 317.784 66.6035 314.761 75.4535C312.534 81.9635 314.363 81.2635 306.806 79.6535C292.458 76.6035 278.15 73.3735 263.523 71.8535C261.216 71.6135 260.679 70.6835 262.051 68.9835C267.47 62.2335 273.238 55.7135 279.989 50.3535C294.437 38.8735 311.062 32.1735 329.169 29.1135C330.889 28.8235 332.709 28.5835 334.31 29.2835H334.32ZM213.239 110.693C212.652 108.983 212.891 107.433 213.02 105.933C213.786 96.6335 215.407 87.4635 217.604 78.4035C222.447 58.4635 228.87 39.0335 236.686 20.0835C238.625 15.3735 240.842 10.7135 244.282 6.87346C245.217 7.29346 245.307 8.00346 245.565 8.65346C248.797 17.0035 250.606 25.7135 252.207 34.4835C253.56 41.8835 254.057 49.3735 254.842 56.8435C255.707 65.1735 255.648 73.5235 256.383 81.8435C256.672 85.0835 255.29 86.8835 252.714 88.6235C242.681 95.4135 232.122 101.273 221.621 107.263C219.016 108.753 216.202 109.893 213.249 110.703L213.239 110.693ZM177.085 532.483C176.896 540.333 177.811 547.933 176.488 555.503C175.673 560.203 174.987 560.683 170.264 560.783C167.907 560.833 165.471 560.513 163.214 560.993C156.383 562.443 149.721 561.563 143.118 559.893C137.779 558.543 134.726 554.503 134.567 548.963C134.477 546.033 134.458 543.103 134.507 540.173C134.587 535.783 135.472 535.013 139.777 535.703C148.895 537.163 157.914 536.563 167.002 535.123C170.294 534.603 173.217 532.933 177.095 532.493L177.085 532.483ZM341.131 30.5335C343.517 38.2035 344.711 45.9035 344.84 53.8935C345.019 64.9335 343.806 75.9035 343.885 86.9235C343.885 87.7435 343.716 88.5835 343.488 89.3735C343.309 90.0235 342.99 90.7335 342.076 90.5135C341.37 90.3435 340.733 89.9535 340.624 89.2035C340.505 88.3835 340.465 87.5135 340.614 86.7035C341.29 82.8435 341.071 78.8835 341.658 75.0735C342.961 66.6735 341.807 58.3835 341.32 50.0635C341.22 48.3435 341.141 45.8435 339.232 45.4235C337.004 44.9235 336.179 47.3535 335.235 49.0135C334.678 49.9835 334.21 50.9935 333.713 51.9935C329.288 61.0135 325.589 70.3135 322.915 80.0135C322.726 80.6835 322.467 81.3334 322.189 81.9734C321.662 83.1634 320.886 83.7235 319.554 83.0735C318.51 82.5635 318.092 81.9035 318.579 80.7435C318.947 79.8435 319.196 78.8935 319.484 77.9635C324.247 62.7335 331.764 48.7035 338.367 34.2735C338.993 32.9035 339.719 31.5435 341.121 30.5335H341.131ZM182.395 567.373C184.165 572.313 186.084 577.173 186.342 582.513C186.471 585.243 185.368 587.033 182.971 588.153C176.17 591.353 169.25 594.063 161.643 594.683C154.454 595.273 149.571 591.163 149.124 583.973C149.064 583.013 149.323 582.403 150.138 581.913C153.579 579.843 155.826 576.723 157.715 573.263C158.202 572.383 158.531 571.253 159.763 570.933C160.648 572.223 160.33 573.513 160.499 574.703C160.937 577.873 161.116 581.093 162.19 584.133C163.482 587.763 166.087 589.683 169.906 590.173C173.744 590.673 176.279 588.903 178.238 585.883C179.382 584.113 180.018 582.123 180.515 580.083C181.53 575.913 181.888 571.663 182.375 567.353L182.395 567.373ZM163.631 424.393C162.796 432.383 162.001 439.973 161.215 447.563C161.086 448.823 160.33 449.373 159.236 448.963C156.94 448.113 154.573 448.453 152.226 448.353C149.701 448.243 149.512 448.073 150.069 445.713C151.083 441.373 151.59 436.973 152.177 432.573C152.694 428.733 153.479 424.903 154.792 421.213C155.408 419.473 156.631 418.253 158.481 418.403C160.261 418.543 162.08 419.053 162.707 421.183C163.055 422.383 163.393 423.583 163.631 424.403V424.393ZM192.288 584.613C191.761 580.893 191.612 577.573 190.578 574.373C189.464 570.923 188.162 567.553 186.8 564.213C186.263 562.893 186.402 562.103 187.854 561.723C191.195 560.833 194.536 559.943 197.707 558.503C198.483 558.153 199.398 558.123 199.756 559.193C201.556 564.583 203.952 569.823 203.852 575.693C203.833 577.133 203.495 578.533 202.341 579.453C199.408 581.793 196.107 583.403 192.308 584.633L192.288 584.613ZM164.308 566.833C166.853 566.703 168.643 566.683 170.403 566.493C176.449 565.863 176.369 565.843 176.26 572.083C176.19 575.883 175.613 579.553 173.953 582.973C172.7 585.543 170.363 585.903 168.225 584.013C167.46 583.343 167.012 582.483 166.843 581.513C165.998 576.753 165.193 571.993 164.298 566.823L164.308 566.833ZM143.287 579.013C141.289 579.163 139.409 578.913 138.176 577.013C136.824 574.943 137.053 573.703 139.27 572.403C141.388 571.163 142.929 569.433 144.083 567.313C144.57 566.403 145.067 565.523 146.28 565.963C148.289 566.693 150.417 566.393 152.455 566.763C154.563 567.143 154.861 567.703 154.006 569.533C152.316 573.173 149.621 575.953 146.39 578.183C145.564 578.753 144.58 579.593 143.307 579.003L143.287 579.013ZM182.842 534.693C186.422 538.663 189.633 542.713 191.851 547.503C192.696 549.323 193.273 551.293 191.652 552.973C189.862 554.843 187.655 555.333 185.159 554.433C183.568 553.863 181.977 553.463 182.146 551.153C182.524 546.013 182.763 540.863 182.146 535.723C182.126 535.543 182.405 535.313 182.832 534.693H182.842ZM138.932 564.833C136.894 567.643 134.895 569.353 131.663 568.783C128.322 568.193 126.364 566.743 126.374 564.393C126.384 561.643 128.849 560.983 130.659 559.803C131.305 559.383 131.972 559.193 132.479 559.883C134.09 562.063 136.595 563.083 138.932 564.833Z" fill="#212022"/>
<path d="M228.641 273.643C229.258 268.523 229.874 263.403 230.491 258.273C232.718 239.623 233.056 220.983 229.924 202.383C229.248 198.393 228.641 194.393 227.995 190.403C225.28 173.823 216.401 161.453 202.62 152.263C192.895 145.773 181.987 142.653 170.731 140.763C148.995 137.113 128.83 141.503 110.414 153.773C106.397 156.453 103.265 159.723 101.177 164.243C95.5192 176.493 91.9793 189.323 89.6526 202.583C86.0531 223.153 84.3826 243.853 85.4863 264.713C86.1127 276.553 87.0872 288.363 90.2691 299.893C93.2819 310.843 98.5519 320.313 107.491 327.403C117.643 335.443 128.959 341.053 141.905 342.823C156.552 344.823 170.91 343.113 185.209 339.653C192.845 337.803 199.994 334.893 206.497 330.733C210.634 328.083 213.915 324.103 215.685 319.233C215.645 318.783 215.864 318.513 216.262 318.353C216.341 318.083 216.421 317.823 216.5 317.553C216.451 317.093 216.67 316.793 217.057 316.603C221.224 308.363 223.272 299.433 225.519 290.553C226.832 285.343 227.269 280.013 228.254 274.773C228.134 274.313 228.293 273.953 228.641 273.663V273.643ZM226.394 233.703C226.394 233.703 226.315 233.703 226.265 233.703C226.265 239.853 227.031 246.123 226.086 252.123C224.684 261.043 224.028 270.083 222.109 278.913C219.662 290.203 217.405 301.553 212.951 312.283C210.067 319.223 206.845 325.853 198.97 328.433C198.712 328.513 198.473 328.673 198.244 328.833C193.203 332.273 187.426 333.823 181.629 335.183C170.343 337.833 158.839 338.183 147.324 337.663C143.615 337.493 139.926 336.743 136.237 336.203C130.629 335.383 125.856 332.403 120.905 329.943C112.92 325.973 106.348 320.273 101.634 312.613C98.0945 306.863 95.9666 300.493 94.495 293.953C93.0333 287.443 92.397 280.813 91.7109 274.153C90.8657 265.813 90.985 257.453 90.6072 249.133C90.2989 242.433 91.3132 235.553 91.7805 228.763C92.3473 220.553 93.5206 212.423 94.7933 204.353C96.2848 194.893 98.5321 185.473 101.972 176.493C104.14 170.833 105.821 164.813 110.743 160.573C114.68 157.183 119.015 154.543 123.719 152.373C131.216 148.903 139.151 147.023 147.235 145.743C151.053 145.133 154.901 144.313 158.799 144.833C164.546 145.603 170.333 146.243 176.021 147.353C185.378 149.173 194.158 152.573 201.764 158.503C204.28 160.463 206.259 163.113 208.784 165.043C214.939 169.733 218.211 176.143 220.547 183.303C222.854 190.363 223.61 197.693 224.734 204.973C225.599 210.613 226.513 216.233 226.404 221.973C226.334 225.883 226.394 229.803 226.394 233.713V233.703Z" fill="#212022"/>
<path d="M252.257 75.2135C251.581 59.9635 250.616 45.1135 247.275 30.5335C247.116 29.8535 247.086 29.1335 246.818 28.4935C246.122 26.8035 245.416 25.0535 243.258 24.8235C241.319 24.6135 240.742 26.2535 239.877 27.4735C237.342 31.0435 235.95 35.1435 234.498 39.2135C229.377 53.5235 225.201 68.1035 222.457 83.0735C221.78 86.7635 221.164 90.4635 221.204 94.2635C221.273 100.403 221.631 100.704 227.239 97.7835C230.441 96.1135 233.583 94.3235 236.725 92.5435C240.723 90.2935 244.62 87.8635 248.707 85.8035C251.471 84.4035 252.575 82.4635 252.277 79.4435C252.128 77.9235 252.247 76.3735 252.247 75.1935L252.257 75.2135Z" fill="#212022"/>
</g>
</g>
<g id="id3">
<g id="Vector_4">
<path d="M237.72 5.7334C234.22 4.9934 231.247 6.1134 228.293 6.5134C215.297 8.2834 202.878 12.2734 191.195 18.1734C173.048 27.3334 157.695 39.9234 146.29 57.0134C142.969 61.9934 140.245 67.3134 137.659 72.7334C136.148 75.9134 136.426 78.4734 138.624 81.1434C142.452 85.7834 146.837 89.7834 151.56 93.4934C160.529 100.523 171.079 103.973 181.768 106.993C189.345 109.133 197.021 110.993 204.936 111.663C206.647 111.813 206.965 111.333 207.353 109.823C208.397 105.733 208.029 101.523 208.655 97.3834C211.509 78.7334 216.371 60.6234 222.476 42.8234C226.593 30.8234 230.948 18.9134 236.984 7.71339C237.242 7.24339 237.372 6.69339 237.72 5.74339V5.7334Z" fill="#B2B1B3"/>
<path d="M183.737 528.913C189.425 533.693 194.446 538.993 196.962 546.233C197.379 547.423 197.787 548.563 197.926 549.843C198.234 552.703 198.553 552.703 201.327 551.663C205.443 550.123 208.765 547.383 211.917 544.523C217.773 539.193 223.66 533.753 227.279 526.543C231.704 517.733 235.681 508.753 237.332 498.833C238.286 493.083 239.201 487.323 240.176 481.583C240.454 479.943 240.504 478.253 240.524 476.593C240.563 470.873 240.474 465.143 240.573 459.423C240.663 454.093 239.867 448.883 238.813 443.703C237.312 436.353 235.84 428.973 232.837 422.023C231.614 419.193 230.362 417.133 226.633 417.053C224.067 416.993 221.403 416.773 218.807 416.463C210.654 415.483 202.46 416.073 194.317 415.523C186.322 414.983 178.328 414.343 170.313 413.963C167.857 413.843 165.491 412.653 162.349 413.533C167.072 415.363 168.046 419.213 168.752 423.223C169.289 423.363 169.866 423.403 170.343 423.653C184.085 430.793 195.351 440.483 202.371 454.683C204.727 459.463 206.149 464.553 207.87 469.543C209.242 473.533 211.638 476.203 215.924 477.103C217.793 477.493 219.573 478.393 221.373 479.103C222.337 479.483 223.043 480.103 222.944 481.283C222.695 484.183 223.182 487.103 222.387 490.013C221.273 494.093 220.995 494.563 216.789 494.473C212.275 494.373 209.222 496.063 207.353 500.413C205.046 505.773 202.629 511.153 199.05 515.823C194.884 521.263 189.822 525.713 183.747 528.923L183.737 528.913Z" fill="#B2B1B3"/>
<path d="M334.32 29.2834C332.719 28.5834 330.899 28.8234 329.179 29.1134C311.072 32.1734 294.447 38.8834 279.999 50.3534C273.248 55.7234 267.48 62.2334 262.061 68.9834C260.689 70.6934 261.236 71.6134 263.533 71.8534C278.15 73.3634 292.468 76.5934 306.816 79.6534C314.383 81.2634 312.554 81.9534 314.771 75.4534C317.794 66.6034 321.841 58.1734 325.44 49.5634C328.026 43.3834 330.929 37.3534 334.071 31.4334C334.389 30.8334 334.797 30.2234 334.33 29.2834H334.32Z" fill="#B2B1B3"/>
<path d="M213.239 110.693C216.192 109.893 219.006 108.743 221.611 107.253C232.102 101.263 242.672 95.4034 252.704 88.6134C255.28 86.8734 256.662 85.0734 256.374 81.8334C255.638 73.5234 255.697 65.1634 254.832 56.8334C254.057 49.3634 253.55 41.8734 252.197 34.4734C250.596 25.7034 248.787 16.9934 245.555 8.6434C245.307 7.9934 245.207 7.2834 244.272 6.8634C240.832 10.7134 238.615 15.3634 236.676 20.0734C228.86 39.0234 222.437 58.4534 217.594 78.3934C215.397 87.4534 213.776 96.6234 213.01 105.923C212.891 107.423 212.642 108.973 213.229 110.683L213.239 110.693ZM252.257 75.2134C252.257 76.3934 252.128 77.9334 252.287 79.4634C252.585 82.4734 251.481 84.4234 248.717 85.8234C244.63 87.8834 240.733 90.3134 236.735 92.5634C233.583 94.3334 230.451 96.1334 227.249 97.8034C221.641 100.723 221.283 100.423 221.214 94.2834C221.174 90.4834 221.79 86.7734 222.467 83.0934C225.211 68.1234 229.387 53.5434 234.508 39.2334C235.97 35.1634 237.362 31.0634 239.887 27.4934C240.752 26.2734 241.329 24.6334 243.268 24.8434C245.436 25.0734 246.142 26.8334 246.828 28.5134C247.086 29.1434 247.126 29.8734 247.285 30.5534C250.626 45.1334 251.591 59.9834 252.267 75.2334L252.257 75.2134Z" fill="#B2B1B3"/>
<path d="M177.085 532.483C173.217 532.923 170.293 534.593 166.992 535.113C157.904 536.553 148.885 537.153 139.767 535.693C135.452 535.003 134.567 535.773 134.497 540.163C134.448 543.093 134.467 546.023 134.557 548.953C134.716 554.493 137.769 558.533 143.108 559.883C149.711 561.563 156.373 562.433 163.204 560.983C165.471 560.503 167.897 560.823 170.254 560.773C174.977 560.683 175.663 560.193 176.478 555.493C177.801 547.923 176.886 540.323 177.075 532.473L177.085 532.483Z" fill="#B2B1B3"/>
<path d="M341.131 30.5334C339.729 31.5434 339.003 32.9034 338.377 34.2734C331.774 48.7034 324.247 62.7234 319.494 77.9634C319.206 78.8934 318.967 79.8434 318.589 80.7434C318.112 81.9034 318.52 82.5634 319.564 83.0734C320.896 83.7234 321.672 83.1534 322.199 81.9734C322.477 81.3334 322.746 80.6834 322.925 80.0134C325.599 70.3134 329.288 61.0034 333.723 51.9934C334.21 50.9934 334.688 49.9834 335.245 49.0134C336.189 47.3534 337.015 44.9334 339.242 45.4234C341.141 45.8434 341.231 48.3434 341.33 50.0634C341.817 58.3834 342.961 66.6734 341.668 75.0734C341.081 78.8934 341.3 82.8534 340.624 86.7034C340.485 87.5134 340.525 88.3834 340.634 89.2034C340.743 89.9634 341.38 90.3434 342.086 90.5134C343 90.7334 343.319 90.0234 343.498 89.3734C343.716 88.5834 343.895 87.7334 343.895 86.9234C343.816 75.9034 345.029 64.9334 344.85 53.8934C344.721 45.9034 343.527 38.2034 341.141 30.5334H341.131Z" fill="#B2B1B3"/>
<path d="M107.958 419.963C112.065 419.373 115.804 417.333 120.01 417.003C121.641 416.873 123.291 416.563 124.942 416.553C133.404 416.543 141.855 416.553 150.317 416.573C151.391 414.543 153.758 414.343 155.786 412.623C152.256 412.173 149.064 411.993 145.952 411.623C136.516 410.503 127.03 409.793 117.554 408.973C115.764 408.813 114.084 408.133 112.244 408.103C110.176 408.073 109.092 408.973 108.784 410.873C108.296 413.873 107.362 416.843 107.948 419.943L107.958 419.963Z" fill="#B2B1B3"/>
<path d="M163.631 424.393C163.403 423.573 163.055 422.373 162.707 421.173C162.09 419.043 160.261 418.533 158.481 418.393C156.631 418.253 155.408 419.473 154.792 421.203C153.479 424.883 152.694 428.714 152.177 432.564C151.59 436.964 151.083 441.373 150.069 445.703C149.512 448.063 149.701 448.233 152.226 448.343C154.573 448.443 156.93 448.103 159.236 448.953C160.34 449.363 161.086 448.813 161.215 447.553C162.001 439.963 162.796 432.373 163.631 424.383V424.393Z" fill="#B2B1B3"/>
<path d="M126.045 527.103C122.128 527.313 119.363 524.733 116.241 523.003C116.897 529.283 118.807 535.143 122.197 540.453C123.868 543.063 125.18 546.043 128.521 547.823C128.889 543.183 128.482 538.743 130.053 534.563C130.46 533.483 129.565 532.793 129.118 531.953C128.213 530.253 126.324 529.183 126.045 527.093V527.103Z" fill="#B2B1B3"/>
<path d="M226.394 233.703C226.394 229.793 226.334 225.873 226.404 221.963C226.513 216.223 225.599 210.603 224.734 204.963C223.61 197.683 222.864 190.363 220.547 183.293C218.211 176.133 214.939 169.723 208.784 165.033C206.249 163.103 204.28 160.453 201.764 158.493C194.158 152.563 185.378 149.173 176.021 147.343C170.333 146.233 164.546 145.593 158.799 144.823C154.891 144.303 151.053 145.123 147.235 145.733C139.151 147.023 131.226 148.893 123.719 152.363C119.015 154.533 114.69 157.173 110.743 160.563C105.821 164.803 104.14 170.823 101.972 176.483C98.5321 185.463 96.2848 194.883 94.7933 204.343C93.5206 212.413 92.3473 220.543 91.7805 228.753C91.3132 235.543 90.2989 242.433 90.6072 249.123C90.985 257.443 90.8657 265.803 91.7109 274.143C92.387 280.803 93.0234 287.433 94.495 293.943C95.9666 300.483 98.0945 306.853 101.634 312.603C106.348 320.263 112.92 325.963 120.905 329.933C125.847 332.393 130.619 335.373 136.237 336.193C139.926 336.733 143.615 337.483 147.324 337.653C158.839 338.173 170.343 337.823 181.629 335.173C187.426 333.813 193.203 332.263 198.244 328.823C198.473 328.663 198.712 328.513 198.97 328.423C206.845 325.853 210.067 319.213 212.951 312.273C217.415 301.543 219.663 290.193 222.109 278.903C224.028 270.073 224.674 261.033 226.086 252.113C227.031 246.113 226.265 239.843 226.265 233.693C226.305 233.693 226.344 233.693 226.394 233.693V233.703Z" fill="#B2B1B3"/>
</g>
</g>
</g>
</g>
</svg>
