<svg width="408" height="679" viewBox="0 0 408 679" fill="none" xmlns="http://www.w3.org/2000/svg">
<g id="walkleft1">
<g id="Group">
<path id="id5" d="M5.0777 257.459C6.77157 257.697 8.03149 257.794 7.8355 255.233C7.07955 245.338 8.85743 235.484 8.60545 225.589C8.57745 224.441 8.63344 223.279 8.49345 222.145C8.03149 218.24 10.3833 214.741 14.359 214.279C19.8886 213.622 25.3342 212.488 30.9478 212.334C36.0574 212.194 41.1251 210.948 46.2347 210.486C51.7223 209.983 57.1679 208.107 62.7815 209.815C63.8454 210.137 65.0633 209.913 66.2113 209.913C71.1249 209.941 73.7707 211.872 75.4506 216.533C76.3325 218.982 77.0605 221.446 76.8085 224.091C76.6265 225.995 77.2985 227.744 77.7184 229.564C78.5444 233.133 79.5663 236.702 78.6704 240.467C78.3484 241.839 78.2644 243.378 79.3003 244.596C80.2102 245.66 80.3782 246.961 80.4902 248.221C80.9942 254.015 83.57 259.544 82.856 265.493C82.1141 271.735 84.13 277.669 84.8299 283.744C85.5859 290.406 86.6638 297.013 87.2797 303.703C87.8257 309.665 87.9797 315.67 88.6516 321.646C89.1276 325.873 90.0375 330.142 89.7576 334.453C89.6316 336.357 90.2475 338.12 90.5835 339.954C91.6194 345.58 91.5494 351.347 92.4314 356.973C93.6073 364.406 92.9773 371.866 93.2433 379.298C93.3553 382.293 94.2512 385.19 94.1392 388.256C94.0552 390.313 93.6913 392.3 93.0753 394.148C91.9694 397.437 88.8896 398.165 85.8938 398.795C80.6582 399.901 75.3386 399.747 70.047 399.621C67.7512 399.565 65.9173 400.614 63.8734 401.216C57.8399 403.008 51.6103 402.14 45.4648 402.168C43.8689 402.168 42.413 401.258 41.3911 399.985C40.1452 398.431 38.7453 396.891 37.9053 395.114C35.1755 389.305 32.6837 383.371 31.2278 377.1C30.6819 374.763 30.7938 372.37 29.7019 370.046C27.994 366.393 25.2222 364.769 21.4565 364.336C20.4066 361.284 19.9166 358.121 19.5667 354.93C20.3506 354.552 21.3445 354.09 21.3305 353.208C21.2885 349.303 22.3804 345.636 23.2484 341.899C23.5004 340.822 23.1784 339.646 22.9264 338.512C22.2125 335.321 21.2885 332.13 21.5545 328.799C21.7365 326.573 21.4005 324.586 19.6226 322.934C18.6987 322.08 18.1388 320.765 18.1668 319.435C18.2927 313.472 16.1089 307.65 17.2148 301.617C17.6488 299.308 16.7529 297.055 16.0669 294.913C14.0931 288.825 12.1472 282.75 11.2233 276.396C11.0133 274.926 10.7193 273.457 9.54338 272.351C8.32547 273.331 8.49346 274.464 8.71744 275.318C10.0753 280.413 9.3194 285.577 9.50138 290.714C9.54338 291.96 9.86536 293.331 8.75944 294.367C7.17755 282.106 5.52567 269.859 5.1057 257.487L5.0777 257.459ZM33.7476 287.313C33.2856 294.983 34.8395 302.541 37.5413 309.847C39.1512 314.228 41.643 318.049 45.7028 320.611C49.2305 322.836 53.2482 322.402 56.3 319.561C58.3438 317.657 59.9537 315.432 60.6397 312.759C62.2216 306.544 63.7334 300.246 63.4535 293.821C63.1315 286.249 61.9976 278.719 59.2818 271.567C57.7979 267.662 56.048 263.897 52.6322 261.196C48.8945 258.242 44.4009 258.452 40.9571 261.755C39.2772 263.365 38.1573 265.353 37.1494 267.424C34.1536 273.666 33.3696 280.287 33.7336 287.299L33.7476 287.313ZM25.1942 355.7C25.3202 361.69 26.6221 363.09 31.0318 362.222C38.8992 360.668 46.5007 351.151 46.3187 343.103C46.2907 341.619 45.7587 340.584 44.2329 340.332C42.707 340.08 41.3351 340.332 40.7751 342.039C40.2851 343.523 39.9072 345.062 39.3612 346.532C36.5474 354.104 33.4676 356.148 25.2082 355.714L25.1942 355.7Z" fill="#3C3C3C"/>
<g id="id2">
<g id="Vector">
<path d="M137.102 84.8542C134.848 84.4483 133.042 85.638 131.013 86.2819C125.441 88.0594 119.743 89.585 114.018 90.7747C106.136 92.4123 98.5909 95.0717 91.0035 97.633C85.5859 99.4665 80.2943 101.622 75.2966 104.505C69.739 107.71 65.0493 111.755 61.3536 117.004C58.0499 121.693 54.5081 126.186 53.1642 131.966C51.6103 138.685 52.6883 144.955 56.776 150.316C59.0718 153.325 62.6415 155.284 66.0853 157.09C70.649 159.497 75.4226 161.415 79.9583 163.906C87.4477 168.007 92.8933 173.774 97.779 180.702C103.533 188.904 106.682 197.974 109.076 207.393C110.588 213.314 111.148 219.472 112.17 225.519C113.178 231.565 114.326 237.598 115.194 243.658C115.726 247.325 116.188 251.006 116.566 254.701C117.322 262.077 117.182 269.538 118.763 276.844C119.449 280.035 119.547 283.352 119.925 286.613C121.059 296.677 121.241 306.824 123.159 316.804C123.747 319.855 123.845 323.046 124.167 326.167C124.741 331.85 125.441 337.49 126.491 343.117C127.457 348.296 127.667 353.614 128.633 358.793C129.739 364.727 129.543 370.76 129.977 376.722C130.341 381.705 129.557 386.954 128.129 391.937C127.219 395.1 126.421 398.291 125.511 401.44C123.439 408.676 118.399 413.687 112.744 418.208C111.736 419.006 110.448 419.286 109.132 419.51C107.718 419.747 106.29 420.209 106.122 422.057C95.7631 422.463 85.5019 421.581 75.2826 419.901C69.641 418.978 63.8734 418.726 58.5818 416.262C59.1418 415.199 60.1497 415.241 61.1576 415.101C63.6774 414.751 66.5613 414.933 68.6051 413.729C71.5169 412.007 74.3867 411.532 77.5505 411.616C78.0544 411.616 78.7264 411.588 78.8104 410.37C77.5224 409.67 75.9686 409.992 74.4987 409.964C71.9229 409.936 69.431 409.642 67.2472 408.13C68.6611 407.137 70.299 407.459 71.8389 407.431C78.0544 407.333 84.06 406.003 90.0236 404.463C92.0954 403.931 94.0972 403.078 95.8471 401.776C98.7309 399.649 100.621 397.003 101.069 393.28C102.525 381.229 101.657 369.29 99.9068 357.323C98.199 345.72 96.925 334.047 95.8331 322.36C94.9652 313.094 93.6913 303.885 92.7953 294.619C92.3614 290.21 91.3954 285.857 91.4794 281.393C92.7953 280.273 92.3054 278.747 92.3194 277.376C92.3614 270.951 91.8714 264.485 92.5014 258.13C93.0193 252.868 93.1313 247.633 93.1593 242.384C93.1593 241.629 93.3833 240.537 91.8014 240.663C91.1855 243.574 91.6194 246.569 91.4934 249.523C91.3674 252.518 91.3814 252.518 88.1337 252.98C88.0637 252.42 87.9937 251.846 87.9237 251.286C89.0296 250.488 88.9456 249.928 87.6017 249.593C86.2718 241.111 85.1099 232.587 83.57 224.133C82.7021 219.402 81.2042 214.811 78.7964 210.542C77.3685 208.023 75.3386 206.511 72.6088 205.56C66.0293 203.278 59.2958 203.502 52.5903 204.202C45.6048 204.93 38.6753 206.134 31.7178 207.057C28.162 207.519 24.5783 207.505 21.0085 207.967C17.1588 208.457 13.2811 208.681 9.61337 210.025C7.70951 210.724 7.00956 210.123 6.81358 208.205C5.51167 194.88 5.58166 181.57 6.54759 168.231C7.26154 158.448 8.60543 148.776 12.0912 139.622C16.1369 128.985 21.3445 118.768 30.4438 111.573C34.3636 108.466 38.9132 105.863 43.4629 103.484C53.4162 98.2768 63.8174 94.3718 74.6807 91.4746C82.0161 89.5291 89.4076 87.7935 96.7291 85.806C96.5051 87.7515 97.597 88.1294 99.2909 88.2274C103.645 88.4933 107.788 87.2476 112.072 86.7718C110.098 86.4638 108.124 86.4218 106.15 86.4638C104.624 86.4918 103.323 86.1979 102.609 84.6583C105.758 83.2027 109.216 82.9367 112.548 82.5728C118.525 81.901 124.251 80.1374 130.145 79.2277C130.285 79.1997 130.411 79.1297 130.551 79.1017C137.228 77.5761 137.508 77.828 137.13 84.7703L137.102 84.8542ZM105.912 357.071C104.834 358.555 105.254 359.871 105.24 361.102C105.184 366.981 105.114 372.859 105.268 378.724C105.338 381.061 104.051 383.329 104.582 385.47C105.394 388.759 105.058 392.007 105.254 395.282C105.296 396.079 104.778 397.087 105.912 397.689V357.071Z" fill="#D68E74"/>
<path d="M295.697 430.833C296.201 432.904 295.151 433.45 293.373 433.086C290.531 432.512 287.745 432.358 284.861 433.058C282.3 433.688 279.85 434.444 277.904 436.235C276.294 437.719 274.81 437.565 272.808 437.033C264.073 434.682 255.142 433.324 246.084 433.324C240.317 433.324 235.865 438.279 236.425 443.681C236.817 447.447 239.015 449.868 242.388 451.464C246.756 453.535 251.516 453.815 256.135 454.725C260.629 455.606 265.151 456.432 269.659 457.23C271.002 457.468 272.01 457.958 272.752 459.232C275.51 463.99 279.234 467.965 283.21 471.716C284.301 472.752 285.519 473.634 284.931 475.691C281.74 486.903 282.986 498.058 285.183 509.297C286.737 517.275 289.103 525.211 288.235 533.525C288.039 535.372 288.235 537.318 286.499 538.619C285.953 538.717 285.323 538.675 284.875 538.941C275.23 544.778 264.549 547.395 253.546 549.019C252.65 548.935 251.964 548.431 251.348 547.815C246.28 542.79 240.275 542.608 233.933 544.61C231.637 545.338 229.481 546.527 226.976 546.415C221.558 545.394 216.518 543.574 212.081 540.131C207.755 536.772 203.289 533.525 200.574 528.668C197.844 523.797 194.736 519.108 192.902 513.762C191.95 510.99 189.892 509.339 187.036 508.569C185.749 508.219 184.489 508.219 183.201 508.205C178.609 508.135 177.839 507.337 177.671 502.621C177.601 500.759 177.713 498.912 177.293 497.05C176.495 493.551 176.593 493.565 179.841 491.913C180.625 491.521 181.381 491.241 182.263 491.115C187.988 490.304 191.348 487.098 192.944 481.444C196.444 468.987 202.113 457.902 212.137 449.07C219.668 442.422 227.704 436.879 236.929 433.114C245.188 429.741 253.7 427.404 262.827 428.061C267.265 428.383 271.73 428.215 276.196 428.131C280.676 428.033 285.029 428.677 289.369 429.741C291.441 430.245 293.513 430.959 295.711 430.819L295.697 430.833Z" fill="#D68E74"/>
<path d="M67.2191 408.172C69.4169 409.684 71.8947 409.978 74.4706 410.006C75.9265 410.02 77.4803 409.712 78.7822 410.412C78.6982 411.63 78.0263 411.672 77.5223 411.658C74.3446 411.588 71.4748 412.049 68.577 413.771C66.5331 414.975 63.6493 414.807 61.1295 415.143C60.1216 415.283 59.1137 415.241 58.5537 416.304C55.04 415.927 52.7861 413.323 50.0983 411.49C49.9583 410.132 51.5962 409.922 51.8342 408.802C56.9438 408.186 62.0814 408.298 67.2191 408.172Z" fill="#D68E74"/>
<path d="M88.0917 253.036C91.3534 252.574 91.3254 252.574 91.4514 249.579C91.5774 246.625 91.1434 243.63 91.7594 240.719C93.3413 240.593 93.1313 241.685 93.1173 242.44C93.0893 247.703 92.9773 252.924 92.4593 258.186C91.8294 264.541 92.3333 271.007 92.2773 277.432C92.2773 278.803 92.7393 280.329 91.4374 281.449C90.1775 275.01 89.6455 268.46 89.0576 261.937C88.7916 258.956 88.1616 256.031 88.0776 253.036H88.0917Z" fill="#D68E74"/>
<path d="M33.7477 287.313C33.3697 280.301 34.1676 273.694 37.1634 267.438C38.1574 265.353 39.2773 263.379 40.9711 261.769C44.4149 258.466 48.9086 258.256 52.6463 261.21C56.062 263.911 57.8119 267.676 59.2958 271.581C62.0116 278.747 63.1455 286.263 63.4675 293.835C63.7475 300.26 62.2496 306.572 60.6537 312.773C59.9678 315.446 58.3579 317.685 56.314 319.575C53.2623 322.416 49.2445 322.836 45.7168 320.625C41.6571 318.063 39.1653 314.242 37.5554 309.861C34.8676 302.541 33.3137 294.997 33.7617 287.327L33.7477 287.313Z" fill="#D68E74"/>
<path d="M25.1943 355.7C33.4537 356.134 36.5335 354.09 39.3473 346.518C39.8932 345.048 40.2712 343.523 40.7612 342.025C41.3351 340.318 42.693 340.066 44.2189 340.318C45.7588 340.57 46.2768 341.605 46.3048 343.089C46.4727 351.151 38.8853 360.654 31.0179 362.208C26.6222 363.076 25.3203 361.69 25.1803 355.686L25.1943 355.7Z" fill="#D68E74"/>
</g>
</g>
<g id="id1">
<g id="Vector_2">
<path d="M380.978 392.678C380.461 392.972 379.957 393.266 379.439 393.574C378.459 393.588 377.465 393.644 376.485 393.616C374.735 393.56 374.357 394.624 374.385 396.065L374.217 396.149C373.965 396.205 373.769 396.331 373.615 396.541C365.37 400.572 356.466 402.532 347.647 404.771C334.04 408.214 320.125 409.922 306.238 411.727C304.992 411.616 303.732 411.448 302.668 412.371C283.896 414.807 265.067 416.598 246.238 418.474C238.539 419.244 230.797 419.761 223.07 420.279C193.28 422.267 163.448 422.841 133.616 422.967C124.433 423.009 115.25 422.827 106.094 422.127C106.248 420.293 107.676 419.817 109.104 419.58C110.42 419.37 111.708 419.09 112.716 418.278C118.357 413.757 123.411 408.76 125.483 401.51C126.393 398.347 127.191 395.156 128.101 392.007C129.529 387.024 130.313 381.775 129.949 376.792C129.515 370.83 129.711 364.811 128.605 358.863C127.639 353.684 127.443 348.366 126.463 343.187C125.413 337.56 124.713 331.92 124.139 326.237C123.817 323.116 123.719 319.925 123.131 316.874C121.213 306.88 121.045 296.733 119.897 286.683C119.533 283.422 119.435 280.105 118.735 276.914C117.154 269.607 117.294 262.147 116.538 254.771C116.16 251.076 115.698 247.395 115.166 243.728C114.298 237.668 113.15 231.635 112.142 225.589C111.134 219.542 110.56 213.384 109.048 207.463C106.654 198.044 103.519 188.96 97.751 180.772C92.8793 173.83 87.4197 168.063 79.9303 163.976C75.3946 161.485 70.6069 159.567 66.0573 157.16C62.6135 155.354 59.0438 153.395 56.748 150.386C52.6603 145.025 51.5683 138.741 53.1362 132.036C54.4801 126.242 58.0219 121.763 61.3256 117.074C65.0214 111.825 69.711 107.766 75.2686 104.575C80.2662 101.692 85.5579 99.5365 90.9755 97.703C98.5629 95.1416 106.108 92.4823 113.99 90.8447C119.729 89.655 125.413 88.1294 130.985 86.3518C133.014 85.708 134.834 84.5183 137.074 84.9242C136.556 89.795 138.824 93.1401 142.884 95.5195C155.511 102.91 167.662 111.098 181.003 117.298C187.876 120.489 194.624 120.601 201.721 119.453C213.803 117.494 225.478 114.037 236.901 109.754C249.136 105.177 259.033 97.1571 267.811 87.6535C268.777 86.6178 269.463 85.3161 270.232 84.0984C272.22 80.9912 273.004 77.8 270.764 74.4408C270.204 73.6011 269.869 72.6493 270.135 71.6276C271.212 70.7738 272.388 71.1797 273.466 71.2077C285.379 71.5016 297.223 72.4533 309.052 74.1609C318.277 75.4906 327.6 76.1484 336.77 77.94C344.665 79.4796 352.449 81.4111 360.064 84.0284C371.263 87.8774 378.333 95.3235 382.392 106.633C386.564 118.264 388.804 130.259 391.352 142.212C392.64 148.216 392.752 154.473 393.354 160.617C395.257 180.338 397.175 200.059 398.995 219.78C399.499 225.211 399.737 230.669 400.003 236.114C400.941 255.765 402.579 275.388 401.851 295.095C401.193 312.899 400.199 330.674 397.525 348.296C396.279 356.511 394.502 364.671 392.5 372.747C391.8 375.575 390.876 378.43 389.868 381.215C388.286 385.54 385.108 388.647 382.14 391.923C381.734 392.202 381.342 392.482 380.936 392.748L380.978 392.678ZM319.383 260.44C319.439 243.602 318.053 226.918 315.099 210.304C312.383 194.964 308.646 180.03 301.464 166.09C300.582 164.382 299.588 162.926 298.146 161.695C284.749 150.218 268.763 145.347 251.614 143.429C240.289 142.17 229.327 144.409 218.548 147.376C210.415 149.616 202.547 152.667 195.66 157.832C185.805 165.222 177.685 173.9 174.087 186.021C169.986 199.863 168.334 214.14 167.452 228.472C166.654 241.391 167.368 254.323 169.216 267.172C170.742 277.823 171.722 288.545 174.269 299.056C175.963 306.054 178.791 312.689 180.555 319.617C181.899 324.907 184.713 329.218 187.764 333.431C192.972 340.611 200.644 344.321 208.791 346.966C215.468 349.135 222.3 350.787 229.271 351.851C240.569 353.572 251.894 353.992 263.163 352.033C273.312 350.255 282.538 346.07 291.133 340.29C297.335 336.133 302.36 331.024 306.56 324.935C311.53 317.727 314.105 309.539 315.827 301.155C318.571 287.761 319.481 274.128 319.383 260.44Z" fill="#F1A680"/>
<path d="M320.069 629.19C308.394 625.565 296.998 621.199 286.289 615.264C281.894 612.829 277.834 609.777 275.258 605.299C273.746 602.667 274.236 601.827 277.288 601.296C279.444 600.918 281.572 601.24 283.699 601.701C286.359 602.289 289.047 602.793 291.721 603.283C296.9 604.235 301.156 602.443 304.25 598.384C307.288 594.409 310.452 590.378 311.249 585.2C311.529 583.352 312.579 583.254 314.007 583.52C331.156 586.739 347.857 591.218 363.144 600.022C365.356 601.296 366.363 602.905 366.867 605.369C367.707 609.442 367.329 613.417 366.433 617.308C364.292 626.685 361.422 635.867 357.726 644.755C357.348 645.664 356.788 646.504 356.102 647.778C354.576 645.622 353.33 643.621 351.847 641.815C346.905 635.797 341.137 631.01 333.13 629.736C328.846 628.141 324.437 629.218 320.083 629.19H320.069Z" fill="#F1A680"/>
<path d="M169.65 672.846C164.652 666.071 159.136 660.081 153.033 654.608C150.289 652.159 150.303 652.005 152.207 648.87C155.441 643.509 156.449 637.448 157.709 631.5C158.534 627.581 156.897 623.886 155.791 620.219C155.301 618.553 155.203 617.308 156.155 615.796C163.308 604.431 171.652 594.045 181.689 585.074C183.635 583.338 185.874 582.008 188.296 581.085C190.438 580.273 191.404 580.847 192.314 582.988C192.79 584.108 192.748 585.228 192.594 586.375C192.258 588.937 192.104 591.554 191.474 594.045C188.954 604.081 195.002 610.883 201.931 615.138C202.169 615.292 202.463 615.362 202.715 615.488C207.783 618.035 207.643 617.979 205.473 623.018C200.027 635.713 191.306 646.28 183.481 657.435C181.171 660.725 178.609 663.846 175.949 666.855C174.059 668.982 171.82 670.802 169.65 672.832V672.846Z" fill="#F1A680"/>
<path d="M288.641 437.411C293.835 437.845 298.385 439.203 302.99 440.224C314.917 442.884 326.382 446.817 336.896 453.171C340.199 455.173 343.321 457.468 346.163 460.127C348.431 462.255 348.935 464.48 347.745 467.447C343.475 478.029 336.252 486.175 327.25 492.921C325.305 494.377 323.331 495.818 321.259 497.092C317.745 499.233 316.345 499.093 313.377 496.07C309.962 492.599 306.686 488.988 303.452 485.335C300.68 482.214 297.699 479.33 294.689 476.461C288.557 470.611 282.86 464.382 277.932 457.454C274.67 452.863 275.174 448.286 277.624 443.709C280.046 439.189 284.26 437.691 288.655 437.411H288.641Z" fill="#F1A680"/>
<path d="M131.125 460.757C139.272 460.757 145.012 460.799 150.765 460.743C153.537 460.715 154.293 460.617 153.803 464.004C152.445 473.396 152.473 482.858 153.397 492.319C153.747 495.93 153.663 495.902 150.471 497.568C143.584 501.165 136.416 504.062 128.969 506.26C127.457 506.707 125.917 507.155 124.377 507.323C119.897 507.799 119.169 506.875 120.079 502.523C121.339 496.504 120.513 490.514 119.463 484.579C118.175 477.385 116.608 470.247 112.464 463.962C111.176 462.017 111.946 461.023 114.606 460.799C120.919 460.295 127.233 460.575 131.139 460.729L131.125 460.757Z" fill="#F1A680"/>
<path d="M322.169 661.942C319.103 662.236 315.141 660.711 311.04 660.011C309.948 659.829 309.164 659.227 308.87 658.163C306.448 649.457 306.7 639.45 317.185 635.713C326.634 632.34 336.91 633.305 345.057 641.661C347.577 644.237 349.747 647.092 351.245 650.409C353.121 654.58 352.435 656.176 347.899 657.561C345.155 658.401 342.383 659.171 339.569 659.689C334.208 660.697 328.846 661.718 322.183 661.914L322.169 661.942Z" fill="#F1A680"/>
<path d="M146.663 647.904C137.004 638.442 126.701 630.45 115.6 623.508C112.618 621.646 112.436 620.583 115.068 618.007C121.647 611.583 129.613 610.449 138.222 612.381C140.294 612.843 142.352 613.71 144.186 614.802C149.561 617.979 153.047 622.332 152.753 629.078C152.543 633.851 151.899 638.47 150.051 642.879C149.281 644.699 148.455 646.532 146.663 647.904Z" fill="#F1A680"/>
<path d="M86.2158 456.404C89.2676 456.81 92.0394 457.958 94.6432 459.525C95.8751 460.267 97.023 461.135 98.1709 461.989C101.909 464.746 101.923 465.012 98.4089 468.301C97.681 468.987 96.911 469.645 96.0851 470.219C91.9134 473.116 90.9055 472.85 88.9036 468.315C88.1477 466.608 87.6297 465.026 85.0399 465.194C81.8341 465.404 80.4062 464.06 80.2102 461.667C80.0003 459.204 81.3022 457.524 84.088 456.754C84.7739 456.558 85.5019 456.516 86.2158 456.404Z" fill="#F1A680"/>
<path d="M69.9911 499.849C67.4993 499.807 64.6855 499.275 62.1377 497.918C59.1979 496.35 58.8479 494.237 60.9197 491.633C62.0117 490.262 63.4816 489.31 65.0914 488.736C66.9533 488.064 68.8992 487.56 70.845 487.168C74.4568 486.441 74.4568 486.511 75.2827 490.122C75.7307 492.053 76.1926 494.013 76.9066 495.874C77.6765 497.904 76.8646 498.716 75.0307 499.261C73.4908 499.709 71.9509 499.779 69.9911 499.863V499.849Z" fill="#F1A680"/>
<path d="M358.286 515.203C360.82 519.948 363.732 523.825 363.368 528.92C363.2 531.229 363.354 533.833 360.708 534.756C358.104 535.652 356.452 533.749 354.996 531.887C352.756 529.004 351.609 525.589 350.335 522.244C349.649 520.452 350.489 519.57 352.112 519.094C354.338 518.437 356.368 517.415 358.286 515.217V515.203Z" fill="#F1A680"/>
<path d="M375.617 518.507C375.295 520.13 375.967 522.3 373.867 522.957C371.963 523.559 370.171 522.594 368.911 521.082C366.811 518.535 364.95 515.833 363.634 512.768C363.074 511.48 363.298 510.641 364.11 509.675C365.118 508.471 366.07 507.211 366.993 505.938C367.735 504.916 368.561 504.65 369.429 505.672C372.593 509.409 375.603 513.244 375.603 518.521L375.617 518.507Z" fill="#F1A680"/>
<path d="M74.1066 481.304C70.5089 480.828 67.5411 479.834 64.5593 478.854C63.4674 478.505 62.4315 478.001 61.5915 477.189C59.3937 475.047 59.7437 471.926 62.6275 470.946C66.6312 469.589 70.8449 470.177 74.9606 470.555C76.3045 470.681 76.1225 472.08 75.7445 472.99C74.6946 475.523 74.2886 478.183 74.1206 481.29L74.1066 481.304Z" fill="#F1A680"/>
<path d="M373.321 489.632C376.653 492.767 379.803 495.93 380.726 500.661C380.992 502.005 380.936 503.208 380.404 504.412C379.845 505.644 378.865 506.134 377.619 505.42C375.757 504.356 373.979 503.18 372.467 501.613C371.123 500.241 370.661 498.758 371.459 496.952C372.467 494.699 372.761 492.305 373.321 489.632Z" fill="#F1A680"/>
<path d="M85.1659 509.857C81.5261 511.452 78.1804 511.886 74.7366 511.732C72.6508 511.648 70.8729 510.781 69.445 509.283C67.9471 507.701 68.0731 505.84 70.0329 505.196C72.8467 504.272 75.8285 503.838 78.7403 503.264C79.3003 503.152 79.7343 503.558 80.1402 504.048C81.6661 505.896 83.276 507.687 85.1659 509.871V509.857Z" fill="#F1A680"/>
<path d="M325.249 515.119C325.319 514.112 325.123 513.258 325.766 512.838C326.662 512.25 327.404 512.922 328.034 513.482C329.742 515.035 331.632 516.337 333.69 517.331C335.244 518.087 335.762 519.15 335.342 520.774C335.16 521.46 335.02 522.174 334.908 522.873C334.236 526.806 332.864 527.38 329.644 525.085C326.074 522.552 325.836 518.605 325.263 515.105L325.249 515.119Z" fill="#F1A680"/>
</g>
</g>
<g id="id4">
<g id="Vector_3">
<path d="M371.865 403.092C366.63 405.961 360.792 406.955 355.122 408.396C338.282 412.693 321.217 415.912 303.914 417.676C302.514 417.816 301.044 417.76 299.504 418.726C300.666 423.471 302.108 428.271 301.982 433.31C301.954 434.584 302.57 435.074 303.746 435.256C305.3 435.507 306.854 435.843 308.394 436.179C319.439 438.629 329.448 443.639 339.374 448.832C342.957 450.708 346.135 453.185 348.991 456.054C350.419 457.482 352.057 458.98 352.127 461.065C352.225 463.794 353.932 464.942 355.836 466.342C360.932 470.121 365.566 474.432 369.471 479.456C371.347 481.864 373.601 483.767 376.079 485.531C380.88 488.96 384.352 493.453 385.808 499.289C386.872 503.586 385.976 507.281 382.056 509.801C380.391 510.878 379.761 512.068 380.419 514.084C381.09 516.127 381.412 518.283 381.174 520.466C380.488 526.708 375.981 529.76 369.989 528.066C369.583 527.954 369.149 527.968 368.687 527.912C368.225 529.914 368.323 531.957 367.581 533.861C365.034 540.355 358.608 542.077 353.358 537.43C348.921 533.497 346.611 528.206 344.721 522.733C344.147 521.082 343.559 519.766 341.109 520.326C340.717 521.95 340.325 523.853 339.78 525.715C338.17 531.159 333.704 533.021 328.664 530.362C325.613 528.752 323.639 526.205 322.281 523.055C320.069 517.877 319.845 512.446 320.195 506.973C320.335 504.776 319.915 503.908 317.535 503.936C313.769 503.978 311.236 501.571 308.842 498.967C303.41 493.033 297.937 487.14 292.449 481.248C291.889 480.646 291.441 479.834 290.223 479.694C289.285 480.562 289.355 481.878 289.243 483.095C288.557 490.724 288.935 498.31 290.265 505.854C290.461 506.973 290.545 508.121 290.671 509.255C290.433 509.605 289.943 510.011 289.999 510.277C291.077 514.476 290.139 518.856 290.909 522.999C291.833 527.996 291.385 532.951 291.581 537.906C291.665 540.215 290.979 542.412 290.139 544.526C288.725 548.095 287.801 551.762 287.213 555.541L287.143 555.723C286.443 556.143 285.855 556.661 285.645 557.501C285.463 559.81 287.423 560.748 288.795 561.714C295.249 566.22 301.016 571.525 307.022 576.55C307.946 577.334 308.786 577.935 310.046 577.893C314.119 577.753 318.025 578.845 321.931 579.741C336.378 583.044 350.615 586.921 363.536 594.521C364.894 595.319 366.224 596.187 367.483 597.111C370.297 599.182 371.795 601.939 372.187 605.466C372.845 611.569 371.949 617.531 370.507 623.396C368.351 632.186 365.692 640.822 361.058 648.716C360.05 650.437 359.126 652.271 358.468 654.146C356.97 658.457 353.918 661.018 349.747 662.404C343.867 664.35 337.778 665.315 331.674 666.281C325.934 667.191 320.195 667.639 314.553 666.239C303.998 663.636 303.382 661.648 302.5 652.803C301.744 645.188 303.718 638.554 310.004 633.655C310.55 633.222 311.236 632.872 311.474 631.85C310.242 630.73 308.478 630.618 306.952 630.086C297.727 626.839 288.725 623.13 280.536 617.685C277.666 615.768 274.81 613.766 272.612 611.093C270.596 608.644 268.763 605.984 269.127 602.569C269.295 600.918 268.483 599.896 267.489 598.818C262.533 593.416 257.871 587.761 253.7 581.715C252.762 580.357 251.726 579.783 250.144 579.979C249.15 580.105 248.142 580.147 247.134 580.189C244.53 580.301 242.808 581.365 241.325 583.758C235.557 593.08 228.012 601.03 220.858 609.274C220.676 609.484 220.48 609.707 220.284 609.917C215.524 614.41 212.333 619.757 209.701 625.817C204.885 636.903 197.956 646.84 190.97 656.693C186.813 662.558 182.431 668.227 177.601 673.573C172.772 678.92 167.466 680.348 160.634 677.59C152.263 674.217 145.054 669.066 137.914 663.832C127.877 656.47 119.533 647.372 112.156 637.364C110.098 634.565 108.642 631.416 107.424 628.211C105.898 624.18 106.388 620.359 109.174 616.874C114.018 610.799 120.457 607.72 127.989 606.642C136.024 605.495 143.43 606.838 149.743 612.339C150.163 612.703 150.709 612.913 151.283 613.249C153.803 609.651 156.169 606.096 158.717 602.667C164.274 595.137 170.168 587.901 177.601 582.078C181.367 579.125 185.273 576.424 190.158 575.822C192.888 575.486 193.56 572.995 195.338 571.735C195.072 570.041 193.574 569.804 192.58 569.16C181.759 562.203 172.8 553.484 166.514 542.161C162.454 534.84 159.263 527.226 157.695 518.94C156.659 513.454 155.385 507.995 154.167 502.327C152.571 502.215 151.297 503.166 149.897 503.726C144.046 506.078 138.208 508.471 132.314 510.724C130.733 511.326 129.067 511.928 127.303 511.858C124.699 511.858 122.081 511.844 119.463 511.83C116.986 510.892 114.634 511.032 111.988 511.634C105.828 513.048 99.5429 513.832 93.1733 513.328C91.3954 513.188 89.8276 513.734 88.1757 514.28C82.3801 516.183 76.4725 517.219 70.439 515.273C65.3853 513.65 63.1875 510.78 63.1595 505.518C63.1595 504.314 62.9495 503.642 61.8436 503.208C60.9196 502.844 59.9817 502.425 59.1418 501.879C53.5982 498.324 53.1642 491.717 58.0918 487.308C59.4917 486.063 61.1856 485.321 63.0895 484.299C62.1936 483.053 60.8637 482.886 59.8557 482.256C56.104 479.89 54.2981 475.957 55.1661 471.982C55.922 468.511 58.9738 465.838 63.2575 465.264C67.4012 464.704 71.5449 465.082 75.4786 466.076C76.5145 465.446 75.9826 464.704 75.8566 464.102C74.2187 456.586 78.8244 451.114 86.5658 451.449C91.3115 451.659 95.4831 453.521 99.2909 456.222C101.153 457.552 102.861 459.106 104.904 460.771C108.88 455.117 115.11 455.242 121.003 455.159C129.333 455.047 137.648 456.012 145.991 455.662C148.287 455.564 150.583 455.48 152.879 455.41C154.377 455.354 155.133 454.725 155.441 453.143C157.051 444.829 159.137 436.655 162.804 428.957C161.796 427.935 160.788 428.285 159.864 428.313C144.06 428.775 128.255 428.523 112.45 428.145C102.105 427.893 91.7594 427.572 81.4702 426.452C72.3428 425.458 63.2295 424.184 54.5641 420.881C50.6024 419.37 47.2986 416.892 44.2608 413.981C36.4774 406.549 31.5918 397.325 27.98 387.402C25.2502 379.886 22.6604 372.285 21.4285 364.322C25.1942 364.755 27.98 366.393 29.6739 370.032C30.7658 372.355 30.6538 374.763 31.1998 377.086C32.6557 383.357 35.1475 389.291 37.8773 395.1C38.7173 396.877 40.1171 398.417 41.363 399.97C42.385 401.244 43.8269 402.168 45.4368 402.154C51.5823 402.126 57.7979 402.994 63.8454 401.202C65.8893 400.6 67.7371 399.551 70.019 399.607C75.3106 399.733 80.6302 399.886 85.8658 398.781C88.8616 398.151 91.9414 397.423 93.0473 394.134C93.6633 392.286 94.0412 390.299 94.1112 388.241C94.2232 385.19 93.3273 382.279 93.2153 379.284C92.9493 371.838 93.5793 364.391 92.4034 356.959C91.5074 351.333 91.5914 345.566 90.5555 339.94C90.2195 338.12 89.6036 336.357 89.7296 334.439C90.0235 330.128 89.0996 325.859 88.6236 321.632C87.9517 315.656 87.8117 309.665 87.2517 303.689C86.6358 296.999 85.5579 290.392 84.8019 283.73C84.116 277.641 82.1001 271.721 82.828 265.479C83.528 259.516 80.9522 254.001 80.4622 248.207C80.3502 246.947 80.1823 245.646 79.2723 244.582C78.2364 243.364 78.3204 241.825 78.6424 240.453C79.5383 236.688 78.5164 233.119 77.6904 229.55C77.2705 227.73 76.5985 225.981 76.7805 224.077C77.0465 221.432 76.3185 218.982 75.4226 216.519C73.7427 211.858 71.0969 209.941 66.1833 209.899C65.0353 209.899 63.8034 210.123 62.7535 209.801C57.1399 208.093 51.7083 209.969 46.2067 210.472C41.0971 210.934 36.0294 212.18 30.9198 212.32C25.3062 212.474 19.8606 213.608 14.331 214.265C10.3553 214.727 8.00346 218.226 8.46543 222.131C8.60542 223.265 8.54943 224.427 8.57742 225.575C8.82941 235.47 7.03753 245.324 7.80748 255.219C8.00346 257.78 23.1224 364.545 21.4285 364.322C20.3646 360.836 4.26575 250.334 3.92977 246.779C3.08983 237.766 2.36187 228.752 2.59985 219.696C2.66985 217.107 2.29189 214.559 1.91391 211.984C-0.353922 196.714 -0.507928 181.402 0.933967 166.034C1.66191 158.294 3.01983 150.722 5.03568 143.219C8.85741 129.013 15.6469 116.612 27.1261 107.151C32.2217 102.952 37.8913 99.5365 43.9529 96.8492C47.6486 95.2116 47.7186 95.1836 47.1726 91.1246C46.3327 84.8542 45.8847 78.5698 45.5347 72.2574C45.4927 71.5436 45.6047 70.8298 45.6327 70.1159C45.8847 69.78 46.3607 69.4581 46.3607 69.1082C46.4447 64.9512 46.4867 60.7943 46.4307 56.6374C46.4307 56.2175 45.8147 56.3154 45.4788 56.6374C45.5628 48.7294 46.2347 40.8913 48.2226 33.2073C48.5026 32.1016 48.8385 30.9958 49.2865 29.9461C51.3583 25.0753 53.6822 23.8437 58.9598 23.9416C81.9181 24.4035 101.951 32.8994 120.149 46.294C126.519 50.9828 131.992 56.7073 137.634 63.3836C138.012 59.4087 138.362 56.1055 138.642 52.8163C139.72 40.4994 142.366 28.4485 144.984 16.3975C145.921 12.0446 147.587 7.91568 149.575 3.91269C150.849 1.35134 152.711 0.161641 155.679 0.0636661C167.438 -0.356228 178.945 1.30936 190.06 4.80847C207.251 10.2111 223.392 17.9371 237.279 29.6382C242.501 34.0331 247.428 38.7219 251.796 44.1525C256.905 50.4929 262.113 56.6793 265.893 63.9155C266.663 65.3851 267.713 65.931 269.323 65.833C270.89 65.7351 272.486 65.833 274.054 65.833C282.818 65.7351 291.553 66.1549 300.232 67.5266C302.654 68.8982 305.3 68.4084 307.89 68.4084C321.315 69.5561 334.67 71.0257 347.717 74.7488C351.525 75.8405 355.388 76.7923 359.21 77.87C364.516 79.3676 369.401 81.803 373.937 84.8402C379.187 88.3533 382.826 93.1541 385.01 99.2006C385.738 101.23 387.11 103.134 388.02 105.177C391.828 113.785 393.354 122.981 395.034 132.148C397.693 146.565 399.401 161.079 400.451 175.691C401.319 187.714 402.915 199.681 403.979 211.69C405.253 226.148 405.897 240.635 406.541 255.121C407.129 268.474 407.605 281.812 407.255 295.179C406.835 311.555 406.009 327.931 403.671 344.139C402.145 354.776 400.703 365.483 397.581 375.827C396.335 379.942 394.95 384.015 392.36 387.542C391.142 388.409 389.938 389.291 389.91 391.013C388.062 392.151 385.873 392.454 383.344 391.923C382.952 391.839 382.518 391.867 382.112 391.839C385.08 388.563 388.272 385.456 389.84 381.131C390.862 378.346 391.786 375.491 392.472 372.663C394.474 364.587 396.251 356.427 397.497 348.212C400.171 330.59 401.165 312.815 401.823 295.011C402.551 275.318 400.899 255.681 399.975 236.03C399.723 230.585 399.471 225.127 398.967 219.696C397.147 199.975 395.229 180.254 393.326 160.533C392.738 154.389 392.612 148.132 391.324 142.128C388.776 130.175 386.536 118.166 382.364 106.549C378.305 95.2536 371.235 87.7935 360.036 83.9444C352.421 81.3271 344.637 79.3956 336.742 77.856C327.572 76.0644 318.249 75.4066 309.024 74.0769C297.195 72.3834 285.351 71.4176 273.438 71.1237C272.346 71.0957 271.17 70.6898 270.107 71.5436C269.841 72.5653 270.177 73.5171 270.736 74.3569C272.976 77.716 272.206 80.8932 270.205 84.0144C269.435 85.2181 268.749 86.5198 267.783 87.5695C259.019 97.0731 249.108 105.093 236.873 109.67C225.45 113.939 213.761 117.41 201.693 119.369C194.596 120.517 187.848 120.405 180.975 117.214C167.62 111.014 155.483 102.826 142.856 95.4355C138.796 93.0561 136.528 89.725 137.046 84.8402C137.438 77.884 137.144 77.646 130.467 79.1717C130.327 79.1996 130.201 79.2836 130.061 79.2976C124.153 80.2074 118.427 81.9849 112.464 82.6428C109.132 83.0207 105.674 83.2726 102.525 84.7282C100.481 84.7003 98.7029 86.0439 96.6311 85.862C89.3096 87.8355 81.9181 89.571 74.5826 91.5305C63.7054 94.4278 53.3182 98.3328 43.3649 103.539C38.8152 105.919 34.2656 108.522 30.3459 111.629C21.2465 118.824 16.0389 129.041 11.9932 139.678C8.50743 148.846 7.16352 158.518 6.44957 168.287C5.48364 181.626 5.39965 194.936 6.71556 208.261C6.89754 210.179 7.61149 210.78 9.51535 210.081C13.1831 208.737 17.0608 208.527 20.9105 208.023C24.4803 207.561 28.064 207.575 31.6198 207.113C38.5773 206.204 45.5068 204.986 52.4922 204.258C59.2118 203.558 65.9453 203.334 72.5108 205.616C75.2406 206.567 77.2705 208.065 78.6983 210.598C81.1062 214.853 82.6041 219.458 83.472 224.189C85.0119 232.643 86.1878 241.153 87.5037 249.649C87.3497 250.264 87.3777 250.838 87.8257 251.342C87.8957 251.902 87.9657 252.476 88.0357 253.036C88.1197 256.031 88.7496 258.956 89.0156 261.937C89.5896 268.46 90.1355 274.996 91.3954 281.448C91.3114 285.913 92.2914 290.266 92.7113 294.675C93.6073 303.927 94.8812 313.15 95.7491 322.416C96.8411 334.103 98.115 345.776 99.8228 357.379C101.587 369.346 102.455 381.271 100.985 393.336C100.537 397.059 98.6469 399.691 95.7631 401.832C94.0132 403.134 92.0114 403.987 89.9395 404.519C83.976 406.059 77.9704 407.389 71.7549 407.487C70.215 407.515 68.5771 407.193 67.1632 408.186C62.0256 408.298 56.8879 408.186 51.7783 408.816C51.3863 408.704 50.9804 408.494 50.5884 408.522C49.3985 408.578 47.5646 407.934 47.2566 409.236C46.8507 410.93 48.8105 411.07 50.0424 411.518C52.7302 413.351 54.9841 415.954 58.4978 416.332C63.7894 418.782 69.557 419.048 75.1986 419.971C85.4179 421.651 95.6791 422.519 106.038 422.127C115.194 422.827 124.377 423.009 133.56 422.967C163.406 422.855 193.238 422.267 223.014 420.279C230.741 419.761 238.469 419.244 246.182 418.474C265.011 416.598 283.854 414.821 302.612 412.371C303.872 412.539 305.132 412.735 306.182 411.728C320.069 409.922 333.984 408.228 347.591 404.771C356.41 402.532 365.314 400.586 373.559 396.541C373.937 396.681 374.105 396.499 374.161 396.149L374.329 396.065C376.079 396.177 377.199 394.61 378.823 394.4C379.621 397.381 376.429 398.809 376.121 401.356L376.037 401.384C374.399 401.398 372.901 401.72 371.823 403.12L371.865 403.092ZM54.2001 51.2767C54.5221 50.3669 54.9281 49.4712 55.1241 48.5194C55.376 47.3577 55.698 46.322 57.0559 46.14C58.3858 45.9441 59.0438 46.8118 59.6597 47.8196C60.3737 48.9953 60.6397 50.4789 62.0256 51.1647C62.1936 52.2984 62.4035 53.3902 62.9495 54.4399C67.4852 63.2297 70.8589 72.4813 73.7987 81.901C74.0507 82.7127 74.3447 83.5245 74.6806 84.3083C75.0586 85.2041 75.7166 85.694 76.7105 85.3861C77.8584 85.0362 78.2924 84.2804 77.9004 83.0767C77.5364 81.9989 77.2285 80.8932 76.8925 79.8015C74.9606 73.5451 72.2728 67.5826 69.417 61.7321C68.1711 59.1707 68.4931 56.0215 66.2952 53.8661C62.4875 46.308 59.7017 38.204 54.9001 30.7439C52.8002 35.1388 52.4223 39.2677 51.8343 43.3267C51.4563 45.9721 50.3644 48.5894 51.2323 51.3327C50.5184 64.2374 51.6663 77.1142 51.9463 89.9909C51.9743 91.1386 51.5683 92.9022 53.5842 92.7622C55.376 92.6363 55.2501 91.1246 55.1661 89.809C55.1381 89.3751 55.1241 88.9412 55.0541 88.5213C53.6542 80.7253 53.4302 72.8593 53.5562 64.9792C53.6262 60.4024 53.9761 55.8256 54.2001 51.2487V51.2767ZM161.306 671.334C161.432 671.446 161.558 671.572 161.684 671.684C161.572 671.558 161.46 671.432 161.334 671.292C160.34 668.367 158.367 666.099 156.183 664.07C149.785 658.121 142.94 652.621 136.962 646.308C130.593 639.576 122.711 634.859 115.768 628.939C115.32 628.547 114.746 628.267 114.284 628.813C114.06 629.092 113.92 629.68 114.06 629.988C114.788 631.542 115.418 633.194 116.44 634.537C121.535 641.227 126.533 647.918 133.21 653.348C139.3 658.303 145.152 663.524 152.011 667.373C154.909 668.996 157.513 671.67 161.306 671.334ZM166.472 103.008C167.606 104.379 169.314 104.953 170.784 105.765C175.165 108.214 179.659 110.468 184.181 112.665C186.575 113.827 187.331 113.267 187.177 110.636C187.093 109.068 186.505 107.528 186.477 105.975C186.309 96.0094 183.621 86.4778 181.409 76.8762C178.021 62.2079 173.444 47.8896 168.068 33.8371C164.89 25.5372 161.6 17.2933 156.981 9.65124C156.421 8.71348 156.211 7.27185 154.727 7.39781C153.201 7.53778 153.271 9.07739 152.977 10.0571C150.835 16.9854 148.609 23.8996 147.391 31.0938C146.481 36.4405 145.264 41.7451 144.9 47.1757C144.564 52.1725 144.62 57.2392 143.85 62.166C143.248 66.029 143.612 69.934 142.856 73.713C141.96 78.1499 142.436 82.5728 142.338 87.0097C142.31 88.0594 142.506 89.3051 143.542 89.571C145.809 90.1729 147.321 92.2164 149.673 92.5803C154.923 96.6252 160.648 99.8864 166.486 102.98L166.472 103.008ZM106.15 77.856C111.568 76.9882 117 76.1064 122.417 75.2387C124.937 74.7488 127.443 74.1609 129.977 73.797C132.566 73.4191 135.324 74.3709 137.9 72.9012C118.525 46.8258 92.7813 32.4935 60.5697 28.9943C60.7097 31.7517 62.6415 33.3053 63.6215 35.2928C69.375 46.9798 74.7786 58.8208 79.4823 70.9837C80.3642 73.2512 81.4002 75.4626 81.8761 77.87C82.982 83.5106 83.01 83.6085 88.2877 82.2229C94.2232 80.6693 100.383 80.0114 106.164 77.856H106.15ZM333.116 629.736C341.137 631.01 346.905 635.797 351.833 641.815C353.317 643.621 354.548 645.608 356.088 647.778C356.774 646.504 357.334 645.678 357.712 644.755C361.408 635.853 364.278 626.685 366.42 617.307C367.301 613.416 367.693 609.428 366.854 605.369C366.35 602.891 365.342 601.296 363.13 600.022C347.857 591.218 331.142 586.739 313.993 583.52C312.565 583.254 311.516 583.352 311.236 585.2C310.438 590.378 307.274 594.409 304.236 598.384C301.142 602.443 296.887 604.235 291.707 603.283C289.019 602.793 286.345 602.289 283.686 601.701C281.558 601.24 279.444 600.918 277.274 601.296C274.236 601.827 273.732 602.667 275.244 605.299C277.834 609.791 281.88 612.829 286.275 615.264C296.985 621.199 308.38 625.565 320.055 629.19C320.587 629.736 321.245 629.932 321.987 629.918C325.696 629.862 329.392 629.792 333.102 629.736H333.116ZM286.499 538.633C288.235 537.332 288.053 535.386 288.235 533.539C289.103 525.225 286.737 517.289 285.183 509.311C282.986 498.072 281.754 486.903 284.931 475.705C285.519 473.648 284.302 472.766 283.21 471.73C279.22 467.979 275.496 464.018 272.752 459.245C272.01 457.972 271.002 457.482 269.659 457.244C265.151 456.446 260.629 455.62 256.136 454.739C251.516 453.829 246.756 453.549 242.389 451.477C239.015 449.868 236.817 447.446 236.425 443.695C235.865 438.293 240.317 433.338 246.084 433.338C255.142 433.338 264.073 434.696 272.808 437.047C274.81 437.579 276.294 437.733 277.904 436.249C279.85 434.458 282.3 433.702 284.861 433.072C287.745 432.372 290.531 432.526 293.373 433.1C295.165 433.464 296.215 432.918 295.697 430.847C296.411 427.935 295.627 425.164 294.927 422.379C294.605 421.091 293.779 420.349 292.491 420.363C287.759 420.419 282.902 419.915 278.324 420.811C272.822 421.903 267.265 422.295 261.749 422.757C251.502 423.61 241.269 424.842 231.007 425.346C220.718 425.836 210.443 426.746 200.168 427.124C191.152 427.46 182.151 428.551 173.122 428.159C172.842 428.159 172.548 428.187 172.254 428.159C170.476 428.061 169.132 428.873 168.418 430.413C166.85 433.772 164.96 436.963 163.784 440.546C162.216 445.347 161.362 450.274 160.83 455.215C160.13 461.597 158.815 467.895 158.605 474.362C158.283 484.131 159.095 493.803 160.536 503.432C161.208 507.953 161.74 512.502 162.664 516.967C164.456 525.603 168.082 533.609 172.31 541.251C177.685 550.978 186.127 557.977 195.058 564.275C199.062 567.088 201.232 566.556 205.039 563.295C206.131 562.357 207.055 561.21 208.231 560.412C214.265 556.311 219.64 551.314 226.08 547.787C226.5 547.549 226.682 546.877 226.976 546.401C229.481 546.513 231.637 545.31 233.933 544.596C240.275 542.608 246.28 542.776 251.348 547.801C251.964 548.417 252.636 548.907 253.546 549.005C255.59 556.689 255.072 563.897 249.892 570.377C248.996 571.497 248.016 572.813 248.324 574.688C249.36 574.688 250.228 574.814 251.054 574.674C259.075 573.261 266.579 570.223 272.808 565.199C281.096 558.508 286.023 549.579 286.499 538.619V538.633ZM161.726 5.57827C161.922 6.40406 161.936 6.83796 162.118 7.20186C166.836 16.3555 171.078 25.6912 174.339 35.4747C178.959 49.3312 184.265 62.9638 187.177 77.3381C188.044 81.635 188.73 85.9739 189.64 90.2429C190.9 96.1214 192.37 101.93 192.398 107.976C192.398 109.558 192.398 111.14 192.636 112.693C192.846 114.107 193.574 114.737 195.324 114.597C204.199 113.827 212.767 111.475 221.362 109.418C230.027 107.333 238.091 103.456 245.846 99.0746C253.308 94.8477 259.439 89.1091 264.647 82.2929C266.481 79.8995 266.411 77.688 265.277 75.1687C260.153 63.8315 253.518 53.5161 244.908 44.5164C240.443 39.8556 235.683 35.5727 230.517 31.6397C224.442 27.0208 218.24 22.612 211.395 19.3368C200.392 14.0601 188.968 9.8052 176.985 7.36981C172.128 6.37607 167.228 5.01841 161.726 5.59227V5.57827ZM169.65 672.845C171.82 670.816 174.059 668.996 175.949 666.869C178.609 663.86 181.171 660.739 183.481 657.449C191.306 646.294 200.028 635.727 205.473 623.032C207.643 617.979 207.783 618.049 202.715 615.502C202.463 615.376 202.169 615.292 201.931 615.152C195.002 610.897 188.954 604.095 191.474 594.059C192.104 591.568 192.258 588.951 192.594 586.389C192.748 585.242 192.79 584.122 192.314 583.002C191.404 580.861 190.424 580.287 188.296 581.099C185.861 582.022 183.635 583.338 181.689 585.088C171.652 594.059 163.322 604.445 156.155 615.81C155.203 617.321 155.301 618.567 155.791 620.233C156.883 623.9 158.535 627.595 157.709 631.514C156.449 637.462 155.441 643.523 152.207 648.884C150.303 652.019 150.303 652.173 153.033 654.622C159.137 660.081 164.652 666.085 169.65 672.859V672.845ZM288.641 437.411C284.246 437.691 280.018 439.189 277.61 443.709C275.16 448.286 274.656 452.863 277.918 457.454C282.846 464.382 288.543 470.597 294.675 476.461C297.685 479.33 300.666 482.228 303.438 485.335C306.672 488.974 309.962 492.585 313.363 496.07C316.345 499.093 317.745 499.233 321.245 497.092C323.317 495.832 325.291 494.391 327.236 492.921C336.238 486.175 343.461 478.029 347.731 467.447C348.935 464.48 348.431 462.255 346.149 460.127C343.307 457.454 340.185 455.159 336.882 453.171C326.368 446.817 314.903 442.884 302.976 440.224C298.37 439.203 293.821 437.845 288.627 437.411H288.641ZM195.856 596.929C195.8 602.989 197.97 606.824 202.547 609.414C210.345 613.836 211.129 613.319 216.434 606.824C221.67 600.414 226.836 593.933 232.001 587.453C238.707 579.013 244.908 570.405 248.548 560.09C251.012 553.134 246.826 547.997 239.967 548.991C236.243 549.537 232.421 550.698 229.104 552.728C224.12 555.793 219.178 558.9 214.657 562.665C209.155 567.242 203.401 571.497 198.474 576.732C197.186 578.103 196.598 579.265 197.214 581.281C197.998 583.884 197.76 586.641 197.172 589.357C196.57 592.142 196.206 594.969 195.87 596.929H195.856ZM131.125 460.757C127.219 460.589 120.905 460.309 114.592 460.827C111.932 461.037 111.162 462.045 112.45 463.99C116.594 470.275 118.161 477.399 119.449 484.607C120.513 490.528 121.325 496.532 120.065 502.551C119.155 506.889 119.883 507.827 124.363 507.351C125.917 507.183 127.457 506.735 128.955 506.288C136.402 504.09 143.57 501.193 150.457 497.596C153.649 495.93 153.733 495.958 153.383 492.347C152.459 482.899 152.417 473.424 153.789 464.032C154.279 460.645 153.523 460.743 150.751 460.771C145.012 460.827 139.272 460.785 131.111 460.785L131.125 460.757ZM107.41 465.614C105.394 466.314 104.904 468.497 103.771 470.023C101.643 472.864 98.9409 474.74 95.6651 475.999C92.9773 477.035 90.6255 475.425 88.0917 475.285C86.3138 475.187 86.4538 473.186 85.7958 471.982C84.4799 469.617 81.7781 469.575 80.3222 471.912C79.6223 473.018 79.3143 474.264 79.3283 475.593C79.3563 478.029 79.4963 480.478 79.3003 482.9C78.6424 491.619 81.9181 498.995 86.9298 505.798C87.9937 507.239 89.5476 508.149 91.3254 508.219C98.3389 508.471 105.324 508.443 112.198 506.609C113.85 506.162 114.746 505.406 114.718 503.698C114.578 495.286 115.768 486.791 112.94 478.575C111.638 474.796 110.252 471.045 108.866 467.293C108.628 466.636 108.334 465.95 107.41 465.6V465.614ZM367.623 490.094C368.701 484.201 364.88 480.912 360.834 478.547C358.58 477.231 356.018 476.433 353.918 474.586C351.945 472.85 350.321 473.55 349.047 476.153C346.891 480.548 344.147 484.509 340.773 488.106C337.008 492.109 332.682 495.328 328.118 498.338C324.535 500.703 324.227 503.74 327.11 506.54C330.834 510.151 334.964 513.146 340.115 514.518C344.287 515.637 348.445 515.749 352.239 513.678C361.576 508.569 366.518 500.493 367.623 490.094ZM305.454 584.234C305.832 581.729 303.998 580.469 302.514 579.237C296.817 574.492 290.923 569.957 285.267 565.157C283.448 563.603 282.398 563.589 280.676 565.269C275.426 570.349 270.009 575.276 262.701 577.306C262.295 577.418 261.861 577.558 261.511 577.781C260.167 578.649 259.509 579.657 260.279 581.379C260.755 582.428 261.259 583.394 261.889 584.36C264.535 588.363 268.273 591.316 271.464 594.787C272.934 596.397 274.684 596.621 276.56 595.977C278.254 595.403 280.018 595.137 281.642 595.599C284.19 596.313 286.737 596.299 289.313 596.313C290.615 596.313 291.819 596.439 292.981 597.223C295.403 598.86 297.782 598.09 299.672 596.355C303.186 593.122 304.628 588.769 305.454 584.234ZM322.169 661.942C328.832 661.732 334.208 660.725 339.556 659.717C342.369 659.185 345.155 658.429 347.885 657.589C352.421 656.19 353.107 654.608 351.231 650.437C349.733 647.12 347.563 644.265 345.043 641.689C336.896 633.333 326.634 632.368 317.171 635.741C306.7 639.478 306.448 649.485 308.856 658.191C309.15 659.255 309.934 659.843 311.026 660.039C315.113 660.739 319.089 662.264 322.155 661.97L322.169 661.942ZM146.663 647.904C148.455 646.532 149.281 644.699 150.051 642.879C151.899 638.47 152.543 633.851 152.753 629.079C153.047 622.332 149.561 617.993 144.186 614.802C142.352 613.724 140.294 612.857 138.222 612.381C129.613 610.449 121.647 611.569 115.068 618.007C112.436 620.583 112.618 621.646 115.6 623.508C126.687 630.45 137.004 638.428 146.663 647.904ZM272.906 441.232C270.694 440.924 268.973 440.28 267.083 440.112C260.965 439.566 254.806 439.58 248.73 438.545C247.33 438.307 245.86 438.265 244.46 438.769C242.655 439.427 241.773 440.798 241.563 442.674C241.353 444.479 242.095 445.669 243.732 446.467C246.056 447.6 248.394 448.58 251.026 448.888C254.274 449.266 257.493 450.092 260.741 450.344C263.653 450.568 266.187 452.163 269.099 452.205C270.834 452.233 272.01 451.729 271.59 449.756C270.974 446.831 271.926 444.171 272.906 441.232ZM86.2158 456.404C85.5019 456.516 84.7739 456.558 84.088 456.754C81.3162 457.524 80.0143 459.204 80.2102 461.667C80.4062 464.06 81.8341 465.404 85.0399 465.194C87.6297 465.026 88.1477 466.608 88.9036 468.315C90.9055 472.85 91.9134 473.116 96.0851 470.219C96.911 469.645 97.681 468.987 98.4089 468.301C101.909 465.012 101.895 464.746 98.171 461.989C97.009 461.135 95.8611 460.267 94.6432 459.525C92.0394 457.958 89.2676 456.81 86.2158 456.404ZM69.991 499.849C71.9508 499.765 73.4907 499.695 75.0306 499.247C76.8645 498.701 77.6764 497.89 76.9065 495.86C76.2065 494.013 75.7446 492.053 75.2826 490.108C74.4427 486.497 74.4567 486.413 70.8449 487.154C68.8991 487.546 66.9532 488.05 65.0913 488.722C63.4814 489.296 62.0256 490.248 60.9196 491.619C58.8478 494.209 59.1978 496.336 62.1375 497.904C64.6854 499.261 67.4852 499.793 69.991 499.835V499.849ZM358.286 515.203C356.368 517.401 354.338 518.423 352.113 519.08C350.489 519.556 349.649 520.438 350.335 522.23C351.609 525.575 352.757 528.99 354.996 531.873C356.452 533.735 358.104 535.652 360.708 534.742C363.354 533.833 363.2 531.215 363.368 528.906C363.732 523.797 360.806 519.934 358.286 515.189V515.203ZM375.617 518.506C375.617 513.23 372.607 509.395 369.443 505.658C368.575 504.636 367.749 504.902 367.007 505.924C366.084 507.197 365.132 508.457 364.124 509.661C363.312 510.626 363.088 511.466 363.648 512.754C364.978 515.819 366.825 518.52 368.925 521.068C370.185 522.593 371.963 523.545 373.881 522.943C375.981 522.286 375.309 520.102 375.631 518.492L375.617 518.506ZM74.1067 481.304C74.2747 478.197 74.6807 475.537 75.7306 473.004C76.1085 472.094 76.2905 470.695 74.9466 470.569C70.8309 470.191 66.6172 469.603 62.6135 470.961C59.7437 471.94 59.3798 475.061 61.5776 477.203C62.4175 478.015 63.4535 478.519 64.5454 478.868C67.5272 479.834 70.509 480.828 74.0927 481.318L74.1067 481.304ZM373.321 489.632C372.761 492.291 372.467 494.699 371.459 496.952C370.647 498.758 371.123 500.241 372.467 501.613C373.979 503.166 375.771 504.342 377.619 505.42C378.865 506.134 379.845 505.658 380.405 504.412C380.95 503.222 380.992 502.005 380.727 500.661C379.803 495.93 376.653 492.767 373.321 489.632ZM85.1659 509.857C83.276 507.687 81.6661 505.896 80.1402 504.034C79.7343 503.544 79.3003 503.138 78.7403 503.25C75.8146 503.824 72.8468 504.258 70.033 505.182C68.0731 505.826 67.9471 507.687 69.445 509.269C70.8729 510.78 72.6508 511.634 74.7366 511.718C78.1804 511.872 81.5262 511.438 85.1659 509.843V509.857ZM325.249 515.119C325.822 518.618 326.074 522.565 329.63 525.099C332.864 527.394 334.222 526.82 334.894 522.887C335.02 522.188 335.146 521.474 335.328 520.788C335.748 519.164 335.23 518.087 333.676 517.345C331.618 516.337 329.728 515.049 328.02 513.496C327.404 512.936 326.648 512.25 325.752 512.852C325.095 513.286 325.291 514.126 325.235 515.133L325.249 515.119Z" fill="#612D1A"/>
<path d="M319.383 260.44C319.481 274.128 318.571 287.761 315.827 301.156C314.105 309.539 311.53 317.727 306.56 324.936C302.36 331.024 297.335 336.133 291.133 340.29C282.538 346.07 273.312 350.255 263.163 352.033C251.908 354.006 240.583 353.572 229.272 351.851C222.3 350.787 215.469 349.135 208.791 346.966C200.644 344.321 192.986 340.612 187.765 333.431C184.713 329.218 181.899 324.908 180.555 319.617C178.791 312.689 175.963 306.054 174.27 299.056C171.722 288.559 170.742 277.823 169.216 267.172C167.382 254.337 166.654 241.405 167.452 228.472C168.334 214.14 169.986 199.863 174.088 186.021C177.671 173.9 185.791 165.208 195.66 157.832C202.547 152.667 210.415 149.616 218.548 147.376C229.328 144.409 240.289 142.17 251.614 143.429C268.749 145.333 284.735 150.218 298.147 161.695C299.602 162.941 300.582 164.382 301.464 166.09C308.646 180.03 312.384 194.964 315.099 210.305C318.053 226.918 319.439 243.602 319.383 260.44ZM313.139 260.314C313.615 246.037 312.244 233.091 310.76 220.13C309.514 209.269 307.12 198.729 304.194 188.232C303.144 184.467 301.562 180.968 300.232 177.343C299.63 175.705 297.797 174.851 297.727 172.92C297.559 168.413 294.409 165.558 291.301 163.234C280.312 155.088 267.615 150.946 254.176 149.63C246.84 148.916 239.239 148.454 231.973 151.002C231.315 151.225 230.545 151.183 229.831 151.155C222.58 150.89 216.098 153.437 209.603 156.292C204.017 158.756 199.594 162.759 194.834 166.342C190.914 169.295 187.247 172.528 184.741 176.811C180.793 183.557 178.175 190.849 176.831 198.533C175.529 205.994 174.227 213.482 173.556 221.012C173.094 226.135 172.296 231.355 172.758 236.436C173.234 241.601 173.178 246.751 173.388 251.902C173.458 253.624 173.64 255.303 173.878 257.025C174.703 262.679 175.487 268.362 175.865 274.058C176.117 277.795 176.663 281.449 177.321 285.102C178.805 293.429 181.241 301.505 183.411 309.665C185.245 316.538 187.988 322.934 191.138 329.232C191.936 330.828 193.098 332.116 194.484 333.123C199.02 336.427 203.709 339.408 209.085 341.269C216.714 343.915 224.526 345.37 232.533 346.364C239.869 347.274 247.176 347.288 254.456 346.91C260.545 346.588 266.803 346.518 272.528 343.733C276.896 341.605 281.572 339.954 285.631 337.35C289.831 334.677 293.485 331.136 297.321 327.917C299.448 326.139 300.932 323.83 302.248 321.436C304.572 317.14 306.588 312.703 308.17 308.07C311.88 297.237 312.187 285.871 313.069 274.632C313.475 269.496 313.139 264.289 313.139 260.314Z" fill="#612D1A"/>
<path d="M101.573 491.06C96.771 491.185 93.0613 489.254 90.6255 485.097C90.0795 484.173 89.1836 482.984 90.3455 482.018C91.5354 481.038 92.8513 481.598 93.7472 482.634C96.519 485.839 100.019 487.392 104.19 487.784C105.184 487.882 106.724 488.134 106.528 489.674C106.374 490.78 105.198 491.032 104.148 491.06C103.295 491.088 102.441 491.06 101.587 491.06H101.573Z" fill="#612D1A"/>
<path d="M174.493 102.056C169.874 98.7527 164.568 96.6812 159.752 93.7C157.485 92.3004 155.259 90.7328 152.655 89.907C147.377 87.4296 146.299 83.2167 146.565 77.6601C146.943 69.794 147.573 61.942 147.685 54.048C147.769 48.8413 149.477 43.6487 150.471 38.456C151.003 35.6427 151.563 32.8434 152.151 30.0441C152.263 29.4982 152.557 28.9664 152.809 28.4625C153.523 27.0628 154.027 25.1873 155.749 25.0054C157.471 24.8234 158.353 26.461 159.248 27.8047C161.082 30.576 162.706 33.4592 163.798 36.5804C169.342 52.2565 174.339 68.1145 177.363 84.4903C178.189 88.9552 178.861 93.532 178.693 98.1509C178.539 102 178.623 102 174.493 102.042V102.056Z" fill="#612D1A"/>
</g>
</g>
<g id="id3">
<g id="Vector_4">
<path d="M161.726 5.5783C167.228 5.00444 172.128 6.3761 176.985 7.35585C188.968 9.79124 200.391 14.0601 211.395 19.3228C218.24 22.612 224.442 27.0069 230.517 31.6257C235.697 35.5587 240.443 39.8416 244.908 44.5024C253.532 53.5022 260.167 63.8316 265.277 75.1547C266.425 77.6881 266.481 79.8855 264.647 82.2789C259.439 89.0812 253.308 94.8337 245.846 99.0607C238.091 103.442 230.027 107.319 221.362 109.404C212.767 111.476 204.199 113.813 195.324 114.583C193.574 114.737 192.846 114.093 192.636 112.679C192.412 111.126 192.412 109.53 192.398 107.962C192.37 101.902 190.9 96.1074 189.64 90.2289C188.73 85.96 188.044 81.6211 187.176 77.3242C184.265 62.9498 178.959 49.3172 174.339 35.4607C171.064 25.6632 166.836 16.3276 162.118 7.18789C161.936 6.83798 161.922 6.39009 161.726 5.5643V5.5783Z" fill="#A95936"/>
<path d="M295.697 430.833C293.499 430.959 291.427 430.259 289.355 429.755C285.015 428.691 280.662 428.061 276.182 428.145C271.73 428.229 267.251 428.397 262.813 428.075C253.686 427.417 245.174 429.755 236.915 433.128C227.69 436.893 219.654 442.436 212.123 449.084C202.099 457.93 196.43 469.001 192.93 481.458C191.348 487.112 187.989 490.318 182.249 491.129C181.381 491.255 180.611 491.521 179.827 491.927C176.579 493.579 176.481 493.565 177.279 497.064C177.713 498.925 177.601 500.773 177.657 502.634C177.811 507.351 178.595 508.149 183.187 508.219C184.475 508.233 185.735 508.233 187.023 508.583C189.878 509.353 191.936 510.99 192.888 513.776C194.722 519.122 197.83 523.811 200.56 528.682C203.275 533.539 207.741 536.786 212.067 540.145C216.504 543.588 221.544 545.408 226.962 546.429C226.668 546.905 226.486 547.577 226.066 547.815C219.626 551.342 214.251 556.353 208.217 560.44C207.041 561.238 206.117 562.385 205.025 563.323C201.218 566.584 199.048 567.116 195.044 564.303C186.113 558.018 177.671 551.02 172.296 541.279C168.068 533.637 164.442 525.631 162.65 516.995C161.726 512.53 161.208 507.981 160.522 503.46C159.081 493.817 158.269 484.159 158.591 474.39C158.801 467.937 160.117 461.625 160.816 455.242C161.362 450.302 162.202 445.375 163.77 440.574C164.946 436.977 166.836 433.8 168.404 430.441C169.118 428.901 170.462 428.089 172.24 428.187C172.52 428.201 172.814 428.159 173.108 428.187C182.151 428.579 191.138 427.487 200.154 427.152C210.443 426.76 220.704 425.864 230.993 425.374C241.255 424.884 251.488 423.652 261.735 422.785C267.251 422.323 272.794 421.917 278.31 420.839C282.888 419.943 287.745 420.447 292.477 420.391C293.765 420.377 294.577 421.105 294.913 422.407C295.613 425.192 296.397 427.963 295.683 430.875L295.697 430.833Z" fill="#A95936"/>
<path d="M106.15 77.856C100.355 79.9975 94.2092 80.6553 88.2737 82.2229C82.996 83.6085 82.982 83.4966 81.8621 77.87C81.3862 75.4626 80.3502 73.2512 79.4683 70.9837C74.7786 58.8208 69.361 46.9938 63.6074 35.2928C62.6275 33.3053 60.7097 31.7377 60.5557 28.9944C92.7673 32.4935 118.511 46.8258 137.886 72.9012C135.31 74.3709 132.552 73.4191 129.963 73.797C127.429 74.1609 124.923 74.7488 122.403 75.2387C122.333 73.6151 121.157 73.5731 119.967 73.5731C115.264 73.5731 110.56 73.5311 105.87 73.5871C103.939 73.6151 102.175 74.2869 100.061 75.1827C101.517 76.5263 102.833 76.1484 104.023 76.2044C105.17 76.2604 105.94 76.6383 106.136 77.842L106.15 77.856Z" fill="#A95936"/>
<path d="M195.856 596.929C196.192 594.969 196.556 592.128 197.158 589.357C197.746 586.641 197.984 583.884 197.2 581.281C196.598 579.265 197.172 578.104 198.46 576.732C203.387 571.497 209.155 567.242 214.643 562.665C219.164 558.9 224.106 555.779 229.09 552.728C232.407 550.698 236.229 549.537 239.953 548.991C246.812 547.997 250.984 553.12 248.534 560.09C244.894 570.391 238.693 579.013 231.987 587.453C226.836 593.934 221.67 600.414 216.42 606.824C211.115 613.319 210.331 613.837 202.533 609.414C197.956 606.824 195.8 602.975 195.842 596.929H195.856Z" fill="#A95936"/>
<path d="M107.41 465.614C108.334 465.964 108.628 466.636 108.866 467.307C110.238 471.059 111.624 474.81 112.94 478.589C115.768 486.805 114.578 495.3 114.718 503.712C114.746 505.406 113.85 506.176 112.198 506.624C105.324 508.457 98.3388 508.485 91.3253 508.233C89.5474 508.163 87.9935 507.253 86.9296 505.812C81.918 499.009 78.6422 491.633 79.3002 482.914C79.4822 480.492 79.3562 478.043 79.3282 475.607C79.3142 474.278 79.6221 473.032 80.3221 471.926C81.778 469.589 84.4798 469.631 85.7957 471.996C86.4537 473.186 86.3277 475.201 88.0915 475.299C90.6254 475.439 92.9632 477.049 95.665 476.013C98.9408 474.754 101.643 472.878 103.77 470.037C104.918 468.511 105.394 466.328 107.41 465.628V465.614ZM101.573 491.059C102.427 491.059 103.28 491.087 104.134 491.059C105.184 491.031 106.36 490.78 106.514 489.674C106.724 488.134 105.184 487.868 104.176 487.784C100.005 487.392 96.5049 485.839 93.7331 482.634C92.8372 481.598 91.5213 481.038 90.3314 482.018C89.1694 482.983 90.0794 484.173 90.6114 485.097C93.0472 489.254 96.7709 491.185 101.559 491.059H101.573Z" fill="#A95936"/>
<path d="M367.623 490.094C366.517 500.493 361.562 508.583 352.238 513.678C348.445 515.749 344.301 515.637 340.115 514.518C334.964 513.146 330.834 510.151 327.11 506.54C324.226 503.74 324.548 500.703 328.118 498.338C332.682 495.328 336.994 492.109 340.773 488.106C344.147 484.509 346.891 480.548 349.047 476.153C350.321 473.55 351.944 472.85 353.918 474.586C356.018 476.433 358.566 477.217 360.834 478.547C364.88 480.912 368.687 484.201 367.623 490.094Z" fill="#A95936"/>
<path d="M149.659 92.6083C147.321 92.2443 145.809 90.2009 143.528 89.599C142.492 89.3331 142.31 88.0874 142.324 87.0377C142.422 82.6008 141.96 78.1779 142.842 73.741C143.598 69.962 143.234 66.057 143.836 62.1939C144.592 57.2532 144.55 52.2005 144.886 47.2037C145.25 41.7731 146.467 36.4684 147.377 31.1218C148.595 23.9276 150.807 17.0134 152.963 10.0851C153.271 9.10537 153.201 7.56576 154.713 7.42579C156.197 7.29982 156.407 8.74146 156.967 9.67922C161.586 17.3213 164.876 25.5652 168.054 33.8651C173.429 47.9315 178.007 62.2499 181.395 76.9042C183.607 86.4918 186.295 96.0234 186.463 106.003C186.491 107.556 187.078 109.096 187.162 110.664C187.302 113.295 186.547 113.855 184.167 112.693C179.645 110.496 175.151 108.242 170.77 105.793C169.3 104.967 167.606 104.407 166.458 103.036C168.992 101.524 171.806 102.392 174.479 102.098C178.609 102.056 178.525 102.056 178.679 98.2068C178.861 93.588 178.175 89.0112 177.349 84.5463C174.325 68.1704 169.328 52.3124 163.784 36.6364C162.678 33.5292 161.068 30.6319 159.235 27.8606C158.339 26.517 157.471 24.8654 155.735 25.0613C154.027 25.2433 153.509 27.1188 152.795 28.5185C152.529 29.0223 152.249 29.5542 152.137 30.1001C151.549 32.8994 151.003 35.6986 150.457 38.5119C149.463 43.7046 147.755 48.8833 147.671 54.104C147.545 61.998 146.915 69.85 146.551 77.716C146.285 83.2726 147.377 87.4855 152.641 89.9629C151.577 90.7747 151.297 92.4823 149.645 92.6502L149.659 92.6083Z" fill="#A95936"/>
<path d="M305.454 584.234C304.628 588.769 303.186 593.108 299.672 596.355C297.782 598.09 295.403 598.86 292.981 597.223C291.819 596.439 290.615 596.313 289.313 596.313C286.737 596.299 284.189 596.313 281.642 595.599C280.018 595.137 278.254 595.403 276.56 595.977C274.684 596.621 272.934 596.397 271.464 594.787C268.273 591.316 264.535 588.349 261.889 584.36C261.245 583.394 260.741 582.428 260.279 581.379C259.509 579.671 260.167 578.649 261.511 577.782C261.861 577.558 262.295 577.418 262.701 577.306C270.022 575.262 275.426 570.335 280.676 565.269C282.398 563.603 283.447 563.617 285.267 565.157C290.923 569.958 296.802 574.492 302.514 579.237C303.998 580.469 305.846 581.729 305.454 584.234Z" fill="#A95936"/>
<path d="M253.546 549.033C264.549 547.409 275.23 544.792 284.875 538.955C285.323 538.689 285.953 538.731 286.499 538.633C286.023 549.593 281.11 558.536 272.808 565.213C266.579 570.237 259.061 573.289 251.054 574.688C250.228 574.828 249.36 574.702 248.324 574.702C248.016 572.841 248.996 571.511 249.892 570.391C255.072 563.911 255.59 556.703 253.546 549.019V549.033Z" fill="#A95936"/>
<path d="M161.306 671.334C157.513 671.67 154.923 668.996 152.011 667.373C145.151 663.524 139.3 658.303 133.21 653.348C126.533 647.918 121.535 641.228 116.44 634.537C115.418 633.194 114.788 631.542 114.06 629.988C113.92 629.68 114.06 629.093 114.284 628.813C114.746 628.267 115.306 628.547 115.768 628.939C122.711 634.873 130.593 639.59 136.962 646.308C142.954 652.635 149.799 658.135 156.183 664.07C158.366 666.099 160.34 668.367 161.334 671.292L161.292 671.334H161.306Z" fill="#A95936"/>
<path d="M272.906 441.232C271.926 444.171 270.96 446.817 271.59 449.756C272.01 451.729 270.834 452.233 269.098 452.205C266.187 452.163 263.653 450.568 260.741 450.344C257.479 450.092 254.274 449.266 251.026 448.888C248.394 448.58 246.056 447.6 243.732 446.467C242.108 445.683 241.367 444.479 241.563 442.674C241.773 440.798 242.654 439.427 244.46 438.769C245.846 438.265 247.33 438.307 248.73 438.545C254.806 439.566 260.965 439.566 267.083 440.112C268.973 440.28 270.694 440.924 272.906 441.232Z" fill="#A95936"/>
<path d="M62.0396 51.1787C60.6537 50.4929 60.3737 48.9953 59.6738 47.8336C59.0578 46.8258 58.3999 45.958 57.07 46.154C55.7121 46.3499 55.3761 47.3717 55.1381 48.5334C54.9421 49.4712 54.5221 50.3669 54.2142 51.2907C53.2202 51.3187 52.2263 51.3467 51.2324 51.3747C50.3784 48.6314 51.4564 46.014 51.8343 43.3687C52.4223 39.3097 52.8003 35.1808 54.9001 30.7859C59.7158 38.246 62.5016 46.336 66.3093 53.908C64.3634 53.8381 63.6635 51.8086 62.0536 51.2067L62.0396 51.1787Z" fill="#A95936"/>
<path d="M62.0396 51.1787C63.6495 51.7806 64.3493 53.81 66.2952 53.88C68.493 56.0215 68.1571 59.1707 69.417 61.746C72.2728 67.6106 74.9606 73.5591 76.8924 79.8155C77.2284 80.9072 77.5364 81.9989 77.9004 83.0906C78.3063 84.2803 77.8584 85.0361 76.7104 85.4C75.7165 85.708 75.0586 85.2181 74.6806 84.3223C74.3586 83.5385 74.0506 82.7267 73.7986 81.9149C70.8729 72.4953 67.4851 63.2437 62.9494 54.4539C62.4035 53.4041 62.1935 52.3124 62.0255 51.1787L62.0396 51.1787Z" fill="#A95936"/>
<path d="M51.2183 51.3607C52.2123 51.3327 53.2062 51.3047 54.2001 51.2767C53.9761 55.8536 53.6261 60.4304 53.5562 65.0073C53.4302 72.8873 53.6541 80.7673 55.054 88.5493C55.124 88.9692 55.138 89.4031 55.166 89.837C55.25 91.1526 55.376 92.6643 53.5841 92.7902C51.5543 92.9302 51.9603 91.1666 51.9463 90.0189C51.6663 77.1282 50.5184 64.2654 51.2323 51.3607H51.2183Z" fill="#A95936"/>
<path d="M106.15 77.856C105.954 76.6523 105.184 76.2744 104.037 76.2184C102.847 76.1624 101.531 76.5403 100.075 75.1966C102.175 74.3009 103.953 73.6291 105.884 73.6011C110.588 73.5451 115.292 73.5731 119.981 73.5871C121.171 73.5871 122.333 73.6291 122.417 75.2526C117 76.1204 111.568 77.0022 106.15 77.87L106.15 77.856Z" fill="#A95936"/>
<path d="M313.139 260.314C313.139 264.289 313.475 269.496 313.069 274.632C312.187 285.871 311.88 297.236 308.17 308.07C306.588 312.703 304.572 317.139 302.248 321.436C300.946 323.844 299.448 326.139 297.321 327.917C293.471 331.136 289.831 334.663 285.631 337.35C281.572 339.954 276.896 341.605 272.528 343.733C266.803 346.518 260.545 346.602 254.456 346.91C247.176 347.288 239.869 347.274 232.533 346.364C224.526 345.37 216.714 343.901 209.085 341.269C203.709 339.408 199.02 336.427 194.484 333.123C193.112 332.116 191.936 330.828 191.138 329.232C187.974 322.934 185.231 316.538 183.411 309.665C181.241 301.505 178.805 293.429 177.321 285.102C176.663 281.448 176.117 277.781 175.865 274.058C175.487 268.362 174.717 262.679 173.878 257.025C173.626 255.317 173.444 253.624 173.388 251.902C173.192 246.751 173.234 241.601 172.758 236.436C172.282 231.355 173.094 226.134 173.556 221.012C174.227 213.482 175.529 205.994 176.831 198.533C178.175 190.849 180.793 183.557 184.741 176.811C187.247 172.528 190.9 169.309 194.834 166.342C199.594 162.758 204.031 158.756 209.603 156.292C216.084 153.423 222.58 150.875 229.831 151.155C230.545 151.183 231.315 151.225 231.973 151.001C239.253 148.454 246.84 148.916 254.176 149.63C267.601 150.945 280.312 155.074 291.301 163.234C294.423 165.544 297.559 168.413 297.727 172.92C297.797 174.837 299.63 175.691 300.232 177.343C301.562 180.968 303.144 184.481 304.194 188.232C307.12 198.715 309.514 209.255 310.76 220.13C312.243 233.105 313.615 246.051 313.139 260.314Z" fill="#A95936"/>
</g>
</g>
</g>
</g>
</svg>
