<svg width="427" height="693" viewBox="0 0 427 693" fill="none" xmlns="http://www.w3.org/2000/svg">
<g id="walkleft2">
<g id="Group">
<path id="id5" d="M19.8296 366.893C20.9777 366.711 21.6078 366.151 21.8038 364.89C22.868 357.944 23.134 351.054 21.7338 344.094C20.0956 335.985 18.8074 327.834 17.8273 319.586C16.8892 311.715 16.0771 303.747 14.5369 295.89C13.3607 289.826 12.2826 283.692 11.8765 277.474C11.6245 273.651 10.8684 269.87 10.3924 266.047C10.2103 264.576 10.1683 263.092 10.1123 261.607C9.97231 257.616 10.5604 253.569 9.28621 249.647C9.2442 249.507 9.23021 249.339 9.25822 249.199C10.4904 242.855 8.67014 236.525 9.21621 230.195C9.48225 227.17 10.5744 225.672 13.3187 224.537C18.4574 222.409 23.8761 222.283 29.3088 221.652C37.1358 220.728 44.9908 221.274 52.8179 220.266C59.1187 219.454 65.6155 219.916 72.0003 220.154C75.9068 220.294 77.097 221.582 78.0071 225.462C78.6092 228.052 79.2953 230.629 79.0992 233.374C78.9452 235.713 79.2252 237.912 80.3454 240.236C81.5916 242.827 81.1715 246.034 81.5916 248.961C82.2076 253.359 82.8097 257.672 84.0699 261.971C85.134 265.598 85.3721 269.604 85.218 273.413C84.98 279.897 86.5622 286.073 87.5283 292.361C88.8725 301.128 90.3427 309.853 90.8467 318.773C91.2808 326.42 91.9949 334.094 92.975 341.741C93.7031 347.441 94.7673 353.141 95.4114 358.868C96.3915 367.397 96.7975 375.982 97.6376 384.511C98.3517 391.849 97.8197 399.299 97.8197 406.694C97.8197 409.116 96.1114 410.377 94.3192 411.497C90.5807 413.85 86.4222 414.928 82.0816 415.068C79.0992 415.166 76.1449 415.194 73.2605 416.007C69.788 416.987 66.2176 416.945 62.6471 416.931C59.5387 416.917 56.4723 417.001 53.3499 417.673C46.9651 419.046 39.4461 414.312 38.0039 407.758C36.8418 402.506 33.6634 398.515 30.667 394.37C29.9669 393.417 29.8829 392.493 29.8689 391.471C29.8409 389.986 29.8689 388.488 29.8689 387.003C29.8549 380.323 28.5947 378.811 21.9299 377.452C21.0757 373.951 20.0536 370.492 19.8436 366.879L19.8296 366.893ZM65.4755 305.861C65.8255 301.534 65.2374 296.772 64.2713 292.123C62.8851 285.429 61.3449 278.721 56.7383 273.259C51.6417 267.223 44.7388 267.517 40.3562 274.085C38.536 276.816 37.1918 279.841 36.3797 283.034C33.0053 296.17 34.5455 309.012 38.9 321.63C40.2862 325.65 42.6105 329.123 45.943 331.798C50.4655 335.425 54.5121 335.117 58.6286 331.097C61.1769 328.619 62.5351 325.496 63.5152 322.205C65.0554 317.023 65.5735 311.701 65.4755 305.861ZM26.0324 369.12C25.5423 370.912 26.1444 372.019 26.3824 373.153C26.9145 375.814 27.7546 376.402 30.2749 376.164C39.2641 375.282 47.7212 365.492 47.5112 356.306C47.4691 354.625 47.1471 353.253 45.3269 352.986C43.4506 352.72 42.3025 353.645 41.8544 355.591C41.3784 357.608 40.7343 359.597 39.9922 361.529C37.8779 367.019 34.2934 369.372 28.3287 369.288C27.6146 369.288 26.8865 369.19 26.0464 369.12H26.0324Z" fill="#3C3C3C"/>
<g id="id1">
<g id="Vector">
<path d="M142.051 88.6656C141.827 93.8613 144.376 97.1243 148.828 99.6731C160.184 106.199 171.007 113.636 182.797 119.419C188.551 122.234 194.264 125.133 200.971 124.867C206.362 124.643 211.64 123.831 216.863 122.57C229.311 119.546 241.786 116.535 253.17 110.401C262.691 105.275 271.176 98.7909 278.023 90.3321C279.045 89.0717 279.941 87.6713 280.697 86.2288C282.252 83.2879 282.56 80.2909 280.697 77.322C280.235 76.5797 279.675 75.8375 279.815 74.7732C280.543 73.8068 281.649 74.241 282.602 74.241C295.875 74.409 309.065 75.4174 322.213 77.2659C330.32 78.4003 338.511 78.8625 346.562 80.389C356.531 82.2656 366.36 84.7023 375.812 88.3855C384.619 91.8166 391.004 97.6425 394.826 106.703C399.685 118.215 402.233 130.231 404.683 142.345C406.546 151.56 407.12 160.943 408.156 170.256C409.752 184.61 411.096 198.979 412.356 213.362C413.238 223.291 413.953 233.248 414.513 243.205C415.255 256.285 415.773 269.38 416.529 282.46C417.145 293.061 416.487 303.621 416.123 314.18C415.353 336.531 413.421 358.77 408.31 380.617C407.372 384.651 406.42 388.698 405.159 392.619C402.625 400.504 397.556 406.329 390.164 410.097C381.468 414.522 372.115 417.001 362.72 419.382C348.41 423.023 333.792 424.801 319.216 426.972C302.862 429.409 286.424 430.977 270 432.812C261.417 433.764 252.778 434.142 244.181 434.899C233.343 435.851 222.506 436.593 211.64 437.125C210.744 437.167 209.862 437.307 208.966 437.335C177.252 438.344 145.524 439.142 113.782 438.316C111.415 438.26 109.007 438.456 106.697 437.63C106.851 436.117 107.831 435.837 109.161 435.669C112.242 435.277 115.28 434.857 117.996 433.022C123.765 429.129 127.56 423.765 129.982 417.379C131.452 413.5 132.208 409.41 133.244 405.391C135.191 397.857 134.742 390.266 134.28 382.76C133.706 373.489 132.376 364.218 130.766 355.059C128.904 344.416 128.246 333.632 126.593 322.947C125.081 313.172 124.815 303.2 123.639 293.355C123.233 289.98 123.051 286.577 122.547 283.202C121.441 275.738 120.153 268.287 120.167 260.711C120.167 259.52 120.237 258.302 120.041 257.14C118.612 248.387 117.282 239.62 115.616 230.909C114.538 225.251 114.006 219.524 112.466 213.908C111.233 209.44 109.301 205.253 108.111 200.884C105.983 193.139 100.914 187.299 96.5455 181.011C94.8093 178.504 92.471 176.264 89.8107 174.541C83.6919 170.55 77.237 167.189 70.6562 164.052C67.1557 162.385 63.8933 160.383 60.8689 157.918C56.0803 154.025 52.9719 145.58 54.4981 139.544C58.3066 124.447 67.7298 113.762 81.3256 106.843C90.0487 102.404 99.3879 99.323 108.839 96.6762C114.538 95.0797 120.279 93.5672 126.075 92.3068C131.424 91.1444 136.563 89.0717 142.079 88.7216L142.051 88.6656ZM329.606 297.038C331.636 295.428 331.748 294.532 330.32 291.647C330.74 278.847 331.916 266.046 330.712 253.218C332.588 251.832 332.574 251.636 330.53 250.488C330.152 246.02 329.76 241.553 329.382 237.085C330.572 236.917 331.216 236.287 331.202 235.041C331.202 233.43 331.244 231.806 331.202 230.195C331.132 227.814 329.746 228.613 328.5 229.117C327.911 225.91 327.253 222.717 326.763 219.496C324.327 203.67 320.365 188.322 313.168 173.897C311.655 170.872 309.821 168.351 307.147 166.307C292.725 155.243 276.231 149.795 258.308 148.745C241.926 147.779 226.202 151.392 211.626 158.646C195.062 166.895 183.231 179.597 178.89 198.251C177.196 205.519 176.076 212.871 175.124 220.252C173.626 231.792 172.729 243.373 173.345 255.011C174.018 267.811 175.712 280.499 177.462 293.187C179.408 307.276 183.203 320.818 188.187 334.108C192.22 344.836 198.913 352.804 209.61 357.37C217.885 360.885 226.482 363.056 235.275 364.638C246.925 366.739 258.631 367.593 270.378 365.702C283.876 363.532 296.029 358.084 306.671 349.527C314.596 343.155 320.491 335.243 323.697 325.412C325.685 319.306 327.547 313.2 328.598 306.87C330.796 304.965 330.95 303.579 329.41 299.741C329.48 298.845 329.55 297.963 329.62 297.066L329.606 297.038Z" fill="#F1A680"/>
<path d="M315.744 607.448C322.017 607.798 327.323 608.078 332.63 608.4C345.61 609.199 358.211 611.775 370.617 615.669C375.112 617.083 377.296 619.758 377.716 624.197C379.284 640.681 377.03 656.534 369.861 671.561C369.693 671.925 369.343 672.205 368.811 672.835C367.831 671.154 367.047 669.628 366.094 668.2C358.715 657.234 348.858 651.422 335.192 652.781C330.348 653.271 325.391 652.459 320.631 651.254C310.269 648.621 299.852 646.128 290.177 641.395C287.32 639.995 285.08 637.866 283.176 635.471C281.496 633.356 282.056 632.068 284.618 631.2C286.914 630.415 289.309 630.387 291.689 630.527C294.069 630.654 296.435 630.934 298.802 631.102C305.915 631.592 310.633 628.931 313.49 622.587C314.568 620.192 315.31 617.657 316.122 615.151C316.864 612.854 317.186 610.515 315.758 607.462L315.744 607.448Z" fill="#F1A680"/>
<path d="M342.249 459.799C349.53 459.589 356.307 460.289 363.098 461.353C367.705 462.081 370.071 463.454 370.533 470.134C370.855 474.77 370.477 479.433 369.469 483.9C367.733 491.575 365.576 499.179 361.684 506.14C359.346 510.327 357.735 511.307 353.031 510.243C340.233 507.344 327.912 503.003 315.926 497.695C309.135 494.684 302.484 491.351 295.693 488.298C292.529 486.883 290.947 484.643 290.387 481.24C288.958 472.627 293.761 465.485 302.736 463.468C308.253 462.235 313.84 461.255 319.482 460.975C327.211 460.597 334.884 459.295 342.235 459.785L342.249 459.799Z" fill="#F1A680"/>
<path d="M170.923 591.329C172.771 591.189 173.822 592.155 174.074 594.116C174.326 595.936 174.074 597.701 173.443 599.381C172.659 601.468 171.861 603.569 170.909 605.586C168.557 610.557 169.495 615.137 172.337 619.534C174.718 623.203 177.798 626.2 181.046 629.071C183.819 631.536 183.889 631.592 182.391 635.023C177.588 646.016 171.217 656.044 163.726 665.385C159.442 670.734 155.143 676.07 149.836 680.482C149.15 681.056 148.492 681.672 147.736 682.134C146.504 682.89 145.594 682.806 145.104 681.14C142.541 672.513 137.235 665.497 131.592 658.719C130.066 656.884 130.136 655.722 131.564 653.789C137.305 646.003 140.735 637.488 139.027 627.516C138.649 625.29 138.257 623.007 137.053 621.159C135.667 619.03 136.437 617.671 137.739 616.019C142.835 609.535 148.758 603.933 155.353 598.975C158.588 596.553 161.934 594.354 165.63 592.715C167.255 591.987 168.907 591.273 170.909 591.301L170.923 591.329Z" fill="#F1A680"/>
<path d="M98.4078 495.076C113.544 484.573 129.87 476.898 147.876 470.232C147.05 472.067 146.602 473.061 146.168 474.055C142.626 482.122 147.764 488.564 154.513 490.132C157.916 490.917 157.495 490.931 157.986 494.194C159.232 502.596 155.913 509.024 150.551 515.116C145.524 520.816 140.791 526.782 134.645 531.32C130.808 534.149 130.43 533.798 129.954 529.135C128.82 518.267 124.479 509.122 115.294 502.708C113.824 501.686 112.382 500.636 110.897 499.655C107.145 497.205 103.35 494.866 98.4218 495.062L98.4078 495.076Z" fill="#F1A680"/>
<path d="M334.45 686.405C331.258 686.587 327.323 686.027 323.389 685.019C321.079 684.431 320.014 683.184 319.454 680.86C318.53 677.008 318.11 672.989 319.09 669.362C320.351 664.656 323.725 660.973 328.528 659.391C337.447 656.464 346.17 656.758 354.025 662.57C358.786 666.099 362.076 670.832 364.358 676.308C365.296 678.577 364.61 679.977 362.706 681.112C360.76 682.26 358.66 682.974 356.489 683.506C349.53 685.187 342.487 686.251 334.45 686.419V686.405Z" fill="#F1A680"/>
<path d="M91.9669 624.001C99.0098 615.347 107.481 612.826 117.436 615.011C121.651 615.935 125.487 617.853 129.142 620.262C132.642 622.573 134.154 625.864 134.154 629.673C134.154 636.759 132.74 643.552 128.19 649.322C126.327 651.674 126.257 651.73 124.199 649.56C118.976 644.07 113.656 638.692 107.845 633.805C103.168 629.869 98.1837 626.424 91.9529 624.001H91.9669Z" fill="#F1A680"/>
<path d="M75.1648 528.995C75.1648 522.623 80.0514 516.475 85.5681 515.285C86.6183 515.06 87.7944 514.948 88.5645 515.691C90.1467 517.245 91.729 518.884 92.9891 520.69C94.2213 522.469 93.3811 524.485 91.2669 525.326C90.4548 525.648 89.5587 525.872 88.6766 525.928C85.2461 526.138 82.5578 527.006 82.4177 531.236C82.3617 532.832 81.1436 533.896 79.4073 534.023C77.5171 534.149 76.2709 533.126 75.6269 531.474C75.2628 530.521 75.2488 529.443 75.1788 528.995H75.1648Z" fill="#F1A680"/>
<path d="M400.189 512.862C401.183 509.445 402.079 506.476 402.877 503.479C403.213 502.232 403.801 501.588 405.075 502.134C409.584 504.039 414.107 505.943 418.573 507.932C420.085 508.604 421.471 509.557 421.191 511.601C420.897 513.688 419.315 515.34 416.935 515.452C411.278 515.719 405.649 515.565 400.175 512.862H400.189Z" fill="#F1A680"/>
<path d="M79.8973 561.121C79.8973 556.36 81.5636 552.607 83.7339 549.021C84.616 547.579 85.5681 547.313 86.9122 548.601C87.8644 549.512 88.9985 550.268 90.1467 550.912C94.4452 553.335 94.4732 553.307 92.2609 557.914C91.3648 559.777 90.4267 561.625 89.3906 563.432C87.5003 566.723 85.162 567.969 82.5857 567.003C79.5473 565.855 79.6313 563.278 79.8973 561.135V561.121Z" fill="#F1A680"/>
<path d="M64.4813 548.993C65.6435 544.974 67.9958 540.577 72.4763 537.846C74.6746 536.501 76.7329 538.322 78.4691 539.582C79.4912 540.325 80.0233 541.711 80.8074 542.761C81.1995 543.293 81.4375 543.896 80.9194 544.33C77.489 547.299 75.8508 552.018 71.3842 553.993C69.788 554.693 68.3318 556.122 66.4696 555.071C64.5093 553.965 64.4393 551.962 64.4673 548.979L64.4813 548.993Z" fill="#F1A680"/>
<path d="M368.895 515.565C374.621 516.391 379.872 517.147 385.109 517.917C385.543 517.987 386.019 518.029 386.369 518.254C387.727 519.122 387.853 523.967 386.621 526.236C385.543 528.211 384.087 528.729 381.776 527.959C377.884 526.642 371.415 520.564 368.881 515.565H368.895Z" fill="#F1A680"/>
<path d="M406.924 492.051C405.957 490.371 406.518 488.858 406.336 487.43C405.929 484.265 406.168 481.604 410.2 480.931C411.614 480.693 412.748 479.447 413.63 478.257C414.639 476.912 415.829 476.254 417.425 477.08C418.951 477.864 420.015 479.027 419.917 480.917C419.805 483.06 419.147 485.035 417.607 486.519C414.597 489.446 410.998 491.253 406.924 492.065V492.051Z" fill="#F1A680"/>
<path d="M71.1603 520.34C69.9422 524.738 69.6762 528.239 70.1662 531.768C70.3062 532.734 69.9422 533.518 69.1301 534.051C67.2818 535.283 65.4476 536.501 63.5574 537.678C62.2552 538.476 60.925 538.266 59.9029 537.23C58.8388 536.137 58.2787 534.863 58.8808 533.196C60.925 527.469 64.9015 523.603 71.1464 520.326L71.1603 520.34Z" fill="#F1A680"/>
<path d="M120.293 546.949C119.018 550.982 118.43 554.161 116.932 557.032C116.456 557.928 115.7 558.698 114.972 559.441C113.74 560.687 112.199 561.331 110.505 560.743C108.811 560.169 108.713 558.516 108.601 557.032C108.377 554.161 107.761 552.845 111.625 551.71C114.44 550.884 116.876 549.077 120.307 546.949H120.293Z" fill="#F1A680"/>
<path d="M410.956 468.832C411.194 471.927 410.088 474.363 407.358 475.932C406.574 476.38 405.411 476.758 405.145 475.582C404.655 473.327 403.017 471.745 402.177 469.7C401.337 467.669 402.611 466.605 403.885 465.583C405.369 464.392 406.938 462.754 409.024 463.748C411.082 464.714 410.956 466.899 410.956 468.846V468.832Z" fill="#F1A680"/>
</g>
</g>
<g id="id2">
<g id="Vector_2">
<path d="M142.051 88.6657C136.535 89.0298 131.396 91.0884 126.047 92.2508C120.265 93.5112 114.524 95.0237 108.811 96.6202C99.3739 99.2671 90.0207 102.348 81.2976 106.787C67.7158 113.72 58.2786 124.391 54.4701 139.488C52.9579 145.524 56.0663 153.969 60.8409 157.862C63.8653 160.327 67.1278 162.329 70.6282 163.996C77.2091 167.133 83.6779 170.494 89.7827 174.485C92.429 176.208 94.7673 178.448 96.5176 180.955C100.886 187.243 105.969 193.083 108.083 200.828C109.287 205.211 111.219 209.398 112.438 213.852C113.978 219.468 114.51 225.195 115.588 230.853C117.254 239.564 118.584 248.331 120.013 257.084C120.209 258.246 120.139 259.464 120.139 260.655C120.125 268.245 121.413 275.682 122.519 283.146C123.023 286.507 123.205 289.91 123.611 293.299C124.787 303.144 125.067 313.102 126.565 322.891C128.204 333.562 128.862 344.346 130.738 355.003C132.348 364.162 133.678 373.433 134.252 382.704C134.715 390.21 135.163 397.801 133.216 405.335C132.18 409.341 131.438 413.444 129.954 417.323C127.518 423.723 123.737 429.073 117.968 432.966C115.252 434.801 112.214 435.235 109.133 435.613C107.789 435.781 106.809 436.061 106.669 437.574C95.9155 438.036 85.2881 436.677 74.6467 435.333C69.7601 434.717 65.0275 433.582 60.3509 432.042C55.9123 430.571 52.2998 427.995 48.9114 424.872C49.8915 423.513 51.0117 423.947 51.9638 423.933C61.485 423.709 71.0063 423.261 80.4715 422.155C85.3301 421.595 90.1467 420.656 94.8373 419.074C101.306 416.889 104.513 412.338 104.849 405.741C105.395 394.72 105.325 383.712 103.77 372.747C102.118 361.109 100.746 349.443 99.5139 337.764C97.9457 322.975 96.1395 308.214 94.4593 293.439C93.5492 285.457 92.7651 277.46 91.7289 269.492C90.3848 259.17 88.7886 248.891 87.4164 238.584C86.6883 233.108 85.6101 227.744 83.6079 222.563C81.5216 217.157 78.1192 213.46 72.1264 212.591C68.0239 211.989 63.9493 211.443 59.7488 211.695C47.1192 212.437 34.6856 214.916 22.0559 215.742C18.0794 216.009 14.0889 216.611 10.2244 217.843C7.56406 218.697 6.86397 218.263 6.69594 215.658C5.89784 203.629 5.37977 191.627 6.12186 179.527C6.68194 170.298 8.51618 161.307 9.58031 152.176C10.1124 147.667 12.4927 143.633 14.4949 139.572C17.5193 133.424 20.4317 127.248 25.1783 122.122C32.7253 113.972 42.1345 108.58 52.0058 103.973C64.4674 98.1607 77.7271 94.7156 91.0008 91.3265C98.3518 89.4499 105.717 87.7134 113.194 86.453C121.987 84.9685 130.766 83.442 139.559 82.0135C142.443 81.5514 142.5 81.6634 142.444 84.6464C142.416 85.9768 142.177 87.2932 142.037 88.6236L142.051 88.6657Z" fill="#D68E74"/>
<path d="M306.965 448.273C306.979 449.015 307.021 449.757 307.021 450.5C306.923 456.578 306.825 456.704 301.126 458.44C300.412 458.65 299.586 458.734 299.026 459.154C294.881 462.179 290.709 461.017 286.424 459.491C278.863 456.788 271.274 454.183 263.685 451.536C260.717 450.5 257.692 449.939 254.528 449.841C249.921 449.715 246.421 453.062 245.455 456.452C244.167 460.933 245.973 465.989 249.809 468.103C252.526 469.616 255.438 470.806 258.364 471.899C266.163 474.825 273.991 477.682 281.846 480.427C284.128 481.226 285.514 482.164 285.976 484.909C286.508 488.074 288.944 490.384 291.801 491.897C294.321 493.241 295.147 495.104 294.335 497.779C292.067 505.285 293.089 512.834 294.223 520.312C295.427 528.239 296.827 536.151 298.466 544.008C299.418 548.545 298.466 552.887 298.088 557.312C288.734 563.18 278.541 566.863 267.76 568.992C263.237 567.241 258.729 565.575 253.73 567.185C251.49 567.913 249.697 569.622 247.331 570C245.441 569.608 243.565 569.216 241.674 568.81C236.438 567.689 231.187 566.387 226.384 564.174C217.409 560.043 210.366 553.587 205.564 544.75C203.365 540.703 201.601 536.473 199.249 532.482C196.925 528.547 193.732 526.978 189.392 526.88C184.953 526.782 184.015 525.774 183.749 521.32C183.595 518.814 184.085 516.265 183.133 513.8C182.615 512.47 183.189 511.475 184.561 511.027C186.689 510.355 188.789 509.627 190.946 509.066C194.866 508.058 197.457 505.607 198.843 501.882C200.089 498.549 201.307 495.188 202.427 491.813C206.964 478.159 215.841 467.809 227.266 459.519C234.883 453.987 243.229 449.968 252.302 447.139C259.793 444.8 267.298 443.708 275.055 443.792C280.697 443.848 286.312 443.707 291.955 444.506C297.136 445.234 302.148 446.256 306.993 448.231L306.965 448.273Z" fill="#D68E74"/>
<path d="M65.4756 305.861C65.5596 311.715 65.0555 317.037 63.5153 322.205C62.5352 325.51 61.191 328.619 58.6287 331.097C54.5122 335.103 50.4657 335.425 45.9431 331.798C42.6106 329.123 40.2863 325.65 38.9002 321.63C34.5456 309.012 33.0054 296.17 36.3798 283.034C37.1919 279.841 38.5361 276.816 40.3563 274.085C44.7529 267.503 51.6418 267.223 56.7384 273.259C61.345 278.721 62.8852 285.415 64.2714 292.123C65.2376 296.772 65.8256 301.534 65.4756 305.861Z" fill="#D68E74"/>
<path d="M26.0325 369.12C26.8726 369.19 27.6007 369.274 28.3148 369.288C34.2796 369.372 37.864 367.033 39.9783 361.529C40.7204 359.597 41.3645 357.608 41.8405 355.591C42.3026 353.645 43.4368 352.72 45.313 352.986C47.1332 353.253 47.4553 354.625 47.4973 356.306C47.7073 365.479 39.2502 375.268 30.2611 376.164C27.7547 376.416 26.9006 375.814 26.3686 373.153C26.1445 372.005 25.5285 370.898 26.0185 369.12H26.0325Z" fill="#D68E74"/>
</g>
</g>
<g id="id4">
<g id="Vector_3">
<path d="M19.8295 366.893C17.3232 359.387 16.2171 351.558 14.8309 343.828C12.5486 331.083 10.4763 318.283 8.88011 305.427C6.76584 288.286 4.95959 271.102 3.68543 253.863C3.02734 244.928 2.76133 236.007 2.76133 227.058C2.76133 222.703 1.50116 218.529 1.0531 214.23C-0.641115 197.845 -0.207059 181.501 1.75319 165.158C3.3774 151.588 7.1999 138.788 14.4388 127.136C19.2835 119.335 25.2902 112.683 33.2153 107.754C37.6398 104.995 41.9524 102.068 46.783 100.079C48.6173 99.3231 49.0513 98.2587 48.8553 96.2981C47.7911 85.1785 46.559 74.0589 46.769 62.8554C46.923 54.0605 47.5251 45.2937 49.4014 36.667C49.7234 35.2105 50.0874 33.754 50.6055 32.3816C52.9018 26.2896 55.1281 24.8472 61.681 24.9872C76.9989 25.3093 91.2388 29.6087 104.961 36.1908C119.032 42.941 131.018 52.254 141.071 64.1438C141.351 64.4659 141.715 64.7179 142.387 65.3061C143.396 63.4155 143.045 61.4969 143.199 59.7183C144.6 43.9633 147.204 28.4183 151.419 13.1674C152.175 10.4646 153.379 7.87372 154.429 5.25488C155.955 1.48767 158.728 -0.0808315 162.83 0.0031955C178.162 0.325299 192.976 3.04217 207.272 8.71399C221.778 14.4698 235.345 21.8782 247.205 32.0175C258.182 41.4005 267.662 52.1839 274.662 64.928C276.049 67.4488 277.561 68.6112 280.543 68.5552C300.58 68.1491 320.378 70.9079 340.163 73.4428C348.41 74.4931 356.615 76.1876 364.582 78.6804C370.169 80.431 375.91 81.6914 381.23 84.3943C388.959 88.3155 394.854 93.8333 398.775 101.564C402.639 109.182 405.285 117.221 407.274 125.497C407.218 126.66 407.05 127.836 407.904 128.831C407.988 129.195 408.072 129.545 408.156 129.909C408.002 130.833 407.988 131.729 408.576 132.528C412.132 149.781 413.686 167.287 415.423 184.792C416.921 199.763 418.293 214.748 419.553 229.733C420.645 242.785 420.757 255.935 421.653 269.016C423.278 292.893 421.989 316.673 420.127 340.466C418.979 355.199 416.627 369.736 413.504 384.16C412.538 388.656 411.18 393.081 409.36 397.353C405.481 406.456 398.915 412.66 389.911 416.665C380.88 420.684 371.317 422.785 361.796 425.152C346.618 428.919 331.23 431.468 315.702 433.26C313.952 433.456 312.243 433.932 310.479 434.297C310.577 437.181 311.795 439.646 312.215 442.279C312.803 445.976 312.957 449.701 312.607 453.427C312.411 455.555 313.041 456.494 315.282 456.214C319.118 455.751 322.983 455.387 326.833 454.981C338.595 453.735 350.342 453.791 362.034 455.611C365.968 456.228 370.001 457.152 372.535 460.835C373.207 461.815 374.145 462.011 375.265 461.913C381.734 461.339 387.965 462.656 394.056 464.658C395.932 465.274 397.136 465.134 398.256 463.524C398.929 462.544 399.741 461.661 400.581 460.807C403.171 458.146 406.307 457.096 409.934 458.034C413.546 458.972 414.989 461.871 415.899 465.148C416.053 465.709 416.179 466.339 416.123 466.913C415.815 469.91 416.739 471.548 420.001 472.529C424.762 473.957 426.554 478.327 425.392 483.298C423.866 489.81 419.035 493.087 413.462 495.636C412.16 496.224 410.76 496.617 408.8 497.303C411.292 499.151 413.504 500.034 415.787 500.818C417.901 501.532 420.029 502.232 421.877 503.507C425.07 505.691 426.722 508.688 426.344 512.652C425.98 516.419 423.46 518.394 420.281 519.71C415.829 521.545 411.194 521.138 406.63 520.41C403.703 519.948 400.861 519.01 397.976 518.253C396.072 517.749 394.196 517.413 392.222 518.422C392.306 520.172 392.572 521.951 392.446 523.701C391.9 532.006 384.773 535.913 377.45 532.02C371.905 529.065 367.732 524.696 364.33 519.514C363.35 518.029 362.44 516.489 361.362 514.766C354.627 517.749 348.41 514.864 342.081 512.932C328.121 508.66 314.526 503.493 301.462 496.925C301.252 496.813 300.916 496.967 300.356 497.009C298.984 503.213 298.648 509.501 299.446 515.901C300.454 523.897 302.386 531.712 303.618 539.652C306.223 556.402 302.568 571.611 292.067 585.055C291.619 585.629 291.241 586.245 290.583 587.198C293.971 589.578 297.191 591.903 300.468 594.172C303.898 596.539 307.399 598.807 310.815 601.202C312.201 602.182 313.49 602.687 315.31 602.518C325.923 601.51 336.48 602.701 346.926 604.325C355.789 605.712 364.568 607.686 373.025 610.935C378.542 613.05 381.776 616.677 382.742 622.573C384.619 634.113 383.541 645.442 380.81 656.702C378.906 664.572 375.952 671.953 371.779 678.955C369.427 682.918 366.556 685.859 362.23 687.148C351.056 690.481 339.729 693.38 327.967 691.573C315.688 689.682 313.826 686.545 313.153 675.384C312.719 668.172 314.848 661.87 321.667 657.024C317.242 655.932 313.602 654.923 309.919 654.139C302.148 652.487 294.839 649.644 287.754 646.128C285.332 644.924 283.162 643.37 281.103 641.647C278.737 639.672 277.015 637.18 276.847 634.057C276.721 631.9 275.881 630.485 274.256 629.211C264.959 621.887 256.474 613.764 250.075 603.709C249.249 602.42 248.269 601.916 246.785 601.93C239.602 602.014 232.531 601.02 225.502 599.648C223.64 599.283 222.548 599.956 221.386 601.426C213.769 611.075 204.793 619.324 194.88 626.564C191.478 629.043 188.999 631.886 187.613 636.227C184.869 644.784 179.478 652.094 174.69 659.629C169.803 667.317 163.908 674.249 157.635 680.86C153.883 684.809 149.626 687.932 144.376 689.654C141.701 690.537 139.195 690.495 136.521 689.71C130.584 687.974 125.151 685.145 120.251 681.518C106.137 671.057 94.9773 658.046 87.3603 642.109C85.274 637.754 83.9158 633.258 84.1258 628.343C84.1959 626.494 84.5179 624.758 85.596 623.287C90.8187 616.075 97.1615 610.501 106.319 608.933C114.02 607.616 121.063 609.577 127.797 613.106C128.974 613.722 130.038 614.548 131.144 615.277C138.047 606.244 145.818 598.289 155.283 592.127C159.792 589.186 164.524 586.665 169.985 586.021C170.909 585.909 171.679 585.657 172.435 585.097C175.922 582.562 179.464 580.083 183.245 577.408C166.512 559.791 162.018 537.384 158.769 514.472C156.949 514.962 156.515 516.377 155.689 517.343C151.559 522.231 147.778 527.44 143.073 531.824C138.999 535.619 134.7 539.078 128.792 539.386C126.929 539.484 126.117 540.605 125.865 542.187C125.571 543.952 125.543 545.744 125.333 547.523C124.661 553.069 123.289 558.348 119.368 562.634C118.024 564.104 116.498 565.253 114.608 565.841C109.357 567.465 104.611 565.014 103.798 560.309C103.518 558.698 103.238 557.088 102.93 555.491C102.79 554.763 102.608 553.965 101.698 553.853C100.76 553.727 99.9479 553.951 99.5418 554.973C99.2198 555.8 98.8418 556.612 98.4357 557.41C96.7695 560.729 95.2573 564.146 93.353 567.339C90.7207 571.737 86.4081 573.543 81.9836 572.479C77.559 571.415 74.8006 567.857 74.3666 562.634C74.2826 561.611 74.2406 560.589 74.1426 559.203C69.3539 560.687 64.5233 561.947 61.0508 557.284C57.8584 552.999 58.8386 548.265 60.5608 543.574C59.6927 543.153 58.8806 542.803 58.1245 542.369C53.9239 539.904 52.4537 536.515 53.6019 531.81C55.3241 524.71 60.5748 520.522 66.4135 517.091C69.1999 515.453 71.6362 513.954 73.6525 511.181C77.363 506.07 82.8237 502.736 88.1304 499.403C89.9506 498.255 91.3508 497.205 91.7848 494.81C92.3309 491.841 94.8932 490.16 97.2455 488.578C102.566 485.007 108.083 481.758 113.768 478.831C123.303 473.929 133.09 469.616 143.115 465.835C145.944 464.77 148.786 463.958 151.825 464.252C153.967 464.462 155.507 463.664 156.837 462.053C157.691 461.031 158.699 460.121 159.694 459.225C165.392 454.015 165.938 453.091 168.235 444.492C165.392 444.492 162.606 444.408 159.82 444.492C140.889 445.108 121.959 444.31 103.042 443.708C90.2306 443.301 77.517 441.915 64.9154 439.268C54.9461 437.181 47.1611 432.014 40.8462 424.213C34.9375 416.917 31.283 408.444 28.1326 399.761C25.4863 392.493 23.246 385.099 21.8738 377.452C28.5387 378.797 29.7988 380.309 29.8128 387.003C29.8128 388.488 29.7988 389.986 29.8128 391.471C29.8268 392.493 29.9248 393.403 30.6109 394.37C33.6073 398.515 36.7857 402.492 37.9479 407.758C39.39 414.312 46.909 419.046 53.2939 417.673C56.4023 417.001 59.4687 416.917 62.5911 416.931C66.1615 416.945 69.718 416.987 73.2044 416.007C76.0888 415.194 79.0432 415.18 82.0256 415.068C86.3661 414.914 90.5387 413.836 94.2631 411.497C96.0554 410.377 97.7636 409.116 97.7636 406.694C97.7636 399.299 98.2957 391.835 97.5816 384.511C96.7555 375.968 96.3354 367.397 95.3553 358.868C94.6972 353.141 93.6471 347.441 92.919 341.741C91.9389 334.094 91.2248 326.42 90.7907 318.773C90.2866 309.867 88.8165 301.142 87.4723 292.361C86.5062 286.073 84.9239 279.897 85.162 273.413C85.302 269.604 85.064 265.598 84.0138 261.971C82.7537 257.658 82.1656 253.344 81.5355 248.961C81.1155 246.034 81.5355 242.827 80.2893 240.236C79.1692 237.912 78.8892 235.727 79.0432 233.374C79.2252 230.629 78.5531 228.052 77.951 225.462C77.0409 221.582 75.8508 220.294 71.9443 220.154C65.5454 219.916 59.0626 219.454 52.7618 220.266C44.9348 221.26 37.0798 220.728 29.2527 221.652C23.82 222.297 18.4154 222.423 13.2627 224.537C10.5323 225.672 9.42618 227.17 9.16014 230.195C8.61407 236.539 10.4203 242.869 9.20215 249.199C9.17414 249.339 9.18815 249.507 9.23016 249.647C10.5043 253.569 9.91624 257.616 10.0563 261.607C10.1123 263.092 10.1543 264.576 10.3363 266.047C10.8124 269.856 11.5545 273.651 11.8205 277.474C12.2266 283.692 13.3047 289.826 14.4808 295.89C16.007 303.747 16.8191 311.715 17.7713 319.586C18.7654 327.834 20.0536 335.985 21.6778 344.094C23.0779 351.054 22.8119 357.944 21.7478 364.89C21.5518 366.165 20.9217 366.711 19.7735 366.893H19.8295ZM247.303 570.028C249.669 569.65 251.461 567.941 253.702 567.213C258.7 565.589 263.209 567.255 267.732 569.02C270.728 571.176 273.864 573.067 276.749 575.434C279.283 577.521 281.565 579.817 283.946 582.03C285.15 583.15 286.172 583.374 287.32 582.058C290.148 578.809 292.921 575.434 294.377 571.372C295.903 567.087 296.729 562.55 298.676 558.376C298.774 558.166 298.284 557.69 298.06 557.34C298.424 552.915 299.39 548.573 298.438 544.036C296.799 536.179 295.399 528.281 294.195 520.34C293.061 512.848 292.025 505.299 294.307 497.807C295.119 495.132 294.293 493.255 291.773 491.925C288.916 490.413 286.48 488.102 285.948 484.937C285.486 482.192 284.1 481.254 281.817 480.455C273.962 477.696 266.135 474.854 258.336 471.927C255.424 470.834 252.498 469.63 249.781 468.131C245.945 466.003 244.139 460.961 245.427 456.48C246.393 453.091 249.893 449.743 254.5 449.87C257.678 449.954 260.703 450.528 263.657 451.564C271.246 454.197 278.835 456.802 286.396 459.519C290.667 461.045 294.853 462.222 298.998 459.183C299.572 458.762 300.398 458.692 301.098 458.468C306.797 456.732 306.895 456.606 306.993 450.528C306.993 449.786 306.965 449.043 306.937 448.301C307.371 444.52 306.363 440.949 305.382 437.35C304.85 435.389 303.702 434.661 301.756 435.053C296.953 435.991 291.969 435.963 287.222 436.873C276.679 438.904 265.939 438.442 255.396 440.122C248.073 441.285 240.61 441.341 233.231 441.817C221.092 442.615 208.91 442.923 196.756 443.708C190.386 444.114 183.987 443.68 177.616 444.604C175.726 444.884 174.69 445.528 173.891 447.153C169.537 456.074 167.647 465.723 165.882 475.344C165.196 479.069 165.126 483.046 164.608 486.827C163.222 496.981 164.048 506.952 165.518 516.979C166.372 522.847 167.297 528.701 168.347 534.541C169.971 543.56 173.429 551.878 177.616 559.945C181.228 566.919 186.563 572.465 192.01 578.011C198.241 584.355 205.9 588.15 213.909 591.413C215.953 592.239 218.179 592.869 220.363 593.051C223.64 593.332 226.804 593.99 229.997 594.746C234.211 595.74 238.51 596.076 242.836 595.922C244.755 595.852 245.679 595.208 244.979 593.177C244.783 592.617 244.643 592.043 244.517 591.455C243.06 584.481 242.304 577.604 246.925 571.344C247.177 571.008 247.177 570.49 247.289 570.07L247.303 570.028ZM106.697 437.616C109.007 438.442 111.415 438.232 113.782 438.302C145.524 439.142 177.238 438.344 208.966 437.321C209.862 437.293 210.744 437.153 211.64 437.111C222.506 436.579 233.343 435.837 244.181 434.885C252.778 434.128 261.417 433.75 270 432.798C286.41 430.963 302.862 429.409 319.216 426.958C333.792 424.787 348.41 423.009 362.72 419.368C372.115 416.987 381.468 414.508 390.163 410.083C397.556 406.316 402.625 400.49 405.159 392.605C406.419 388.67 407.372 384.623 408.31 380.603C413.406 358.756 415.339 336.517 416.123 314.166C416.487 303.607 417.145 293.047 416.529 282.446C415.773 269.366 415.269 256.271 414.513 243.191C413.938 233.234 413.224 223.277 412.356 213.348C411.082 198.965 409.738 184.582 408.156 170.242C407.12 160.929 406.545 151.546 404.683 142.331C402.233 130.217 399.671 118.201 394.826 106.689C391.004 97.6425 384.619 91.8166 375.812 88.3715C366.36 84.6884 356.531 82.2516 346.562 80.375C338.497 78.8625 330.306 78.4004 322.213 77.252C309.065 75.4034 295.861 74.3951 282.602 74.227C281.649 74.227 280.543 73.7929 279.815 74.7592C279.675 75.8375 280.235 76.5658 280.697 77.308C282.56 80.2909 282.265 83.2879 280.697 86.2149C279.941 87.6573 279.045 89.0578 278.023 90.3182C271.176 98.7769 262.677 105.261 253.17 110.387C241.786 116.521 229.311 119.532 216.863 122.557C211.654 123.817 206.362 124.643 200.971 124.853C194.264 125.119 188.537 122.234 182.797 119.405C171.007 113.622 160.184 106.185 148.828 99.6592C144.39 97.1104 141.827 93.8473 142.051 88.6516C142.191 87.3212 142.443 86.0048 142.457 84.6744C142.513 81.6914 142.457 81.5794 139.573 82.0415C130.78 83.47 121.987 84.9965 113.208 86.4809C105.731 87.7413 98.3657 89.4779 91.0147 91.3545C77.741 94.7296 64.4813 98.1887 52.0197 104.001C42.1484 108.608 32.7392 114 25.1922 122.15C20.4456 127.276 17.5332 133.452 14.5088 139.6C12.5066 143.661 10.1123 147.695 9.5942 152.204C8.53006 161.335 6.69582 170.326 6.13575 179.555C5.39365 191.655 5.92572 203.657 6.70983 215.686C6.87785 218.291 7.56394 218.725 10.2383 217.871C14.1028 216.639 18.0933 216.037 22.0698 215.77C34.6994 214.944 47.1331 212.465 59.7627 211.723C63.9772 211.471 68.0378 212.017 72.1403 212.619C78.1191 213.488 81.5355 217.185 83.6218 222.591C85.61 227.772 86.7022 233.122 87.4303 238.612C88.8025 248.919 90.3986 259.212 91.7428 269.52C92.779 277.488 93.5631 285.485 94.4732 293.467C96.1674 308.242 97.9736 323.003 99.5278 337.792C100.76 349.471 102.146 361.151 103.784 372.775C105.339 383.74 105.409 394.748 104.863 405.769C104.54 412.379 101.32 416.917 94.8512 419.102C90.1606 420.684 85.358 421.622 80.4854 422.183C71.0202 423.289 61.4989 423.723 51.9777 423.961C51.0256 423.989 49.9054 423.541 48.9253 424.9C52.2997 428.023 55.9122 430.613 60.3648 432.07C65.0414 433.61 69.774 434.745 74.6606 435.361C85.302 436.705 95.9294 438.064 106.683 437.602L106.697 437.616ZM167.311 6.68333C169.887 10.6186 171.651 14.2458 173.219 17.9149C180.976 36.1208 187.417 54.8028 192.346 73.9889C195.93 87.9374 199.179 101.97 199.683 116.451C199.753 118.369 200.551 119.181 202.399 119.041C203.883 118.929 205.382 118.943 206.824 118.621C214.063 117.025 221.344 115.526 228.512 113.622C239.196 110.779 249.515 107.04 258.574 100.429C264.609 96.018 270.14 91.1304 274.662 85.1225C276.091 83.2319 276.175 81.4113 275.293 79.2826C273.374 74.5911 271.134 70.1097 268.586 65.7123C258.896 48.9489 245.105 36.1768 229.045 25.8975C214.539 16.6125 198.577 10.4786 181.55 7.46759C177.112 6.68334 172.617 5.40892 167.311 6.68333ZM315.744 607.448C317.172 610.501 316.836 612.84 316.108 615.137C315.31 617.643 314.554 620.178 313.476 622.573C310.619 628.917 305.915 631.592 298.788 631.088C296.407 630.92 294.041 630.653 291.675 630.513C289.294 630.387 286.9 630.415 284.604 631.186C282.041 632.054 281.481 633.342 283.162 635.457C285.08 637.866 287.32 639.994 290.163 641.381C299.852 646.128 310.269 648.607 320.616 651.24C325.377 652.445 330.334 653.257 335.178 652.767C348.844 651.408 358.687 657.22 366.08 668.186C367.032 669.614 367.83 671.141 368.797 672.821C369.329 672.177 369.679 671.897 369.847 671.547C377.03 656.52 379.27 640.667 377.702 624.183C377.282 619.744 375.097 617.055 370.603 615.655C358.197 611.761 345.582 609.185 332.616 608.386C327.309 608.064 321.989 607.784 315.73 607.434L315.744 607.448ZM342.249 459.799C334.898 459.295 327.225 460.611 319.496 460.989C313.854 461.269 308.267 462.25 302.75 463.482C293.775 465.499 288.958 472.627 290.401 481.254C290.961 484.657 292.557 486.883 295.707 488.312C302.484 491.351 309.135 494.698 315.94 497.709C327.925 503.017 340.247 507.358 353.045 510.257C357.749 511.321 359.359 510.341 361.698 506.154C365.59 499.179 367.733 491.589 369.483 483.914C370.491 479.461 370.855 474.783 370.547 470.148C370.085 463.468 367.718 462.095 363.112 461.367C356.321 460.303 349.544 459.589 342.263 459.813L342.249 459.799ZM170.923 591.329C168.921 591.301 167.269 592.029 165.644 592.743C161.948 594.382 158.601 596.567 155.367 599.003C148.772 603.947 142.863 609.563 137.753 616.047C136.451 617.699 135.694 619.058 137.067 621.186C138.257 623.035 138.663 625.318 139.041 627.545C140.749 637.502 137.319 646.03 131.578 653.817C130.15 655.75 130.08 656.912 131.606 658.747C137.249 665.525 142.541 672.541 145.118 681.168C145.608 682.834 146.518 682.918 147.75 682.162C148.506 681.7 149.164 681.084 149.85 680.51C155.143 676.098 159.442 670.748 163.74 665.413C171.231 656.072 177.602 646.044 182.405 635.051C183.903 631.634 183.833 631.564 181.06 629.099C177.812 626.228 174.718 623.217 172.351 619.562C169.495 615.165 168.571 610.571 170.923 605.613C171.875 603.597 172.659 601.496 173.457 599.409C174.087 597.715 174.325 595.95 174.087 594.144C173.821 592.183 172.771 591.217 170.937 591.357L170.923 591.329ZM142.639 75.4734C131.634 61.1468 119.074 49.0889 102.902 41.4425C90.4126 35.5326 77.279 31.5133 63.5992 30.3509C62.9411 31.6533 63.2772 32.3396 63.6692 32.9698C68.4158 40.5602 71.7202 48.8649 75.2767 57.0295C78.9032 65.3342 82.8097 73.5408 85.274 82.3216C86.3241 86.1028 87.0242 86.551 91.0147 85.6967C100.004 83.7921 108.951 81.7054 117.982 80.0249C124.535 78.8065 130.962 76.7338 137.753 76.9299C139.377 76.9719 140.875 76.3557 142.653 75.4594L142.639 75.4734ZM299.796 625.388C302.246 625.948 305.06 625.136 307.105 622.209C309.723 618.456 310.759 614.128 311.515 609.731C311.739 608.47 311.305 607.266 310.059 606.748C307.287 605.585 305.312 603.205 302.554 601.986C295.133 598.695 289.056 593.388 283.036 588.15C277.995 583.752 272.436 580.041 267.396 575.658C265.981 574.425 264.091 573.515 262.257 573.025C254.878 571.064 249.123 573.949 249.025 581.988C248.997 584.061 249.025 586.091 249.515 588.178C251.419 596.216 255.998 602.855 261.011 609.059C265.547 614.688 271.218 619.338 276.595 624.225C278.975 626.382 280.879 626.984 283.988 625.906C286.844 624.926 289.994 623.889 293.145 624.772C295.063 625.318 296.967 625.276 299.81 625.402L299.796 625.388ZM98.4077 495.076C103.336 494.88 107.131 497.219 110.883 499.67C112.382 500.65 113.824 501.7 115.28 502.722C124.479 509.137 128.82 518.281 129.94 529.149C130.43 533.798 130.794 534.163 134.63 531.334C140.791 526.796 145.524 520.83 150.536 515.13C155.899 509.038 159.218 502.61 157.971 494.208C157.481 490.931 157.901 490.931 154.499 490.146C147.75 488.578 142.611 482.136 146.154 474.069C146.588 473.075 147.036 472.081 147.862 470.246C129.842 476.912 113.516 484.573 98.3937 495.09L98.4077 495.076ZM84.3919 509.949C85.568 509.949 86.7582 510.019 87.9343 509.935C89.7546 509.809 91.1967 510.523 92.1629 511.937C93.5911 514.038 95.4253 515.789 97.0075 517.735C99.9479 521.362 99.0938 527.006 95.4533 529.653C93.9271 530.759 92.0369 530.563 90.3987 531.264C89.6146 531.6 88.4384 531.362 88.1724 532.412C87.5843 534.807 85.638 536.375 84.7139 538.546C84.6019 538.826 84.9379 539.4 85.204 539.708C91.8968 547.173 98.2117 551.038 108.783 546.879C113.866 544.876 117.828 541.347 121.749 537.622C124.507 535.003 125.109 532.146 124.465 528.771C123.317 522.763 121.847 516.937 117.366 512.288C113.516 508.296 109.511 504.515 104.288 502.512C101.586 501.476 98.6457 500.16 95.6493 501.294C91.1828 502.975 87.5283 505.944 84.3779 509.935L84.3919 509.949ZM193.032 118.061C193.872 116.226 193.536 114.728 193.564 113.286C193.704 108.51 192.934 103.79 192.08 99.141C189.587 85.5426 186.199 72.1823 182.125 58.9621C177.014 42.4368 171.315 26.2056 163.18 10.8987C162.508 9.63828 162.158 7.56563 160.52 7.67766C158.657 7.8037 158.727 10.1144 157.943 11.4729C157.733 11.837 157.789 12.3552 157.649 12.7753C155.493 19.2734 154.191 25.9955 152.679 32.6477C150.844 40.7703 149.668 48.9909 149.654 57.3376C149.654 58.528 149.626 59.7324 149.444 60.8947C147.988 70.3198 147.624 79.8148 147.75 89.3379C147.778 91.8447 148.8 93.4272 150.984 94.6876C160.912 100.373 170.769 106.213 180.668 111.955C184.617 114.252 188.663 116.353 193.018 118.075L193.032 118.061ZM366.374 509.459C368.111 509.949 369.651 510.411 371.205 510.803C377.296 512.33 383.597 511.433 389.771 512.484C393.272 513.072 395.47 510.845 396.478 506.784C397.584 502.33 398.592 497.849 399.685 493.395C400.917 488.396 401.617 483.27 400.231 478.019C399.265 474.391 397.318 471.731 394.07 470.344C389.155 468.243 384.045 466.633 378.542 466.969C375.125 467.179 374.831 467.375 375.56 470.568C375.896 472.053 376.022 473.509 375.938 474.994C375.49 483.648 373.347 491.939 370.631 500.118C369.567 503.339 367.032 505.874 366.36 509.473L366.374 509.459ZM334.45 686.405C342.487 686.237 349.53 685.173 356.489 683.492C358.659 682.974 360.774 682.246 362.706 681.098C364.61 679.963 365.296 678.563 364.358 676.294C362.076 670.804 358.785 666.085 354.025 662.556C346.17 656.744 337.461 656.45 328.527 659.377C323.725 660.945 320.35 664.642 319.09 669.348C318.11 672.989 318.53 676.994 319.454 680.846C320.014 683.17 321.078 684.417 323.389 685.005C327.323 686.013 331.258 686.573 334.45 686.391V686.405ZM217.101 598.289C207.86 595.516 200.005 591.903 193.032 586.329C191.058 584.747 189.643 581.526 186.717 581.96C183.959 582.366 182.027 584.971 179.548 586.315C179.17 586.525 178.834 586.847 178.526 587.17C177.952 587.744 177.756 588.346 178.288 589.13C181.648 594.144 180.15 599.045 177.868 603.905C176.916 605.922 175.866 607.882 175.194 610.025C174.83 611.201 174.578 612.378 175.152 613.498C177.252 617.629 179.632 621.551 183.343 624.478C184.939 625.738 186.619 625.794 188.299 624.716C189.419 623.987 190.54 623.245 191.562 622.377C197.134 617.713 202.805 613.162 208.168 608.274C211.29 605.417 213.881 601.958 217.115 598.317L217.101 598.289ZM140.007 684.795C138.341 679.123 136.759 673.997 133.51 669.446C131.256 666.281 128.4 663.676 126.047 660.609C122.519 656.03 118.696 651.674 114.86 647.347C109.007 640.723 101.81 635.681 94.5992 630.682C93.8711 630.177 93.087 629.743 92.2889 629.337C91.4628 628.917 90.5107 628.707 89.7266 629.211C88.7184 629.855 89.4465 630.794 89.6005 631.62C90.3146 635.471 92.3589 638.804 93.8291 642.361C99.4018 655.834 110.169 665.329 120.195 675.132C125.263 680.075 132.418 682.638 139.979 684.795H140.007ZM91.9669 624.001C98.1977 626.424 103.182 629.869 107.859 633.805C113.67 638.692 118.976 644.07 124.213 649.56C126.271 651.73 126.341 651.674 128.204 649.322C132.754 643.552 134.168 636.759 134.168 629.673C134.168 625.878 132.656 622.573 129.156 620.262C125.501 617.853 121.665 615.935 117.45 615.01C107.495 612.826 99.0098 615.333 91.9809 624.001H91.9669ZM56.3882 32.9838C54.162 39.4118 52.9718 45.4478 53.0558 51.7498C53.1258 56.9595 53.1398 62.1691 52.9998 67.3788C52.7618 76.3137 53.4759 85.1925 53.98 94.0994C54.036 95.0517 53.7279 96.4521 55.4081 96.2281C56.6963 96.06 57.5644 95.2618 57.4384 93.7773C57.4104 93.4832 57.3684 93.1891 57.3124 92.895C55.2681 81.9995 55.7162 70.992 55.8282 60.0124C55.8562 56.9175 56.4023 53.8085 56.7243 50.7135C56.8503 49.6071 57.3264 48.7108 58.5025 48.4167C59.7627 48.1086 60.9248 48.2767 61.6249 49.4811C62.521 51.0216 63.3892 52.5901 64.1033 54.2286C68.6398 64.5639 73.1484 74.9132 76.4389 85.7387C76.5649 86.1588 76.7329 86.579 76.9009 86.9851C77.433 88.2875 78.3711 88.8337 79.7293 88.3715C81.1015 87.9094 80.8774 86.747 80.5974 85.7667C80.1213 84.0442 79.4772 82.3776 78.9172 80.6831C74.0165 65.8103 66.2595 52.1839 60.2668 37.7873C59.5667 36.0928 58.6005 34.3422 56.3462 32.9838H56.3882ZM250.705 459.883C250.369 461.941 251.685 463.132 253.632 464.014C261.459 467.627 269.608 470.4 277.757 473.145C284.59 475.456 284.52 475.386 287.222 468.552C287.992 466.605 287.922 465.737 285.738 465.022C277.701 462.39 269.748 459.491 261.739 456.816C259.653 456.116 257.51 455.387 255.256 455.359C252.232 455.331 250.817 456.676 250.719 459.869L250.705 459.883ZM75.1647 528.995C75.2347 529.443 75.2487 530.535 75.6127 531.474C76.2568 533.126 77.489 534.149 79.3932 534.023C81.1155 533.91 82.3476 532.832 82.4036 531.236C82.5436 527.006 85.232 526.138 88.6624 525.928C89.5305 525.872 90.4407 525.648 91.2528 525.326C93.367 524.485 94.2211 522.469 92.975 520.69C91.7148 518.87 90.1466 517.245 88.5504 515.691C87.7943 514.948 86.6182 515.046 85.554 515.285C80.0373 516.489 75.1647 522.637 75.1507 528.995H75.1647ZM400.189 512.862C405.663 515.565 411.292 515.705 416.949 515.453C419.329 515.341 420.911 513.688 421.205 511.601C421.485 509.557 420.099 508.604 418.587 507.932C414.12 505.944 409.598 504.039 405.089 502.134C403.815 501.602 403.227 502.232 402.891 503.479C402.093 506.476 401.183 509.445 400.203 512.862H400.189ZM79.8973 561.121C79.6313 563.278 79.5612 565.841 82.5856 566.989C85.162 567.969 87.5003 566.723 89.3905 563.418C90.4267 561.625 91.3648 559.777 92.2609 557.9C94.4732 553.293 94.4452 553.307 90.1466 550.898C88.9985 550.254 87.8643 549.498 86.9122 548.587C85.568 547.299 84.6159 547.565 83.7338 549.007C81.5635 552.592 79.8973 556.346 79.8973 561.107V561.121ZM64.4813 548.993C64.4533 551.976 64.5233 553.979 66.4836 555.085C68.3598 556.136 69.816 554.721 71.3982 554.007C75.8508 552.032 77.503 547.313 80.9334 544.344C81.4515 543.896 81.2135 543.308 80.8214 542.775C80.0233 541.711 79.4913 540.325 78.4831 539.596C76.7469 538.336 74.6746 536.515 72.4903 537.86C68.0097 540.605 65.6715 544.988 64.4953 549.007L64.4813 548.993ZM368.895 515.565C371.415 520.55 377.898 526.642 381.79 527.959C384.101 528.743 385.557 528.225 386.635 526.236C387.867 523.967 387.741 519.122 386.383 518.253C386.033 518.029 385.557 517.973 385.123 517.917C379.886 517.147 374.635 516.391 368.909 515.565H368.895ZM406.924 492.051C410.984 491.253 414.583 489.432 417.607 486.505C419.147 485.021 419.805 483.046 419.917 480.904C420.015 479.013 418.951 477.851 417.425 477.066C415.829 476.24 414.639 476.898 413.63 478.243C412.734 479.433 411.614 480.693 410.2 480.917C406.167 481.59 405.943 484.251 406.335 487.416C406.518 488.844 405.957 490.357 406.924 492.037V492.051ZM71.1602 520.34C64.9153 523.603 60.9388 527.482 58.8946 533.21C58.3065 534.863 58.8526 536.151 59.9167 537.244C60.9388 538.28 62.269 538.49 63.5712 537.692C65.4474 536.529 67.2957 535.297 69.1439 534.065C69.942 533.532 70.3061 532.748 70.18 531.782C69.69 528.253 69.956 524.752 71.1742 520.354L71.1602 520.34ZM160.688 465.667C157.229 468.734 153.799 471.759 151.363 475.694C149.948 477.977 149.976 480.679 151.223 482.92C152.189 484.685 154.345 485.007 156.389 484.895C157.509 484.839 158.419 484.601 158.629 483.256C159.498 477.71 160.408 472.165 161.276 466.605C161.304 466.409 161.01 466.157 160.688 465.653V465.667ZM120.293 546.949C116.862 549.091 114.426 550.884 111.611 551.71C107.747 552.845 108.377 554.161 108.587 557.032C108.699 558.516 108.797 560.169 110.491 560.743C112.185 561.317 113.726 560.673 114.958 559.441C115.686 558.698 116.456 557.928 116.918 557.032C118.416 554.147 119.004 550.982 120.279 546.949H120.293ZM410.97 468.832C410.97 466.885 411.096 464.7 409.038 463.734C406.952 462.754 405.383 464.378 403.899 465.569C402.625 466.591 401.337 467.655 402.191 469.686C403.031 471.717 404.669 473.313 405.159 475.568C405.425 476.758 406.574 476.38 407.372 475.918C410.102 474.349 411.208 471.927 410.984 468.818L410.97 468.832Z" fill="#612D1A"/>
<path d="M330.698 253.218C331.916 266.047 330.74 278.833 330.306 291.647C329.326 293.341 329.522 295.204 329.592 297.038C329.522 297.935 329.452 298.817 329.382 299.713C328.5 302.024 328.514 304.433 328.57 306.842C327.519 313.172 325.657 319.278 323.669 325.384C320.462 335.215 314.582 343.127 306.643 349.499C296.001 358.056 283.848 363.504 270.35 365.674C258.616 367.565 246.911 366.711 235.247 364.61C226.44 363.028 217.843 360.857 209.582 357.342C198.885 352.79 192.192 344.822 188.159 334.08C183.175 320.79 179.38 307.248 177.434 293.159C175.684 280.471 173.99 267.783 173.317 254.983C172.715 243.331 173.611 231.75 175.096 220.224C176.048 212.843 177.168 205.491 178.862 198.223C183.217 179.569 195.034 166.853 211.598 158.618C226.174 151.364 241.898 147.765 258.28 148.717C276.203 149.767 292.697 155.215 307.119 166.279C309.779 168.323 311.627 170.844 313.139 173.869C320.336 188.294 324.299 203.643 326.735 219.468C327.225 222.689 327.897 225.882 328.471 229.089C328.668 231.764 328.317 234.494 329.354 237.071C329.732 241.539 330.124 246.006 330.502 250.474C330.306 251.398 330.348 252.322 330.684 253.204L330.698 253.218ZM324.971 269.954C325.391 255.151 323.599 241.595 322.213 228.01C321.695 223.011 320.841 218.025 319.818 213.11C317.27 200.716 313.77 188.602 308.197 177.16C306.727 174.135 304.976 171.614 302.19 169.654C297.92 166.629 293.495 163.996 288.622 162.049C280.165 158.688 271.526 155.873 262.495 154.865C252.232 153.716 242.094 155.831 231.957 157.26C219.831 158.982 210.296 165.872 200.985 172.973C193.592 178.602 188.845 186.361 185.863 195.156C183.903 200.94 183.203 207.004 182.293 213.012C180.906 222.24 178.834 231.385 179.156 240.824C179.422 248.541 179.492 256.271 179.828 264.002C180.136 271.018 181.831 277.796 182.265 284.757C182.419 287.347 182.643 290.05 183.175 292.697C184.631 299.965 186.087 307.22 188.103 314.362C190.162 321.658 191.912 329.025 195.244 335.901C197.527 340.592 199.781 345.228 204.443 348.169C212.369 353.168 221.092 356.039 230.151 357.888C240.218 359.947 250.425 361.081 260.689 360.451C267.606 360.031 274.551 359.541 281.187 356.964C284.394 355.731 287.348 354.051 290.471 352.692C302.54 347.413 311.431 338.8 316.794 326.7C321.191 316.799 322.969 306.183 323.865 295.582C324.607 286.731 325.699 277.81 324.957 269.954H324.971Z" fill="#612D1A"/>
<path d="M185.457 100.499C185.877 107.068 183.945 107.404 179.24 104.757C171.343 100.317 163.432 95.878 155.465 91.5506C152.469 89.926 151.321 87.6573 151.559 84.2822C152.651 68.6252 152.203 52.8001 156.375 37.4512C156.725 36.1768 156.697 34.8044 156.879 33.4879C157.145 31.5693 157.523 29.6927 158.784 28.1242C160.996 25.3793 162.802 25.4494 164.692 28.3763C167.185 32.2695 169.103 36.4289 170.657 40.7983C176.496 57.1975 181.173 73.9049 184.309 91.0184C184.897 94.1974 185.821 97.4044 185.471 100.499H185.457Z" fill="#612D1A"/>
</g>
</g>
<g id="id3">
<g id="Vector_4">
<path d="M167.311 6.68333C172.631 5.40892 177.112 6.68334 181.551 7.46759C198.577 10.4926 214.525 16.6125 229.045 25.8975C245.105 36.1768 258.883 48.9349 268.586 65.7123C271.134 70.1097 273.374 74.6051 275.293 79.2826C276.161 81.4113 276.077 83.2319 274.663 85.1225C270.154 91.1304 264.609 96.018 258.574 100.429C249.529 107.04 239.196 110.779 228.513 113.622C221.344 115.526 214.077 117.011 206.824 118.621C205.382 118.943 203.883 118.929 202.399 119.041C200.551 119.181 199.739 118.369 199.683 116.451C199.179 101.97 195.93 87.9374 192.346 73.9889C187.417 54.8168 180.976 36.1348 173.219 17.9149C171.651 14.2458 169.901 10.6186 167.311 6.68333Z" fill="#A95936"/>
<path d="M306.965 448.273C302.134 446.298 297.108 445.276 291.927 444.548C286.284 443.75 280.669 443.89 275.027 443.834C267.27 443.75 259.779 444.842 252.274 447.181C243.201 450.01 234.856 454.029 227.239 459.561C215.799 467.865 206.922 478.201 202.399 491.855C201.279 495.244 200.061 498.591 198.815 501.924C197.415 505.649 194.838 508.1 190.918 509.108C188.762 509.669 186.661 510.397 184.533 511.069C183.147 511.503 182.587 512.498 183.105 513.842C184.057 516.307 183.567 518.856 183.721 521.362C183.987 525.802 184.925 526.824 189.364 526.922C193.704 527.02 196.897 528.589 199.221 532.524C201.573 536.501 203.337 540.745 205.536 544.792C210.338 553.629 217.381 560.085 226.356 564.216C231.159 566.429 236.424 567.731 241.646 568.852C243.537 569.258 245.413 569.636 247.303 570.042C247.191 570.476 247.191 570.994 246.939 571.316C242.318 577.576 243.075 584.453 244.531 591.427C244.657 592.001 244.797 592.589 244.993 593.149C245.693 595.18 244.769 595.824 242.851 595.894C238.51 596.048 234.225 595.712 230.011 594.718C226.832 593.962 223.654 593.318 220.378 593.023C218.193 592.827 215.967 592.211 213.923 591.385C205.9 588.122 198.255 584.313 192.024 577.983C186.577 572.437 181.243 566.891 177.63 559.917C173.444 551.85 169.985 543.532 168.361 534.513C167.311 528.673 166.401 522.819 165.533 516.951C164.076 506.924 163.236 496.953 164.622 486.799C165.14 483.018 165.211 479.041 165.897 475.316C167.661 465.695 169.551 456.045 173.906 447.125C174.704 445.5 175.74 444.842 177.63 444.576C184.001 443.652 190.4 444.086 196.771 443.68C208.924 442.895 221.106 442.587 233.245 441.789C240.638 441.313 248.087 441.257 255.41 440.094C265.954 438.428 276.693 438.876 287.236 436.845C291.969 435.935 296.954 435.963 301.77 435.025C303.716 434.647 304.865 435.361 305.397 437.321C306.363 440.921 307.385 444.492 306.951 448.273H306.965Z" fill="#A95936"/>
<path d="M142.64 75.4734C140.861 76.3557 139.363 76.9859 137.739 76.9439C130.948 76.7478 124.521 78.8205 117.968 80.0389C108.937 81.7194 99.99 83.8061 91.0008 85.7107C87.0243 86.5509 86.3242 86.1028 85.2601 82.3356C82.8098 73.5548 78.8893 65.3482 75.2628 57.0435C71.7063 48.8789 68.4019 40.5742 63.6553 32.9838C63.2632 32.3676 62.9272 31.6673 63.5853 30.3649C77.2791 31.5273 90.3988 35.5326 102.888 41.4565C119.06 49.1169 131.62 61.1608 142.625 75.4874L142.64 75.4734Z" fill="#A95936"/>
<path d="M299.796 625.388C296.953 625.262 295.049 625.304 293.131 624.758C289.981 623.861 286.83 624.898 283.974 625.892C280.865 626.97 278.961 626.368 276.581 624.211C271.19 619.338 265.533 614.688 260.997 609.045C255.984 602.827 251.42 596.203 249.501 588.164C249.011 586.077 248.983 584.047 249.011 581.974C249.109 573.921 254.878 571.05 262.243 573.011C264.077 573.501 265.967 574.412 267.382 575.644C272.422 580.027 277.981 583.738 283.022 588.136C289.042 593.388 295.119 598.681 302.54 601.972C305.299 603.205 307.273 605.572 310.045 606.734C311.291 607.266 311.725 608.456 311.501 609.717C310.745 614.114 309.709 618.442 307.091 622.195C305.047 625.122 302.232 625.934 299.782 625.374L299.796 625.388Z" fill="#A95936"/>
<path d="M84.392 509.949C87.5424 505.957 91.1969 502.989 95.6634 501.308C98.6598 500.174 101.6 501.49 104.303 502.526C109.525 504.529 113.53 508.296 117.38 512.302C121.861 516.951 123.331 522.777 124.479 528.785C125.123 532.16 124.521 535.017 121.763 537.636C117.842 541.361 113.88 544.904 108.797 546.893C98.2257 551.052 91.911 547.187 85.2181 539.722C84.9381 539.414 84.616 538.826 84.728 538.56C85.6521 536.403 87.5984 534.821 88.1865 532.426C88.4385 531.376 89.6286 531.614 90.4128 531.278C92.051 530.577 93.9552 530.773 95.4674 529.667C99.1219 527.006 99.962 521.376 97.0216 517.749C95.4394 515.789 93.6052 514.052 92.177 511.951C91.2109 510.523 89.7687 509.809 87.9484 509.949C86.7723 510.033 85.5821 509.963 84.406 509.963L84.392 509.949Z" fill="#A95936"/>
<path d="M193.032 118.061C188.663 116.339 184.631 114.224 180.682 111.941C170.783 106.199 160.926 100.359 150.999 94.6736C148.814 93.4272 147.806 91.8307 147.764 89.3239C147.638 79.8008 148.002 70.3058 149.458 60.8807C149.64 59.7044 149.668 58.5 149.668 57.3236C149.668 48.9629 150.845 40.7563 152.693 32.6337C154.205 25.9815 155.507 19.2594 157.663 12.7613C157.803 12.3412 157.747 11.823 157.957 11.4589C158.742 10.1004 158.672 7.7897 160.534 7.66366C162.172 7.55163 162.522 9.62429 163.194 10.8847C171.315 26.1916 177.028 42.4368 182.139 58.9481C186.227 72.1684 189.616 85.5426 192.094 99.127C192.948 103.791 193.718 108.496 193.578 113.272C193.536 114.714 193.886 116.212 193.046 118.047L193.032 118.061ZM185.457 100.499C185.807 97.4044 184.883 94.1974 184.295 91.0184C181.158 73.9049 176.482 57.1976 170.643 40.7983C169.089 36.4289 167.171 32.2696 164.678 28.3763C162.788 25.4354 160.982 25.3653 158.77 28.1242C157.523 29.6787 157.131 31.5693 156.865 33.488C156.683 34.8044 156.711 36.1768 156.361 37.4512C152.203 52.8001 152.637 68.6252 151.545 84.2822C151.307 87.6573 152.469 89.9261 155.451 91.5506C163.418 95.878 171.315 100.303 179.226 104.757C183.945 107.404 185.863 107.068 185.443 100.499H185.457Z" fill="#A95936"/>
<path d="M366.375 509.459C367.047 505.86 369.581 503.325 370.645 500.104C373.361 491.925 375.504 483.634 375.952 474.98C376.022 473.509 375.91 472.039 375.574 470.554C374.846 467.361 375.14 467.165 378.556 466.955C384.059 466.619 389.169 468.229 394.084 470.33C397.332 471.717 399.279 474.377 400.245 478.005C401.645 483.256 400.931 488.382 399.699 493.382C398.607 497.835 397.585 502.316 396.492 506.77C395.484 510.831 393.286 513.058 389.786 512.47C383.625 511.419 377.31 512.316 371.219 510.789C369.665 510.397 368.125 509.935 366.388 509.445L366.375 509.459Z" fill="#A95936"/>
<path d="M217.101 598.289C213.867 601.944 211.276 605.389 208.154 608.246C202.805 613.148 197.121 617.685 191.548 622.349C190.526 623.203 189.406 623.959 188.285 624.688C186.605 625.766 184.925 625.71 183.329 624.449C179.618 621.523 177.238 617.587 175.138 613.47C174.564 612.35 174.816 611.187 175.18 609.997C175.838 607.854 176.902 605.894 177.854 603.877C180.136 599.031 181.635 594.116 178.274 589.102C177.756 588.318 177.938 587.716 178.512 587.141C178.82 586.833 179.156 586.497 179.534 586.287C182.013 584.943 183.959 582.338 186.703 581.932C189.63 581.498 191.03 584.719 193.018 586.301C199.991 591.889 207.846 595.488 217.087 598.261L217.101 598.289Z" fill="#A95936"/>
<path d="M140.007 684.795C132.446 682.638 125.291 680.075 120.223 675.132C110.183 665.329 99.4299 655.834 93.8572 642.361C92.387 638.804 90.3428 635.471 89.6287 631.62C89.4746 630.794 88.7325 629.855 89.7547 629.211C90.5388 628.707 91.5049 628.917 92.317 629.337C93.1151 629.743 93.8992 630.177 94.6273 630.682C101.838 635.681 109.021 640.723 114.888 647.347C118.724 651.674 122.547 656.03 126.075 660.609C128.428 663.676 131.284 666.281 133.538 669.446C136.787 673.998 138.369 679.123 140.035 684.795H140.007Z" fill="#A95936"/>
<path d="M56.3883 32.9838C58.6286 34.3422 59.5947 36.0928 60.3088 37.7873C66.2876 52.1839 74.0446 65.8243 78.9592 80.6831C79.5193 82.3776 80.1494 84.0441 80.6394 85.7667C80.9195 86.747 81.1295 87.9094 79.7713 88.3715C78.4131 88.8337 77.461 88.2875 76.9429 86.9851C76.7749 86.579 76.6069 86.1588 76.4809 85.7387C73.1905 74.9132 68.6819 64.5639 64.1453 54.2286C63.4312 52.6041 62.5631 51.0356 61.667 49.4811C60.9669 48.2767 59.8047 48.1086 58.5446 48.4167C57.3684 48.7108 56.8783 49.6071 56.7663 50.7134C56.4303 53.8084 55.8982 56.9034 55.8702 60.0124C55.7582 70.992 55.3101 82.0135 57.3544 92.895C57.4104 93.1891 57.4524 93.4832 57.4804 93.7773C57.6064 95.2618 56.7383 96.06 55.4502 96.2281C53.7699 96.4521 54.078 95.0377 54.022 94.0994C53.5179 85.2065 52.8038 76.3137 53.0418 67.3788C53.1819 62.1691 53.1539 56.9594 53.0979 51.7498C53.0138 45.4478 54.218 39.4118 56.4303 32.9838H56.3883Z" fill="#A95936"/>
<path d="M250.706 459.883C250.804 456.69 252.218 455.345 255.242 455.373C257.497 455.401 259.639 456.13 261.725 456.83C269.748 459.505 277.701 462.39 285.724 465.036C287.908 465.751 287.978 466.619 287.208 468.566C284.506 475.4 284.576 475.47 277.743 473.159C269.594 470.4 261.445 467.627 253.618 464.028C251.686 463.132 250.356 461.955 250.692 459.897L250.706 459.883Z" fill="#A95936"/>
<path d="M267.746 569.02C278.541 566.891 288.721 563.208 298.074 557.34C298.284 557.69 298.788 558.18 298.69 558.376C296.73 562.536 295.917 567.073 294.391 571.373C292.949 575.42 290.177 578.809 287.334 582.058C286.186 583.374 285.15 583.15 283.96 582.03C281.58 579.817 279.297 577.521 276.763 575.434C273.893 573.067 270.742 571.177 267.746 569.02Z" fill="#A95936"/>
<path d="M324.971 269.954C325.699 277.796 324.621 286.717 323.879 295.582C322.983 306.183 321.205 316.799 316.808 326.7C311.445 338.8 302.554 347.413 290.485 352.692C287.362 354.051 284.408 355.731 281.201 356.964C274.564 359.527 267.62 360.017 260.703 360.451C250.425 361.081 240.218 359.947 230.165 357.888C221.106 356.025 212.382 353.155 204.457 348.169C199.795 345.228 197.527 340.607 195.258 335.901C191.926 329.025 190.176 321.658 188.117 314.362C186.101 307.22 184.645 299.965 183.189 292.697C182.657 290.05 182.447 287.347 182.279 284.757C181.859 277.782 180.15 271.018 179.842 264.002C179.506 256.271 179.422 248.555 179.17 240.824C178.848 231.385 180.906 222.241 182.307 213.012C183.217 207.004 183.903 200.94 185.877 195.156C188.859 186.375 193.62 178.616 200.999 172.973C210.31 165.872 219.831 158.982 231.971 157.26C242.108 155.817 252.232 153.717 262.509 154.865C271.54 155.873 280.193 158.688 288.636 162.049C293.509 163.982 297.934 166.629 302.204 169.654C304.99 171.628 306.741 174.149 308.211 177.16C313.784 188.616 317.27 200.716 319.832 213.11C320.84 218.039 321.709 223.011 322.227 228.01C323.627 241.595 325.419 255.151 324.985 269.954H324.971Z" fill="#A95936"/>
<path d="M160.688 465.667C161.01 466.171 161.304 466.423 161.276 466.619C160.408 472.165 159.498 477.71 158.63 483.27C158.42 484.615 157.509 484.853 156.389 484.909C154.359 485.021 152.203 484.685 151.223 482.934C149.99 480.679 149.962 477.991 151.363 475.708C153.785 471.773 157.229 468.748 160.688 465.681V465.667Z" fill="#A95936"/>
</g>
</g>
</g>
</g>
</svg>
