<svg width="587" height="702" viewBox="0 0 587 702" fill="none" xmlns="http://www.w3.org/2000/svg">
<g id="walkfront2">
<g id="Group">
<path id="id5" d="M349.766 450.551C352.349 450.551 354.932 450.437 357.515 450.574C368.905 451.143 380.237 449.982 391.582 449.481C398.921 449.162 406.339 448.479 413.519 446.453C414.247 446.248 415.01 446.009 415.738 446.043C424.636 446.419 433.113 443.858 441.658 442.082C445.742 441.229 449.748 439.703 453.787 438.485C458.896 436.937 461.479 432.988 462.662 428.082C464.539 420.308 466.235 412.488 467.236 404.543C467.805 400.047 469.114 395.711 469.421 391.135C469.83 384.988 470.968 378.876 471.844 372.764C472.641 367.243 473.073 361.677 474.211 356.191C474.973 352.492 475.224 348.633 475.303 344.945C475.508 334.792 477.761 324.833 477.522 314.623C477.431 310.787 478 306.803 478.296 302.887C478.956 294.225 475.622 286.565 472.777 278.757C469.068 275.604 467.191 270.789 462.036 268.786C454.948 266.043 447.62 264.244 440.383 262.127C436.594 261.023 433.101 259.282 429.54 257.756C427.514 256.891 425.682 256.277 423.521 256.288C417.752 256.322 411.972 256.231 406.203 256.288C398.022 256.356 389.898 255.719 381.808 254.535C381.364 254.467 380.897 254.444 380.442 254.478C371.635 255.07 362.874 253.818 354.135 253.283C348.31 252.93 342.313 253.431 336.556 251.86C335.987 251.701 335.35 251.792 334.747 251.735C321.741 250.54 308.69 250.881 295.662 250.756C288.562 250.688 281.485 250.073 274.453 249.083C273.998 249.015 273.543 248.969 273.088 249.003C262.46 249.618 251.912 247.842 241.296 247.979C233.753 248.081 226.243 246.989 218.71 246.476C213.59 246.124 208.504 245.202 203.338 245.281C198.969 245.35 194.531 245.885 190.23 244.484C189.957 244.393 189.627 244.416 189.32 244.439C181.674 245.202 173.88 244.678 166.461 247.239C165.744 247.489 164.993 247.979 164.299 247.899C157.927 247.205 152.17 250.289 146.014 250.859C145.002 250.95 144.012 251.519 143.056 251.963C142.51 252.213 142.111 252.816 141.565 252.987C131.12 256.368 127.797 265.326 124.919 274.488C123.337 279.531 122.416 284.767 122.552 290.116C122.768 298.915 121.665 307.611 120.948 316.353C120.39 323.262 119.4 330.194 119.764 337.205C120.151 344.479 118.513 351.672 118.297 358.877C118.092 366.037 116.51 372.957 115.953 380.048C115.406 387.083 115.441 394.208 113.734 401.185C112.459 406.376 113.666 411.737 114.61 416.95C114.86 418.316 116.135 419.204 117.238 420.001C119.833 421.856 122.552 423.609 125.567 424.633C134.306 427.581 143.09 430.324 152.09 432.498C162.069 434.911 172.344 435.617 182.243 438.36C185.44 439.248 188.831 438.838 192.142 439.453C194.805 439.954 197.49 440.352 200.13 441.012C205.273 442.299 210.484 443.038 215.786 443.312C218.938 443.471 222.215 443.653 225.173 444.621C228.735 445.782 232.353 445.554 235.903 446.123C243.254 447.318 250.752 446.055 258.034 447.739C258.33 447.808 258.637 447.83 258.944 447.808C266.989 447.216 274.976 448.513 282.975 448.9C294.49 449.458 306.051 448.934 317.497 449.879C328.284 450.767 339.025 450.05 349.766 450.562V450.551ZM230.806 293.235C235.038 294.612 238.782 296.946 242.275 299.621C253.619 308.328 258.603 323.216 255.462 336.534C252.971 347.108 246.098 354.188 236.734 359.116C234.902 360.084 233.059 361.233 231.079 361.7C225.617 362.986 220.144 363.59 214.444 362.85C205 361.62 197.205 357.477 190.708 350.727C183.881 343.648 181.48 335.099 181.799 325.322C182.22 312.642 188.455 303.741 198.502 296.9C199.765 296.399 200.448 295.17 201.745 294.578C211.28 290.242 220.941 289.775 230.806 293.247V293.235ZM341.574 337.615C342.382 314.497 355.569 304.06 372.5 300.565C388.874 297.185 402.994 303.559 411.721 318.663C416.967 327.746 417.911 337.797 414.293 347.62C409.992 359.276 401.162 366.606 389.454 370.556C387.679 371.159 385.949 371.398 384.129 370.795C378.679 368.973 372.978 369.19 367.448 369.588C363.807 369.861 360.894 369.053 358.163 367.141C347.582 359.708 341.414 349.828 341.574 337.615ZM294.411 407.457C291.156 407.947 287.584 407.047 284.011 406.478C271.563 404.475 261.55 398.545 254.837 387.618C252.493 383.816 251.07 379.673 250.923 375.188C250.831 372.206 252.094 371.307 255.087 371.261C258.114 371.216 258.432 373.401 258.978 375.404C260.014 379.195 260.879 382.928 263.484 386.161C271.039 395.574 281.678 398.101 292.749 399.797C297.392 400.503 301.738 398.818 306.153 397.85C315.574 395.802 323.368 391.351 327.954 382.416C328.785 380.8 329.535 379.138 330.343 377.522C330.844 376.509 331.595 375.974 332.824 375.86C336.465 375.53 338.16 377.328 337.261 381.187C335.759 387.595 332.244 393.047 327.066 396.849C317.577 403.815 306.836 407.73 294.411 407.457Z" fill="#3C3C3C"/>
<g id="id3">
<g id="Vector">
<path d="M194.417 464.938C198.775 467.351 203.873 468.193 207.889 471.38C212.543 475.08 216.981 478.938 219.677 484.379C220.44 485.916 221.339 487.418 222.818 488.192C225.958 489.831 227.699 492.757 229.565 495.443C231.67 498.482 232.467 502.056 231.59 505.858C231.01 508.35 230.635 510.889 230.168 513.416C234.071 514.941 235.471 517.741 234.731 521.85C234.264 524.445 235.243 526.949 235.937 529.396C236.506 531.411 235.903 532.094 234.06 532.572C231.306 533.289 228.632 534.359 225.879 535.099C223.614 535.714 221.703 536.784 220.11 538.491C218.46 540.244 216.571 541.78 215.354 543.932C214.466 545.502 213.351 546.083 211.269 545.73C208.674 545.286 206.376 544.296 203.998 543.397C204.692 549.202 206.387 554.529 210.95 558.581C211.838 559.366 212.395 560.504 213.123 561.472C217.333 567.083 221.885 572.274 228.655 574.971C230.032 575.518 231.272 576.508 232.444 577.453C235.323 579.786 238.668 580.947 242.115 582.199C253.118 586.206 264.565 586.49 275.807 585.341C287.845 584.111 299.69 580.867 309.748 573.537C313.424 570.862 315.699 566.685 317.747 562.656C319.591 559.036 321.058 555.189 321.548 551.08C318.965 550.955 317.076 549.987 315.802 547.494C313.731 543.465 310.465 540.597 306.13 539.003C304.856 538.536 303.661 537.831 302.421 537.262C300.782 536.522 300.099 535.44 300.896 533.642C302.159 530.808 302.307 527.791 302.273 524.73C302.216 519.847 302.273 519.835 307.165 518.39C308.758 517.923 310.397 517.582 311.978 517.058C318.76 514.827 324.688 511.594 328.193 504.81C330.263 500.793 332.869 496.991 335.668 493.44C340.356 487.498 345.283 481.738 350.312 476.093C353.02 473.054 355.796 469.992 359.335 467.795C360.188 467.26 360.928 466.884 361.622 467.954C363.249 466.771 364.41 465.291 364.831 463.31C346.341 463.31 328.056 463.788 309.794 463.162C293.318 462.605 276.842 461.865 260.366 461.182C251.662 460.818 242.923 459.85 234.207 458.985C227.005 458.279 219.814 457.323 212.589 456.743C204.806 456.117 197 454.944 189.411 452.861C188.057 452.486 186.76 452.258 185.394 452.508C188.398 456.652 191.414 460.795 194.417 464.938Z" fill="#3698A9"/>
<path d="M5.78717 288.955C6.93638 299.154 6.12852 309.546 8.56349 319.631C10.9188 329.408 14.1617 338.844 19.9077 347.21C22.172 350.511 25.6879 352.526 28.8397 354.848C30.5237 356.1 31.3884 355.554 32.037 353.368C32.5604 351.615 32.5491 349.783 32.8449 347.996C33.8007 342.191 34.8247 336.431 35.3254 330.512C36.1901 320.245 36.6794 309.979 37.1232 299.689C37.51 290.481 38.261 281.272 38.864 272.075C39.5581 261.501 39.6946 250.893 40.7187 240.353C41.5607 231.759 41.9021 223.142 42.5848 214.56C43.2219 206.524 42.5847 198.443 43.5291 190.498C44.3825 183.395 43.8705 176.281 44.6556 169.19C45.3269 163.066 45.0311 156.829 45.0311 150.648C45.0311 146.869 43.9046 143.17 44.1094 139.346C44.1891 137.752 42.9033 137.536 42.0158 138.549C40.3432 140.461 38.0448 141.269 35.9739 142.453C32.2532 144.57 30.3758 148.349 27.7019 151.399C22.3768 157.443 19.5891 164.774 16.9038 172.218C14.1048 179.981 13.0238 188.028 12.1932 196.155C11.3853 203.963 10.5319 211.771 9.70132 219.58C9.63305 220.183 9.47378 220.786 9.5193 221.39C9.9403 228.39 8.82517 235.31 8.40417 242.253C7.66458 254.649 7.41429 267.067 6.58367 279.451C6.36748 282.615 5.53687 285.734 5.80995 288.955H5.78717Z" fill="#3698A9"/>
<path d="M75.9233 118.584C86.1752 119.051 96.0516 116.456 106.019 114.76C123.781 111.732 141.349 107.737 158.758 103.116C170.011 100.133 181.401 97.6178 192.358 93.5088C196.363 92.0063 200.619 90.9364 204.817 89.9347C208.253 89.1152 210.267 86.8615 212.111 84.2435C213.203 82.6955 213.226 81.1362 211.849 79.702C211.326 79.1556 210.825 78.5865 210.267 78.0629C201.517 69.9473 193.507 61.0691 183.79 53.9437C177.088 49.0265 171.137 43.0394 164.174 38.4864C152.67 30.9513 141.701 22.5739 128.935 16.9852C121.607 13.7753 114.541 9.8598 106.998 7.21909C99.1693 4.47594 98.0087 4.55562 93.1615 11.146C88.0413 18.112 83.1145 25.2146 79.4961 33.1254C75.7072 41.4231 72.6464 49.9713 70.6893 58.8723C70.3025 60.6479 70.0407 62.4805 69.3466 64.1423C67.0254 69.6969 66.3769 75.6157 66.1493 81.489C65.899 88.0339 64.215 94.3511 63.6688 100.839C63.3275 104.948 63.1454 109.023 63.3844 113.098C63.6461 117.469 64.9546 118.448 69.5401 118.573C71.6678 118.63 73.7956 118.573 75.9233 118.573V118.584ZM70.3593 103.628C71.5085 97.0828 72.1116 90.39 73.9093 84.0273C77.5277 71.2108 81.0208 58.3031 86.4483 46.0785C89.3384 39.5792 91.762 32.8636 96.3816 27.2179C98.8052 24.2585 101.627 22.8357 105.348 22.8243C110.843 22.8129 115.713 25.0097 120.481 27.309C134.852 34.2408 147.96 43.2557 161.318 51.9063C171.399 58.4397 180.399 66.3391 190.003 73.4644C191.209 74.3523 192.29 75.5019 193.177 76.7084C195.976 80.5443 194.998 84.3232 190.719 86.3493C189.354 86.9981 187.898 87.442 186.464 87.9201C176.565 91.2437 166.154 92.473 156.163 95.5462C147.516 98.2097 138.527 99.7236 129.686 101.75C122.768 103.343 115.895 105.198 108.909 106.496C98.5207 108.442 88.0413 109.956 77.6301 111.8C75.764 112.13 74.4897 111.789 73.0788 110.616C70.8145 108.738 70.3479 106.371 70.3593 103.616V103.628Z" fill="#3698A9"/>
<path d="M553.996 105.642C554.212 95.6828 551.436 86.2468 549.137 76.6856C547.214 68.718 544.29 61.1601 540.99 53.7616C538.237 47.5696 534.357 41.9239 530.568 36.2896C527.405 31.5887 525.163 30.4733 519.69 32.192C512.909 34.3205 506.002 36.1758 499.573 39.3515C493.053 42.5727 486.454 45.6346 479.9 48.8103C467.589 54.7746 456.267 62.3666 445.003 70.0725C434.216 77.4483 424.647 86.2924 414.805 94.8291C413.086 96.3202 411.448 97.9138 409.912 99.587C406.453 103.343 406.476 103.935 409.525 108.67C411.368 111.527 414.338 113.166 417.695 114.099C422.348 115.408 427.139 116.091 431.792 117.514C449.315 122.853 467.293 126.347 485.18 130.183C498.777 133.097 512.442 135.692 526.119 138.241C533.435 139.607 540.865 139.846 548.307 139.653C550.321 139.607 551.367 138.685 552.016 136.955C553.586 132.789 554.565 128.544 553.928 124.048C549.661 124.674 551.106 128.35 550.389 130.923C548.443 129.841 549.012 128.384 549.149 126.7C549.399 123.774 550.491 120.36 546.827 118.436C546.259 121.293 546.714 124.196 546.52 127.064C546.27 130.684 544.609 132.254 541.081 132.243C539.568 132.243 538.009 132.277 536.541 131.958C525.015 129.523 513.261 128.373 501.758 125.766C495.124 124.264 488.366 123.24 481.743 121.737C475.724 120.371 469.66 119.096 463.663 117.594C454.287 115.249 444.707 113.747 435.456 110.799C433.112 110.047 431.087 108.773 428.936 107.668C425 105.631 425.728 100.964 428.379 98.9495C431.03 96.9349 433.397 94.5901 436.162 92.6779C442.135 88.5575 448.28 84.6761 454.208 80.5443C460.068 76.4694 465.962 72.5539 472.174 69.0822C477.693 65.9862 483.507 63.3569 488.969 60.2951C494.521 57.1763 500.154 54.399 505.9 51.7355C510.701 49.5046 515.696 48.8216 520.93 49.1517C522.671 49.2655 524.31 49.607 525.55 50.768C528.099 53.1697 530.5 55.9356 531.672 59.134C533.754 64.7911 536.291 70.3343 537.907 76.1052C540.592 85.7005 543.129 95.3755 544.87 105.233C545.325 107.839 545.018 110.662 546.577 113.041C547.908 111.151 549.535 109.433 549.444 106.838C549.388 105.267 550.309 104.777 551.811 105.244C552.505 105.46 553.245 105.517 553.973 105.642H553.996Z" fill="#3698A9"/>
<path d="M559.389 177.75C559.275 184.602 559.002 191.522 559.742 198.42C559.947 200.378 560.208 202.324 560.208 204.293C560.22 220.991 560.686 237.712 560.038 254.398C559.628 264.791 559.48 275.251 557.808 285.598C557.068 290.196 557.284 294.942 556.67 299.609C555.316 309.785 555.327 320.109 553.222 330.228C552.426 334.052 552.244 338.036 552.141 341.963C552.027 346.379 551.094 350.659 550.548 355.007C549.991 359.503 549.581 364.022 549.24 368.541C549.069 370.829 549.126 373.56 551.333 374.585C553.962 375.814 555.521 373.117 556.715 371.398C559.548 367.334 562.12 363.146 564.282 358.581C569.948 346.653 572.315 333.87 575.307 321.224C575.967 318.447 576.4 315.579 576.639 312.733C577.686 300.543 580.507 288.568 580.394 276.218C580.28 264.073 580.587 251.929 580.337 239.784C580.03 225.009 577.595 210.565 573.02 196.553C570.847 189.883 567.411 183.771 562.029 179.013C561.392 178.455 560.925 177.511 559.401 177.772L559.389 177.75Z" fill="#3698A9"/>
<path d="M385.255 645.349C385.221 641.103 382.683 639.293 379.896 638.075C373.774 635.389 367.345 635.298 360.746 635.924C352.201 636.744 346.148 642.15 339.844 646.897C329.956 654.341 321.98 663.538 316.279 674.67C314.288 678.562 313.617 682.694 313.207 686.849C312.832 690.537 314.368 692.665 317.907 693.598C323.289 695.021 328.693 696.296 334.405 695.055C343.94 692.984 353.259 690.332 361.053 684.242C371.112 676.377 379.168 666.827 383.332 654.511C384.39 651.393 384.709 648.023 385.255 645.349Z" fill="#3698A9"/>
<path d="M170.955 527.165C171.558 527.165 172.173 527.165 172.776 527.165C180.286 527.017 180.468 526.938 182.675 520.017C183.972 515.954 185.622 512.209 188.489 508.897C191.186 505.778 192.779 502.022 192.984 497.708C193.143 494.361 194.065 491.14 195.976 488.295C198.32 484.823 198.571 480.908 198.252 476.946C198.002 473.805 195.749 471.87 191.937 471.551C185.998 471.062 180.149 471.79 174.426 473.463C169.795 474.818 166.723 478.381 163.923 481.886C158.405 488.795 153.979 496.376 152.215 505.232C151.555 508.544 151.464 511.902 152.181 515.168C153.444 520.905 159.145 527.427 167.326 527.222C168.543 527.188 169.761 527.222 170.967 527.222V527.177L170.955 527.165Z" fill="#3698A9"/>
<path d="M408.751 557.112C408.444 559.036 409.263 559.969 410.117 560.743C413.451 563.76 414.224 567.744 414.247 571.887C414.27 576.258 414.611 580.628 413.61 585.011C412.825 588.414 413.906 589.063 416.693 591.203C422.189 595.425 427.856 593.547 433.556 592.443C437.994 591.578 442.34 590.235 446.675 589.006C449.918 588.084 453.036 585.842 454.196 582.381C456.097 576.77 457.269 570.988 455.767 565.012C455.095 562.371 455.767 559.56 454.674 556.953C454.333 556.145 454.424 555.223 453.684 554.506C452.751 553.595 452.057 552.776 450.76 554.096C446.345 558.603 440.815 561.586 435.126 563.896C428.265 566.685 421.233 566.696 414.952 561.756C413.007 560.22 410.993 558.774 408.751 557.101V557.112Z" fill="#3698A9"/>
<path d="M157.927 447.147C151.669 444.393 145.456 443.494 139.107 443.221C137.958 443.175 137.139 443.858 136.251 444.461C130.141 448.616 123.838 452.509 117.978 456.982C113.483 460.419 108.545 463.606 105.78 468.979C106.884 470.071 107.783 469.138 108.682 468.911C114.257 467.51 119.855 466.372 125.624 466.076C129.948 465.86 133.76 464.699 137.025 461.387C142.498 455.855 149.53 452.44 156.084 448.388C156.585 448.081 157.051 447.739 157.916 447.147H157.927Z" fill="#3698A9"/>
<path d="M380.544 462.935C385.904 467.419 390.785 471.221 395.279 475.49C398.67 478.711 402.47 481.499 405.964 484.618C407.579 486.064 408.911 486.565 410.651 484.914C412.654 483.013 413.098 481.408 411.698 479.337C410.595 477.709 409.468 476.024 408.034 474.715C404.029 471.016 399.74 467.636 395.814 463.868C393.459 461.614 390.899 461.262 387.906 461.455C385.63 461.603 383.491 462.092 380.544 462.935Z" fill="#3698A9"/>
<path d="M553.996 105.642C553.279 105.517 552.528 105.46 551.834 105.244C550.332 104.777 549.41 105.267 549.467 106.838C549.558 109.433 547.931 111.151 546.6 113.052C546.68 114.851 546.748 116.638 546.827 118.436C550.491 120.36 549.399 123.774 549.149 126.7C549.012 128.384 548.443 129.841 550.389 130.923C551.106 128.35 549.661 124.674 553.928 124.048C553.973 123.422 554.019 122.796 554.053 122.17C552.437 121.122 553.359 120.61 554.485 120.144C554.747 115.295 554.883 110.446 553.984 105.631L553.996 105.642Z" fill="#3698A9"/>
</g>
</g>
<g id="id1">
<g id="Vector_2">
<path d="M77.9375 418.714C77.5848 413.239 78.3357 407.878 79.3825 402.506C80.1221 398.67 80.4749 394.72 80.5659 390.805C80.7138 384.442 81.7038 378.182 82.193 371.864C82.6026 366.594 83.2626 361.324 83.3081 356.043C83.3422 350.716 84.1387 345.526 84.8897 340.29C85.4927 336.124 85.5269 331.867 86.0503 327.667C87.2792 317.753 86.9947 307.725 88.087 297.822C88.6901 292.359 88.3487 286.918 88.8949 281.511C90.1351 269.184 91.8646 256.971 96.4614 245.281C99.2833 238.099 101.832 230.837 105.792 224.178C111.834 214.014 119.548 205.227 129.186 198.5C135.102 194.368 141.281 190.088 148.233 187.994C155.401 185.831 161.887 181.574 169.704 181.255C172.787 181.13 175.882 179.901 178.875 178.865C183.085 177.42 187.34 176.554 191.801 176.907C193.962 177.078 196.033 176.737 198.036 175.94C202.564 174.153 207.491 174.107 212.1 172.537C218.642 170.306 224.775 167.494 229.588 162.418C234.265 157.478 239.715 153.266 243.253 147.245C248.294 138.674 251.981 129.784 253.164 119.734C253.904 113.462 254.37 107.122 255.576 100.907C255.724 100.167 255.701 99.3934 255.701 98.6422C255.679 88.4664 255.656 78.2791 255.633 68.1033C254.507 67.4773 253.289 67.5683 252.072 67.6708C251.4 68.4448 250.797 68.3537 250.228 67.557C236.461 67.1358 222.693 65.7927 208.743 67.3407C209.016 69.3668 210.529 70.2887 211.69 71.3245C213.988 73.3733 215.547 76.0027 217.55 78.2791C218.608 79.4857 218.881 80.9995 218.642 82.5589C217.823 87.8176 214.603 91.6876 210.074 93.6226C196.557 99.3707 182.265 102.876 168.122 106.655C149.12 111.732 129.993 116.433 110.616 119.893C100.171 121.76 89.6572 123.251 79.1436 124.628C75.7188 125.083 72.1573 124.879 68.6869 124.571C61.6665 123.968 58.6967 120.94 58.0368 113.94C57.7637 111.072 57.7523 108.181 57.6954 105.289C57.6385 102.66 57.6954 100.031 57.4678 97.3674C53.9292 106.211 50.675 115.09 50.7091 124.833C50.7774 139.721 50.7319 154.609 50.7319 169.486C50.7319 180.732 49.7533 191.921 49.0137 203.132C48.991 203.44 48.9455 203.736 48.9455 204.043C49.082 218.635 47.6939 233.148 46.7836 247.694C46.0213 259.794 44.9744 271.87 44.2462 283.97C43.8821 290.025 43.5407 296.092 43.3132 302.148C42.8922 313.234 41.834 324.252 41.1627 335.316C40.8328 340.768 39.9452 346.254 38.2043 351.41C35.9628 358.092 35.8604 364.807 36.2701 371.648C36.8276 380.913 38.3295 389.985 41.2424 398.841C42.4599 402.551 44.7355 405.181 47.9897 407.059C57.3769 412.488 67.5377 415.926 77.9489 418.714H77.9375Z" fill="#80DCF1"/>
<path d="M374.503 76.4466C370.861 76.4921 367.22 76.6059 363.579 76.5604C361.474 76.5376 360.473 77.3344 360.598 79.4971C360.928 85.0744 359.847 90.7201 361.372 96.2519C361.645 97.2422 361.474 98.369 361.486 99.4276C361.656 112.142 363.204 124.674 365.627 137.16C367.289 145.72 370.964 153.312 375.754 160.221C382.149 169.463 390.102 177.533 400.468 182.325C405.452 184.625 410.413 187.368 416.147 187.937C420.539 188.381 424.499 190.543 428.641 191.943C440.861 196.052 452.74 201.049 464.073 207.23C473.164 212.181 481.743 217.964 488.423 225.965C495.75 234.753 501.36 244.621 504.58 255.696C505.843 260.044 507.652 264.21 508.46 268.706C509.211 272.861 509.598 277.084 510.314 281.204C511.441 287.669 511.213 294.203 511.418 300.634C511.577 305.778 511.691 311.196 510.622 316.41C510.474 317.149 510.155 317.901 510.212 318.629C510.656 325.163 509.427 331.616 509.063 338.104C508.63 345.742 508.38 353.482 506.73 361.028C506.48 362.201 506.491 363.442 506.514 364.659C506.673 371.648 505.228 378.478 504.318 385.353C503.169 394.015 501.633 402.62 500.108 411.225C498.765 418.817 496.353 426.158 494.362 433.602C494.021 434.889 493.429 436.323 491.95 436.721C489.56 437.359 490.186 439.168 490.141 440.762C493.702 440.91 496.968 439.476 500.336 438.724C505.934 437.484 511.646 436.789 517.039 434.536C520.487 433.102 523.172 430.996 524.845 427.957C528.622 421.105 532.457 414.321 534.926 406.74C538.419 396.029 540.786 385.216 541.309 373.982C536.906 369.964 539.466 365.923 541.002 361.723C542.629 362.394 541.605 364.204 542.856 364.773C546.088 346.687 547.943 328.429 549.399 310.127C550.002 302.569 551.129 295.056 551.902 287.51C552.414 282.536 552.585 277.527 552.926 272.542C554.588 248.286 554.747 223.973 553.802 199.695C553.404 189.394 552.778 179.07 551.982 168.78C551.459 161.985 550.366 155.224 549.661 148.44C549.467 146.539 548.716 145.902 546.828 145.845C529.612 145.264 512.875 141.576 496.046 138.344C486.989 136.602 477.863 135.043 468.92 132.858C459.203 130.49 449.372 128.612 439.746 125.869C431.451 123.501 422.917 122.044 414.805 118.948C410.401 117.264 406.84 114.464 403.642 111.311C399.558 107.281 399.99 100.6 404.177 96.6617C408.376 92.712 412.666 88.8534 416.921 84.9492C417.558 84.3573 418.503 83.8451 418.002 82.7524C417.638 81.967 416.762 81.9784 416.034 81.876C402.22 79.8841 388.395 77.9149 374.514 76.4807L374.503 76.4466Z" fill="#80DCF1"/>
<path d="M326.133 560.493C323.209 564.716 320.592 568.415 318.055 572.16C314.357 577.635 309.157 581.186 303.274 583.884C302.307 584.328 301.306 584.681 300.361 585.147C296.675 587.003 296.595 587.253 297.187 591.51C298.598 601.743 299.531 612.021 300.043 622.322C300.646 634.456 301.021 646.601 302.239 658.677C302.842 664.687 303.081 670.765 304.81 676.65C305.459 678.847 306.301 680.873 307.302 682.785C308.963 682.831 308.645 681.567 308.816 680.861C312.036 667.282 320.114 656.867 330.252 647.784C338.217 640.648 346.751 634.604 357.253 631.508C365.218 629.151 372.739 629.595 380.237 632.839C380.795 633.078 381.341 633.329 381.887 633.579C383.128 632.43 382.035 631.542 381.535 630.79C377.871 625.372 372.58 622.163 366.367 620.672C355.615 618.088 345.295 619.101 335.748 625.213C332.995 626.977 331.037 629.459 328.989 631.895C327.931 633.158 327.123 635.514 324.779 633.852C323.391 632.873 323.789 630.813 325.28 628.582C328.227 624.2 332.096 620.876 336.829 618.623C339.958 617.132 343.042 615.367 346.558 614.912C349.004 614.593 349.072 613.125 348.606 611.327C347.695 607.81 346.99 604.213 345.715 600.821C340.891 588.038 335.293 575.62 328.375 563.817C327.772 562.781 327.055 561.825 326.133 560.459V560.493Z" fill="#80DCF1"/>
<path d="M417.752 475.922C417.877 477.868 418.093 479.792 418.116 481.727C418.195 487.384 414.839 491.197 409.161 491.584C406.658 491.755 405.486 492.438 405.031 495.17C403.426 504.731 401.526 514.212 401.538 523.99C401.538 533.039 403.472 541.462 408.854 548.803C411.812 552.833 415.499 556.395 419.993 558.672C424.795 561.096 429.983 560.004 434.523 558.046C440.224 555.587 445.139 551.683 449.736 547.437C451.762 545.559 452.296 543.556 451.784 540.949C450.578 534.837 448.701 528.93 446.675 523.045C445.003 518.173 442.659 513.541 441.02 508.692C439.587 504.446 438.199 500.201 436.241 496.171C433.203 489.9 430.336 483.514 425.113 478.631C422.383 476.07 422.405 476.047 417.74 475.945L417.752 475.922Z" fill="#80DCF1"/>
<path d="M149.758 526.335C147.106 520.894 144.91 515.817 145.605 510.217C146.162 505.778 146.617 501.236 148.586 497.105C151.59 490.799 154.821 484.63 159.088 479.041C160.499 477.197 162.365 475.899 163.878 474.203C164.857 473.111 164.891 471.961 163.104 471.551C161.477 471.187 159.839 470.618 158.2 470.595C141.793 470.345 125.454 470.982 109.365 474.716C105.382 475.637 101.536 477.106 97.8724 478.665C91.3867 481.408 89.7369 491.083 94.3679 496.661C96.9849 499.814 99.9774 502.636 103.141 505.266C111.743 512.414 121.369 517.877 131.575 522.271C137.105 524.65 142.885 526.619 149.758 526.323V526.335Z" fill="#80DCF1"/>
<path d="M181.06 592.147C181.276 598.282 182.812 605.635 189.286 610.826C193.485 614.184 198.343 615.72 203.839 614.582C209.551 613.387 214.887 611.384 219.632 607.923C220.986 606.933 222.386 605.943 223.25 604.497C226.675 598.749 229.088 592.546 230.999 586.149C231.625 584.055 230.294 583.303 228.621 582.461C216.082 576.178 207.366 566.082 200.778 553.971C199.549 551.717 198.832 549.213 198.081 546.732C197.513 544.876 196.25 544.728 195.226 546.345C194.008 548.257 192.961 550.294 191.983 552.343C186.225 564.443 181.242 576.77 181.06 592.147Z" fill="#80DCF1"/>
<path d="M195.465 626.294C195.123 630.973 196.682 635.321 198.207 639.566C200.949 647.227 209.722 651.336 218.802 650.038C227.586 648.786 233.366 643.732 237.143 636.197C241.319 627.865 243.777 619.021 243.834 609.619C243.845 607.195 243.572 604.805 243.037 602.426C242.218 598.783 240.102 596.325 237.007 594.367C235.573 593.456 234.879 593.923 233.935 594.822C232.877 595.835 232.717 597.235 232.194 598.476C227.404 609.676 219.279 616.95 207.287 619.636C204.613 620.228 201.871 620.171 199.14 620.114C195.658 620.034 195.51 620.239 195.476 623.597C195.476 624.507 195.476 625.418 195.476 626.329L195.465 626.294Z" fill="#80DCF1"/>
<path d="M203.873 476.503C203.998 481.59 203.782 486.109 201.495 490.218C200.858 491.368 201.119 492.301 202.178 492.916C206.797 495.579 209.687 499.802 212.407 504.184C212.634 504.549 213.055 504.799 213.374 505.095C217.356 502.17 218.551 498.766 217.265 494.088C215.297 486.872 210.973 481.078 203.862 476.503H203.873Z" fill="#80DCF1"/>
<path d="M188.705 518.128C187.238 522.032 185.861 525.219 184.461 528.406C182.971 531.821 180.615 533.107 177.145 532.925C176.701 532.902 176.258 532.788 175.802 532.743C174.824 532.64 173.914 532.811 173.686 533.915C173.47 534.985 173.55 536.112 174.71 536.658C176.349 537.444 178.01 538.138 179.876 538.309C183.062 538.605 186.236 538.4 189.4 538.036C191.391 537.808 193.132 536.909 194.554 535.418C196.147 533.733 196.693 532.037 195.783 529.681C194.19 525.56 192.096 521.816 188.694 518.128H188.705Z" fill="#80DCF1"/>
<path d="M408.797 574.243C408.99 569.77 408.342 565.547 404.928 562.212C403.483 560.8 402.152 560.47 400.753 562.132C399.296 563.862 397.862 565.604 396.463 567.368C393.539 571.067 395.746 577.373 400.32 578.181C402.209 578.511 404.018 579.433 405.827 580.162C407.728 580.924 408.729 580.367 408.797 578.318C408.843 576.963 408.797 575.609 408.797 574.254V574.243Z" fill="#80DCF1"/>
<path d="M197.035 506.085C196.579 506.871 196.215 507.724 195.669 508.441C192.881 512.129 192.404 515.407 196.409 518.811C198.548 520.621 198.787 523.978 200.732 526.13C209.312 520.825 211.144 516.113 207.514 508.863C206.57 508.999 205.762 509.329 205.637 510.433C205.363 512.733 204.009 514.986 201.95 514.679C200.255 514.429 200.05 511.64 200.073 509.694C200.107 507.542 199.253 506.256 197.023 506.085H197.035Z" fill="#80DCF1"/>
<path d="M222.898 496.422C223.296 502.75 220.884 506.711 216.355 509.386C215.126 510.115 214.432 510.923 214.785 512.266C215.581 515.294 214.682 518.207 214.159 521.201C223.603 519.676 228.348 506.984 222.909 496.422H222.898Z" fill="#80DCF1"/>
<path d="M421.472 599.751C417.854 598.544 415.271 597.77 412.995 596.234C410.492 594.549 408.649 592.569 408.319 589.427C408.228 588.539 407.909 587.663 407.591 586.82C406.908 584.999 405.213 584.988 403.802 585.227C402.448 585.455 402.789 586.889 402.846 587.89C402.96 589.848 403.324 591.795 403.312 593.741C403.29 598.374 408.569 602.642 412.757 602.073C415.43 601.709 418.013 601.242 421.484 599.751H421.472Z" fill="#80DCF1"/>
<path d="M197.035 506.085C199.265 506.267 200.118 507.542 200.084 509.693C200.05 511.628 200.255 514.417 201.962 514.679C204.01 514.986 205.375 512.733 205.648 510.433C205.773 509.329 206.581 508.999 207.525 508.863C206.171 504.207 203.259 500.77 199.117 497.856C197.638 500.588 199.014 503.797 197.035 506.085Z" fill="#80DCF1"/>
<path d="M439.939 597.417C435.001 597.406 431.155 597.736 427.628 599.751C431.633 600.286 435.547 600.377 439.939 597.417Z" fill="#80DCF1"/>
</g>
</g>
<g id="id2">
<g id="Vector_3">
<path d="M243.64 588.881C241.444 587.776 239.203 586.809 236.483 586.957C237.985 588.015 239.476 589.074 240.978 590.133C241.41 588.755 242.798 589.37 243.64 588.881Z" fill="#74D6D6"/>
<path d="M77.9376 418.714C82.8303 421.492 88.2691 422.755 93.5941 424.258C100.228 426.136 106.93 427.797 113.438 430.108C114.269 430.404 115.202 430.438 116.089 430.586C116.476 430.666 116.863 430.745 117.25 430.825C117.773 430.893 118.308 430.973 118.831 431.03C118.297 430.199 118.274 429.311 118.501 428.389C117.887 427.934 117.341 427.365 116.658 427.058C109.399 423.723 107.43 417.337 107.339 410.189C107.203 400.628 107.84 391.055 109.33 381.631C110.15 376.463 109.831 371.307 110.48 366.151C111.686 356.544 112.016 346.823 112.71 337.148C113.984 319.46 115.031 301.738 116.669 284.084C117.136 278.973 118.82 273.84 120.777 269.059C122.882 263.926 124.942 258.701 128.435 254.159C131.154 250.62 134.363 247.888 138.47 246.693C149.075 243.608 159.668 240.353 170.808 239.636C171.206 239.442 171.604 239.089 172.014 239.078C181.765 238.668 191.516 238.725 201.256 239.135C201.529 239.135 201.791 239.397 202.052 239.533C211.155 239.977 220.246 240.432 229.349 240.876C242.844 241.536 256.395 241.684 269.822 243.005C284.204 244.416 298.609 244.803 313.003 245.589C329.979 246.511 346.978 247.091 363.955 248.138C380.146 249.14 396.315 250.506 412.472 251.826C427.139 253.021 441.635 255.184 455.551 260.215C459.943 261.797 464.357 263.356 468.374 265.872C472.504 268.467 475.576 271.802 477.386 276.378C478.546 279.326 480.333 281.989 481.55 284.949C484.417 291.903 484.782 299.143 484.326 306.439C483.792 315.226 482.984 323.99 482.13 332.743C480.913 345.287 479.741 357.83 478.182 370.328C475.895 388.676 473.358 407.002 469.079 425.031C468.454 427.684 467.782 430.336 467.065 432.965C465.848 437.518 463.117 440.796 458.645 442.424C452.683 444.598 446.858 447.17 440.668 448.684C440.668 449.048 440.668 449.412 440.668 449.777C450.032 448.058 459.567 447.204 468.795 444.712C474.973 443.038 481.482 443.471 487.626 441.627C488.491 441.365 489.447 441.433 490.152 440.728C490.198 439.134 489.56 437.313 491.961 436.687C493.44 436.3 494.032 434.866 494.373 433.568C496.353 426.124 498.766 418.794 500.12 411.191C501.644 402.585 503.169 393.98 504.329 385.318C505.24 378.455 506.685 371.625 506.526 364.625C506.503 363.419 506.48 362.167 506.742 360.994C508.392 353.436 508.642 345.708 509.074 338.07C509.438 331.582 510.667 325.14 510.223 318.595C510.178 317.867 510.485 317.115 510.633 316.375C511.703 311.162 511.589 305.744 511.43 300.599C511.225 294.168 511.452 287.646 510.326 281.17C509.609 277.049 509.222 272.827 508.471 268.672C507.663 264.176 505.854 260.01 504.591 255.662C501.371 244.587 495.762 234.718 488.434 225.931C481.755 217.929 473.176 212.147 464.084 207.196C452.751 201.015 440.872 196.018 428.652 191.909C424.51 190.521 420.551 188.347 416.159 187.903C410.424 187.334 405.452 184.59 400.479 182.291C390.114 177.499 382.16 169.429 375.766 160.187C370.987 153.278 367.3 145.686 365.639 137.126C363.215 124.628 361.656 112.108 361.497 99.3934C361.486 98.3349 361.657 97.208 361.383 96.2178C359.859 90.6745 360.94 85.0403 360.61 79.4629C360.485 77.3003 361.486 76.5035 363.591 76.5263C367.232 76.5718 370.873 76.458 374.514 76.4124C371.032 75.149 367.323 75.4563 363.75 75.1945C352.281 74.3522 340.948 72.2465 329.444 71.6318C322.048 71.2335 314.63 71.1765 307.234 70.4936C290.508 68.957 273.713 68.5472 256.942 67.7618C256.509 67.7391 256.066 67.9667 255.633 68.0692C255.656 78.245 255.69 88.4208 255.701 98.6081C255.701 99.3707 255.724 100.145 255.576 100.873C254.359 107.099 253.904 113.428 253.164 119.7C251.981 129.75 248.294 138.64 243.253 147.211C239.715 153.221 234.276 157.443 229.588 162.383C224.775 167.46 218.642 170.271 212.1 172.502C207.491 174.073 202.565 174.119 198.036 175.906C196.033 176.691 193.962 177.044 191.801 176.873C187.34 176.52 183.085 177.385 178.875 178.831C175.882 179.855 172.799 181.096 169.704 181.221C161.887 181.54 155.401 185.797 148.233 187.96C141.281 190.054 135.102 194.334 129.186 198.466C119.548 205.192 111.834 213.98 105.792 224.144C101.832 230.803 99.272 238.065 96.4615 245.247C91.876 256.948 90.1352 269.15 88.8949 281.477C88.3488 286.884 88.6901 292.325 88.0871 297.788C86.9947 307.691 87.2792 317.719 86.0504 327.633C85.527 331.844 85.4928 336.101 84.8898 340.256C84.1388 345.492 83.3423 350.682 83.3081 356.009C83.274 361.29 82.6027 366.572 82.1931 371.83C81.7038 378.136 80.7139 384.408 80.566 390.771C80.475 394.686 80.1336 398.636 79.3826 402.472C78.3358 407.844 77.5849 413.205 77.9376 418.68V418.714Z" fill="#74D6D6"/>
<path d="M361.622 467.932C360.928 466.862 360.189 467.249 359.335 467.772C355.796 469.969 353.02 473.02 350.312 476.07C345.283 481.716 340.356 487.475 335.668 493.417C332.869 496.968 330.264 500.781 328.193 504.788C324.688 511.572 318.771 514.804 311.979 517.035C310.397 517.559 308.758 517.889 307.165 518.367C302.284 519.813 302.216 519.824 302.273 524.707C302.307 527.769 302.159 530.785 300.896 533.619C300.1 535.418 300.771 536.499 302.421 537.239C303.661 537.808 304.856 538.514 306.13 538.98C310.465 540.574 313.731 543.431 315.802 547.472C317.087 549.964 318.965 550.932 321.548 551.057C323.653 550.59 324.278 548.838 324.927 547.13C328.625 537.376 332.221 527.575 336.01 517.866C341.63 503.456 348.457 489.638 356.65 476.503C358.402 473.703 359.984 470.789 361.645 467.932H361.622Z" fill="#74D6D6"/>
<path d="M203.964 543.362C206.342 544.262 208.641 545.263 211.235 545.696C213.317 546.049 214.432 545.468 215.32 543.897C216.537 541.746 218.426 540.21 220.076 538.457C221.669 536.761 223.58 535.679 225.845 535.065C228.598 534.325 231.272 533.255 234.026 532.538C235.869 532.06 236.483 531.377 235.903 529.362C235.209 526.926 234.23 524.411 234.697 521.816C235.437 517.707 234.037 514.907 230.134 513.381C228.644 514.963 228.109 517.058 227.187 518.936C224.468 524.479 220.303 526.847 214.079 526.289C212.122 526.118 210.336 526.562 209.005 527.769C207.639 529.009 206.046 529.863 204.647 531.024C202.223 533.027 201.438 535.167 202.291 538.138C202.803 539.88 203.395 541.598 203.953 543.34L203.964 543.362Z" fill="#74D6D6"/>
<path d="M341.574 337.615C341.414 349.828 347.581 359.708 358.163 367.141C360.894 369.053 363.407 371.068 367.048 370.795C367.048 370.795 376.047 373.939 384.046 371.939C385.867 372.554 387.667 371.159 389.454 370.555C401.162 366.606 410.003 359.264 414.293 347.62C417.911 337.808 416.966 327.746 411.721 318.663C402.994 303.559 388.873 297.185 372.5 300.565C355.569 304.06 342.381 314.497 341.574 337.615Z" fill="#74D6D6"/>
<path d="M198.491 296.877C188.444 303.718 182.209 312.619 181.788 325.299C181.469 335.088 183.87 343.625 190.697 350.705C197.194 357.454 204.988 361.598 214.432 362.827C220.133 363.567 225.617 362.963 231.067 361.677C233.047 361.211 234.89 360.061 236.722 359.093C246.087 354.165 252.959 347.085 255.451 336.511C258.591 323.193 253.608 308.305 242.263 299.598C238.782 296.923 235.038 294.601 230.794 293.212C228.359 293.838 226.038 292.848 223.739 292.45C216.628 291.232 209.972 292.404 203.441 295.17C201.848 295.842 200.505 297.367 198.491 296.866V296.877Z" fill="#74D6D6"/>
<path d="M294.41 407.457C306.836 407.73 317.565 403.815 327.066 396.849C332.243 393.047 335.759 387.595 337.261 381.187C338.16 377.328 336.476 375.53 332.824 375.86C331.595 375.973 330.844 376.508 330.343 377.521C329.535 379.149 328.784 380.8 327.954 382.416C323.368 391.34 315.574 395.79 306.153 397.85C301.738 398.818 297.391 400.502 292.749 399.797C281.678 398.101 271.051 395.574 263.484 386.161C260.878 382.917 260.014 379.183 258.978 375.404C258.432 373.401 258.102 371.216 255.087 371.261C252.094 371.307 250.831 372.206 250.922 375.188C251.07 379.673 252.493 383.816 254.836 387.618C261.55 398.545 271.563 404.475 284.011 406.478C287.583 407.047 291.168 407.947 294.41 407.457Z" fill="#74D6D6"/>
</g>
</g>
<g id="id4">
<g id="Vector_4">
<path d="M2.3057 241.468C0.815141 262.378 -0.675411 283.298 0.325884 304.265C1.01996 318.811 4.56996 332.698 11.6928 345.56C15.4021 352.253 20.5793 357.443 27.1332 361.245C29.0448 362.36 29.8867 363.601 29.9436 365.855C30.1712 374.813 30.9677 383.736 33.1865 392.444C34.2219 396.53 35.5418 400.571 37.0324 404.52C38.6367 408.755 42.1754 411.202 46.1009 413.034C54.3274 416.893 62.6564 420.456 71.3039 423.324C88.2577 428.936 105.302 434.194 122.677 438.406C125.123 438.998 127.775 438.963 130.244 440.887C125.795 444.234 121.562 447.557 117.181 450.676C111.105 455.001 105.075 459.44 100.228 465.097C95.6763 470.413 91.8873 476.377 87.6205 481.955C83.035 487.965 86.2437 496.501 90.6357 501.498C101.707 514.121 115.862 522.078 131.131 528.315C134.477 529.681 138.004 530.728 141.52 531.536C145.047 532.356 148.688 532.948 152.136 530.933C153.103 530.364 154.172 530.785 155.196 530.751C158.553 530.637 161.546 532.515 164.959 532.174C166.723 532.003 168.122 532.959 168.111 535.167C168.1 539.083 170.534 541.166 173.891 542.338C177.475 543.59 181.162 544.455 185.019 544.25C186.362 544.182 187.716 544.102 189.536 544C187.716 547.54 185.872 550.624 184.484 553.891C179.182 566.321 174.483 578.887 175.12 592.796C175.439 599.819 176.952 606.273 181.515 611.816C183.369 614.07 185.304 616.198 187.955 617.473C189.718 618.315 190.242 619.363 189.98 621.4C189.32 626.693 189.502 632.031 190.993 637.199C193.257 645.132 197.296 651.905 205.625 654.466C220.599 659.064 236.404 653.862 243.185 637.665C247.179 628.127 250.035 618.327 249.557 607.73C249.227 600.468 247.145 594.39 240.966 590.144C239.464 589.085 237.974 588.027 236.472 586.968C239.191 586.82 241.433 587.776 243.629 588.892C254.222 591.282 264.906 592.352 275.739 591.1C279.789 590.633 283.817 589.871 287.845 589.233C290.769 588.767 290.94 588.778 291.281 591.738C291.93 597.463 292.51 603.211 292.943 608.959C293.91 621.821 294.581 634.695 295.23 647.579C295.708 657.243 296.834 666.929 298.746 676.479C300.532 685.369 305.106 692.437 312.604 697.491C316.598 700.189 321.343 701.156 326.008 701.293C345.522 701.862 361.668 694.304 374.855 680.167C381.967 672.541 386.78 663.56 390.136 653.68C395.006 639.339 387.986 624.826 377.711 618.793C371.977 615.424 365.366 613.831 358.539 613.762C355.25 613.728 355.285 613.649 354.647 610.416C352.815 601.128 349.288 592.432 345.306 583.906C340.766 574.175 336.192 564.443 330.218 555.473C329.296 554.096 329.376 552.958 330.002 551.342C333.996 541.063 337.546 530.614 341.642 520.393C349.209 501.51 358.653 483.594 370.35 466.896C371.613 465.097 372.546 464.927 374.343 466.088C378.019 468.489 381.614 471.005 384.971 473.828C389.602 477.732 394.096 481.807 398.761 485.688C400.661 487.27 401.151 488.852 400.354 491.243C397.248 500.519 396.292 510.183 395.723 519.881C395.177 529.135 396.406 538.024 400.798 546.367C403.199 550.932 402.949 552.059 398.932 555.69C396.326 558.046 393.846 560.436 391.832 563.35C387.61 569.451 387.793 573.571 391.934 580.128C392.401 580.867 393.118 581.801 393.869 581.96C397.214 582.677 397.373 584.737 396.929 587.594C396.542 590.121 396.929 592.716 397.464 595.277C399.774 606.045 410.299 610.143 418.798 606.808C422.428 605.385 425.808 604.645 429.767 605.601C435.229 606.922 439.814 604.383 443.933 601.003C445.981 599.318 447.404 596.655 450.612 596.837C454.902 593.388 458.975 589.723 460.557 584.18C463.982 572.217 462.708 560.493 458.338 549.031C457.724 547.415 457.098 546.049 457.872 544.364C458.839 542.258 458.065 540.153 457.61 538.104C455.698 529.67 452.854 521.531 449.6 513.529C448.462 510.718 447.358 507.895 446.311 505.05C443.08 496.217 438.711 487.942 433.829 479.929C431.588 476.241 428.675 473.35 424.818 471.21C421.427 469.32 418.321 469.115 414.987 470.902C414.031 471.415 413.018 472.177 412.097 471.21C408.797 467.738 405.588 464.164 402.357 460.624C407.136 459.554 412.279 459.486 417.353 458.871C429.392 457.426 441.35 455.593 453.275 453.339C461.297 451.826 469.444 450.938 477.499 449.538C483.45 448.502 489.344 447.102 495.261 445.827C502.793 444.199 510.371 442.765 517.813 440.625C522.558 439.259 526.301 436.972 529.021 432.783C532.4 427.57 535.267 422.118 537.679 416.404C541.229 408.026 544.45 399.535 545.735 390.463C545.906 389.234 546.498 388.585 547.499 388.096C556.886 383.474 561.984 374.915 566.933 366.367C570.95 359.424 574.386 352.116 576.354 344.308C578.232 336.841 579.722 329.272 581.167 321.702C583.25 310.821 584.524 299.825 585.582 288.796C587.209 271.825 587.403 254.842 586.333 237.826C585.639 226.739 584.558 215.71 582.089 204.874C579.518 193.628 574.488 183.543 567.07 174.699C565.818 173.197 564.35 171.751 562.712 170.738C559.935 169.019 558.343 166.515 557.785 163.544C556.659 157.603 555.896 151.593 554.986 145.606C554.804 144.411 555.509 143.591 556.146 142.749C558.911 139.084 560.095 134.815 560.174 130.388C560.368 119.017 561.449 107.6 559.48 96.2747C558.65 91.5169 557.694 86.7704 556.704 82.0467C554.758 72.736 552.005 63.6528 547.988 55.0364C544.359 47.2622 540.535 39.6361 535.529 32.5335C529.817 24.4406 524.958 24.1902 516.607 26.6829C498.583 32.0782 481.823 40.4214 465.609 49.9712C452.66 57.5974 440.201 65.8952 428.584 75.4222C426.752 76.9247 424.795 76.993 422.587 76.6629C415.988 75.6612 409.377 74.6823 402.755 73.84C392.981 72.588 383.207 71.3587 373.41 70.3001C360.894 68.9456 348.355 67.6481 335.816 66.5781C320.387 65.2578 304.947 64.222 289.472 63.5618C276.581 63.0154 263.689 62.1845 250.786 61.6951C235.459 61.1146 220.11 60.6593 204.772 61.4219C202.599 61.5244 201.142 60.8869 199.515 59.5324C193.553 54.6039 188.023 49.1859 181.867 44.4622C169.362 34.8555 156.721 25.5105 142.931 17.7478C131.45 11.2826 119.707 5.52311 107.169 1.44823C105.143 0.788048 103.072 0.412432 100.967 0.116491C96.9621 -0.441245 93.7192 1.02708 91.3184 4.02064C82.193 15.403 74.342 27.5252 69.5858 41.5028C65.262 54.2169 62.4857 67.3066 59.6753 80.3849C59.277 82.2516 58.6057 83.7769 57.4451 85.2338C54.0089 89.5477 51.5056 94.3055 50.0719 99.7008C48.752 104.675 46.8177 109.467 45.805 114.555C45.0882 118.152 44.3714 121.76 44.6217 125.391C44.8493 128.794 43.3815 130.763 40.5597 132.186C33.2206 135.897 27.3949 141.406 22.5933 147.962C13.8206 159.914 8.38173 173.185 6.74325 188.028C5.60542 198.261 4.91137 208.528 3.8987 218.772C3.19324 225.874 3.06806 233 2.38536 240.091C3.09082 240.603 3.01117 241.081 2.31709 241.525L2.3057 241.468ZM554.497 120.155C554.827 120.929 554.861 121.646 554.064 122.181C554.019 122.807 553.973 123.433 553.939 124.059C554.576 128.555 553.598 132.801 552.028 136.967C551.379 138.697 550.344 139.607 548.318 139.664C540.877 139.846 533.447 139.619 526.13 138.253C512.465 135.692 498.788 133.108 485.191 130.194C467.304 126.358 449.327 122.864 431.804 117.526C427.15 116.103 422.36 115.42 417.706 114.111C414.35 113.166 411.368 111.527 409.537 108.681C406.487 103.935 406.464 103.355 409.923 99.5983C411.459 97.9251 413.098 96.3202 414.816 94.8405C424.647 86.3038 434.228 77.4597 445.014 70.0839C456.279 62.3894 467.6 54.786 479.912 48.8216C486.454 45.6459 493.054 42.5841 499.585 39.3629C506.014 36.1872 512.92 34.3319 519.702 32.2034C525.175 30.4846 527.416 31.6001 530.579 36.301C534.368 41.9467 538.248 47.581 541.002 53.773C544.29 61.1829 547.226 68.7408 549.149 76.697C551.459 86.2582 554.224 95.6828 554.007 105.654C554.906 110.469 554.77 115.317 554.508 120.166L554.497 120.155ZM197.035 506.085C199.014 503.797 197.638 500.588 199.117 497.856C203.259 500.77 206.171 504.207 207.525 508.863C211.155 516.113 209.323 520.814 200.744 526.13C198.798 523.978 198.548 520.621 196.42 518.811C192.404 515.407 192.882 512.129 195.681 508.441C196.227 507.724 196.591 506.882 197.046 506.085H197.035ZM302.227 456.879C289.666 456.914 277.138 456.367 264.599 455.365C248.624 454.091 232.581 453.567 216.696 451.256C211.167 450.448 205.58 450.027 200.141 448.673C190.651 447.284 181.128 446.043 171.615 443.699C173.174 442.731 174.733 443.027 176.11 443.266C180.718 444.074 185.349 444.586 189.969 445.258C193.94 445.838 198.036 446.146 201.836 447.694C203.338 447.876 204.852 447.99 206.342 448.24C221.134 450.744 236.062 452.121 251.002 453.112C266.42 454.125 281.86 454.648 297.301 455.434C298.95 455.513 300.589 455.9 302.239 456.151C320.399 455.582 338.524 456.413 356.65 457.619C347.57 458.018 338.502 458.063 329.422 457.995C320.353 457.927 311.25 458.245 302.239 456.891L302.227 456.879ZM230.157 513.404C230.623 510.889 231.01 508.339 231.579 505.846C232.455 502.045 231.659 498.47 229.554 495.431C227.699 492.745 225.947 489.82 222.807 488.181C221.327 487.407 220.428 485.904 219.666 484.368C216.969 478.927 212.532 475.057 207.878 471.369C203.873 468.182 198.764 467.34 194.406 464.927C192.756 464.949 191.095 464.984 189.445 464.984C188.717 464.984 187.738 465.075 187.534 464.187C186.658 460.317 184.496 456.982 183.108 453.328C182.903 452.804 182.732 452.065 183.392 451.757C184.211 451.37 184.746 452.167 185.383 452.508C186.76 452.258 188.046 452.486 189.4 452.861C196.989 454.944 204.795 456.117 212.577 456.743C219.803 457.323 226.994 458.268 234.196 458.985C242.901 459.839 251.651 460.818 260.355 461.182C276.831 461.865 293.307 462.605 309.783 463.162C328.045 463.788 346.33 463.31 364.82 463.31C364.399 465.291 363.249 466.771 361.611 467.954C359.95 470.811 358.368 473.714 356.616 476.525C348.423 489.661 341.596 503.479 335.976 517.889C332.187 527.609 328.591 537.398 324.893 547.153C324.245 548.86 323.619 550.613 321.514 551.08C321.024 555.189 319.557 559.036 317.713 562.656C315.654 566.685 313.378 570.862 309.714 573.537C299.656 580.867 287.811 584.111 275.773 585.341C264.531 586.49 253.084 586.194 242.081 582.199C238.634 580.947 235.277 579.786 232.41 577.453C231.238 576.508 229.998 575.518 228.621 574.971C221.851 572.274 217.299 567.083 213.089 561.472C212.361 560.504 211.792 559.366 210.916 558.581C206.353 554.529 204.658 549.202 203.964 543.397C203.406 541.667 202.815 539.948 202.303 538.195C201.438 535.224 202.235 533.084 204.658 531.081C206.058 529.92 207.651 529.066 209.016 527.826C210.347 526.619 212.134 526.175 214.091 526.346C220.315 526.892 224.479 524.536 227.199 518.993C228.12 517.103 228.655 515.02 230.146 513.438L230.157 513.404ZM542.868 364.751C543.209 367.96 542.083 370.931 541.32 373.959C540.786 385.193 538.419 396.006 534.937 406.717C532.468 414.298 528.634 421.082 524.856 427.934C523.183 430.973 520.487 433.079 517.05 434.513C511.646 436.767 505.934 437.461 500.347 438.702C496.979 439.453 493.714 440.898 490.152 440.739C489.458 441.445 488.491 441.388 487.626 441.638C481.482 443.471 474.973 443.05 468.795 444.723C459.567 447.216 450.032 448.069 440.668 449.788C432.6 451.108 424.556 452.713 416.352 452.998C421.404 451.484 426.627 450.949 431.747 449.845C434.626 449.23 437.607 448.252 440.679 448.695C446.869 447.193 452.695 444.621 458.657 442.435C463.129 440.807 465.859 437.529 467.077 432.976C467.782 430.336 468.454 427.695 469.091 425.043C473.369 407.013 475.895 388.688 478.193 370.339C479.752 357.841 480.913 345.287 482.142 332.755C482.995 324.002 483.803 315.226 484.338 306.45C484.782 299.154 484.429 291.915 481.561 284.96C480.333 282.001 478.558 279.337 477.397 276.389C475.588 271.814 472.527 268.478 468.385 265.883C464.369 263.368 459.965 261.808 455.562 260.226C441.646 255.207 427.15 253.033 412.484 251.837C396.315 250.517 380.146 249.151 363.966 248.15C347.001 247.091 330.002 246.522 313.014 245.6C298.62 244.815 284.215 244.439 269.833 243.016C256.407 241.696 242.855 241.559 229.361 240.888C220.258 240.444 211.167 239.988 202.064 239.545C191.653 239.579 181.242 239.613 170.819 239.647C159.68 240.364 149.086 243.619 138.482 246.704C134.374 247.899 131.165 250.631 128.446 254.171C124.941 258.712 122.893 263.937 120.788 269.07C118.82 273.851 117.147 278.996 116.681 284.095C115.054 301.749 113.995 319.471 112.721 337.16C112.027 346.835 111.697 356.555 110.491 366.162C109.842 371.318 110.161 376.474 109.342 381.642C107.851 391.067 107.214 400.639 107.351 410.2C107.453 417.348 109.41 423.734 116.669 427.069C117.341 427.376 117.898 427.957 118.513 428.401C126.694 431.36 134.966 434.08 143.272 436.71C134.818 436.129 126.819 433.625 118.843 431.041C118.319 430.973 117.784 430.893 117.261 430.825C116.783 431.201 116.408 431.087 116.1 430.586C115.213 430.438 114.28 430.404 113.449 430.108C106.941 427.786 100.25 426.124 93.6055 424.258C88.2804 422.755 82.8416 421.492 77.9489 418.714C67.5377 415.926 57.3655 412.488 47.9897 407.059C44.7242 405.169 42.4599 402.54 41.2424 398.841C38.3409 389.985 36.8276 380.913 36.2701 371.648C35.8604 364.807 35.9628 358.092 38.2043 351.41C39.9338 346.254 40.8214 340.768 41.1627 335.316C41.8341 324.263 42.8922 313.234 43.3132 302.148C43.5408 296.092 43.8821 290.025 44.2462 283.97C44.9744 271.87 46.0213 259.794 46.7836 247.694C47.6939 233.159 49.082 218.635 48.9455 204.043C48.9455 203.736 48.991 203.44 49.0137 203.132C49.7533 191.921 50.7205 180.732 50.7319 169.486C50.7319 154.598 50.7774 139.71 50.7091 124.833C50.6636 115.09 53.9178 106.211 57.4678 97.3674C57.684 100.031 57.6385 102.66 57.6954 105.29C57.7523 108.169 57.7637 111.072 58.0368 113.94C58.6967 120.94 61.6665 123.957 68.6869 124.571C72.1573 124.867 75.7188 125.072 79.1436 124.628C89.6686 123.251 100.182 121.76 110.616 119.893C129.993 116.433 149.12 111.732 168.122 106.655C182.266 102.876 196.557 99.3707 210.074 93.6226C214.614 91.699 217.823 87.8176 218.642 82.5589C218.881 80.9996 218.608 79.4857 217.55 78.2792C215.547 76.0027 213.988 73.3734 211.69 71.3246C210.518 70.2888 209.016 69.3554 208.743 67.3407C222.693 65.7927 236.461 67.1359 250.228 67.557L252.072 67.6708C253.289 67.557 254.507 67.4773 255.633 68.1033C256.065 67.9895 256.509 67.7733 256.942 67.7846C273.713 68.5814 290.508 68.9798 307.234 70.5164C314.63 71.1993 322.048 71.2563 329.444 71.6546C340.948 72.2693 352.281 74.375 363.75 75.2173C367.323 75.4791 371.032 75.1718 374.514 76.4352C388.407 77.8694 402.22 79.8386 416.034 81.8305C416.762 81.9329 417.649 81.9215 418.002 82.7069C418.503 83.7996 417.558 84.3118 416.921 84.9037C412.677 88.8079 408.376 92.6665 404.177 96.6162C400.001 100.554 399.558 107.247 403.643 111.265C406.851 114.418 410.401 117.23 414.805 118.903C422.917 121.999 431.451 123.456 439.746 125.823C449.372 128.566 459.203 130.445 468.92 132.812C477.863 134.997 486.989 136.557 496.046 138.298C512.875 141.542 529.624 145.219 546.828 145.799C548.716 145.868 549.456 146.494 549.661 148.395C550.366 155.178 551.459 161.94 551.982 168.735C552.778 179.024 553.393 189.337 553.803 199.649C554.747 223.939 554.588 248.241 552.926 272.496C552.585 277.482 552.414 282.49 551.902 287.464C551.129 295.011 550.002 302.523 549.399 310.081C547.943 328.384 546.099 346.641 542.857 364.728L542.868 364.751ZM349.766 450.551C339.025 450.039 328.284 450.756 317.497 449.868C306.051 448.923 294.49 449.447 282.975 448.889C274.976 448.502 266.989 447.204 258.944 447.796C258.648 447.819 258.33 447.796 258.034 447.728C250.752 446.043 243.253 447.307 235.903 446.112C232.364 445.531 228.746 445.77 225.173 444.609C222.215 443.642 218.938 443.471 215.786 443.3C210.484 443.027 205.273 442.287 200.13 441.001C197.49 440.341 194.804 439.942 192.142 439.442C188.842 438.816 185.44 439.225 182.243 438.349C172.344 435.594 162.08 434.9 152.09 432.487C143.09 430.302 134.306 427.57 125.567 424.622C122.552 423.609 119.833 421.856 117.238 419.989C116.135 419.192 114.86 418.316 114.61 416.939C113.666 411.725 112.459 406.364 113.734 401.174C115.441 394.185 115.406 387.06 115.953 380.037C116.499 372.957 118.08 366.037 118.296 358.866C118.513 351.661 120.14 344.467 119.764 337.194C119.4 330.182 120.379 323.262 120.948 316.341C121.653 307.6 122.757 298.892 122.552 290.105C122.427 284.755 123.337 279.519 124.919 274.477C127.797 265.326 131.12 256.356 141.565 252.976C142.111 252.794 142.521 252.202 143.056 251.951C144.012 251.507 145.001 250.938 146.014 250.847C152.17 250.267 157.927 247.182 164.299 247.888C164.982 247.967 165.744 247.467 166.461 247.228C173.88 244.655 181.685 245.19 189.32 244.428C189.616 244.393 189.946 244.382 190.23 244.473C194.531 245.873 198.969 245.338 203.338 245.27C208.515 245.19 213.59 246.124 218.71 246.465C226.231 246.977 233.753 248.07 241.296 247.967C251.924 247.831 262.471 249.607 273.087 248.992C273.543 248.969 273.998 249.015 274.453 249.072C281.485 250.062 288.562 250.676 295.662 250.745C308.702 250.881 321.741 250.528 334.747 251.724C335.35 251.781 335.987 251.689 336.556 251.849C342.313 253.431 348.31 252.919 354.135 253.272C362.874 253.807 371.635 255.07 380.442 254.467C380.897 254.433 381.352 254.467 381.807 254.524C389.897 255.696 398.022 256.345 406.203 256.277C411.971 256.231 417.752 256.311 423.521 256.277C425.671 256.265 427.514 256.868 429.54 257.745C433.101 259.27 436.594 261.012 440.383 262.116C447.62 264.233 454.948 266.031 462.036 268.774C467.191 270.766 469.068 275.592 472.777 278.745C475.622 286.554 478.956 294.225 478.296 302.876C478 306.792 477.431 310.775 477.522 314.611C477.761 324.81 475.508 334.781 475.303 344.934C475.224 348.622 474.985 352.48 474.211 356.18C473.073 361.655 472.641 367.232 471.844 372.752C470.957 378.865 469.819 384.977 469.421 391.123C469.114 395.699 467.805 400.036 467.236 404.532C466.235 412.477 464.539 420.296 462.662 428.071C461.479 432.976 458.896 436.926 453.787 438.474C449.748 439.692 445.742 441.229 441.658 442.071C433.112 443.847 424.636 446.408 415.738 446.032C415.01 445.998 414.247 446.237 413.519 446.442C406.351 448.456 398.921 449.139 391.581 449.469C380.237 449.97 368.893 451.131 357.515 450.562C354.943 450.437 352.349 450.539 349.766 450.539V450.551ZM5.78744 288.955C5.51436 285.734 6.34497 282.615 6.56116 279.451C7.39178 267.067 7.64214 254.649 8.38173 242.253C8.79135 235.31 9.91779 228.378 9.49679 221.39C9.46265 220.798 9.62192 220.183 9.67881 219.58C10.5094 211.772 11.3628 203.963 12.1707 196.155C13.0127 188.028 14.0823 179.981 16.8813 172.218C19.5666 164.774 22.3657 157.444 27.6794 151.399C30.3646 148.349 32.2307 144.57 35.9514 142.453C38.0337 141.269 40.3207 140.461 41.9933 138.549C42.8808 137.536 44.1666 137.763 44.087 139.346C43.8822 143.17 45.02 146.869 45.0086 150.648C45.0086 156.829 45.3044 163.066 44.6331 169.19C43.848 176.281 44.36 183.395 43.5067 190.498C42.5509 198.443 43.1994 206.513 42.5622 214.56C41.8795 223.143 41.5268 231.759 40.6962 240.353C39.6721 250.893 39.5356 261.501 38.8415 272.075C38.2385 281.284 37.4875 290.492 37.1007 299.689C36.6683 309.979 36.1676 320.234 35.3029 330.512C34.8022 336.42 33.7782 342.191 32.8224 347.996C32.5266 349.783 32.5265 351.627 32.0145 353.368C31.3659 355.554 30.5012 356.1 28.8172 354.848C25.6654 352.514 22.1495 350.511 19.8852 347.21C14.1392 338.844 10.8963 329.408 8.54098 319.631C6.10601 309.535 6.91387 299.154 5.76466 288.955H5.78744ZM326.133 560.493C327.055 561.859 327.772 562.826 328.375 563.851C335.293 575.654 340.902 588.072 345.715 600.855C346.99 604.235 347.695 607.844 348.605 611.361C349.072 613.159 349.004 614.627 346.557 614.946C343.042 615.401 339.958 617.166 336.829 618.657C332.096 620.911 328.238 624.234 325.28 628.616C323.789 630.836 323.391 632.896 324.779 633.886C327.123 635.548 327.931 633.192 328.989 631.929C331.049 629.493 332.994 627.011 335.748 625.247C345.283 619.123 355.603 618.122 366.367 620.706C372.58 622.197 377.871 625.407 381.534 630.825C382.035 631.576 383.127 632.464 381.887 633.613C381.341 633.363 380.795 633.112 380.237 632.873C372.739 629.629 365.218 629.186 357.253 631.542C346.751 634.638 338.217 640.682 330.252 647.818C320.114 656.902 312.036 667.316 308.815 680.896C308.645 681.601 308.963 682.865 307.302 682.819C306.301 680.907 305.459 678.881 304.81 676.684C303.069 670.811 302.842 664.721 302.239 658.711C301.021 646.623 300.634 634.478 300.043 622.356C299.531 612.044 298.598 601.765 297.187 591.544C296.606 587.287 296.675 587.025 300.361 585.181C301.306 584.703 302.318 584.35 303.274 583.918C309.157 581.22 314.357 577.669 318.055 572.194C320.581 568.438 323.198 564.75 326.133 560.527V560.493ZM75.9236 118.584C73.7958 118.584 71.6681 118.63 69.5403 118.584C64.9548 118.459 63.6463 117.48 63.3846 113.109C63.1457 109.034 63.3277 104.959 63.6691 100.85C64.2038 94.3511 65.8878 88.0452 66.1495 81.5004C66.3771 75.6271 67.0257 69.7196 69.3468 64.1537C70.0409 62.4918 70.3027 60.6593 70.6895 58.8836C72.6466 49.9712 75.7074 41.4231 79.4964 33.1367C83.1147 25.226 88.0415 18.1234 93.1618 11.1574C98.0089 4.55562 99.1695 4.48732 106.998 7.23047C114.553 9.87118 121.619 13.7867 128.935 16.9965C141.702 22.5967 152.67 30.9627 164.174 38.4978C171.138 43.0508 177.088 49.0493 183.79 53.9551C193.507 61.0804 201.506 69.9587 210.268 78.0743C210.825 78.5865 211.326 79.167 211.849 79.7133C213.226 81.1475 213.203 82.7069 212.111 84.2549C210.268 86.8842 208.254 89.1266 204.817 89.9461C200.619 90.9477 196.363 92.0177 192.358 93.5202C181.401 97.6292 170.011 100.133 158.758 103.127C141.349 107.748 123.781 111.743 106.019 114.771C96.0519 116.467 86.1641 119.062 75.9236 118.596V118.584ZM559.389 177.75C560.914 177.499 561.381 178.433 562.018 178.99C567.4 183.76 570.836 189.86 573.009 196.531C577.583 210.554 580.018 224.998 580.325 239.761C580.576 251.906 580.269 264.062 580.382 276.196C580.496 288.546 577.674 300.52 576.628 312.71C576.389 315.556 575.956 318.424 575.296 321.202C572.292 333.847 569.937 346.63 564.271 358.559C562.097 363.123 559.537 367.323 556.704 371.375C555.509 373.082 553.962 375.78 551.322 374.562C549.115 373.538 549.058 370.795 549.228 368.518C549.57 363.999 549.979 359.48 550.537 354.984C551.083 350.636 552.016 346.357 552.13 341.94C552.232 338.013 552.414 334.029 553.211 330.205C555.316 320.086 555.304 309.762 556.659 299.586C557.273 294.92 557.057 290.162 557.796 285.575C559.469 275.217 559.628 264.756 560.026 254.376C560.675 237.701 560.209 220.98 560.197 204.271C560.197 202.301 559.947 200.355 559.731 198.397C558.991 191.511 559.253 184.59 559.378 177.727L559.389 177.75ZM417.752 475.922C422.417 476.024 422.394 476.047 425.125 478.608C430.348 483.503 433.215 489.877 436.253 496.148C438.21 500.189 439.598 504.423 441.032 508.669C442.67 513.529 445.014 518.151 446.687 523.022C448.712 528.896 450.578 534.814 451.796 540.927C452.308 543.533 451.784 545.537 449.748 547.415C445.151 551.672 440.235 555.576 434.535 558.023C429.983 559.981 424.806 561.073 420.005 558.649C415.499 556.373 411.824 552.821 408.865 548.781C403.483 541.45 401.56 533.016 401.549 523.967C401.549 514.19 403.438 504.708 405.042 495.147C405.497 492.415 406.669 491.732 409.172 491.561C414.85 491.174 418.207 487.373 418.127 481.704C418.104 479.769 417.888 477.834 417.763 475.899L417.752 475.922ZM385.255 645.348C384.709 648.035 384.379 651.393 383.332 654.511C379.168 666.827 371.112 676.377 361.053 684.242C353.259 690.332 343.929 692.972 334.405 695.055C328.693 696.296 323.277 695.021 317.907 693.598C314.368 692.665 312.832 690.536 313.208 686.849C313.629 682.694 314.288 678.562 316.28 674.669C321.98 663.549 329.956 654.352 339.844 646.896C346.148 642.15 352.201 636.743 360.746 635.924C367.346 635.286 373.786 635.378 379.896 638.075C382.684 639.304 385.221 641.103 385.255 645.348ZM149.758 526.334C142.885 526.619 137.105 524.661 131.575 522.282C121.369 517.9 111.743 512.425 103.141 505.277C99.9774 502.648 96.9849 499.825 94.3679 496.672C89.7483 491.095 91.3981 481.42 97.8724 478.677C101.536 477.129 105.393 475.66 109.365 474.727C125.442 470.993 141.781 470.356 158.2 470.606C159.839 470.629 161.477 471.198 163.104 471.563C164.891 471.972 164.868 473.111 163.878 474.215C162.365 475.899 160.499 477.208 159.088 479.052C154.821 484.641 151.59 490.81 148.586 497.116C146.617 501.236 146.162 505.789 145.605 510.228C144.91 515.829 147.106 520.916 149.758 526.346V526.334ZM181.059 592.147C181.242 576.77 186.225 564.443 191.983 552.343C192.961 550.294 194.008 548.257 195.225 546.345C196.249 544.728 197.524 544.876 198.081 546.732C198.832 549.213 199.549 551.706 200.778 553.971C207.366 566.082 216.082 576.178 228.621 582.461C230.293 583.303 231.625 584.054 230.999 586.149C229.087 592.546 226.675 598.738 223.25 604.497C222.386 605.943 220.997 606.933 219.632 607.923C214.887 611.384 209.551 613.398 203.839 614.582C198.343 615.732 193.496 614.195 189.286 610.826C182.812 605.635 181.276 598.282 181.059 592.147ZM170.955 527.165V527.211C169.738 527.211 168.521 527.188 167.314 527.211C159.133 527.416 153.433 520.894 152.17 515.157C151.453 511.89 151.544 508.532 152.204 505.22C153.968 496.365 158.394 488.784 163.912 481.875C166.711 478.369 169.783 474.807 174.414 473.452C180.126 471.779 185.986 471.062 191.926 471.54C195.749 471.847 197.99 473.794 198.241 476.935C198.559 480.896 198.309 484.812 195.965 488.283C194.053 491.129 193.132 494.361 192.973 497.697C192.779 502.01 191.175 505.767 188.478 508.885C185.622 512.198 183.961 515.942 182.664 520.006C180.456 526.926 180.274 527.006 172.765 527.154C172.162 527.165 171.547 527.154 170.944 527.154L170.955 527.165ZM195.464 626.294C195.464 625.384 195.464 624.473 195.464 623.563C195.51 620.205 195.658 620 199.128 620.08C201.87 620.148 204.601 620.205 207.275 619.602C219.268 616.927 227.392 609.642 232.182 598.442C232.717 597.201 232.865 595.801 233.923 594.788C234.868 593.889 235.562 593.422 236.995 594.333C240.09 596.302 242.207 598.749 243.026 602.391C243.561 604.782 243.834 607.161 243.822 609.585C243.777 618.987 241.308 627.842 237.132 636.163C233.354 643.709 227.563 648.752 218.79 650.004C209.71 651.301 200.926 647.192 198.195 639.532C196.682 635.286 195.123 630.938 195.453 626.26L195.464 626.294ZM408.751 557.112C410.993 558.786 413.007 560.243 414.953 561.768C421.233 566.708 428.265 566.685 435.126 563.908C440.816 561.597 446.334 558.615 450.76 554.107C452.057 552.787 452.751 553.607 453.685 554.517C454.424 555.234 454.333 556.168 454.674 556.964C455.778 559.571 455.107 562.382 455.767 565.023C457.269 570.988 456.097 576.781 454.197 582.393C453.025 585.853 449.918 588.095 446.675 589.017C442.34 590.246 437.994 591.59 433.556 592.455C427.856 593.559 422.189 595.437 416.694 591.214C413.906 589.074 412.825 588.425 413.61 585.022C414.623 580.651 414.27 576.28 414.247 571.898C414.224 567.744 413.451 563.76 410.117 560.755C409.263 559.981 408.456 559.047 408.751 557.124V557.112ZM157.927 447.147C157.063 447.739 156.596 448.081 156.095 448.388C149.541 452.44 142.51 455.866 137.037 461.387C133.76 464.699 129.948 465.86 125.636 466.076C119.867 466.372 114.269 467.51 108.693 468.91C107.783 469.138 106.884 470.071 105.792 468.979C108.557 463.606 113.483 460.419 117.989 456.982C123.849 452.509 130.164 448.616 136.263 444.461C137.15 443.858 137.97 443.175 139.119 443.221C145.468 443.494 151.669 444.393 157.939 447.147H157.927ZM143.295 464.551L143.135 463.72C144.194 462.923 145.218 462.07 146.321 461.353C152.249 457.471 157.905 453.123 164.345 450.073C169.488 447.637 173.516 449.014 176.463 453.965C177.316 455.4 178.124 456.868 178.784 458.393C181.651 465.063 181.651 465.143 174.688 467.306C172.639 467.943 170.671 468.501 168.259 467.328C163.321 464.938 157.939 464.073 152.375 464.506C149.371 464.733 146.333 464.551 143.306 464.551H143.295ZM380.545 462.935C383.48 462.081 385.631 461.592 387.906 461.455C390.899 461.262 393.47 461.614 395.814 463.868C399.74 467.636 404.029 471.028 408.035 474.715C409.468 476.036 410.595 477.72 411.698 479.337C413.098 481.397 412.666 483.013 410.652 484.914C408.899 486.576 407.568 486.064 405.964 484.618C402.471 481.499 398.67 478.711 395.279 475.49C390.785 471.221 385.904 467.408 380.545 462.935ZM203.873 476.503C210.984 481.078 215.308 486.872 217.277 494.088C218.551 498.766 217.356 502.17 213.385 505.095C213.067 504.799 212.646 504.56 212.418 504.184C209.699 499.802 206.809 495.579 202.189 492.916C201.119 492.301 200.858 491.356 201.506 490.218C203.793 486.109 204.01 481.59 203.884 476.503H203.873ZM188.706 518.128C192.108 521.816 194.19 525.56 195.794 529.681C196.705 532.037 196.159 533.733 194.566 535.418C193.143 536.909 191.414 537.808 189.411 538.036C186.248 538.4 183.073 538.605 179.887 538.309C178.033 538.138 176.36 537.444 174.722 536.658C173.561 536.101 173.481 534.985 173.698 533.915C173.914 532.811 174.835 532.64 175.814 532.743C176.258 532.788 176.701 532.902 177.157 532.925C180.627 533.096 182.982 531.821 184.473 528.406C185.861 525.219 187.249 522.043 188.717 518.128H188.706ZM408.797 574.243C408.797 575.597 408.831 576.952 408.797 578.306C408.729 580.355 407.716 580.924 405.827 580.15C404.018 579.422 402.22 578.5 400.32 578.17C395.746 577.362 393.527 571.056 396.463 567.357C397.862 565.581 399.296 563.839 400.752 562.121C402.152 560.459 403.483 560.778 404.928 562.2C408.342 565.547 409.002 569.758 408.797 574.232V574.243ZM222.898 496.422C228.336 506.984 223.592 519.676 214.148 521.201C214.682 518.208 215.57 515.294 214.773 512.266C214.421 510.923 215.115 510.115 216.344 509.386C220.872 506.711 223.284 502.75 222.886 496.422H222.898ZM421.472 599.751C418.013 601.253 415.43 601.72 412.745 602.073C408.558 602.642 403.278 598.362 403.301 593.741C403.301 591.794 402.948 589.837 402.835 587.89C402.778 586.877 402.436 585.443 403.79 585.227C405.201 584.988 406.897 584.999 407.579 586.82C407.898 587.663 408.217 588.539 408.308 589.427C408.638 592.568 410.481 594.549 412.984 596.234C415.271 597.77 417.843 598.556 421.461 599.751H421.472ZM439.939 597.417C435.547 600.377 431.622 600.286 427.628 599.751C431.167 597.736 435.001 597.395 439.939 597.417Z" fill="#1A5C61"/>
<path d="M70.3597 103.628C70.3369 106.382 70.8148 108.738 73.0791 110.628C74.49 111.8 75.7644 112.142 77.6305 111.812C88.0416 109.968 98.5211 108.454 108.91 106.507C115.884 105.199 122.757 103.343 129.686 101.761C138.527 99.7236 147.516 98.2211 156.164 95.5577C166.154 92.4844 176.565 91.2551 186.464 87.9315C187.898 87.4534 189.354 86.9981 190.72 86.3607C194.998 84.3346 195.988 80.5671 193.178 76.7198C192.29 75.5019 191.209 74.3637 190.003 73.4759C180.4 66.3505 171.399 58.4512 161.318 51.9177C147.971 43.2671 134.852 34.2409 120.481 27.3204C115.714 25.0212 110.844 22.8244 105.348 22.8357C101.627 22.8357 98.8169 24.2585 96.3819 27.2293C91.7623 32.875 89.3388 39.5906 86.4487 46.0899C81.0212 58.3146 77.528 71.2222 73.9097 84.0387C72.1119 90.4014 71.5089 97.0943 70.3597 103.639V103.628Z" fill="#1A5C61"/>
<path d="M546.828 118.436C546.748 116.638 546.68 114.851 546.6 113.052C545.041 110.673 545.349 107.851 544.893 105.244C543.153 95.3869 540.627 85.7232 537.93 76.1165C536.314 70.357 533.777 64.8138 531.695 59.1454C530.511 55.9356 528.122 53.1697 525.573 50.7794C524.333 49.607 522.694 49.2655 520.953 49.1631C515.719 48.833 510.724 49.5159 505.923 51.7469C500.177 54.4104 494.533 57.199 488.992 60.3064C483.53 63.3796 477.716 65.9976 472.197 69.0936C465.985 72.5766 460.091 76.4808 454.231 80.5556C448.291 84.6874 442.158 88.5688 436.185 92.6892C433.42 94.5901 431.053 96.9462 428.402 98.9609C425.751 100.976 425.023 105.642 428.96 107.68C431.11 108.795 433.135 110.07 435.479 110.81C444.719 113.758 454.299 115.26 463.686 117.605C469.694 119.108 475.747 120.383 481.766 121.748C488.377 123.251 495.136 124.275 501.781 125.778C513.284 128.384 525.038 129.523 536.564 131.97C538.032 132.277 539.591 132.243 541.104 132.254C544.62 132.266 546.282 130.695 546.543 127.075C546.748 124.207 546.282 121.304 546.85 118.448L546.828 118.436Z" fill="#1A5C61"/>
</g>
</g>
</g>
</g>
</svg>
