<svg width="397" height="655" viewBox="0 0 397 655" fill="none" xmlns="http://www.w3.org/2000/svg">
<g id="sideleft">
<g id="Group">
<path id="id5" d="M25.25 352.723C22.54 352.193 21.94 350.313 21.77 347.833C21.54 344.573 22.68 341.523 22.73 338.293C22.8 333.613 21.5 329.204 20.67 324.714C19.36 317.614 18.2 310.513 17.6 303.313C17.33 300.143 16.02 297.213 15.61 294.003C15.11 290.153 14.85 286.263 14.43 282.423C13.82 276.893 12.76 271.454 12.02 265.964C11.58 262.664 11.49 259.333 11.04 256.023C9.22001 242.613 8.99 229.103 9.22 215.583C9.31 210.463 9.32 210.453 14.3 209.143C18.23 208.113 22.17 207.443 26.25 207.613C30.86 207.813 35.37 206.883 39.91 206.223C40.32 206.163 40.73 206.003 41.14 206.003C48.81 206.103 56.4 204.603 64.1 205.073C69.06 205.383 72.1 207.533 73.9 212.113C75.5 216.193 76.11 220.493 76.32 224.753C76.68 232.283 78.39 239.593 79.36 247.013C79.85 250.723 80.63 254.383 80.69 258.173C80.76 262.333 80.67 266.763 81.74 270.583C83.99 278.583 83.87 286.733 84.84 294.803C86.02 304.583 86.68 314.443 88.34 324.133C89.65 331.803 89.73 339.613 91.41 347.223C91.47 347.493 91.49 347.783 91.48 348.053C91.31 358.093 92.93 368.073 92.41 378.133C92.31 379.983 91.79 381.703 91.4 383.453C90.98 385.333 89.62 386.573 87.74 387.113C83.48 388.343 79.25 389.413 74.76 389.863C65.33 390.813 55.92 391.513 46.45 391.403C41.11 391.343 38.91 389.983 36.95 385.123C34.04 377.913 31.05 370.713 28.91 363.233C28.11 360.443 27.55 357.563 26.54 354.823C26.26 354.063 25.7 353.403 25.26 352.693C36.28 352.403 43.71 345.563 44.97 334.573C45.24 332.233 44.6 331.203 42.69 330.883C40.56 330.523 39.63 331.603 39.36 333.593C39.23 334.553 38.96 335.503 38.67 336.423C36.34 343.663 32.87 346.193 25.2 346.293C24.95 346.293 24.69 346.473 24.54 346.533C24.05 348.703 25.61 350.573 25.29 352.703L25.25 352.723ZM61.89 286.233C62.03 281.013 61.06 275.913 59.76 270.943C58.46 265.983 57.14 260.943 53.72 256.823C48.45 250.453 41.55 250.853 37.34 257.953C35.55 260.963 34.41 264.283 33.77 267.743C31.65 279.253 32.68 290.533 36.62 301.513C38.04 305.473 40.08 309.143 43.77 311.593C47.94 314.363 51.99 313.953 55.39 310.403C57.18 308.533 58.25 306.303 59.08 303.903C61.06 298.173 61.69 292.243 61.88 286.233H61.89Z" fill="#3C3C3C"/>
<g id="id1">
<path d="M133.24 83.5635C132.98 87.4735 134.81 90.1735 138.04 92.1835C150.85 100.133 163.42 108.463 177.2 114.773C182.17 117.043 187.16 117.693 192.29 116.923C205.15 114.993 217.79 111.953 229.89 107.143C241.75 102.423 251.9 95.1235 260.32 85.4835C263.87 81.4135 265.96 77.1935 262.96 71.8135C262 70.0935 263.36 69.6335 264.82 69.6735C270.69 69.8335 276.59 69.6735 282.42 70.2635C297.56 71.8035 312.75 73.0535 327.73 75.9035C335.28 77.3335 342.74 79.1735 349.94 81.9135C352.41 82.8535 354.83 83.9835 357.18 85.1835C363.56 88.4535 367.66 93.6735 370.52 100.203C375.56 111.713 377.87 123.893 380.13 136.123C381.81 145.203 382.47 154.413 383.4 163.573C385.14 180.803 386.71 198.053 388.08 215.313C389.03 227.283 389.54 239.293 390.2 251.293C390.5 256.733 390.8 262.173 390.9 267.613C391.21 283.833 390.53 300.033 389.2 316.193C387.96 331.383 385.6 346.423 382.26 361.293C380.28 370.113 376.45 377.863 368.67 383.143C364.13 386.223 358.96 387.963 353.83 389.543C337.01 394.733 319.71 397.573 302.28 399.983C287.9 401.973 273.5 403.723 259.08 405.303C248.39 406.473 237.67 407.323 226.94 408.033C221.51 408.393 216.1 409.283 210.63 409.033C208.11 409.053 205.54 408.413 203.1 409.573C199.74 409.983 196.37 409.923 193 409.863C189.1 409.963 185.17 409.203 181.31 410.363C177.93 410.783 174.53 410.753 171.14 410.693C162.99 410.673 154.84 410.653 146.69 410.643C145.86 410.643 145.02 410.643 144.38 411.293C131.19 411.953 118.02 411.193 104.85 410.623C104.55 407.603 107.39 407.473 108.97 406.723C112.76 404.913 115.63 402.343 117.97 398.923C123.12 391.433 124.79 382.853 125.74 374.103C125.98 371.893 127.05 369.733 126.58 367.513C125.34 361.763 126.31 355.803 124.93 350.113C123.91 345.883 124.69 341.473 123.28 337.323C121.92 333.323 121.58 329.203 121.55 324.983C121.53 321.673 121.07 318.313 120.55 315.053C119.3 307.103 118.21 299.123 117.59 291.133C116.95 282.823 115.77 274.583 115.04 266.303C114.81 263.663 114.07 261.093 114.11 258.453C114.21 251.883 112.88 245.453 112.16 238.983C111.06 229.213 109.08 219.543 107.37 209.853C105.63 199.983 103.34 190.283 98.45 181.353C93.53 172.363 87.37 164.673 78.07 159.893C74.86 158.243 71.81 156.313 68.43 154.923C64.47 153.303 60.87 151.003 57.38 148.313C50.48 143.003 49.61 131.983 52.59 125.413C55.12 119.833 58.68 114.773 62.75 110.163C64.39 108.303 66.2 106.563 68.29 105.093C74.28 100.853 80.89 97.9635 87.73 95.4935C99.79 91.1435 112.13 87.7335 124.57 84.7435C127.36 84.0735 130.25 83.3135 133.21 83.5635H133.24ZM166.69 274.753C167.68 280.003 168.12 285.333 169.44 290.533C171.7 299.413 173.76 308.343 177.95 316.583C178.14 316.903 178.33 317.213 178.51 317.533C178.59 317.803 178.67 318.063 178.75 318.333C178.94 318.623 179.14 318.923 179.33 319.213C181.11 324.093 184.41 328.063 188.57 330.713C195.12 334.873 202.3 337.783 209.98 339.633C224.36 343.103 238.8 344.803 253.53 342.803C266.55 341.033 277.93 335.423 288.14 327.383C297.13 320.303 302.43 310.833 305.46 299.873C308.65 288.343 309.64 276.533 310.27 264.693C311.38 243.833 309.7 223.133 306.08 202.563C303.74 189.313 300.19 176.473 294.49 164.223C292.39 159.703 289.24 156.433 285.2 153.753C266.67 141.483 246.39 137.093 224.54 140.743C213.23 142.633 202.25 145.753 192.47 152.243C178.61 161.433 169.68 173.803 166.95 190.383C166.29 194.373 165.68 198.373 165.01 202.363C161.86 220.963 162.2 239.593 164.44 258.253C165.06 263.373 165.68 268.493 166.3 273.623C166.2 274.073 166.33 274.443 166.69 274.733V274.753Z" fill="#F180C1"/>
<path d="M264.2 518.523C264.08 521.013 264.38 523.523 263.74 526.013C263.22 528.013 262.09 529.283 260.16 529.643C246.77 532.193 233.53 532.043 220.59 527.243C216.71 525.803 215.6 524.124 215.77 519.944C216.12 511.114 218.31 502.603 220.26 494.043C222.24 485.343 225.13 476.903 227.62 468.343C228.35 465.853 228.92 463.323 229.97 460.903C232.65 454.703 239.69 451.793 245.99 454.253C251.21 456.293 254.52 459.933 255.78 465.363C259.11 479.613 262.4 493.864 263.55 508.504C263.81 511.834 264.32 515.153 264.2 518.513V518.523Z" fill="#F180C1"/>
<path d="M245.6 596.763C250.33 606.713 254.21 616.374 256.69 626.574C257.25 628.874 257.66 631.213 258.03 633.553C258.78 638.343 257.27 641.303 252.81 643.293C250.27 644.423 247.63 645.444 244.94 646.064C236.09 648.094 227.13 649.423 218 649.093C212.68 648.903 207.45 648.323 202.46 646.273C198.8 644.773 196.59 642.193 195.84 638.303C193.46 626.043 194.33 614.164 199.88 602.814C201.42 599.664 203.5 596.894 205.91 594.324C207.59 592.534 209.09 592.243 211.39 593.403C216.75 596.103 222.38 598.114 228.28 599.384C234.25 600.674 239.92 600.333 245.61 596.763H245.6Z" fill="#F180C1"/>
<path d="M180.95 635.333C178.59 633.173 178.27 630.203 177.87 627.313C176.55 617.883 177.67 608.673 180.71 599.673C182.38 594.723 185.47 590.723 189.02 586.983C190.47 585.453 191.83 585.063 193.76 586.113C196.44 587.573 199.24 588.823 202.25 590.283C200.8 592.193 199.41 593.873 198.19 595.673C192.81 603.603 189.83 612.343 189.61 621.973C189.54 625.043 189.44 628.113 189.35 631.183C185.72 630.883 183.46 633.363 180.95 635.323V635.333Z" fill="#F180C1"/>
<path d="M212.81 567.373C213.3 571.683 213.67 575.933 214.68 580.103C215.18 582.143 215.82 584.123 216.97 585.903C218.94 588.923 221.49 590.694 225.35 590.194C229.2 589.694 231.82 587.783 233.11 584.153C234.2 581.113 234.37 577.883 234.81 574.723C234.98 573.523 234.66 572.243 235.55 570.953C236.79 571.273 237.12 572.403 237.61 573.283C239.52 576.733 241.78 579.864 245.23 581.934C246.04 582.424 246.31 583.033 246.25 583.993C245.8 591.183 240.89 595.283 233.66 594.703C226.02 594.083 219.05 591.383 212.21 588.173C209.8 587.043 208.69 585.263 208.82 582.533C209.08 577.193 211.01 572.343 212.79 567.393L212.81 567.373Z" fill="#F180C1"/>
<path d="M202.86 584.613C199.04 583.383 195.72 581.774 192.77 579.434C191.61 578.514 191.27 577.123 191.25 575.673C191.15 569.813 193.55 564.563 195.37 559.173C195.73 558.103 196.65 558.133 197.43 558.483C200.62 559.933 203.98 560.813 207.34 561.703C208.79 562.093 208.93 562.884 208.4 564.194C207.03 567.544 205.72 570.903 204.6 574.353C203.56 577.553 203.41 580.873 202.88 584.593L202.86 584.613Z" fill="#F180C1"/>
<path d="M231 566.833C230.1 572.003 229.29 576.763 228.44 581.523C228.27 582.493 227.82 583.343 227.05 584.023C224.9 585.913 222.55 585.553 221.29 582.983C219.62 579.563 219.04 575.893 218.97 572.093C218.86 565.853 218.78 565.873 224.86 566.503C226.64 566.683 228.43 566.703 230.99 566.843L231 566.833Z" fill="#F180C1"/>
<path d="M252.14 579.013C250.86 579.603 249.88 578.764 249.04 578.194C245.78 575.964 243.07 573.183 241.38 569.543C240.52 567.703 240.82 567.143 242.94 566.773C244.99 566.413 247.13 566.713 249.15 565.973C250.36 565.533 250.86 566.414 251.36 567.324C252.52 569.444 254.06 571.173 256.2 572.413C258.43 573.713 258.65 574.943 257.3 577.023C256.06 578.923 254.16 579.173 252.16 579.023L252.14 579.013Z" fill="#F180C1"/>
<path d="M256.52 564.833C258.87 563.083 261.39 562.063 263.01 559.883C263.52 559.193 264.2 559.383 264.84 559.803C266.66 560.983 269.14 561.643 269.15 564.393C269.16 566.743 267.19 568.193 263.83 568.783C260.58 569.353 258.57 567.643 256.52 564.833Z" fill="#F180C1"/>
<path d="M212.36 534.693C212.79 535.313 213.08 535.533 213.05 535.723C212.43 540.873 212.66 546.013 213.05 551.153C213.22 553.473 211.63 553.863 210.02 554.433C207.52 555.333 205.3 554.843 203.49 552.973C201.86 551.283 202.45 549.323 203.29 547.503C205.52 542.713 208.75 538.663 212.35 534.693H212.36Z" fill="#F180C1"/>
</g>
<g id="id2">
<path d="M133.24 83.5635C130.27 83.3035 127.38 84.0735 124.6 84.7435C112.15 87.7335 99.81 91.1435 87.76 95.4935C80.92 97.9635 74.31 100.853 68.32 105.093C66.23 106.573 64.43 108.303 62.78 110.163C58.71 114.773 55.15 119.833 52.62 125.413C49.64 131.983 50.51 143.003 57.41 148.313C60.9 151.003 64.5 153.293 68.46 154.923C71.85 156.313 74.89 158.243 78.1 159.893C87.4 164.673 93.56 172.363 98.48 181.353C103.37 190.283 105.66 199.973 107.4 209.853C109.11 219.543 111.09 229.223 112.19 238.983C112.92 245.453 114.24 251.893 114.14 258.453C114.1 261.093 114.84 263.663 115.07 266.303C115.8 274.593 116.97 282.823 117.62 291.133C118.24 299.123 119.33 307.113 120.58 315.053C121.09 318.323 121.55 321.673 121.58 324.983C121.61 329.203 121.95 333.323 123.31 337.323C124.72 341.473 123.93 345.883 124.96 350.113C126.33 355.803 125.37 361.763 126.61 367.513C127.09 369.733 126.01 371.893 125.77 374.103C124.82 382.853 123.14 391.423 118 398.923C115.65 402.343 112.79 404.913 109 406.723C107.42 407.483 104.58 407.613 104.88 410.623C93.84 410.823 82.89 410.243 71.95 408.443C66.56 407.553 61.3 406.373 56.05 404.983C52.46 404.033 49.59 401.933 47.01 399.363C46.63 398.983 46.21 398.563 46.49 397.913C46.76 397.263 47.4 397.323 47.91 397.323C55.04 397.383 62.13 396.623 69.25 396.463C75.88 396.313 82.26 394.923 88.54 393.043C94.25 391.333 97.67 387.653 98.39 381.403C99.19 374.423 99.33 367.443 98.64 360.503C97 344.133 94.58 327.843 92.95 311.463C91.35 295.373 89.07 279.353 87.42 263.273C85.89 248.293 83.47 233.443 81.38 218.533C80.83 214.633 79.31 211.033 77.88 207.383C75.2 200.493 69.28 199.183 62.99 198.533C57.25 197.933 51.53 198.743 45.88 199.553C37.04 200.833 28.15 201.603 19.28 202.593C16.08 202.953 12.93 203.463 9.82999 204.323C7.14999 205.063 7.05 204.993 6.68 202.283C5.36 192.573 5.4 182.823 5.71 173.053C6.08 161.283 7.55999 149.703 10.97 138.403C15.87 122.153 25.47 109.783 40.61 101.643C54.88 93.9635 70.21 89.4735 85.77 85.5335C100.38 81.8235 115.31 79.7235 130.09 76.9035C133.11 76.3235 133.46 76.7035 133.46 79.7935C133.46 81.0435 133.32 82.3034 133.24 83.5534V83.5635Z" fill="#D674CB"/>
<path d="M211.46 528.913C205.35 525.693 200.26 521.244 196.07 515.814C192.47 511.144 190.04 505.763 187.72 500.403C185.84 496.053 182.77 494.373 178.23 494.463C174.01 494.553 173.72 494.084 172.6 490.004C171.8 487.094 172.3 484.173 172.04 481.273C171.94 480.093 172.65 479.473 173.62 479.093C175.43 478.383 177.22 477.483 179.1 477.093C183.41 476.203 185.83 473.533 187.2 469.533C188.92 464.533 190.35 459.443 192.73 454.673C199.79 440.483 211.12 430.783 224.94 423.643C225.42 423.393 226.01 423.354 226.54 423.214C226.08 430.804 227.83 438.203 228.68 445.663C229.1 449.333 229.46 452.633 226.76 455.843C224.82 458.153 224.15 461.324 223.2 464.254C218.25 479.524 213.88 494.944 211.02 510.754C210.57 513.224 210.18 515.703 209.94 518.203C209.68 520.873 209.88 523.543 211.43 525.863C212.17 526.963 212.22 527.883 211.44 528.903L211.46 528.913Z" fill="#D674CB"/>
<path d="M269.48 527.103C270.23 513.943 268.9 500.953 266.16 488.083C264.51 480.313 263.09 472.493 261.08 464.803C259.77 459.783 257.86 455.263 253.14 452.523C251.7 451.683 251.62 450.334 251.39 448.944C250.14 441.524 248.78 434.124 247.63 426.684C247.09 423.214 245.75 419.983 245.07 416.573C253.58 416.563 262.08 416.543 270.59 416.553C272.25 416.553 273.91 416.873 275.55 417.003C279.78 417.333 283.54 419.374 287.67 419.964C288.7 427.544 286.68 434.634 284.14 441.634C282.24 446.874 280.11 452.053 278.42 457.363C275.6 466.223 274.4 475.243 275.61 484.593C276.7 493.043 279.13 501.233 279.94 509.713C280.36 514.163 280.81 518.623 279.34 522.993C276.21 524.723 273.43 527.313 269.48 527.093V527.103Z" fill="#D674CB"/>
<path d="M61.89 286.233C61.7 292.243 61.08 298.173 59.09 303.903C58.26 306.303 57.19 308.533 55.4 310.403C52 313.953 47.96 314.363 43.78 311.593C40.09 309.143 38.05 305.463 36.63 301.513C32.68 290.533 31.65 279.253 33.78 267.743C34.42 264.283 35.56 260.973 37.35 257.953C41.57 250.853 48.46 250.453 53.73 256.823C57.14 260.943 58.47 265.993 59.77 270.943C61.07 275.913 62.04 281.013 61.9 286.233H61.89Z" fill="#D674CB"/>
<path d="M25.25 352.723C25.58 350.593 24.01 348.733 24.5 346.553C24.66 346.493 24.91 346.313 25.16 346.313C32.83 346.213 36.3 343.683 38.63 336.443C38.93 335.523 39.19 334.573 39.32 333.613C39.59 331.623 40.52 330.553 42.65 330.903C44.56 331.223 45.2 332.253 44.93 334.593C43.67 345.593 36.24 352.423 25.22 352.713L25.25 352.723Z" fill="#D674CB"/>
</g>
<g id="id4">
<path d="M3.52 235.473C3.26 232.553 2.66999 229.613 2.80999 226.713C3.38999 214.783 1.26999 203.063 0.359992 191.243C-0.430008 180.893 0.189995 170.583 1.15999 160.273C1.82999 153.163 3.1 146.183 4.99 139.293C8.74 125.613 15.43 113.723 26.45 104.583C31.61 100.303 37.32 96.7135 43.49 94.0535C45.77 93.0735 46.29 91.9135 45.98 89.7035C44.93 82.3635 44.45 74.9735 44.15 67.5735C43.72 56.8035 44.16 46.0935 46.15 35.4835C46.61 33.0435 47.46 30.7135 48.39 28.3935C49.92 24.5635 52.8 23.2935 56.62 23.3935C71.94 23.8135 86.25 27.8435 99.98 34.6635C113.12 41.1835 124.04 50.2635 133.86 61.7835C134.26 57.8235 134.58 54.3235 134.96 50.8235C136.33 38.1735 138.64 25.6935 141.89 13.3935C142.67 10.4235 143.83 7.58346 145.08 4.76346C146.65 1.22346 149.26 -0.0765424 153.07 0.00345759C170.5 0.363458 187.01 4.41346 202.82 11.6835C216.54 17.9935 228.9 26.2835 239.57 36.9335C246.58 43.9335 252.78 51.7035 257.48 60.4835C259.08 63.4635 260.97 64.4735 264.3 64.3535C275.92 63.9435 287.45 65.3435 298.99 66.5435C310.67 67.7535 322.3 69.1534 333.76 71.7234C341.25 73.4034 348.64 75.3435 355.73 78.3735C365.53 82.5535 371.96 89.6935 376.18 99.4035C380.18 108.593 382.34 118.193 384.13 127.943C386.66 141.693 388.22 155.553 389.38 169.473C390.31 180.603 391.6 191.703 392.6 202.823C393.29 210.473 393.91 218.133 394.28 225.803C395 240.593 396.06 255.363 396.22 270.173C396.38 285.133 395.69 300.053 394.56 314.973C393.46 329.473 391.6 343.853 388.52 358.063C387.48 362.843 386.03 367.503 384.27 372.063C380.91 380.743 374.77 386.633 366.38 390.473C358.59 394.033 350.42 396.283 342.11 398.163C332.59 400.313 323.14 402.783 313.42 403.963C311.65 404.013 309.8 403.523 308.17 404.673C302.59 405.793 296.81 405.773 291.08 407.363C292.85 413.633 294.12 419.743 293.47 426.093C293.13 429.433 292.65 432.733 291.57 435.933C289.43 442.273 287.53 448.713 285.11 454.943C280.52 466.753 279.45 478.743 282.18 491.113C283.2 495.743 284.27 500.383 284.89 505.083C286.92 520.603 284.63 535.143 274.68 547.843C272.61 550.483 270.24 552.783 267.39 554.573C267.86 555.813 269.02 556.203 269.98 556.603C275.91 559.093 276.35 568.503 269.8 572.353C268.97 572.843 268.04 573.363 267.11 573.443C264.18 573.693 262.86 574.903 261.95 578.003C260.99 581.263 258.08 583.743 254.24 584.043C252.12 584.213 251.23 584.943 250.74 587.173C250.48 588.363 250.34 589.823 249.63 591.043C248.86 592.363 249.39 593.633 250.16 594.943C256.85 606.233 260.83 618.523 263.23 631.343C263.64 633.513 263.66 635.823 263.42 638.023C263.04 641.533 261.15 644.243 258.21 646.233C254.69 648.613 250.79 650.233 246.72 651.173C234.96 653.893 223.07 655.573 210.98 653.903C204.59 653.023 198.24 651.773 193.67 646.523C192.97 645.723 192.1 645.423 191.07 645.473C189.22 645.563 187.46 645.023 185.72 644.553C178.78 642.653 174.08 638.323 172.99 631.093C170.68 615.763 171.96 601.013 181.13 587.803C181.76 586.893 182.35 585.843 183.22 585.203C186.02 583.133 187.24 581.043 185.71 577.303C184.63 574.663 185.97 571.533 186.69 568.683C187.57 565.163 188.6 561.673 190.05 558.343C190.72 556.803 190.46 555.883 188.88 554.983C169.4 543.753 158.56 526.373 153.29 504.973C149.59 489.963 147.78 474.783 148.61 459.313C149.31 446.253 151.81 433.583 156.61 421.383C157.15 420.003 158.09 418.683 157.93 416.823C156.79 416.323 155.55 416.573 154.36 416.593C133.25 416.923 112.14 417.013 91.06 415.703C80.62 415.053 70.2 414.163 59.94 411.703C49.99 409.323 42.66 403.543 36.81 395.503C32.75 389.933 30.03 383.673 27.48 377.323C22.73 365.483 20.32 353.003 17.6 340.613C13.77 323.153 11.01 305.493 8.54999 287.813C6.65999 274.273 5.68999 260.603 4.30999 246.993C4.38999 246.933 4.55 246.843 4.54 246.833C4.47 246.683 4.37 246.543 4.27 246.403C4.02 242.963 3.77999 239.523 3.52999 236.093C3.60999 236.043 3.77 235.943 3.76 235.933C3.68 235.783 3.59 235.643 3.49 235.493L3.52 235.473ZM180.95 635.333C183.06 638.823 186.58 639.373 190.59 640.053C190.15 636.883 189.75 634.033 189.35 631.193C189.44 628.123 189.54 625.053 189.61 621.983C189.83 612.353 192.8 603.623 198.19 595.683C199.41 593.883 200.8 592.203 202.25 590.293C199.24 588.823 196.44 587.583 193.76 586.123C191.83 585.073 190.47 585.463 189.02 586.993C185.47 590.723 182.39 594.733 180.71 599.683C177.67 608.683 176.55 617.883 177.87 627.323C178.27 630.203 178.59 633.183 180.95 635.343V635.333ZM245.06 416.573C245.74 419.983 247.09 423.213 247.62 426.683C248.77 434.123 250.13 441.523 251.38 448.943C251.61 450.323 251.69 451.683 253.13 452.523C257.85 455.263 259.76 459.783 261.07 464.803C263.08 472.503 264.5 480.313 266.15 488.083C268.89 500.953 270.22 513.933 269.47 527.103C269.19 529.193 267.29 530.263 266.38 531.963C265.93 532.803 265.03 533.483 265.44 534.573C267.02 538.743 266.61 543.193 266.98 547.833C270.34 546.053 271.66 543.073 273.34 540.463C276.75 535.153 278.68 529.283 279.33 523.013C280.8 518.643 280.36 514.193 279.93 509.733C279.12 501.253 276.69 493.053 275.6 484.613C274.39 475.263 275.6 466.233 278.41 457.383C280.1 452.073 282.23 446.903 284.13 441.653C286.67 434.653 288.69 427.563 287.66 419.983C288.24 416.883 287.31 413.913 286.82 410.913C286.51 409.013 285.42 408.113 283.34 408.143C281.49 408.173 279.81 408.853 278 409.013C268.48 409.833 258.93 410.533 249.44 411.663C246.31 412.033 243.1 412.213 239.55 412.663C241.59 414.383 243.97 414.583 245.05 416.613L245.06 416.573ZM226.55 423.223C227.26 419.213 228.24 415.353 232.99 413.533C229.83 412.663 227.44 413.843 224.98 413.963C216.92 414.343 208.89 414.983 200.84 415.523C192.65 416.073 184.4 415.483 176.21 416.463C173.6 416.773 170.92 416.993 168.34 417.053C164.59 417.143 163.33 419.193 162.1 422.023C159.08 428.973 157.6 436.343 156.09 443.703C155.03 448.873 154.22 454.093 154.32 459.423C154.42 465.143 154.32 470.873 154.37 476.593C154.38 478.263 154.44 479.953 154.72 481.583C155.71 487.333 156.62 493.093 157.58 498.833C159.24 508.753 163.24 517.733 167.69 526.543C171.33 533.753 177.25 539.193 183.14 544.523C186.3 547.383 189.64 550.133 193.79 551.663C196.58 552.703 196.9 552.703 197.21 549.843C197.35 548.563 197.76 547.423 198.18 546.233C200.72 538.993 205.76 533.703 211.48 528.913C212.25 527.893 212.2 526.973 211.47 525.873C209.92 523.563 209.72 520.893 209.98 518.213C210.22 515.723 210.62 513.233 211.06 510.763C213.91 494.953 218.28 479.533 223.24 464.263C224.19 461.333 224.86 458.163 226.8 455.853C229.49 452.653 229.13 449.353 228.72 445.673C227.87 438.203 226.12 430.813 226.58 423.223H226.55ZM25.25 352.723C25.68 353.433 26.25 354.083 26.53 354.853C27.55 357.593 28.11 360.473 28.9 363.263C31.04 370.743 34.03 377.933 36.94 385.153C38.9 390.013 41.1 391.373 46.44 391.433C55.92 391.543 65.33 390.843 74.75 389.893C79.24 389.443 83.47 388.373 87.73 387.143C89.6 386.603 90.97 385.353 91.39 383.483C91.78 381.733 92.3 380.023 92.4 378.163C92.92 368.103 91.3 358.123 91.47 348.083C91.47 347.803 91.46 347.523 91.4 347.253C89.72 339.653 89.64 331.843 88.33 324.163C86.67 314.473 86.01 304.613 84.83 294.833C83.86 286.763 83.98 278.613 81.73 270.613C80.66 266.803 80.75 262.363 80.68 258.203C80.62 254.413 79.84 250.763 79.35 247.043C78.38 239.623 76.67 232.313 76.31 224.783C76.11 220.523 75.5 216.223 73.89 212.143C72.09 207.563 69.05 205.413 64.09 205.103C56.4 204.623 48.8 206.123 41.13 206.033C40.72 206.033 40.31 206.193 39.9 206.253C35.37 206.913 30.85 207.833 26.24 207.643C22.16 207.473 18.21 208.143 14.29 209.173C9.31 210.483 9.29 210.493 9.21 215.613C8.98 229.133 9.20999 242.643 11.03 256.053C11.48 259.373 11.57 262.693 12.01 265.993C12.75 271.483 13.81 276.923 14.42 282.453C14.84 286.293 15.11 290.183 15.6 294.033C16.01 297.233 17.33 300.173 17.59 303.343C18.19 310.533 19.35 317.643 20.66 324.743C21.49 329.233 22.79 333.643 22.72 338.323C22.67 341.553 21.53 344.603 21.76 347.863C21.94 350.343 22.53 352.223 25.24 352.753L25.25 352.723ZM144.39 411.303C151.68 411.273 158.98 411.263 166.27 411.203C167.9 411.183 169.58 411.473 171.15 410.713C174.55 410.773 177.94 410.803 181.32 410.383C185.23 410.613 189.15 410.873 193.01 409.883C196.38 409.943 199.75 410.003 203.11 409.593C205.65 409.763 208.18 409.983 210.64 409.053C216.11 409.303 221.52 408.413 226.95 408.053C237.68 407.343 248.4 406.493 259.09 405.323C273.51 403.743 287.91 401.993 302.29 400.003C319.72 397.593 337.02 394.753 353.84 389.563C358.97 387.983 364.14 386.243 368.68 383.163C376.46 377.883 380.29 370.123 382.27 361.313C385.61 346.443 387.97 331.393 389.21 316.213C390.53 300.053 391.21 283.853 390.91 267.633C390.81 262.193 390.51 256.743 390.21 251.313C389.55 239.313 389.04 227.313 388.09 215.333C386.72 198.073 385.16 180.823 383.41 163.593C382.48 154.433 381.82 145.223 380.14 136.143C377.88 123.923 375.57 111.733 370.53 100.223C367.67 93.6934 363.57 88.4735 357.19 85.2035C354.83 83.9935 352.42 82.8735 349.95 81.9335C342.75 79.1935 335.29 77.3535 327.74 75.9235C312.76 73.0835 297.57 71.8235 282.43 70.2835C276.6 69.6935 270.7 69.8535 264.83 69.6935C263.37 69.6535 262.01 70.1135 262.97 71.8335C265.97 77.2035 263.88 81.4335 260.33 85.5035C251.9 95.1435 241.76 102.443 229.9 107.163C217.8 111.983 205.16 115.013 192.3 116.943C187.17 117.713 182.18 117.063 177.21 114.793C163.42 108.483 150.86 100.153 138.05 92.2035C134.82 90.1935 132.99 87.4935 133.25 83.5835C133.33 82.3335 133.47 81.0735 133.47 79.8235C133.47 76.7435 133.12 76.3635 130.1 76.9335C115.31 79.7435 100.39 81.8535 85.78 85.5635C70.23 89.5135 54.9 94.0035 40.62 101.673C25.47 109.813 15.88 122.183 10.98 138.433C7.57 149.723 6.08999 161.313 5.71999 173.083C5.40999 182.853 5.36999 192.603 6.68999 202.313C7.05999 205.023 7.16 205.103 9.84 204.353C12.94 203.493 16.09 202.983 19.29 202.623C28.16 201.633 37.05 200.863 45.89 199.583C51.54 198.763 57.26 197.963 63 198.563C69.29 199.213 75.21 200.533 77.89 207.413C79.31 211.063 80.84 214.663 81.39 218.563C83.48 233.463 85.9 248.313 87.43 263.303C89.07 279.383 91.35 295.413 92.96 311.493C94.59 327.873 97.01 344.153 98.65 360.533C99.34 367.463 99.21 374.453 98.4 381.433C97.68 387.683 94.26 391.363 88.55 393.073C82.27 394.953 75.89 396.343 69.26 396.493C62.15 396.653 55.05 397.413 47.92 397.353C47.4 397.353 46.77 397.293 46.5 397.943C46.22 398.593 46.64 399.013 47.02 399.393C49.6 401.963 52.47 404.063 56.06 405.013C61.31 406.403 66.57 407.593 71.96 408.473C82.9 410.273 93.85 410.853 104.89 410.653C118.06 411.213 131.23 411.973 144.42 411.323L144.39 411.303ZM157.17 5.73346C157.52 6.68346 157.65 7.22346 157.91 7.70346C163.98 18.9035 168.36 30.8135 172.5 42.8135C178.64 60.6135 183.53 78.7235 186.4 97.3735C187.04 101.513 186.66 105.723 187.71 109.813C188.1 111.323 188.42 111.803 190.14 111.653C198.09 110.983 205.81 109.123 213.44 106.983C224.19 103.973 234.8 100.513 243.82 93.4835C248.57 89.7835 252.98 85.7835 256.83 81.1335C259.05 78.4635 259.33 75.9034 257.8 72.7234C255.2 67.3134 252.46 61.9835 249.12 57.0035C237.65 39.9135 222.21 27.3235 203.96 18.1635C192.2 12.2635 179.72 8.27346 166.65 6.50346C163.68 6.10346 160.68 4.98346 157.17 5.72346V5.73346ZM264.2 518.523C264.32 515.163 263.81 511.853 263.55 508.513C262.4 493.863 259.11 479.613 255.78 465.373C254.51 459.953 251.21 456.303 245.99 454.263C239.69 451.803 232.65 454.723 229.97 460.913C228.93 463.323 228.35 465.853 227.62 468.353C225.13 476.903 222.24 485.343 220.26 494.053C218.31 502.613 216.12 511.123 215.77 519.953C215.61 524.133 216.71 525.813 220.59 527.253C233.53 532.053 246.77 532.203 260.16 529.653C262.09 529.283 263.23 528.023 263.74 526.023C264.38 523.533 264.07 521.023 264.2 518.533V518.523ZM245.6 596.763C239.9 600.333 234.24 600.673 228.27 599.383C222.37 598.113 216.73 596.103 211.38 593.403C209.08 592.243 207.59 592.533 205.9 594.323C203.49 596.893 201.41 599.663 199.87 602.813C194.32 614.153 193.45 626.043 195.83 638.303C196.58 642.183 198.79 644.763 202.45 646.273C207.44 648.323 212.67 648.903 217.99 649.093C227.12 649.413 236.08 648.093 244.93 646.063C247.63 645.443 250.27 644.423 252.8 643.293C257.26 641.303 258.78 638.343 258.02 633.553C257.65 631.213 257.24 628.873 256.68 626.573C254.2 616.383 250.32 606.713 245.59 596.763H245.6ZM60.02 29.2835C59.55 30.2135 59.96 30.8335 60.28 31.4335C63.43 37.3535 66.36 43.3835 68.96 49.5635C72.58 58.1735 76.65 66.6035 79.69 75.4535C81.93 81.9635 80.09 81.2635 87.69 79.6535C102.12 76.6035 116.51 73.3735 131.22 71.8535C133.54 71.6135 134.08 70.6835 132.7 68.9835C127.25 62.2335 121.45 55.7135 114.66 50.3535C100.13 38.8735 83.41 32.1735 65.2 29.1135C63.47 28.8235 61.64 28.5835 60.03 29.2835H60.02ZM181.79 110.693C182.38 108.983 182.14 107.433 182.01 105.933C181.24 96.6335 179.61 87.4635 177.4 78.4035C172.53 58.4635 166.07 39.0335 158.21 20.0835C156.26 15.3735 154.03 10.7135 150.57 6.87346C149.63 7.29346 149.54 8.00346 149.28 8.65346C146.03 17.0035 144.21 25.7135 142.6 34.4835C141.24 41.8835 140.74 49.3735 139.95 56.8435C139.08 65.1735 139.14 73.5235 138.4 81.8435C138.11 85.0835 139.5 86.8835 142.09 88.6235C152.18 95.4135 162.8 101.273 173.36 107.263C175.98 108.753 178.81 109.893 181.78 110.703L181.79 110.693ZM218.15 532.483C218.34 540.333 217.42 547.933 218.75 555.503C219.57 560.203 220.26 560.683 225.01 560.783C227.38 560.833 229.83 560.513 232.1 560.993C238.97 562.443 245.67 561.563 252.31 559.893C257.68 558.543 260.75 554.503 260.91 548.963C261 546.033 261.02 543.103 260.97 540.173C260.89 535.783 260 535.013 255.67 535.703C246.5 537.163 237.43 536.563 228.29 535.123C224.98 534.603 222.04 532.933 218.14 532.493L218.15 532.483ZM53.17 30.5335C50.77 38.2035 49.57 45.9035 49.44 53.8935C49.26 64.9335 50.48 75.9035 50.4 86.9235C50.4 87.7435 50.57 88.5835 50.8 89.3735C50.98 90.0235 51.3 90.7335 52.22 90.5135C52.93 90.3435 53.57 89.9535 53.68 89.2035C53.8 88.3835 53.84 87.5135 53.69 86.7035C53.01 82.8435 53.23 78.8835 52.64 75.0735C51.33 66.6735 52.49 58.3835 52.98 50.0635C53.08 48.3435 53.16 45.8435 55.08 45.4235C57.32 44.9235 58.15 47.3535 59.1 49.0135C59.66 49.9835 60.13 50.9935 60.63 51.9935C65.08 61.0135 68.8 70.3135 71.49 80.0135C71.68 80.6835 71.94 81.3334 72.22 81.9734C72.75 83.1634 73.53 83.7235 74.87 83.0735C75.92 82.5635 76.34 81.9035 75.85 80.7435C75.48 79.8435 75.23 78.8935 74.94 77.9635C70.15 62.7335 62.59 48.7035 55.95 34.2735C55.32 32.9035 54.59 31.5435 53.18 30.5335H53.17ZM212.81 567.373C211.03 572.313 209.1 577.173 208.84 582.513C208.71 585.243 209.82 587.033 212.23 588.153C219.07 591.353 226.03 594.063 233.68 594.683C240.91 595.273 245.82 591.163 246.27 583.973C246.33 583.013 246.07 582.403 245.25 581.913C241.79 579.843 239.53 576.723 237.63 573.263C237.14 572.383 236.81 571.253 235.57 570.933C234.68 572.223 235 573.513 234.83 574.703C234.39 577.873 234.21 581.093 233.13 584.133C231.83 587.763 229.21 589.683 225.37 590.173C221.51 590.673 218.96 588.903 216.99 585.883C215.84 584.113 215.2 582.123 214.7 580.083C213.68 575.913 213.32 571.663 212.83 567.353L212.81 567.373ZM231.68 424.393C232.52 432.383 233.32 439.973 234.11 447.563C234.24 448.823 235 449.373 236.1 448.963C238.41 448.113 240.79 448.453 243.15 448.353C245.69 448.243 245.88 448.073 245.32 445.713C244.3 441.373 243.79 436.973 243.2 432.573C242.68 428.733 241.89 424.903 240.57 421.213C239.95 419.473 238.72 418.253 236.86 418.403C235.07 418.543 233.24 419.053 232.61 421.183C232.26 422.383 231.92 423.583 231.68 424.403V424.393ZM202.86 584.613C203.39 580.893 203.54 577.573 204.58 574.373C205.7 570.923 207.01 567.553 208.38 564.213C208.92 562.893 208.78 562.103 207.32 561.723C203.96 560.833 200.6 559.943 197.41 558.503C196.63 558.153 195.71 558.123 195.35 559.193C193.54 564.583 191.13 569.823 191.23 575.693C191.25 577.133 191.59 578.533 192.75 579.453C195.7 581.793 199.02 583.403 202.84 584.633L202.86 584.613ZM231 566.833C228.44 566.703 226.64 566.683 224.87 566.493C218.79 565.863 218.87 565.843 218.98 572.083C219.05 575.883 219.63 579.553 221.3 582.973C222.56 585.543 224.91 585.903 227.06 584.013C227.83 583.343 228.28 582.483 228.45 581.513C229.3 576.753 230.11 571.993 231.01 566.823L231 566.833ZM252.14 579.013C254.15 579.163 256.04 578.913 257.28 577.013C258.64 574.943 258.41 573.703 256.18 572.403C254.05 571.163 252.5 569.433 251.34 567.313C250.85 566.403 250.35 565.523 249.13 565.963C247.11 566.693 244.97 566.393 242.92 566.763C240.8 567.143 240.5 567.703 241.36 569.533C243.06 573.173 245.77 575.953 249.02 578.183C249.85 578.753 250.84 579.593 252.12 579.003L252.14 579.013ZM212.36 534.693C208.76 538.663 205.53 542.713 203.3 547.503C202.45 549.323 201.87 551.293 203.5 552.973C205.3 554.843 207.52 555.333 210.03 554.433C211.63 553.863 213.23 553.463 213.06 551.153C212.68 546.013 212.44 540.863 213.06 535.723C213.08 535.543 212.8 535.313 212.37 534.693H212.36ZM256.52 564.833C258.57 567.643 260.58 569.353 263.83 568.783C267.19 568.193 269.16 566.743 269.15 564.393C269.14 561.643 266.66 560.983 264.84 559.803C264.19 559.383 263.52 559.193 263.01 559.883C261.39 562.063 258.87 563.083 256.52 564.833Z" fill="#601A61"/>
<path d="M166.3 273.643C165.68 268.523 165.06 263.403 164.44 258.273C162.2 239.623 161.86 220.983 165.01 202.383C165.69 198.393 166.3 194.393 166.95 190.403C169.68 173.823 178.61 161.453 192.47 152.263C202.25 145.773 213.22 142.653 224.54 140.763C246.4 137.113 266.68 141.503 285.2 153.773C289.24 156.453 292.39 159.723 294.49 164.243C300.18 176.493 303.74 189.323 306.08 202.583C309.7 223.153 311.38 243.853 310.27 264.713C309.64 276.553 308.66 288.363 305.46 299.893C302.43 310.843 297.13 320.313 288.14 327.403C277.93 335.443 266.55 341.053 253.53 342.823C238.8 344.823 224.36 343.113 209.98 339.653C202.3 337.803 195.11 334.893 188.57 330.733C184.41 328.083 181.11 324.103 179.33 319.233C179.37 318.783 179.15 318.513 178.75 318.353C178.67 318.083 178.59 317.823 178.51 317.553C178.56 317.093 178.34 316.793 177.95 316.603C173.76 308.363 171.7 299.433 169.44 290.553C168.12 285.343 167.68 280.013 166.69 274.773C166.81 274.313 166.65 273.953 166.3 273.663V273.643ZM168.56 233.703C168.56 233.703 168.64 233.703 168.69 233.703C168.69 239.853 167.92 246.123 168.87 252.123C170.28 261.043 170.94 270.083 172.87 278.913C175.33 290.203 177.6 301.553 182.08 312.283C184.98 319.223 188.22 325.853 196.14 328.433C196.4 328.513 196.64 328.673 196.87 328.833C201.94 332.273 207.75 333.823 213.58 335.183C224.93 337.833 236.5 338.183 248.08 337.663C251.81 337.493 255.52 336.743 259.23 336.203C264.87 335.383 269.67 332.403 274.65 329.943C282.68 325.973 289.29 320.273 294.03 312.613C297.59 306.863 299.73 300.493 301.21 293.953C302.68 287.443 303.32 280.813 304.01 274.153C304.86 265.813 304.74 257.453 305.12 249.133C305.43 242.433 304.41 235.553 303.94 228.763C303.37 220.553 302.19 212.423 300.91 204.353C299.41 194.893 297.15 185.473 293.69 176.493C291.51 170.833 289.82 164.813 284.87 160.573C280.91 157.183 276.55 154.543 271.82 152.373C264.28 148.903 256.3 147.023 248.17 145.743C244.33 145.133 240.46 144.313 236.54 144.833C230.76 145.603 224.94 146.243 219.22 147.353C209.81 149.173 200.98 152.573 193.33 158.503C190.8 160.463 188.81 163.113 186.27 165.043C180.08 169.733 176.79 176.143 174.44 183.303C172.12 190.363 171.36 197.693 170.23 204.973C169.36 210.613 168.44 216.233 168.55 221.973C168.62 225.883 168.56 229.803 168.56 233.713V233.703Z" fill="#601A61"/>
<path d="M142.55 75.2135C143.23 59.9635 144.2 45.1135 147.56 30.5335C147.72 29.8535 147.75 29.1335 148.02 28.4935C148.72 26.8035 149.43 25.0535 151.6 24.8235C153.55 24.6135 154.13 26.2535 155 27.4735C157.55 31.0435 158.95 35.1435 160.41 39.2135C165.56 53.5235 169.76 68.1035 172.52 83.0735C173.2 86.7635 173.82 90.4635 173.78 94.2635C173.71 100.403 173.35 100.703 167.71 97.7835C164.49 96.1135 161.33 94.3235 158.17 92.5435C154.15 90.2935 150.23 87.8635 146.12 85.8035C143.34 84.4035 142.23 82.4635 142.53 79.4435C142.68 77.9235 142.56 76.3735 142.56 75.1935L142.55 75.2135Z" fill="#601A61"/>
</g>
<g id="id3">
<path d="M157.17 5.73346C160.69 4.99346 163.68 6.11346 166.65 6.51346C179.72 8.28346 192.21 12.2735 203.96 18.1735C222.21 27.3335 237.65 39.9235 249.12 57.0135C252.46 61.9935 255.2 67.3135 257.8 72.7335C259.32 75.9135 259.04 78.4735 256.83 81.1435C252.98 85.7835 248.57 89.7835 243.82 93.4935C234.8 100.523 224.19 103.973 213.44 106.993C205.82 109.133 198.1 110.993 190.14 111.663C188.42 111.813 188.1 111.333 187.71 109.823C186.66 105.733 187.03 101.523 186.4 97.3835C183.53 78.7335 178.64 60.6235 172.5 42.8235C168.36 30.8235 163.98 18.9135 157.91 7.71345C157.65 7.24345 157.52 6.69345 157.17 5.74345V5.73346Z" fill="#A93691"/>
<path d="M211.46 528.914C205.74 533.694 200.69 538.994 198.16 546.234C197.74 547.424 197.33 548.564 197.19 549.844C196.88 552.704 196.56 552.704 193.77 551.664C189.63 550.124 186.29 547.383 183.12 544.523C177.23 539.193 171.31 533.754 167.67 526.544C163.22 517.734 159.22 508.753 157.56 498.833C156.6 493.083 155.68 487.323 154.7 481.583C154.42 479.943 154.37 478.253 154.35 476.593C154.31 470.873 154.4 465.143 154.3 459.423C154.21 454.093 155.01 448.883 156.07 443.703C157.58 436.353 159.06 428.973 162.08 422.023C163.31 419.193 164.57 417.133 168.32 417.053C170.9 416.993 173.58 416.774 176.19 416.464C184.39 415.484 192.63 416.073 200.82 415.523C208.86 414.983 216.9 414.344 224.96 413.964C227.43 413.844 229.81 412.653 232.97 413.533C228.22 415.363 227.24 419.213 226.53 423.223C225.99 423.363 225.41 423.403 224.93 423.653C211.11 430.793 199.78 440.484 192.72 454.684C190.35 459.464 188.92 464.553 187.19 469.543C185.81 473.533 183.4 476.203 179.09 477.103C177.21 477.493 175.42 478.393 173.61 479.103C172.64 479.483 171.93 480.103 172.03 481.283C172.28 484.183 171.79 487.103 172.59 490.013C173.71 494.093 173.99 494.563 178.22 494.473C182.76 494.373 185.83 496.063 187.71 500.413C190.03 505.773 192.46 511.154 196.06 515.824C200.25 521.264 205.34 525.714 211.45 528.924L211.46 528.914Z" fill="#A93691"/>
<path d="M60.02 29.2835C61.63 28.5835 63.46 28.8235 65.19 29.1135C83.4 32.1735 100.12 38.8835 114.65 50.3535C121.44 55.7235 127.24 62.2335 132.69 68.9835C134.07 70.6935 133.52 71.6135 131.21 71.8535C116.51 73.3635 102.11 76.5935 87.68 79.6535C80.07 81.2635 81.91 81.9535 79.68 75.4535C76.64 66.6035 72.57 58.1735 68.95 49.5635C66.35 43.3835 63.43 37.3535 60.27 31.4335C59.95 30.8335 59.54 30.2235 60.01 29.2835H60.02Z" fill="#A93691"/>
<path d="M181.79 110.693C178.82 109.893 175.99 108.743 173.37 107.253C162.82 101.263 152.19 95.4035 142.1 88.6135C139.51 86.8735 138.12 85.0735 138.41 81.8335C139.15 73.5235 139.09 65.1635 139.96 56.8335C140.74 49.3635 141.25 41.8735 142.61 34.4735C144.22 25.7035 146.04 16.9935 149.29 8.64346C149.54 7.99346 149.64 7.28346 150.58 6.86346C154.04 10.7135 156.27 15.3635 158.22 20.0735C166.08 39.0235 172.54 58.4535 177.41 78.3935C179.62 87.4535 181.25 96.6235 182.02 105.923C182.14 107.423 182.39 108.973 181.8 110.683L181.79 110.693ZM142.55 75.2135C142.55 76.3935 142.68 77.9335 142.52 79.4635C142.22 82.4735 143.33 84.4235 146.11 85.8235C150.22 87.8835 154.14 90.3135 158.16 92.5635C161.33 94.3335 164.48 96.1335 167.7 97.8035C173.34 100.723 173.7 100.423 173.77 94.2835C173.81 90.4835 173.19 86.7735 172.51 83.0935C169.75 68.1235 165.55 53.5435 160.4 39.2335C158.93 35.1635 157.53 31.0635 154.99 27.4935C154.12 26.2735 153.54 24.6335 151.59 24.8435C149.41 25.0735 148.7 26.8335 148.01 28.5135C147.75 29.1435 147.71 29.8735 147.55 30.5535C144.19 45.1335 143.22 59.9835 142.54 75.2335L142.55 75.2135Z" fill="#A93691"/>
<path d="M218.15 532.483C222.04 532.923 224.98 534.593 228.3 535.113C237.44 536.553 246.51 537.153 255.68 535.693C260.02 535.003 260.91 535.773 260.98 540.163C261.03 543.093 261.01 546.023 260.92 548.953C260.76 554.493 257.69 558.533 252.32 559.883C245.68 561.563 238.98 562.433 232.11 560.983C229.83 560.503 227.39 560.823 225.02 560.773C220.27 560.683 219.58 560.193 218.76 555.493C217.43 547.923 218.35 540.323 218.16 532.473L218.15 532.483Z" fill="#A93691"/>
<path d="M53.17 30.5334C54.58 31.5434 55.31 32.9035 55.94 34.2735C62.58 48.7035 70.15 62.7234 74.93 77.9634C75.22 78.8934 75.46 79.8434 75.84 80.7434C76.32 81.9034 75.91 82.5634 74.86 83.0734C73.52 83.7234 72.74 83.1534 72.21 81.9734C71.93 81.3334 71.66 80.6835 71.48 80.0135C68.79 70.3135 65.08 61.0034 60.62 51.9934C60.13 50.9934 59.65 49.9835 59.09 49.0135C58.14 47.3535 57.31 44.9334 55.07 45.4234C53.16 45.8434 53.07 48.3435 52.97 50.0635C52.48 58.3835 51.33 66.6734 52.63 75.0734C53.22 78.8934 53 82.8535 53.68 86.7035C53.82 87.5135 53.78 88.3835 53.67 89.2035C53.56 89.9635 52.92 90.3435 52.21 90.5135C51.29 90.7335 50.97 90.0235 50.79 89.3735C50.57 88.5835 50.39 87.7335 50.39 86.9235C50.47 75.9035 49.25 64.9335 49.43 53.8935C49.56 45.9035 50.76 38.2034 53.16 30.5334H53.17Z" fill="#A93691"/>
<path d="M287.67 419.963C283.54 419.373 279.78 417.333 275.55 417.003C273.91 416.873 272.25 416.563 270.59 416.553C262.08 416.543 253.58 416.553 245.07 416.573C243.99 414.543 241.61 414.343 239.57 412.623C243.12 412.173 246.33 411.993 249.46 411.623C258.95 410.503 268.49 409.793 278.02 408.973C279.82 408.813 281.51 408.133 283.36 408.103C285.44 408.073 286.53 408.973 286.84 410.873C287.33 413.873 288.27 416.843 287.68 419.943L287.67 419.963Z" fill="#A93691"/>
<path d="M231.68 424.393C231.91 423.573 232.26 422.373 232.61 421.173C233.23 419.043 235.07 418.533 236.86 418.393C238.72 418.253 239.95 419.473 240.57 421.203C241.89 424.883 242.68 428.714 243.2 432.564C243.79 436.964 244.3 441.373 245.32 445.703C245.88 448.063 245.69 448.233 243.15 448.343C240.79 448.443 238.42 448.103 236.1 448.953C234.99 449.363 234.24 448.813 234.11 447.553C233.32 439.963 232.52 432.373 231.68 424.383V424.393Z" fill="#A93691"/>
<path d="M269.48 527.103C273.42 527.313 276.2 524.733 279.34 523.003C278.68 529.283 276.76 535.143 273.35 540.453C271.67 543.063 270.35 546.043 266.99 547.823C266.62 543.183 267.03 538.743 265.45 534.563C265.04 533.483 265.94 532.793 266.39 531.953C267.3 530.253 269.2 529.183 269.48 527.093V527.103Z" fill="#A93691"/>
<path d="M168.56 233.703C168.56 229.793 168.62 225.873 168.55 221.963C168.44 216.223 169.36 210.603 170.23 204.963C171.36 197.683 172.11 190.363 174.44 183.293C176.79 176.133 180.08 169.723 186.27 165.033C188.82 163.103 190.8 160.453 193.33 158.493C200.98 152.563 209.81 149.173 219.22 147.343C224.94 146.233 230.76 145.593 236.54 144.823C240.47 144.303 244.33 145.123 248.17 145.733C256.3 147.023 264.27 148.893 271.82 152.363C276.55 154.533 280.9 157.173 284.87 160.563C289.82 164.803 291.51 170.823 293.69 176.483C297.15 185.463 299.41 194.883 300.91 204.343C302.19 212.413 303.37 220.543 303.94 228.753C304.41 235.543 305.43 242.433 305.12 249.123C304.74 257.443 304.86 265.803 304.01 274.143C303.33 280.803 302.69 287.433 301.21 293.943C299.73 300.483 297.59 306.853 294.03 312.603C289.29 320.263 282.68 325.963 274.65 329.933C269.68 332.393 264.88 335.373 259.23 336.193C255.52 336.733 251.81 337.483 248.08 337.653C236.5 338.173 224.93 337.823 213.58 335.173C207.75 333.813 201.94 332.263 196.87 328.823C196.64 328.663 196.4 328.513 196.14 328.423C188.22 325.853 184.98 319.213 182.08 312.273C177.59 301.543 175.33 290.193 172.87 278.903C170.94 270.073 170.29 261.033 168.87 252.113C167.92 246.113 168.69 239.843 168.69 233.693C168.65 233.693 168.61 233.693 168.56 233.693V233.703Z" fill="#A93691"/>
</g>
</g>
</g>
</svg>
