<svg width="426" height="693" viewBox="0 0 426 693" fill="none" xmlns="http://www.w3.org/2000/svg">
<g id="walkright2">
<g id="Group">
<path id="id5" d="M406.189 366.893C405.042 366.711 404.412 366.151 404.217 364.89C403.153 357.944 402.888 351.054 404.286 344.094C405.923 335.985 407.21 327.834 408.189 319.586C409.127 311.715 409.938 303.747 411.477 295.89C412.652 289.826 413.729 283.692 414.135 277.474C414.386 273.651 415.142 269.87 415.617 266.047C415.799 264.576 415.841 263.092 415.897 261.607C416.037 257.616 415.45 253.569 416.723 249.647C416.764 249.507 416.778 249.339 416.75 249.199C415.519 242.855 417.338 236.525 416.792 230.195C416.527 227.17 415.436 225.672 412.694 224.537C407.56 222.409 402.146 222.283 396.719 221.652C388.899 220.728 381.051 221.274 373.231 220.266C366.936 219.454 360.446 219.916 354.067 220.154C350.164 220.294 348.975 221.582 348.066 225.462C347.464 228.052 346.779 230.629 346.975 233.374C347.128 235.713 346.849 237.912 345.73 240.236C344.485 242.827 344.904 246.034 344.485 248.961C343.869 253.359 343.267 257.672 342.009 261.971C340.945 265.598 340.708 269.604 340.861 273.413C341.099 279.897 339.519 286.073 338.553 292.361C337.21 301.128 335.742 309.853 335.238 318.773C334.804 326.42 334.091 334.094 333.112 341.741C332.384 347.441 331.321 353.141 330.678 358.868C329.698 367.397 329.293 375.982 328.453 384.511C327.74 391.849 328.272 399.299 328.272 406.694C328.272 409.116 329.978 410.377 331.769 411.497C335.504 413.85 339.658 414.928 343.995 415.068C346.975 415.166 349.926 415.194 352.808 416.007C356.277 416.987 359.844 416.945 363.411 416.931C366.517 416.917 369.58 417.001 372.7 417.673C379.079 419.046 386.591 414.312 388.032 407.758C389.193 402.506 392.368 398.515 395.362 394.37C396.061 393.417 396.145 392.493 396.159 391.471C396.187 389.986 396.159 388.488 396.159 387.003C396.173 380.323 397.432 378.811 404.091 377.452C404.944 373.951 405.965 370.492 406.175 366.879L406.189 366.893ZM360.586 305.861C360.236 301.534 360.823 296.772 361.789 292.123C363.174 285.429 364.712 278.721 369.315 273.259C374.406 267.223 381.303 267.517 385.681 274.085C387.5 276.816 388.843 279.841 389.654 283.034C393.026 296.17 391.487 309.012 387.136 321.63C385.751 325.65 383.429 329.123 380.1 331.798C375.582 335.425 371.539 335.117 367.426 331.097C364.88 328.619 363.523 325.496 362.544 322.205C361.005 317.023 360.488 311.701 360.586 305.861ZM399.992 369.12C400.482 370.912 399.88 372.019 399.642 373.153C399.111 375.814 398.271 376.402 395.753 376.164C386.773 375.282 378.323 365.492 378.533 356.306C378.575 354.625 378.897 353.253 380.715 352.986C382.59 352.72 383.737 353.645 384.185 355.591C384.66 357.608 385.304 359.597 386.045 361.529C388.157 367.019 391.739 369.372 397.698 369.288C398.411 369.288 399.139 369.19 399.978 369.12H399.992Z" fill="#3C3C3C"/>
<g id="id1">
<g id="Vector">
<path d="M284.081 88.6657C284.305 93.8613 281.759 97.1244 277.311 99.6732C265.966 106.199 255.152 113.636 243.374 119.42C237.624 122.234 231.917 125.133 225.216 124.867C219.831 124.643 214.557 123.831 209.339 122.571C196.903 119.546 184.439 116.535 173.066 110.401C163.554 105.275 155.077 98.7909 148.236 90.3322C147.215 89.0718 146.32 87.6714 145.564 86.2289C144.012 83.2879 143.704 80.291 145.564 77.322C146.026 76.5798 146.586 75.8376 146.446 74.7732C145.718 73.8069 144.613 74.241 143.662 74.241C130.401 74.4091 117.223 75.4174 104.088 77.266C95.9882 78.4004 87.8047 78.8625 79.7612 80.389C69.8012 82.2656 59.9811 84.7024 50.5387 88.3856C41.7397 91.8167 35.3608 97.6426 31.5419 106.703C26.6878 118.215 24.1419 130.231 21.6938 142.345C19.8333 151.56 19.2598 160.943 18.2246 170.256C16.6299 184.61 15.287 198.979 14.028 213.362C13.1467 223.291 12.4332 233.248 11.8737 243.205C11.1323 256.285 10.6147 269.38 9.85928 282.46C9.24378 293.061 9.90126 303.621 10.265 314.18C11.0344 336.531 12.9648 358.77 18.0707 380.617C19.008 384.651 19.9592 388.698 21.2182 392.619C23.7502 400.504 28.8141 406.33 36.2002 410.097C44.8872 414.522 54.2317 417.001 63.6182 419.382C77.9147 423.023 92.5189 424.801 107.081 426.972C123.42 429.409 139.843 430.977 156.252 432.812C164.827 433.764 173.458 434.143 182.047 434.899C192.874 435.851 203.702 436.593 214.557 437.125C215.452 437.167 216.334 437.308 217.229 437.336C248.913 438.344 280.612 439.142 312.324 438.316C314.689 438.26 317.095 438.456 319.403 437.63C319.249 436.117 318.27 435.837 316.941 435.669C313.863 435.277 310.828 434.857 308.114 433.022C302.35 429.129 298.559 423.765 296.139 417.379C294.671 413.5 293.915 409.411 292.88 405.391C290.936 397.857 291.383 390.266 291.845 382.76C292.418 373.489 293.747 364.218 295.356 355.059C297.217 344.416 297.874 333.632 299.525 322.947C301.035 313.172 301.301 303.2 302.476 293.355C302.882 289.98 303.064 286.577 303.567 283.202C304.673 275.738 305.96 268.287 305.946 260.711C305.946 259.52 305.876 258.302 306.071 257.14C307.498 248.387 308.827 239.62 310.492 230.909C311.569 225.251 312.101 219.524 313.639 213.908C314.87 209.44 316.801 205.253 317.99 200.884C320.116 193.139 325.18 187.299 329.545 181.011C331.279 178.504 333.615 176.264 336.273 174.541C342.386 170.55 348.835 167.189 355.41 164.052C358.907 162.385 362.166 160.383 365.188 157.918C369.972 154.025 373.078 145.58 371.553 139.544C367.748 124.447 358.333 113.762 344.75 106.843C336.035 102.404 326.705 99.3231 317.262 96.6762C311.569 95.0797 305.834 93.5672 300.042 92.3068C294.699 91.1445 289.565 89.0718 284.053 88.7217L284.081 88.6657ZM96.7016 297.038C94.6732 295.428 94.5613 294.532 95.9882 291.647C95.5685 278.847 94.3934 266.047 95.5965 253.218C93.722 251.832 93.736 251.636 95.7783 250.488C96.156 246.02 96.5477 241.553 96.9254 237.085C95.7364 236.917 95.0929 236.287 95.1068 235.041C95.1068 233.43 95.0649 231.806 95.1068 230.195C95.1768 227.814 96.5617 228.613 97.8067 229.117C98.3942 225.91 99.0517 222.717 99.5413 219.496C101.975 203.671 105.934 188.322 113.124 173.897C114.635 170.872 116.468 168.351 119.14 166.307C133.548 155.243 150.027 149.795 167.932 148.745C184.299 147.779 200.009 151.392 214.571 158.646C231.12 166.895 242.94 179.597 247.277 198.251C248.969 205.519 250.088 212.872 251.04 220.252C252.536 231.792 253.432 243.373 252.816 255.011C252.145 267.811 250.452 280.499 248.704 293.187C246.759 307.276 242.968 320.818 237.988 334.108C233.959 344.836 227.273 352.804 216.585 357.37C208.318 360.885 199.729 363.056 190.944 364.638C179.305 366.739 167.611 367.593 155.874 365.703C142.389 363.532 130.247 358.084 119.615 349.527C111.698 343.155 105.808 335.243 102.605 325.412C100.618 319.306 98.7579 313.2 97.7088 306.87C95.5125 304.965 95.3587 303.579 96.8974 299.741C96.8275 298.845 96.7575 297.963 96.6876 297.066L96.7016 297.038Z" fill="#F18080"/>
<path d="M110.55 607.448C104.283 607.798 98.9817 608.078 93.68 608.4C80.7124 609.199 68.1225 611.776 55.7284 615.669C51.238 617.083 49.0558 619.758 48.6361 624.198C47.0694 640.681 49.3216 656.534 56.4838 671.561C56.6517 671.925 57.0014 672.205 57.533 672.835C58.5122 671.155 59.2956 669.628 60.2468 668.2C67.6189 657.234 77.467 651.422 91.12 652.781C95.9602 653.271 100.912 652.459 105.668 651.254C116.02 648.621 126.428 646.129 136.094 641.395C138.948 639.995 141.186 637.866 143.088 635.471C144.767 633.356 144.207 632.068 141.647 631.2C139.353 630.416 136.961 630.387 134.583 630.528C132.205 630.654 129.841 630.934 127.477 631.102C120.371 631.592 115.656 628.931 112.803 622.587C111.725 620.192 110.984 617.657 110.173 615.151C109.431 612.854 109.11 610.515 110.536 607.462L110.55 607.448Z" fill="#F18080"/>
<path d="M84.0695 459.799C76.7953 459.589 70.0248 460.289 63.2402 461.353C58.6379 462.081 56.2738 463.454 55.8122 470.134C55.4904 474.77 55.8681 479.433 56.8753 483.9C58.6099 491.575 60.7642 499.179 64.6531 506.14C66.9892 510.327 68.5979 511.307 73.2981 510.243C86.0839 507.344 98.394 503.003 110.368 497.695C117.153 494.684 123.798 491.351 130.582 488.298C133.744 486.883 135.324 484.643 135.884 481.24C137.311 472.627 132.513 465.485 123.546 463.468C118.034 462.236 112.453 461.255 106.815 460.975C99.0935 460.597 91.4276 459.295 84.0835 459.785L84.0695 459.799Z" fill="#F18080"/>
<path d="M255.236 591.329C253.39 591.189 252.34 592.155 252.089 594.116C251.837 595.936 252.089 597.701 252.718 599.382C253.502 601.468 254.299 603.569 255.25 605.586C257.6 610.557 256.663 615.137 253.823 619.534C251.445 623.203 248.368 626.2 245.122 629.071C242.352 631.536 242.282 631.592 243.779 635.023C248.577 646.017 254.942 656.044 262.426 665.385C266.707 670.734 271.001 676.07 276.303 680.482C276.989 681.056 277.646 681.672 278.401 682.134C279.633 682.89 280.542 682.806 281.031 681.14C283.591 672.513 288.893 665.497 294.531 658.719C296.055 656.884 295.985 655.722 294.559 653.789C288.823 646.003 285.396 637.488 287.103 627.517C287.48 625.29 287.872 623.007 289.075 621.159C290.46 619.03 289.69 617.671 288.389 616.019C283.298 609.535 277.38 603.933 270.792 598.975C267.56 596.553 264.217 594.354 260.524 592.715C258.901 591.987 257.251 591.273 255.25 591.301L255.236 591.329Z" fill="#F18080"/>
<path d="M327.684 495.076C312.562 484.573 296.251 476.898 278.262 470.232C279.087 472.067 279.535 473.061 279.968 474.055C283.507 482.122 278.374 488.564 271.631 490.132C268.232 490.917 268.651 490.931 268.162 494.194C266.917 502.596 270.232 509.025 275.59 515.116C280.612 520.816 285.34 526.782 291.481 531.32C295.314 534.149 295.692 533.798 296.167 529.135C297.3 518.267 301.637 509.123 310.813 502.708C312.282 501.686 313.723 500.636 315.206 499.656C318.955 497.205 322.746 494.866 327.67 495.062L327.684 495.076Z" fill="#F18080"/>
<path d="M91.8614 686.405C95.0508 686.588 98.9816 686.027 102.912 685.019C105.221 684.431 106.284 683.184 106.843 680.86C107.767 677.008 108.186 672.989 107.207 669.362C105.948 664.657 102.577 660.973 97.7786 659.391C88.8678 656.464 80.1528 656.758 72.3051 662.57C67.5489 666.099 64.2615 670.832 61.9813 676.308C61.0441 678.577 61.7295 679.977 63.632 681.112C65.5764 682.26 67.6748 682.974 69.843 683.507C76.7954 685.187 83.8318 686.251 91.8614 686.419V686.405Z" fill="#F18080"/>
<path d="M334.119 624.002C327.082 615.347 318.619 612.826 308.673 615.011C304.463 615.935 300.63 617.853 296.979 620.262C293.481 622.573 291.971 625.864 291.971 629.673C291.971 636.76 293.384 643.552 297.93 649.322C299.79 651.674 299.86 651.73 301.917 649.56C307.134 644.07 312.45 638.692 318.256 633.805C322.928 629.869 327.908 626.424 334.133 624.002H334.119Z" fill="#F18080"/>
<path d="M350.905 528.995C350.905 522.623 346.023 516.475 340.512 515.285C339.462 515.06 338.287 514.948 337.518 515.691C335.937 517.245 334.357 518.884 333.098 520.69C331.867 522.469 332.706 524.485 334.818 525.326C335.63 525.648 336.525 525.872 337.406 525.928C340.833 526.138 343.519 527.006 343.659 531.236C343.715 532.832 344.932 533.896 346.667 534.023C348.555 534.149 349.8 533.126 350.444 531.474C350.807 530.521 350.821 529.443 350.891 528.995H350.905Z" fill="#F18080"/>
<path d="M26.1842 512.862C25.191 509.445 24.2957 506.476 23.4983 503.479C23.1626 502.232 22.5751 501.588 21.3021 502.134C16.7977 504.039 12.2793 505.943 7.81692 507.932C6.30614 508.604 4.92126 509.557 5.20103 511.601C5.4948 513.688 7.07554 515.34 9.45363 515.452C15.1051 515.719 20.7286 515.565 26.1982 512.862H26.1842Z" fill="#F18080"/>
<path d="M346.177 561.121C346.177 556.36 344.512 552.607 342.344 549.021C341.463 547.579 340.512 547.313 339.169 548.601C338.218 549.512 337.084 550.268 335.937 550.912C331.643 553.335 331.615 553.307 333.825 557.914C334.72 559.777 335.658 561.626 336.693 563.432C338.581 566.723 340.917 567.97 343.491 567.003C346.527 565.855 346.443 563.278 346.177 561.135V561.121Z" fill="#F18080"/>
<path d="M361.579 548.993C360.418 544.974 358.068 540.577 353.591 537.846C351.395 536.501 349.339 538.322 347.604 539.582C346.583 540.325 346.051 541.711 345.268 542.761C344.876 543.294 344.638 543.896 345.156 544.33C348.583 547.299 350.22 552.018 354.682 553.993C356.277 554.693 357.732 556.122 359.592 555.071C361.551 553.965 361.621 551.962 361.593 548.979L361.579 548.993Z" fill="#F18080"/>
<path d="M57.4491 515.565C51.7277 516.391 46.4819 517.147 41.2501 517.917C40.8164 517.987 40.3408 518.029 39.9911 518.254C38.6342 519.122 38.5083 523.967 39.7393 526.236C40.8164 528.211 42.2712 528.729 44.5794 527.959C48.4683 526.642 54.9311 520.564 57.4631 515.565H57.4491Z" fill="#F18080"/>
<path d="M19.4556 492.051C20.4208 490.371 19.8613 488.858 20.0431 487.43C20.4488 484.265 20.211 481.604 16.1822 480.931C14.7693 480.693 13.6362 479.447 12.7549 478.257C11.7478 476.912 10.5587 476.254 8.964 477.08C7.43923 477.864 6.37608 479.027 6.474 480.917C6.58591 483.06 7.24338 485.035 8.78214 486.519C11.7897 489.446 15.3848 491.253 19.4556 492.065V492.051Z" fill="#F18080"/>
<path d="M354.906 520.34C356.123 524.738 356.389 528.239 355.899 531.768C355.759 532.734 356.123 533.519 356.934 534.051C358.781 535.283 360.613 536.501 362.502 537.678C363.803 538.476 365.132 538.266 366.153 537.23C367.216 536.137 367.776 534.863 367.174 533.196C365.132 527.469 361.159 523.603 354.92 520.326L354.906 520.34Z" fill="#F18080"/>
<path d="M305.819 546.949C307.092 550.982 307.68 554.161 309.177 557.032C309.652 557.928 310.408 558.699 311.135 559.441C312.366 560.687 313.905 561.331 315.598 560.743C317.29 560.169 317.388 558.516 317.5 557.032C317.724 554.161 318.339 552.845 314.479 551.71C311.667 550.884 309.233 549.077 305.806 546.949H305.819Z" fill="#F18080"/>
<path d="M15.4268 468.832C15.189 471.927 16.2941 474.363 19.0219 475.932C19.8053 476.38 20.9663 476.758 21.2321 475.582C21.7217 473.327 23.3584 471.745 24.1977 469.7C25.037 467.669 23.7641 466.605 22.4911 465.583C21.0083 464.392 19.4416 462.754 17.3572 463.748C15.3009 464.714 15.4268 466.899 15.4268 468.846V468.832Z" fill="#F18080"/>
</g>
</g>
<g id="id2">
<g id="Vector_2">
<path d="M284.081 88.6657C289.593 89.0298 294.726 91.0884 300.07 92.2508C305.847 93.5112 311.583 95.0237 317.29 96.6202C326.719 99.2671 336.063 102.348 344.778 106.787C358.347 113.72 367.776 124.391 371.581 139.488C373.091 145.524 369.986 153.969 365.216 157.862C362.194 160.327 358.935 162.329 355.438 163.996C348.863 167.133 342.4 170.494 336.301 174.485C333.657 176.208 331.321 178.448 329.572 180.955C325.208 187.243 320.13 193.083 318.018 200.828C316.815 205.211 314.884 209.398 313.667 213.852C312.128 219.468 311.597 225.195 310.52 230.853C308.855 239.564 307.526 248.331 306.099 257.084C305.903 258.246 305.973 259.464 305.973 260.655C305.987 268.245 304.7 275.682 303.595 283.146C303.092 286.507 302.91 289.91 302.504 293.299C301.329 303.144 301.049 313.102 299.553 322.891C297.916 333.562 297.258 344.346 295.384 355.003C293.775 364.162 292.446 373.433 291.873 382.704C291.411 390.21 290.963 397.801 292.908 405.335C293.943 409.341 294.684 413.444 296.167 417.323C298.601 423.723 302.378 429.073 308.142 432.966C310.855 434.801 313.891 435.235 316.968 435.613C318.311 435.781 319.291 436.061 319.431 437.574C330.174 438.036 340.791 436.677 351.423 435.333C356.305 434.717 361.033 433.582 365.705 432.042C370.14 430.571 373.749 427.995 377.134 424.872C376.155 423.513 375.036 423.947 374.085 423.933C364.572 423.709 355.06 423.261 345.604 422.155C340.749 421.595 335.937 420.656 331.251 419.074C324.788 416.889 321.585 412.338 321.249 405.741C320.703 394.72 320.773 383.712 322.326 372.747C323.977 361.109 325.348 349.443 326.579 337.764C328.146 322.975 329.95 308.214 331.629 293.439C332.538 285.457 333.321 277.46 334.357 269.492C335.699 259.17 337.294 248.891 338.665 238.584C339.393 233.108 340.47 227.744 342.47 222.563C344.554 217.157 347.954 213.46 353.941 212.591C358.04 211.989 362.11 211.443 366.307 211.695C378.925 212.437 391.347 214.916 403.965 215.742C407.937 216.009 411.924 216.611 415.785 217.843C418.443 218.697 419.142 218.263 419.31 215.658C420.108 203.629 420.625 191.627 419.884 179.527C419.324 170.298 417.492 161.307 416.429 152.176C415.897 147.667 413.519 143.633 411.519 139.572C408.497 133.424 405.587 127.248 400.845 122.122C393.305 113.972 383.905 108.58 374.043 103.973C361.593 98.1607 348.345 94.7156 335.084 91.3265C327.74 89.4499 320.382 87.7134 312.912 86.453C304.127 84.9685 295.356 83.442 286.571 82.0135C283.689 81.5514 283.633 81.6634 283.689 84.6464C283.717 85.9768 283.955 87.2932 284.095 88.6236L284.081 88.6657Z" fill="#D67474"/>
<path d="M119.321 448.273C119.307 449.015 119.266 449.757 119.266 450.5C119.363 456.578 119.461 456.704 125.155 458.44C125.868 458.65 126.694 458.734 127.253 459.154C131.394 462.179 135.562 461.017 139.843 459.491C147.397 456.788 154.979 454.183 162.561 451.536C165.526 450.5 168.548 449.94 171.709 449.842C176.312 449.715 179.809 453.063 180.774 456.452C182.061 460.933 180.257 465.989 176.424 468.103C173.71 469.616 170.8 470.806 167.876 471.899C160.085 474.826 152.265 477.682 144.417 480.427C142.137 481.226 140.752 482.164 140.291 484.909C139.759 488.074 137.325 490.385 134.471 491.897C131.953 493.241 131.128 495.104 131.939 497.779C134.206 505.285 133.184 512.834 132.051 520.312C130.848 528.239 129.449 536.151 127.813 544.008C126.861 548.545 127.813 552.887 128.19 557.312C137.535 563.18 147.719 566.863 158.49 568.992C163.008 567.241 167.513 565.575 172.507 567.185C174.745 567.913 176.536 569.622 178.9 570C180.788 569.608 182.663 569.216 184.551 568.81C189.783 567.689 195.029 566.387 199.827 564.174C208.794 560.043 215.83 553.587 220.628 544.75C222.824 540.703 224.587 536.473 226.937 532.482C229.259 528.547 232.449 526.978 236.785 526.88C241.22 526.782 242.157 525.774 242.423 521.32C242.576 518.814 242.087 516.265 243.038 513.8C243.556 512.47 242.982 511.475 241.611 511.027C239.485 510.355 237.387 509.627 235.232 509.067C231.316 508.058 228.728 505.607 227.343 501.882C226.098 498.549 224.881 495.188 223.762 491.813C219.229 478.159 210.36 467.809 198.946 459.519C191.336 453.987 182.998 449.968 173.934 447.139C166.45 444.8 158.952 443.708 151.202 443.792C145.564 443.848 139.955 443.708 134.317 444.506C129.142 445.234 124.134 446.256 119.293 448.231L119.321 448.273Z" fill="#D67474"/>
<path d="M360.586 305.861C360.502 311.715 361.005 317.037 362.544 322.205C363.523 325.51 364.866 328.619 367.426 331.097C371.539 335.103 375.582 335.425 380.1 331.798C383.429 329.123 385.751 325.65 387.136 321.63C391.487 309.012 393.026 296.17 389.654 283.034C388.843 279.841 387.5 276.816 385.682 274.085C381.289 267.503 374.407 267.223 369.315 273.259C364.712 278.721 363.174 285.415 361.789 292.123C360.824 296.772 360.236 301.534 360.586 305.861Z" fill="#D67474"/>
<path d="M399.992 369.12C399.153 369.19 398.425 369.274 397.712 369.288C391.753 369.372 388.171 367.033 386.059 361.529C385.318 359.597 384.674 357.608 384.199 355.591C383.737 353.645 382.604 352.72 380.729 352.986C378.911 353.253 378.589 354.625 378.547 356.306C378.337 365.479 386.787 375.268 395.767 376.164C398.271 376.416 399.125 375.814 399.656 373.153C399.88 372.005 400.495 370.898 400.006 369.12H399.992Z" fill="#D67474"/>
</g>
</g>
<g id="id4">
<g id="Vector_3">
<path d="M406.189 366.893C408.693 359.387 409.798 351.558 411.183 343.828C413.463 331.083 415.534 318.283 417.128 305.427C419.241 288.286 421.045 271.102 422.318 253.863C422.976 244.928 423.241 236.007 423.241 227.058C423.241 222.703 424.5 218.529 424.948 214.23C426.641 197.845 426.207 181.501 424.249 165.158C422.626 151.588 418.807 138.788 411.575 127.136C406.735 119.335 400.733 112.683 392.816 107.754C388.395 104.995 384.087 102.068 379.261 100.079C377.428 99.3231 376.995 98.2587 377.19 96.2981C378.254 85.1785 379.485 74.0589 379.275 62.8554C379.121 54.0605 378.519 45.2937 376.645 36.667C376.323 35.2105 375.959 33.754 375.442 32.3816C373.148 26.2896 370.923 24.8472 364.377 24.9872C349.073 25.3093 334.846 29.6087 321.137 36.1908C307.079 42.941 295.104 52.254 285.06 64.1438C284.781 64.4659 284.417 64.7179 283.745 65.3061C282.738 63.4155 283.088 61.4969 282.934 59.7183C281.535 43.9633 278.933 28.4183 274.723 13.1674C273.967 10.4646 272.764 7.87372 271.715 5.25488C270.19 1.48767 267.42 -0.0808315 263.322 0.0031955C248.004 0.325299 233.204 3.04217 218.921 8.71399C204.429 14.4698 190.874 21.8782 179.026 32.0175C168.058 41.4005 158.588 52.1839 151.594 64.928C150.209 67.4488 148.698 68.6112 145.718 68.5552C125.7 68.1491 105.92 70.9079 86.1541 73.4428C77.9147 74.4931 69.7173 76.1876 61.7577 78.6804C56.1762 80.431 50.4408 81.6914 45.1251 84.3943C37.4033 88.3155 31.514 93.8333 27.5972 101.564C23.7363 109.182 21.0924 117.221 19.106 125.497C19.1619 126.66 19.3298 127.836 18.4765 128.831C18.3925 129.195 18.3086 129.545 18.2247 129.909C18.3785 130.833 18.3925 131.729 17.805 132.528C14.2519 149.781 12.6991 167.287 10.9645 184.792C9.46769 199.763 8.09682 214.748 6.83783 229.733C5.74671 242.785 5.6348 255.935 4.73952 269.016C3.11682 292.893 4.40378 316.673 6.26429 340.466C7.41137 355.199 9.76145 369.736 12.8809 384.16C13.8462 388.656 15.2031 393.081 17.0217 397.353C20.8965 406.456 27.4572 412.66 36.452 416.665C45.4748 420.684 55.0291 422.785 64.5415 425.152C79.7053 428.919 95.0789 431.468 110.592 433.26C112.341 433.456 114.048 433.932 115.81 434.297C115.712 437.181 114.495 439.646 114.076 442.279C113.488 445.976 113.334 449.701 113.684 453.427C113.88 455.555 113.25 456.494 111.012 456.214C107.179 455.751 103.318 455.387 99.4714 454.981C87.7208 453.735 75.9843 453.791 64.3037 455.611C60.3728 456.228 56.3441 457.152 53.8121 460.835C53.1406 461.815 52.2034 462.011 51.0843 461.913C44.6214 461.339 38.3965 462.656 32.3114 464.658C30.4369 465.274 29.2338 465.134 28.1147 463.524C27.4433 462.544 26.6319 461.661 25.7926 460.807C23.2047 458.146 20.0712 457.096 16.4481 458.034C12.839 458.972 11.3981 461.871 10.4889 465.148C10.335 465.709 10.2091 466.339 10.2651 466.913C10.5728 469.91 9.64956 471.548 6.39018 472.529C1.634 473.957 -0.15657 478.327 1.0045 483.298C2.52927 489.81 7.35538 493.087 12.9229 495.636C14.2239 496.224 15.6228 496.617 17.5812 497.303C15.0912 499.151 12.881 500.034 10.6008 500.818C8.48851 501.532 6.36221 502.232 4.51569 503.507C1.32625 505.691 -0.324425 508.688 0.0532712 512.652C0.416979 516.419 2.93494 518.394 6.11039 519.71C10.5588 521.545 15.1891 521.138 19.7494 520.41C22.6731 519.948 25.5128 519.01 28.3945 518.253C30.297 517.749 32.1715 517.413 34.1439 518.422C34.06 520.172 33.7942 521.951 33.9201 523.701C34.4656 532.006 41.5859 535.913 48.902 532.02C54.4416 529.065 58.6103 524.696 62.0095 519.514C62.9887 518.029 63.898 516.489 64.9751 514.766C71.7037 517.749 77.9147 514.864 84.2376 512.932C98.1844 508.66 111.768 503.493 124.819 496.925C125.029 496.813 125.365 496.967 125.924 497.009C127.295 503.213 127.631 509.501 126.833 515.901C125.826 523.897 123.896 531.712 122.665 539.652C120.063 556.402 123.714 571.611 134.206 585.055C134.653 585.629 135.031 586.245 135.688 587.198C132.303 589.578 129.086 591.903 125.812 594.172C122.385 596.539 118.888 598.807 115.475 601.202C114.09 602.182 112.803 602.687 110.984 602.518C100.381 601.51 89.8331 602.701 79.3975 604.325C70.5426 605.712 61.7717 607.686 53.3225 610.935C47.8109 613.05 44.5795 616.677 43.6143 622.573C41.7398 634.113 42.8169 645.442 45.5447 656.702C47.4472 664.572 50.3988 671.953 54.5675 678.955C56.9176 682.918 59.7853 685.859 64.1078 687.148C75.2709 690.481 86.5877 693.38 98.3383 691.573C110.606 689.682 112.467 686.545 113.138 675.384C113.572 668.172 111.446 661.87 104.633 657.024C109.054 655.932 112.691 654.923 116.37 654.139C124.134 652.487 131.436 649.644 138.514 646.128C140.934 644.924 143.102 643.37 145.159 641.647C147.523 639.672 149.243 637.18 149.411 634.057C149.537 631.9 150.377 630.485 151.999 629.211C161.288 621.887 169.765 613.764 176.158 603.709C176.983 602.42 177.962 601.916 179.445 601.93C186.621 602.014 193.686 601.02 200.708 599.648C202.569 599.283 203.66 599.956 204.821 601.426C212.431 611.075 221.397 619.324 231.302 626.564C234.701 629.043 237.177 631.886 238.562 636.227C241.304 644.784 246.689 652.094 251.473 659.629C256.355 667.317 262.245 674.249 268.512 680.86C272.261 684.809 276.513 687.932 281.759 689.654C284.431 690.537 286.935 690.495 289.607 689.71C295.538 687.974 300.966 685.145 305.862 681.518C319.962 671.057 331.111 658.046 338.721 642.109C340.806 637.754 342.162 633.258 341.953 628.343C341.883 626.494 341.561 624.758 340.484 623.287C335.266 616.075 328.929 610.501 319.78 608.933C312.087 607.616 305.05 609.577 298.322 613.106C297.147 613.722 296.083 614.548 294.978 615.277C288.082 606.244 280.318 598.289 270.862 592.127C266.357 589.186 261.629 586.665 256.174 586.021C255.25 585.909 254.481 585.657 253.726 585.097C250.242 582.562 246.703 580.083 242.926 577.408C259.643 559.791 264.133 537.384 267.379 514.472C269.197 514.962 269.631 516.377 270.456 517.343C274.583 522.231 278.36 527.44 283.06 531.824C287.131 535.619 291.425 539.078 297.328 539.386C299.189 539.484 300 540.605 300.252 542.187C300.546 543.952 300.574 545.744 300.784 547.523C301.455 553.069 302.826 558.348 306.743 562.634C308.086 564.104 309.611 565.253 311.499 565.841C316.745 567.465 321.487 565.014 322.298 560.309C322.578 558.698 322.858 557.088 323.166 555.491C323.306 554.763 323.487 553.965 324.397 553.853C325.334 553.727 326.145 553.951 326.551 554.973C326.873 555.8 327.25 556.612 327.656 557.41C329.321 560.729 330.832 564.146 332.734 567.339C335.364 571.737 339.672 573.543 344.093 572.479C348.513 571.415 351.269 567.857 351.703 562.634C351.787 561.611 351.829 560.589 351.927 559.203C356.711 560.687 361.537 561.947 365.006 557.284C368.196 552.999 367.216 548.265 365.496 543.574C366.363 543.153 367.174 542.803 367.93 542.369C372.126 539.904 373.595 536.515 372.448 531.81C370.728 524.71 365.482 520.522 359.648 517.091C356.865 515.453 354.431 513.954 352.416 511.181C348.709 506.07 343.254 502.736 337.952 499.403C336.133 498.255 334.734 497.205 334.301 494.81C333.755 491.841 331.195 490.16 328.845 488.578C323.529 485.007 318.018 481.758 312.338 478.831C302.812 473.929 293.034 469.616 283.018 465.835C280.192 464.77 277.353 463.958 274.317 464.252C272.177 464.462 270.638 463.664 269.309 462.053C268.456 461.031 267.448 460.121 266.455 459.225C260.762 454.015 260.216 453.091 257.922 444.492C260.762 444.492 263.546 444.408 266.329 444.492C285.242 445.108 304.155 444.31 323.054 443.708C335.854 443.301 348.555 441.915 361.145 439.268C371.105 437.181 378.883 432.014 385.192 424.213C391.095 416.917 394.746 408.444 397.894 399.761C400.538 392.493 402.776 385.099 404.147 377.452C397.488 378.797 396.229 380.309 396.215 387.003C396.215 388.488 396.229 389.986 396.215 391.471C396.201 392.493 396.103 393.403 395.418 394.37C392.424 398.515 389.249 402.492 388.088 407.758C386.647 414.312 379.135 419.046 372.756 417.673C369.65 417.001 366.587 416.917 363.467 416.931C359.9 416.945 356.347 416.987 352.864 416.007C349.982 415.194 347.031 415.18 344.051 415.068C339.714 414.914 335.546 413.836 331.825 411.497C330.034 410.377 328.328 409.116 328.328 406.694C328.328 399.299 327.796 391.835 328.509 384.511C329.335 375.968 329.754 367.397 330.734 358.868C331.391 353.141 332.44 347.441 333.168 341.741C334.147 334.094 334.86 326.42 335.294 318.773C335.798 309.867 337.266 301.142 338.609 292.361C339.575 286.073 341.155 279.897 340.918 273.413C340.778 269.604 341.015 265.598 342.065 261.971C343.324 257.658 343.911 253.344 344.541 248.961C344.96 246.034 344.541 242.827 345.786 240.236C346.905 237.912 347.184 235.727 347.031 233.374C346.849 230.629 347.52 228.052 348.122 225.462C349.031 221.582 350.22 220.294 354.123 220.154C360.516 219.916 366.993 219.454 373.288 220.266C381.107 221.26 388.955 220.728 396.775 221.652C402.202 222.297 407.602 222.423 412.75 224.537C415.478 225.672 416.583 227.17 416.849 230.195C417.394 236.539 415.59 242.869 416.807 249.199C416.835 249.339 416.821 249.507 416.779 249.647C415.506 253.569 416.093 257.616 415.953 261.607C415.897 263.092 415.855 264.576 415.673 266.047C415.198 269.856 414.456 273.651 414.191 277.474C413.785 283.692 412.708 289.826 411.533 295.89C410.008 303.747 409.197 311.715 408.245 319.586C407.252 327.834 405.965 335.985 404.343 344.094C402.944 351.054 403.209 357.944 404.273 364.89C404.468 366.165 405.098 366.711 406.245 366.893H406.189ZM178.928 570.028C176.563 569.65 174.773 567.941 172.535 567.213C167.541 565.589 163.036 567.255 158.518 569.02C155.524 571.176 152.391 573.067 149.509 575.434C146.977 577.521 144.697 579.817 142.319 582.03C141.116 583.15 140.095 583.374 138.948 582.058C136.122 578.809 133.352 575.434 131.897 571.372C130.373 567.087 129.547 562.55 127.603 558.376C127.505 558.166 127.994 557.69 128.218 557.34C127.855 552.915 126.889 548.573 127.841 544.036C129.477 536.179 130.876 528.281 132.079 520.34C133.212 512.848 134.247 505.299 131.967 497.807C131.156 495.132 131.981 493.255 134.499 491.925C137.353 490.413 139.787 488.102 140.319 484.937C140.78 482.192 142.165 481.254 144.445 480.455C152.293 477.696 160.113 474.854 167.904 471.927C170.814 470.834 173.738 469.63 176.452 468.131C180.285 466.003 182.089 460.961 180.802 456.48C179.837 453.091 176.34 449.743 171.737 449.87C168.562 449.954 165.54 450.528 162.589 451.564C155.007 454.197 147.425 456.802 139.871 459.519C135.604 461.045 131.422 462.222 127.281 459.183C126.708 458.762 125.882 458.692 125.183 458.468C119.489 456.732 119.391 456.606 119.293 450.528C119.293 449.786 119.321 449.043 119.349 448.301C118.916 444.52 119.923 440.949 120.902 437.35C121.434 435.389 122.581 434.661 124.525 435.053C129.323 435.991 134.303 435.963 139.046 436.873C149.579 438.904 160.309 438.442 170.842 440.122C178.158 441.285 185.614 441.341 192.986 441.817C205.115 442.615 217.285 442.923 229.427 443.708C235.792 444.114 242.185 443.68 248.55 444.604C250.438 444.884 251.473 445.528 252.271 447.153C256.621 456.074 258.51 465.723 260.272 475.344C260.958 479.069 261.028 483.046 261.545 486.827C262.93 496.981 262.105 506.952 260.636 516.979C259.783 522.847 258.859 528.701 257.81 534.541C256.188 543.56 252.732 551.878 248.55 559.945C244.941 566.919 239.611 572.465 234.169 578.011C227.944 584.355 220.292 588.15 212.291 591.413C210.248 592.239 208.024 592.869 205.842 593.051C202.569 593.332 199.407 593.99 196.218 594.746C192.007 595.74 187.713 596.076 183.39 595.922C181.474 595.852 180.55 595.208 181.25 593.177C181.446 592.617 181.585 592.043 181.711 591.455C183.166 584.481 183.922 577.604 179.305 571.344C179.053 571.008 179.053 570.49 178.942 570.07L178.928 570.028ZM319.403 437.616C317.095 438.442 314.689 438.232 312.324 438.302C280.612 439.142 248.927 438.344 217.229 437.321C216.334 437.293 215.452 437.153 214.557 437.111C203.702 436.579 192.874 435.837 182.047 434.885C173.458 434.128 164.827 433.75 156.252 432.798C139.857 430.963 123.42 429.409 107.081 426.958C92.519 424.787 77.9147 423.009 63.6182 419.368C54.2318 416.987 44.8873 414.508 36.2002 410.083C28.8142 406.316 23.7502 400.49 21.2183 392.605C19.9593 388.67 19.0081 384.623 18.0708 380.603C12.9789 358.756 11.0484 336.517 10.2651 314.166C9.90134 303.607 9.24386 293.047 9.85937 282.446C10.6148 269.366 11.1184 256.271 11.8738 243.191C12.4473 233.234 13.1607 223.277 14.028 213.348C15.301 198.965 16.6439 184.582 18.2247 170.242C19.2598 160.929 19.8334 151.546 21.6939 142.331C24.1419 130.217 26.7018 118.201 31.542 106.689C35.3609 97.6425 41.7398 91.8166 50.5387 88.3715C59.9811 84.6884 69.8012 82.2516 79.7612 80.375C87.8187 78.8625 96.0022 78.4004 104.088 77.252C117.223 75.4034 130.415 74.3951 143.662 74.227C144.613 74.227 145.718 73.7929 146.446 74.7592C146.586 75.8375 146.026 76.5658 145.564 77.308C143.704 80.2909 143.998 83.2879 145.564 86.2149C146.32 87.6573 147.215 89.0578 148.236 90.3182C155.077 98.7769 163.568 105.261 173.066 110.387C184.439 116.521 196.903 119.532 209.339 122.557C214.543 123.817 219.831 124.643 225.216 124.853C231.917 125.119 237.638 122.234 243.374 119.405C255.152 113.622 265.966 106.185 277.311 99.6592C281.745 97.1104 284.305 93.8473 284.081 88.6516C283.941 87.3212 283.689 86.0048 283.675 84.6744C283.62 81.6914 283.675 81.5794 286.557 82.0415C295.342 83.47 304.127 84.9965 312.898 86.4809C320.368 87.7413 327.726 89.4779 335.07 91.3545C348.332 94.7296 361.579 98.1887 374.029 104.001C383.891 108.608 393.291 114 400.831 122.15C405.574 127.276 408.483 133.452 411.505 139.6C413.505 143.661 415.897 147.695 416.415 152.204C417.478 161.335 419.311 170.326 419.87 179.555C420.611 191.655 420.08 203.657 419.297 215.686C419.129 218.291 418.443 218.725 415.771 217.871C411.91 216.639 407.924 216.037 403.951 215.77C391.333 214.944 378.911 212.465 366.293 211.723C362.083 211.471 358.026 212.017 353.927 212.619C347.954 213.488 344.541 217.185 342.456 222.591C340.47 227.772 339.379 233.122 338.651 238.612C337.28 248.919 335.686 259.212 334.343 269.52C333.308 277.488 332.524 285.485 331.615 293.467C329.922 308.242 328.118 323.003 326.565 337.792C325.334 349.471 323.949 361.151 322.312 372.775C320.76 383.74 320.69 394.748 321.235 405.769C321.557 412.379 324.774 416.917 331.237 419.102C335.924 420.684 340.722 421.622 345.59 422.183C355.046 423.289 364.559 423.723 374.071 423.961C375.022 423.989 376.141 423.541 377.12 424.9C373.749 428.023 370.14 430.613 365.692 432.07C361.019 433.61 356.291 434.745 351.409 435.361C340.778 436.705 330.16 438.064 319.417 437.602L319.403 437.616ZM258.845 6.68333C256.271 10.6186 254.509 14.2458 252.942 17.9149C245.192 36.1208 238.758 54.8028 233.833 73.9889C230.252 87.9374 227.007 101.97 226.503 116.451C226.433 118.369 225.636 119.181 223.79 119.041C222.307 118.929 220.81 118.943 219.369 118.621C212.137 117.025 204.863 115.526 197.701 113.622C187.027 110.779 176.717 107.04 167.667 100.429C161.637 96.018 156.112 91.1304 151.594 85.1225C150.167 83.2319 150.083 81.4113 150.964 79.2826C152.881 74.5911 155.119 70.1097 157.665 65.7123C167.345 48.9489 181.124 36.1768 197.169 25.8975C211.661 16.6125 227.608 10.4786 244.619 7.46759C249.053 6.68334 253.544 5.40892 258.845 6.68333ZM110.55 607.448C109.124 610.501 109.459 612.84 110.187 615.137C110.984 617.643 111.74 620.178 112.817 622.573C115.67 628.917 120.371 631.592 127.491 631.088C129.869 630.92 132.233 630.653 134.597 630.513C136.975 630.387 139.367 630.415 141.661 631.186C144.221 632.054 144.781 633.342 143.102 635.457C141.186 637.866 138.948 639.994 136.108 641.381C126.428 646.128 116.02 648.607 105.682 651.24C100.926 652.445 95.9742 653.257 91.1341 652.767C77.481 651.408 67.647 657.22 60.2609 668.186C59.3097 669.614 58.5123 671.141 57.5471 672.821C57.0155 672.177 56.6658 671.897 56.4979 671.547C49.3217 656.52 47.0835 640.667 48.6502 624.183C49.0699 619.744 51.2521 617.055 55.7425 615.655C68.1366 611.761 80.7404 609.185 93.694 608.386C98.9958 608.064 104.312 607.784 110.564 607.434L110.55 607.448ZM84.0698 459.799C91.4139 459.295 99.0797 460.611 106.802 460.989C112.439 461.269 118.02 462.25 123.532 463.482C132.499 465.499 137.311 472.627 135.87 481.254C135.311 484.657 133.716 486.883 130.568 488.312C123.798 491.351 117.153 494.698 110.355 497.709C98.3803 503.017 86.0702 507.358 73.2844 510.257C68.5842 511.321 66.9755 510.341 64.6394 506.154C60.7505 499.179 58.6102 491.589 56.8616 483.914C55.8544 479.461 55.4908 474.783 55.7985 470.148C56.2601 463.468 58.6242 462.095 63.2265 461.367C70.0111 460.303 76.7816 459.589 84.0558 459.813L84.0698 459.799ZM255.236 591.329C257.237 591.301 258.887 592.029 260.51 592.743C264.203 594.382 267.546 596.567 270.778 599.003C277.367 603.947 283.27 609.563 288.376 616.047C289.677 617.699 290.432 619.058 289.061 621.186C287.872 623.035 287.466 625.318 287.089 627.545C285.382 637.502 288.809 646.03 294.545 653.817C295.972 655.75 296.042 656.912 294.517 658.747C288.879 665.525 283.592 672.541 281.018 681.168C280.528 682.834 279.619 682.918 278.388 682.162C277.632 681.7 276.975 681.084 276.289 680.51C271.002 676.098 266.707 670.748 262.413 665.413C254.929 656.072 248.564 646.044 243.766 635.051C242.269 631.634 242.339 631.564 245.108 629.099C248.354 626.228 251.445 623.217 253.809 619.562C256.663 615.165 257.586 610.571 255.236 605.613C254.285 603.597 253.502 601.496 252.704 599.409C252.075 597.715 251.837 595.95 252.075 594.144C252.341 592.183 253.39 591.217 255.222 591.357L255.236 591.329ZM283.494 75.4734C294.489 61.1468 307.037 49.0889 323.194 41.4425C335.672 35.5326 348.793 31.5133 362.46 30.3509C363.118 31.6533 362.782 32.3396 362.39 32.9698C357.648 40.5602 354.347 48.8649 350.794 57.0295C347.17 65.3342 343.268 73.5408 340.806 82.3216C339.756 86.1028 339.057 86.551 335.07 85.6967C326.089 83.7921 317.151 81.7054 308.128 80.0249C301.581 78.8065 295.16 76.7338 288.376 76.9299C286.753 76.9719 285.256 76.3557 283.48 75.4594L283.494 75.4734ZM126.484 625.388C124.036 625.948 121.224 625.136 119.182 622.209C116.566 618.456 115.53 614.128 114.775 609.731C114.551 608.47 114.985 607.266 116.23 606.748C119 605.585 120.972 603.205 123.728 601.986C131.142 598.695 137.213 593.388 143.228 588.15C148.264 583.752 153.818 580.041 158.854 575.658C160.267 574.425 162.155 573.515 163.988 573.025C171.36 571.064 177.109 573.949 177.207 581.988C177.235 584.061 177.207 586.091 176.717 588.178C174.815 596.216 170.241 602.855 165.233 609.059C160.7 614.688 155.035 619.338 149.663 624.225C147.285 626.382 145.383 626.984 142.277 625.906C139.423 624.926 136.276 623.889 133.128 624.772C131.212 625.318 129.309 625.276 126.47 625.402L126.484 625.388ZM327.684 495.076C322.76 494.88 318.969 497.219 315.22 499.67C313.723 500.65 312.282 501.7 310.828 502.722C301.637 509.137 297.301 518.281 296.181 529.149C295.692 533.798 295.328 534.163 291.495 531.334C285.34 526.796 280.612 520.83 275.604 515.13C270.246 509.038 266.931 502.61 268.176 494.208C268.666 490.931 268.246 490.931 271.645 490.146C278.388 488.578 283.522 482.136 279.982 474.069C279.549 473.075 279.101 472.081 278.276 470.246C296.279 476.912 312.59 484.573 327.698 495.09L327.684 495.076ZM341.687 509.949C340.512 509.949 339.323 510.019 338.148 509.935C336.329 509.809 334.888 510.523 333.923 511.937C332.496 514.038 330.664 515.789 329.083 517.735C326.145 521.362 326.999 527.006 330.636 529.653C332.161 530.759 334.049 530.563 335.686 531.264C336.469 531.6 337.644 531.362 337.91 532.412C338.497 534.807 340.442 536.375 341.365 538.546C341.477 538.826 341.141 539.4 340.876 539.708C334.189 547.173 327.88 551.038 317.318 546.879C312.24 544.876 308.282 541.347 304.365 537.622C301.609 535.003 301.008 532.146 301.651 528.771C302.798 522.763 304.267 516.937 308.743 512.288C312.59 508.296 316.591 504.515 321.809 502.512C324.509 501.476 327.446 500.16 330.44 501.294C334.902 502.975 338.553 505.944 341.701 509.935L341.687 509.949ZM233.148 118.061C232.309 116.226 232.644 114.728 232.616 113.286C232.477 108.51 233.246 103.79 234.099 99.141C236.589 85.5426 239.975 72.1823 244.045 58.9621C249.151 42.4368 254.845 26.2056 262.972 10.8987C263.644 9.63828 263.993 7.56563 265.63 7.67766C267.49 7.8037 267.421 10.1144 268.204 11.4729C268.414 11.837 268.358 12.3552 268.498 12.7753C270.652 19.2734 271.953 25.9955 273.464 32.6477C275.296 40.7703 276.471 48.9909 276.485 57.3376C276.485 58.528 276.513 59.7324 276.695 60.8947C278.15 70.3198 278.514 79.8148 278.388 89.3379C278.36 91.8447 277.339 93.4272 275.156 94.6876C265.238 100.373 255.39 106.213 245.5 111.955C241.555 114.252 237.513 116.353 233.162 118.075L233.148 118.061ZM59.9671 509.459C58.2325 509.949 56.6938 510.411 55.141 510.803C49.0559 512.33 42.761 511.433 36.5919 512.484C33.0947 513.072 30.8985 510.845 29.8913 506.784C28.7862 502.33 27.779 497.849 26.6879 493.395C25.4569 488.396 24.7574 483.27 26.1423 478.019C27.1075 474.391 29.052 471.731 32.2974 470.344C37.2074 468.243 42.3133 466.633 47.8109 466.969C51.2242 467.179 51.5179 467.375 50.7905 470.568C50.4548 472.053 50.3289 473.509 50.4128 474.994C50.8605 483.648 53.0008 491.939 55.7146 500.118C56.7777 503.339 59.3097 505.874 59.9811 509.473L59.9671 509.459ZM91.8615 686.405C83.832 686.237 76.7956 685.173 69.8432 683.492C67.6749 682.974 65.5626 682.246 63.6322 681.098C61.7297 679.963 61.0443 678.563 61.9815 676.294C64.2617 670.804 67.549 666.085 72.3052 662.556C80.1529 656.744 88.8539 656.45 97.7787 659.377C102.577 660.945 105.948 664.642 107.207 669.348C108.186 672.989 107.767 676.994 106.843 680.846C106.284 683.17 105.221 684.417 102.913 685.005C98.9818 686.013 95.051 686.573 91.8615 686.391V686.405ZM209.101 598.289C218.334 595.516 226.182 591.903 233.148 586.329C235.12 584.747 236.533 581.526 239.457 581.96C242.213 582.366 244.143 584.971 246.619 586.315C246.997 586.525 247.333 586.847 247.64 587.17C248.214 587.744 248.41 588.346 247.878 589.13C244.521 594.144 246.018 599.045 248.298 603.905C249.249 605.922 250.298 607.882 250.97 610.025C251.333 611.201 251.585 612.378 251.012 613.498C248.913 617.629 246.535 621.551 242.828 624.478C241.234 625.738 239.555 625.794 237.876 624.716C236.757 623.987 235.638 623.245 234.617 622.377C229.049 617.713 223.384 613.162 218.026 608.274C214.907 605.417 212.319 601.958 209.087 598.317L209.101 598.289ZM286.124 684.795C287.788 679.123 289.369 673.997 292.614 669.446C294.866 666.281 297.72 663.676 300.07 660.609C303.595 656.03 307.414 651.674 311.247 647.347C317.095 640.723 324.285 635.681 331.489 630.682C332.216 630.177 333 629.743 333.797 629.337C334.623 628.917 335.574 628.707 336.357 629.211C337.364 629.855 336.637 630.794 336.483 631.62C335.77 635.471 333.727 638.804 332.258 642.361C326.691 655.834 315.934 665.329 305.918 675.132C300.854 680.075 293.705 682.638 286.151 684.795H286.124ZM334.119 624.001C327.894 626.424 322.914 629.869 318.242 633.805C312.436 638.692 307.135 644.07 301.903 649.56C299.846 651.73 299.777 651.674 297.916 649.322C293.37 643.552 291.957 636.759 291.957 629.673C291.957 625.878 293.468 622.573 296.965 620.262C300.616 617.853 304.449 615.935 308.659 615.01C318.605 612.826 327.083 615.333 334.105 624.001H334.119ZM369.664 32.9838C371.889 39.4118 373.078 45.4478 372.994 51.7498C372.924 56.9595 372.91 62.1691 373.05 67.3788C373.287 76.3137 372.574 85.1925 372.07 94.0994C372.015 95.0517 372.322 96.4521 370.644 96.2281C369.357 96.06 368.489 95.2618 368.615 93.7773C368.643 93.4832 368.685 93.1891 368.741 92.895C370.784 81.9995 370.336 70.992 370.224 60.0124C370.196 56.9175 369.65 53.8085 369.329 50.7135C369.203 49.6071 368.727 48.7108 367.552 48.4167C366.293 48.1086 365.132 48.2767 364.433 49.4811C363.537 51.0216 362.67 52.5901 361.957 54.2286C357.424 64.5639 352.92 74.9132 349.632 85.7387C349.507 86.1588 349.339 86.579 349.171 86.9851C348.639 88.2875 347.702 88.8337 346.345 88.3715C344.974 87.9094 345.198 86.747 345.478 85.7667C345.953 84.0442 346.597 82.3776 347.156 80.6831C352.053 65.8103 359.802 52.1839 365.79 37.7873C366.489 36.0928 367.454 34.3422 369.706 32.9838H369.664ZM175.528 459.883C175.864 461.941 174.549 463.132 172.605 464.014C164.785 467.627 156.643 470.4 148.502 473.145C141.676 475.456 141.745 475.386 139.046 468.552C138.276 466.605 138.346 465.737 140.528 465.022C148.558 462.39 156.504 459.491 164.505 456.816C166.589 456.116 168.73 455.387 170.982 455.359C174.004 455.331 175.416 456.676 175.514 459.869L175.528 459.883ZM350.905 528.995C350.836 529.443 350.822 530.535 350.458 531.474C349.814 533.126 348.583 534.149 346.681 534.023C344.96 533.91 343.729 532.832 343.673 531.236C343.533 527.006 340.848 526.138 337.42 525.928C336.553 525.872 335.644 525.648 334.832 525.326C332.72 524.485 331.867 522.469 333.112 520.69C334.371 518.87 335.938 517.245 337.532 515.691C338.288 514.948 339.463 515.046 340.526 515.285C346.037 516.489 350.905 522.637 350.919 528.995H350.905ZM26.1843 512.862C20.7147 515.565 15.0912 515.705 9.43972 515.453C7.06163 515.341 5.48089 513.688 5.18712 511.601C4.90735 509.557 6.29227 508.604 7.80306 507.932C12.2655 505.944 16.7838 504.039 21.2882 502.134C22.5612 501.602 23.1487 502.232 23.4845 503.479C24.2818 506.476 25.1911 509.445 26.1703 512.862H26.1843ZM346.177 561.121C346.443 563.278 346.513 565.841 343.491 566.989C340.917 567.969 338.581 566.723 336.693 563.418C335.658 561.625 334.72 559.777 333.825 557.9C331.615 553.293 331.643 553.307 335.938 550.898C337.085 550.254 338.218 549.498 339.169 548.587C340.512 547.299 341.463 547.565 342.344 549.007C344.513 552.592 346.177 556.346 346.177 561.107V561.121ZM361.579 548.993C361.607 551.976 361.537 553.979 359.578 555.085C357.704 556.136 356.249 554.721 354.668 554.007C350.22 552.032 348.569 547.313 345.142 544.344C344.625 543.896 344.862 543.308 345.254 542.775C346.051 541.711 346.583 540.325 347.59 539.596C349.325 538.336 351.395 536.515 353.577 537.86C358.054 540.605 360.39 544.988 361.565 549.007L361.579 548.993ZM57.4492 515.565C54.9312 520.55 48.4544 526.642 44.5655 527.959C42.2574 528.743 40.8025 528.225 39.7254 526.236C38.4944 523.967 38.6203 519.122 39.9772 518.253C40.3269 518.029 40.8025 517.973 41.2362 517.917C46.468 517.147 51.7138 516.391 57.4352 515.565H57.4492ZM19.4557 492.051C15.3989 491.253 11.8038 489.432 8.78225 486.505C7.24348 485.021 6.58602 483.046 6.47411 480.904C6.37619 479.013 7.43933 477.851 8.96411 477.066C10.5588 476.24 11.7479 476.898 12.7551 478.243C13.6503 479.433 14.7695 480.693 16.1823 480.917C20.2111 481.59 20.4349 484.251 20.0432 487.416C19.8614 488.844 20.4209 490.357 19.4557 492.037V492.051ZM354.906 520.34C361.145 523.603 365.118 527.482 367.16 533.21C367.748 534.863 367.202 536.151 366.139 537.244C365.118 538.28 363.789 538.49 362.488 537.692C360.614 536.529 358.767 535.297 356.921 534.065C356.123 533.532 355.76 532.748 355.885 531.782C356.375 528.253 356.109 524.752 354.892 520.354L354.906 520.34ZM265.462 465.667C268.917 468.734 272.345 471.759 274.779 475.694C276.191 477.977 276.163 480.679 274.918 482.92C273.953 484.685 271.799 485.007 269.757 484.895C268.638 484.839 267.728 484.601 267.518 483.256C266.651 477.71 265.742 472.165 264.875 466.605C264.847 466.409 265.14 466.157 265.462 465.653V465.667ZM305.82 546.949C309.247 549.091 311.681 550.884 314.493 551.71C318.354 552.845 317.724 554.161 317.514 557.032C317.402 558.516 317.304 560.169 315.612 560.743C313.919 561.317 312.38 560.673 311.149 559.441C310.422 558.698 309.653 557.928 309.191 557.032C307.694 554.147 307.107 550.982 305.834 546.949H305.82ZM15.4129 468.832C15.4129 466.885 15.287 464.7 17.3434 463.734C19.4277 462.754 20.9945 464.378 22.4773 465.569C23.7502 466.591 25.0372 467.655 24.1839 469.686C23.3446 471.717 21.7079 473.313 21.2183 475.568C20.9525 476.758 19.8054 476.38 19.008 475.918C16.2802 474.349 15.1751 471.927 15.3989 468.818L15.4129 468.832Z" fill="#61251A"/>
<path d="M95.6104 253.218C94.3934 266.047 95.5684 278.833 96.0021 291.647C96.9813 293.341 96.7855 295.204 96.7155 297.038C96.7855 297.935 96.8554 298.817 96.9253 299.713C97.8066 302.024 97.7926 304.433 97.7366 306.842C98.7858 313.172 100.646 319.278 102.633 325.384C105.836 335.215 111.711 343.127 119.643 349.499C130.275 358.056 142.417 363.504 155.902 365.674C167.625 367.565 179.319 366.711 190.972 364.61C199.771 363.028 208.36 360.857 216.613 357.342C227.301 352.79 233.987 344.822 238.016 334.08C242.996 320.79 246.787 307.248 248.731 293.159C250.48 280.471 252.173 267.783 252.844 254.983C253.446 243.331 252.55 231.75 251.068 220.224C250.116 212.843 248.997 205.491 247.305 198.223C242.954 179.569 231.148 166.853 214.599 158.618C200.037 151.364 184.327 147.765 167.96 148.717C150.055 149.767 133.576 155.215 119.167 166.279C116.51 168.323 114.663 170.844 113.152 173.869C105.962 188.294 102.003 203.643 99.5692 219.468C99.0796 222.689 98.4081 225.882 97.8346 229.089C97.6387 231.764 97.9885 234.494 96.9533 237.071C96.5756 241.539 96.1839 246.006 95.8062 250.474C96.002 251.398 95.9601 252.322 95.6244 253.204L95.6104 253.218ZM101.332 269.954C100.912 255.151 102.703 241.595 104.088 228.01C104.605 223.011 105.458 218.025 106.48 213.11C109.026 200.716 112.523 188.602 118.09 177.16C119.559 174.135 121.308 171.614 124.091 169.654C128.358 166.629 132.779 163.996 137.647 162.049C146.096 158.688 154.727 155.873 163.75 154.865C174.003 153.716 184.131 155.831 194.259 157.26C206.373 158.982 215.9 165.872 225.202 172.973C232.588 178.602 237.331 186.361 240.31 195.156C242.269 200.94 242.968 207.004 243.877 213.012C245.262 222.24 247.333 231.385 247.011 240.824C246.745 248.541 246.675 256.271 246.339 264.002C246.032 271.018 244.339 277.796 243.905 284.757C243.751 287.347 243.528 290.05 242.996 292.697C241.541 299.965 240.086 307.22 238.072 314.362C236.016 321.658 234.267 329.025 230.938 335.901C228.658 340.592 226.405 345.228 221.747 348.169C213.829 353.168 205.114 356.039 196.064 357.888C186.006 359.947 175.808 361.081 165.554 360.451C158.644 360.031 151.705 359.541 145.075 356.964C141.871 355.731 138.92 354.051 135.8 352.692C123.742 347.413 114.859 338.8 109.501 326.7C105.109 316.799 103.332 306.183 102.437 295.582C101.696 286.731 100.604 277.81 101.346 269.954H101.332Z" fill="#61251A"/>
<path d="M240.716 100.499C240.296 107.068 242.227 107.404 246.927 104.757C254.817 100.317 262.72 95.8779 270.68 91.5505C273.673 89.926 274.821 87.6573 274.583 84.2822C273.492 68.6252 273.939 52.8001 269.771 37.4512C269.421 36.1768 269.449 34.8043 269.267 33.4879C269.001 31.5693 268.623 29.6927 267.365 28.1242C265.154 25.3793 263.35 25.4493 261.461 28.3763C258.971 32.2695 257.055 36.4288 255.502 40.7982C249.669 57.1975 244.996 73.9049 241.863 91.0184C241.275 94.1974 240.352 97.4044 240.702 100.499H240.716Z" fill="#61251A"/>
</g>
</g>
<g id="id3">
<g id="Vector_4">
<path d="M258.845 6.68333C253.529 5.40892 249.053 6.68334 244.619 7.46759C227.608 10.4926 211.675 16.6125 197.169 25.8975C181.124 36.1768 167.359 48.9349 157.664 65.7123C155.119 70.1097 152.88 74.6051 150.964 79.2826C150.097 81.4113 150.18 83.2319 151.593 85.1225C156.098 91.1304 161.637 96.018 167.666 100.429C176.703 107.04 187.027 110.779 197.7 113.622C204.863 115.526 212.123 117.011 219.369 118.621C220.81 118.943 222.307 118.929 223.789 119.041C225.636 119.181 226.447 118.369 226.503 116.451C227.007 101.97 230.252 87.9374 233.833 73.9889C238.757 54.8168 245.192 36.1348 252.942 17.9149C254.509 14.2458 256.257 10.6186 258.845 6.68333Z" fill="#A94736"/>
<path d="M119.321 448.273C124.147 446.298 129.169 445.276 134.345 444.548C139.983 443.75 145.592 443.89 151.23 443.834C158.979 443.75 166.463 444.842 173.961 447.181C183.026 450.01 191.363 454.029 198.973 459.561C210.402 467.865 219.271 478.201 223.789 491.855C224.909 495.244 226.126 498.591 227.371 501.924C228.769 505.649 231.343 508.1 235.26 509.108C237.414 509.669 239.513 510.397 241.639 511.069C243.024 511.503 243.584 512.498 243.066 513.842C242.115 516.307 242.604 518.856 242.45 521.362C242.185 525.802 241.247 526.824 236.813 526.922C232.476 527.02 229.287 528.589 226.965 532.524C224.615 536.501 222.852 540.745 220.656 544.792C215.858 553.629 208.821 560.085 199.855 564.216C195.056 566.429 189.797 567.731 184.579 568.852C182.69 569.258 180.816 569.636 178.927 570.042C179.039 570.476 179.039 570.994 179.291 571.316C183.907 577.576 183.152 584.453 181.697 591.427C181.571 592.001 181.431 592.589 181.236 593.149C180.536 595.18 181.459 595.824 183.376 595.894C187.712 596.048 191.993 595.712 196.204 594.718C199.379 593.962 202.554 593.318 205.828 593.023C208.01 592.827 210.234 592.211 212.277 591.385C220.292 588.122 227.93 584.313 234.155 577.983C239.597 572.437 244.926 566.891 248.536 559.917C252.718 551.85 256.173 543.532 257.796 534.513C258.845 528.673 259.755 522.819 260.622 516.951C262.077 506.924 262.916 496.953 261.531 486.799C261.013 483.018 260.944 479.041 260.258 475.316C258.496 465.695 256.607 456.045 252.257 447.125C251.459 445.5 250.424 444.842 248.536 444.576C242.171 443.652 235.778 444.086 229.413 443.68C217.271 442.895 205.1 442.587 192.972 441.789C185.586 441.313 178.144 441.257 170.828 440.094C160.294 438.428 149.565 438.876 139.032 436.845C134.303 435.935 129.323 435.963 124.511 435.025C122.567 434.647 121.42 435.361 120.888 437.321C119.923 440.921 118.902 444.492 119.335 448.273H119.321Z" fill="#A94736"/>
<path d="M283.493 75.4735C285.27 76.3557 286.767 76.986 288.389 76.9439C295.174 76.7479 301.595 78.8205 308.142 80.0389C317.164 81.7195 326.103 83.8061 335.084 85.7107C339.057 86.551 339.756 86.1029 340.819 82.3357C343.267 73.5548 347.184 65.3482 350.807 57.0436C354.36 48.8789 357.662 40.5743 362.404 32.9838C362.796 32.3676 363.131 31.6674 362.474 30.365C348.793 31.5274 335.685 35.5326 323.207 41.4565C307.05 49.117 294.503 61.1609 283.507 75.4875L283.493 75.4735Z" fill="#A94736"/>
<path d="M126.484 625.388C129.323 625.262 131.226 625.304 133.142 624.758C136.29 623.861 139.437 624.898 142.291 625.892C145.396 626.97 147.299 626.368 149.677 624.211C155.063 619.338 160.714 614.688 165.246 609.045C170.254 602.827 174.815 596.203 176.731 588.164C177.221 586.077 177.249 584.047 177.221 581.974C177.123 573.921 171.36 571.05 164.001 573.011C162.169 573.501 160.28 574.412 158.868 575.644C153.832 580.027 148.278 583.738 143.242 588.136C137.227 593.388 131.156 598.681 123.742 601.972C120.986 603.205 119.014 605.572 116.244 606.734C114.999 607.266 114.565 608.456 114.789 609.717C115.544 614.114 116.58 618.442 119.195 622.195C121.238 625.122 124.05 625.934 126.498 625.374L126.484 625.388Z" fill="#A94736"/>
<path d="M341.687 509.949C338.539 505.957 334.888 502.989 330.426 501.308C327.432 500.174 324.494 501.49 321.795 502.526C316.577 504.529 312.576 508.296 308.729 512.302C304.253 516.951 302.784 522.777 301.637 528.785C300.993 532.16 301.595 535.017 304.351 537.636C308.268 541.361 312.226 544.904 317.304 546.893C327.866 551.052 334.175 547.187 340.861 539.722C341.141 539.414 341.463 538.826 341.351 538.56C340.428 536.403 338.483 534.821 337.896 532.426C337.644 531.376 336.455 531.614 335.672 531.278C334.035 530.577 332.132 530.773 330.622 529.667C326.97 527.006 326.131 521.376 329.069 517.749C330.65 515.789 332.482 514.052 333.909 511.951C334.874 510.523 336.315 509.809 338.134 509.949C339.309 510.033 340.498 509.963 341.673 509.963L341.687 509.949Z" fill="#A94736"/>
<path d="M233.148 118.061C237.513 116.339 241.541 114.224 245.486 111.941C255.376 106.199 265.224 100.359 275.142 94.6736C277.325 93.4272 278.332 91.8307 278.374 89.3239C278.5 79.8008 278.136 70.3058 276.681 60.8807C276.499 59.7044 276.471 58.5 276.471 57.3236C276.471 48.9629 275.296 40.7563 273.45 32.6337C271.939 25.9815 270.638 19.2594 268.484 12.7613C268.344 12.3412 268.4 11.823 268.19 11.4589C267.406 10.1004 267.476 7.7897 265.616 7.66366C263.979 7.55163 263.63 9.62429 262.958 10.8847C254.845 26.1916 249.137 42.4368 244.031 58.9481C239.947 72.1684 236.561 85.5426 234.085 99.127C233.232 103.791 232.463 108.496 232.602 113.272C232.644 114.714 232.295 116.212 233.134 118.047L233.148 118.061ZM240.716 100.499C240.366 97.4044 241.289 94.1974 241.877 91.0184C245.01 73.9049 249.683 57.1976 255.516 40.7983C257.069 36.4289 258.985 32.2696 261.475 28.3763C263.364 25.4354 265.168 25.3653 267.379 28.1242C268.624 29.6787 269.015 31.5693 269.281 33.488C269.463 34.8044 269.435 36.1768 269.785 37.4512C273.939 52.8001 273.506 68.6252 274.597 84.2822C274.835 87.6573 273.673 89.9261 270.694 91.5506C262.734 95.878 254.845 100.303 246.941 104.757C242.227 107.404 240.31 107.068 240.73 100.499H240.716Z" fill="#A94736"/>
<path d="M59.967 509.459C59.2955 505.86 56.7636 503.325 55.7004 500.104C52.9866 491.925 50.8463 483.634 50.3987 474.98C50.3287 473.509 50.4406 472.039 50.7764 470.554C51.5038 467.361 51.2101 467.165 47.7968 466.955C42.2992 466.619 37.1933 468.229 32.2833 470.33C29.0379 471.717 27.0934 474.377 26.1282 478.005C24.7293 483.256 25.4427 488.382 26.6738 493.382C27.7649 497.835 28.7861 502.316 29.8772 506.77C30.8844 510.831 33.0806 513.058 36.5778 512.47C42.7328 511.419 49.0418 512.316 55.1269 510.789C56.6796 510.397 58.2184 509.935 59.953 509.445L59.967 509.459Z" fill="#A94736"/>
<path d="M209.101 598.289C212.333 601.944 214.92 605.389 218.04 608.246C223.384 613.148 229.063 617.685 234.631 622.349C235.652 623.203 236.771 623.959 237.89 624.688C239.569 625.766 241.247 625.71 242.842 624.449C246.549 621.523 248.927 617.587 251.025 613.47C251.599 612.35 251.347 611.187 250.984 609.997C250.326 607.854 249.263 605.894 248.312 603.877C246.031 599.031 244.535 594.116 247.892 589.102C248.41 588.318 248.228 587.716 247.654 587.141C247.346 586.833 247.011 586.497 246.633 586.287C244.157 584.943 242.213 582.338 239.471 581.932C236.547 581.498 235.148 584.719 233.162 586.301C226.195 591.889 218.348 595.488 209.115 598.261L209.101 598.289Z" fill="#A94736"/>
<path d="M286.123 684.795C293.677 682.638 300.826 680.076 305.889 675.132C315.919 665.329 326.663 655.834 332.23 642.361C333.699 638.804 335.741 635.471 336.455 631.62C336.609 630.794 337.35 629.855 336.329 629.211C335.546 628.707 334.58 628.917 333.769 629.337C332.972 629.743 332.188 630.178 331.461 630.682C324.257 635.681 317.08 640.723 311.219 647.347C307.386 651.674 303.567 656.03 300.042 660.609C297.692 663.676 294.838 666.281 292.586 669.446C289.341 673.998 287.76 679.123 286.095 684.795H286.123Z" fill="#A94736"/>
<path d="M369.664 32.9838C367.426 34.3422 366.461 36.0928 365.748 37.7873C359.774 52.1839 352.025 65.8243 347.115 80.6831C346.555 82.3776 345.925 84.0441 345.436 85.7667C345.156 86.747 344.946 87.9094 346.303 88.3715C347.66 88.8337 348.611 88.2875 349.129 86.9851C349.297 86.579 349.465 86.1588 349.591 85.7387C352.878 74.9132 357.382 64.5639 361.915 54.2286C362.628 52.6041 363.495 51.0356 364.391 49.4811C365.09 48.2767 366.251 48.1086 367.51 48.4167C368.685 48.7108 369.175 49.6071 369.287 50.7134C369.622 53.8084 370.154 56.9034 370.182 60.0124C370.294 70.992 370.742 82.0135 368.699 92.895C368.643 93.1891 368.601 93.4832 368.573 93.7773C368.447 95.2618 369.315 96.06 370.602 96.2281C372.28 96.4521 371.973 95.0377 372.029 94.0994C372.532 85.2065 373.246 76.3137 373.008 67.3788C372.868 62.1691 372.896 56.9594 372.952 51.7498C373.036 45.4478 371.833 39.4118 369.622 32.9838H369.664Z" fill="#A94736"/>
<path d="M175.528 459.883C175.43 456.69 174.017 455.345 170.996 455.373C168.744 455.401 166.603 456.13 164.519 456.83C156.503 459.505 148.558 462.39 140.542 465.036C138.36 465.751 138.29 466.619 139.059 468.566C141.759 475.4 141.689 475.47 148.516 473.159C156.657 470.4 164.799 467.627 172.618 464.028C174.549 463.132 175.878 461.955 175.542 459.897L175.528 459.883Z" fill="#A94736"/>
<path d="M158.504 569.02C147.718 566.891 137.549 563.208 128.204 557.34C127.994 557.69 127.491 558.18 127.589 558.376C129.547 562.536 130.358 567.073 131.883 571.373C133.324 575.42 136.094 578.809 138.933 582.058C140.081 583.374 141.116 583.15 142.305 582.03C144.683 579.817 146.963 577.521 149.495 575.434C152.363 573.067 155.51 571.177 158.504 569.02Z" fill="#A94736"/>
<path d="M101.332 269.954C100.604 277.796 101.682 286.717 102.423 295.582C103.318 306.183 105.095 316.799 109.487 326.7C114.845 338.8 123.728 347.413 135.786 352.692C138.906 354.051 141.857 355.731 145.061 356.964C151.691 359.527 158.63 360.017 165.54 360.451C175.808 361.081 186.006 359.947 196.05 357.888C205.101 356.025 213.816 353.154 221.733 348.169C226.391 345.228 228.658 340.606 230.924 335.901C234.253 329.025 236.002 321.658 238.058 314.362C240.072 307.22 241.527 299.965 242.982 292.697C243.514 290.05 243.724 287.347 243.891 284.756C244.311 277.782 246.018 271.018 246.325 264.002C246.661 256.271 246.745 248.555 246.997 240.824C247.319 231.385 245.262 222.24 243.863 213.011C242.954 207.004 242.269 200.94 240.296 195.156C237.317 186.375 232.56 178.616 225.188 172.973C215.886 165.872 206.374 158.982 194.245 157.26C184.117 155.817 174.003 153.716 163.736 154.865C154.713 155.873 146.068 158.688 137.633 162.049C132.765 163.982 128.344 166.629 124.078 169.654C121.294 171.628 119.545 174.149 118.076 177.16C112.509 188.616 109.026 200.716 106.466 213.11C105.459 218.039 104.591 223.011 104.074 228.01C102.675 241.595 100.884 255.151 101.318 269.954H101.332Z" fill="#A94736"/>
<path d="M265.462 465.667C265.14 466.171 264.846 466.423 264.874 466.619C265.742 472.165 266.651 477.71 267.518 483.27C267.728 484.615 268.637 484.853 269.756 484.909C271.785 485.021 273.939 484.685 274.918 482.934C276.149 480.679 276.177 477.991 274.778 475.708C272.358 471.773 268.917 468.748 265.462 465.681V465.667Z" fill="#A94736"/>
</g>
</g>
</g>
</g>
</svg>
